<?xml version="1.0" encoding="UTF-8"?>
<!DOCTYPE svg PUBLIC "-//W3C//DTD SVG 1.1//EN" "http://www.w3.org/Graphics/SVG/1.1/DTD/svg11.dtd">
<!-- Creator: CorelDRAW -->
<svg xmlns="http://www.w3.org/2000/svg" xml:space="preserve" width="297mm" height="210mm" style="shape-rendering:geometricPrecision; text-rendering:geometricPrecision; image-rendering:optimizeQuality; fill-rule:evenodd; clip-rule:evenodd"
viewBox="0 0 297 210"
 xmlns:xlink="http://www.w3.org/1999/xlink">
 <defs>
  <style type="text/css">
   <![CDATA[
    .str0 {stroke:#1F1A17;stroke-width:0.0762}
    .fil0 {fill:white}
    .fil1 {fill:#1F1A17;fill-rule:nonzero}
    .fil8 {fill:url(#id0)}
    .fil4 {fill:url(#id1)}
    .fil5 {fill:url(#id2)}
    .fil3 {fill:url(#id3)}
    .fil7 {fill:url(#id4)}
    .fil6 {fill:url(#id5)}
    .fil2 {fill:url(#id6)}
   ]]>
  </style>
  <linearGradient id="id0" gradientUnits="userSpaceOnUse" x1="-293.993" y1="141.765" x2="-221.429" y2="141.765">
   <stop offset="0" style="stop-color:#006F52"/>
   <stop offset="1" style="stop-color:#008F69"/>
  </linearGradient>
  <linearGradient id="id1" gradientUnits="userSpaceOnUse" xlink:href="#id0" x1="-464.917" y1="88.9147" x2="-376.038" y2="88.9147">
  </linearGradient>
  <linearGradient id="id2" gradientUnits="userSpaceOnUse" xlink:href="#id0" x1="-162.529" y1="89.7459" x2="-251.409" y2="89.7459">
  </linearGradient>
  <linearGradient id="id3" gradientUnits="userSpaceOnUse" xlink:href="#id0" x1="-532.142" y1="110.603" x2="-500.991" y2="110.603">
  </linearGradient>
  <linearGradient id="id4" gradientUnits="userSpaceOnUse" xlink:href="#id0" x1="-408.398" y1="36.8958" x2="-339.745" y2="36.8958">
  </linearGradient>
  <linearGradient id="id5" gradientUnits="userSpaceOnUse" xlink:href="#id0" x1="-356.6" y1="88.9672" x2="-272.649" y2="88.9672">
  </linearGradient>
  <linearGradient id="id6" gradientUnits="userSpaceOnUse" xlink:href="#id0" x1="-560.609" y1="37.7293" x2="-504.952" y2="37.7293">
  </linearGradient>
 </defs>
 <g id="Слой_x0020_1">
  <metadata id="CorelCorpID_0Corel-Layer"/>
  <rect class="fil0" x="-599.13" y="-21.4065" width="1419.26" height="292.374"/>
  <path class="fil1" d="M-67.6104 81.1815l-34.2685 0 0 -62.5004c0.0328,-1.5484 -0.2297,-2.6745 -0.7549,-3.308 -0.558,-0.6335 -1.5428,-0.9503 -2.987,-0.9149l-6.4992 0c-1.4443,-0.0354 -2.4947,0.2814 -3.0856,0.9149 -0.5906,0.6335 -0.8861,1.7596 -0.8533,3.308l0 141.471c-0.0328,1.5485 0.2627,2.6746 0.8533,3.308 0.5909,0.6334 1.6413,0.9501 3.0856,0.915l6.4992 0c1.4442,0.0351 2.429,-0.2816 2.987,-0.915 0.5252,-0.6334 0.7877,-1.7595 0.7549,-3.308l0 -64.612 34.2685 0 0 19.0036c0.0328,11.0853 2.0679,20.5519 6.171,28.4348 4.1029,7.8479 10.1099,13.8655 18.0532,18.0182 7.9107,4.1878 17.6266,6.2993 29.1479,6.3345 11.3901,-0.0352 21.0075,-2.1467 28.8852,-6.3345 7.8779,-4.1527 13.8518,-10.1703 17.9221,-18.0182 4.1031,-7.8829 6.1381,-17.3495 6.171,-28.4348l0 -50.2537c-0.0329,-11.0854 -2.0679,-20.552 -6.171,-28.4348 -4.0703,-7.8478 -10.0442,-13.8656 -17.9221,-18.0534 -7.8777,-4.1527 -17.4951,-6.2641 -28.8852,-6.2992 -11.5213,0.0351 -21.2372,2.1465 -29.1479,6.2992 -7.9433,4.1878 -13.9503,10.2056 -18.0532,18.0534 -4.1031,7.8828 -6.1382,17.3494 -6.171,28.4348l0 16.892zm92.1702 33.3617c0,8.27 -1.5097,15.238 -4.4968,21.0094 -2.987,5.7362 -7.3527,10.1 -13.1298,13.0914 -5.7443,3.0264 -12.8013,4.5045 -21.1715,4.5397 -8.403,-0.0352 -15.5257,-1.5133 -21.3028,-4.5397 -5.81,-2.9914 -10.2085,-7.3552 -13.1955,-13.0914 -2.9869,-5.7714 -4.4968,-12.7394 -4.4968,-21.0094l0 -50.2537c0,-8.27 1.5099,-15.2733 4.4968,-21.0095 2.987,-5.7362 7.3855,-10.1 13.1955,-13.1264 5.7771,-2.9912 12.8998,-4.5045 21.3028,-4.5045 8.3702,0 15.4272,1.5133 21.1715,4.5045 5.7771,3.0264 10.1428,7.3902 13.1298,13.1264 2.9871,5.7362 4.4968,12.7395 4.4968,21.0095l0 50.2537zm44.7066 -100.085c-1.4442,-0.0354 -2.4946,0.2814 -3.0854,0.9149 -0.5909,0.6335 -0.8862,1.7596 -0.8534,3.308l0 141.471c-0.0328,1.5485 0.2625,2.6746 0.8534,3.308 0.5908,0.6334 1.6412,0.9501 3.0854,0.915l6.4991 0c1.4444,0.0351 2.4291,-0.2816 2.9871,-0.915 0.5253,-0.6334 0.7878,-1.7595 0.755,-3.308l0 -52.154 42.3432 0c9.2237,-0.0353 17.1669,-1.9005 23.7974,-5.5955 6.6307,-3.66 11.7183,-8.9739 15.2962,-15.9418 3.5779,-6.9328 5.3831,-15.3084 5.416,-25.1269 -0.0329,-9.8184 -1.8381,-18.2293 -5.416,-25.1973 -3.5779,-6.968 -8.6655,-12.317 -15.2962,-16.0473 -6.6305,-3.7303 -14.5737,-5.5955 -23.7974,-5.6306l-52.5844 0zm10.2412 79.3922l0 -65.0341 41.1615 0c6.4008,0.0351 11.9151,1.3373 16.5106,3.9062 4.5953,2.6042 8.1732,6.3345 10.6351,11.1558 2.4945,4.8565 3.7419,10.6631 3.7747,17.4551 -0.0328,6.7921 -1.2802,12.5986 -3.7747,17.455 -2.4619,4.8213 -6.0398,8.5516 -10.6351,11.1206 -4.5955,2.6042 -10.1098,3.9063 -16.5106,3.9414l-41.1615 0zm203.838 -79.3922c-0.8862,0 -1.6739,0.1759 -2.3632,0.4926 -0.6894,0.3519 -1.2802,0.8797 -1.7724,1.6188l-56.7202 88.4719c-4.6283,7.2845 -8.7642,14.2525 -12.4732,20.8686 -3.6764,6.6512 -6.926,12.9153 -9.7817,18.8275l-0.5908 0c0.7877,-7.2847 1.3785,-14.71 1.7725,-22.3114 0.3938,-7.5663 0.5907,-15.2733 0.5907,-23.0858l0 -80.6593c0.0328,-1.5484 -0.2297,-2.6745 -0.7549,-3.308 -0.558,-0.6335 -1.5427,-0.9503 -2.987,-0.9149l-6.4992 0c-1.4444,-0.0354 -2.4946,0.2814 -3.0854,0.9149 -0.5908,0.6335 -0.8862,1.7596 -0.8535,3.308l0 141.471c-0.0327,1.5485 0.2627,2.6746 0.8535,3.308 0.5908,0.6334 1.641,0.9501 3.0854,0.915l6.4992 0c0.8862,0 1.6742,-0.2111 2.3634,-0.5983 0.6893,-0.4223 1.28,-0.9853 1.7725,-1.7244l58.0987 -90.5833c4.6283,-7.6014 8.6986,-14.5342 12.2435,-20.7631 3.5121,-6.2289 6.4665,-11.7539 8.8297,-16.6105l0.3938 0c-0.8861,7.4959 -1.5098,14.8158 -1.9367,21.9948 -0.4266,7.1791 -0.6235,14.2175 -0.6235,21.0799l0 82.9819c0,1.5485 0.2627,2.6746 0.8534,3.308 0.6237,0.6334 1.6412,0.9501 3.0854,0.915l6.4993 0c1.4442,0.0351 2.4946,-0.2816 3.0856,-0.915 0.5908,-0.6334 0.8862,-1.7595 0.8532,-3.308l0 -141.471c0.033,-1.5484 -0.2624,-2.6745 -0.8532,-3.308 -0.591,-0.6335 -1.6414,-0.9503 -3.0856,-0.9149l-6.4993 0zm37.0259 99.8738c0.0328,11.0854 2.1335,20.5871 6.3349,28.4701 4.2015,7.883 10.307,13.9359 18.316,18.1589 8.009,4.1878 17.7907,6.3345 29.312,6.3697 9.8801,0 18.3158,-1.3725 25.3403,-4.1527 6.9915,-2.7448 12.7358,-6.8623 17.1999,-12.317 4.4969,-5.4898 7.9105,-12.3172 10.2409,-20.4815 0.394,-1.2669 0.394,-2.3227 0,-3.2025 -0.3937,-0.8446 -1.1815,-1.5485 -2.3632,-2.0763l-6.1053 -2.5337c-1.1815,-0.3169 -2.1991,-0.2464 -3.0856,0.1759 -0.8532,0.4575 -1.5425,1.302 -2.035,2.5689 -1.8052,6.4048 -4.3328,11.6484 -7.5824,15.7659 -3.2494,4.1174 -7.4512,7.1791 -12.6045,9.1499 -5.1534,1.9707 -11.4884,2.9561 -19.0051,2.9561 -8.5015,-0.0352 -15.6572,-1.5836 -21.5657,-4.6102 -5.8753,-3.0617 -10.3394,-7.4606 -13.3921,-13.232 -3.0854,-5.7363 -4.5955,-12.6691 -4.6281,-20.7983l0 -50.2537c0,-8.1997 1.5098,-15.1676 4.5296,-20.9039 3.0199,-5.7362 7.4512,-10.1351 13.3266,-13.1617 5.8757,-3.0264 13.1297,-4.5748 21.7297,-4.5748 7.3855,-0.0352 13.622,0.9501 18.7098,2.8856 5.1205,1.9356 9.2892,4.9269 12.5387,8.9387 3.2169,4.0119 5.7443,9.1499 7.5498,15.4139 0.4922,1.1614 1.1487,1.9357 1.9692,2.358 0.8207,0.4222 1.871,0.4927 3.1512,0.1759l6.1054 -2.3226c1.4442,-0.4927 2.3304,-1.1614 2.6587,-1.9708 0.3282,-0.8094 0.2297,-1.9708 -0.2954,-3.5192 -2.3307,-8.0941 -5.7443,-14.8156 -10.2084,-20.1648 -4.4641,-5.3491 -10.1754,-9.3258 -17.1341,-11.9652 -6.9588,-2.6745 -15.2961,-3.9765 -25.0449,-3.9765 -11.6526,0.0351 -21.467,2.1465 -29.4762,6.3696 -8.0092,4.223 -14.1143,10.276 -18.2501,18.1589 -4.1359,7.883 -6.2038,17.3847 -6.2366,28.47l0 49.8314zm120.53 -99.8738c-1.4443,-0.0354 -2.4946,0.2814 -3.0855,0.9149 -0.5908,0.6335 -0.8863,1.7596 -0.8535,3.308l0 5.9122c-0.0328,1.5484 0.2627,2.6394 0.8535,3.308 0.5909,0.6334 1.6412,0.915 3.0855,0.915l39.7829 0 0 131.335c-0.0328,1.5485 0.2627,2.6746 0.8534,3.308 0.5908,0.6334 1.6412,0.9501 3.0854,0.915l6.4993 0c1.4442,0.0351 2.4946,-0.2816 3.0854,-0.915 0.5908,-0.6334 0.8862,-1.7595 0.8534,-3.308l0 -131.335 39.7829 0c1.4442,0 2.4946,-0.2816 3.0854,-0.915 0.591,-0.6686 0.8864,-1.7596 0.8535,-3.308l0 -5.9122c0.0329,-1.5484 -0.2625,-2.6745 -0.8535,-3.308 -0.5908,-0.6335 -1.6412,-0.9503 -3.0854,-0.9149l-93.9427 0zm111.668 99.8738c0.0328,11.0854 2.1336,20.5871 6.3022,28.4701 4.1687,7.883 10.274,13.9359 18.3159,18.1589 8.0419,4.1878 17.8891,6.3345 29.5419,6.3697 11.5868,-0.0352 21.3685,-2.1819 29.4103,-6.3697 8.0091,-4.223 14.1145,-10.2759 18.283,-18.1589 4.1359,-7.883 6.2368,-17.3847 6.2696,-28.4701l0 -49.8314c-0.0328,-11.0853 -2.1337,-20.587 -6.2696,-28.47 -4.1685,-7.8829 -10.2739,-13.9359 -18.283,-18.1589 -8.0418,-4.2231 -17.8235,-6.3345 -29.4103,-6.3696 -11.6528,0.0351 -21.5,2.1465 -29.5419,6.3696 -8.0419,4.223 -14.1472,10.276 -18.3159,18.1589 -4.1686,7.883 -6.2694,17.3847 -6.3022,28.47l0 49.8314zm93.9428 0c0,8.2701 -1.5427,15.2732 -4.5626,21.0446 -3.0526,5.7714 -7.5167,10.2057 -13.425,13.2321 -5.9084,3.0265 -13.1954,4.5398 -21.7952,4.575 -8.6001,-0.0352 -15.8871,-1.5485 -21.8282,-4.575 -5.9412,-3.0264 -10.4381,-7.4607 -13.5235,-13.2321 -3.0856,-5.7714 -4.6281,-12.7745 -4.6281,-21.0446l0 -49.8314c0,-8.27 1.5425,-15.2731 4.6281,-21.0445 3.0854,-5.8067 7.5823,-10.2056 13.5235,-13.2322 5.9411,-3.0264 13.2281,-4.5748 21.8282,-4.5748 8.5998,0 15.8868,1.5484 21.7952,4.5748 5.9083,3.0266 10.3724,7.4255 13.425,13.2322 3.0199,5.7714 4.5626,12.7745 4.5626,21.0445l0 49.8314zm44.7064 -99.8738c-1.4442,-0.0354 -2.4946,0.2814 -3.0854,0.9149 -0.5909,0.6335 -0.8862,1.7596 -0.8534,3.308l0 141.471c-0.0328,1.5485 0.2625,2.6746 0.8534,3.308 0.5908,0.6334 1.6412,0.9501 3.0854,0.915l57.7049 0c8.3702,-0.0352 15.6243,-1.6188 21.6968,-4.7861 6.0725,-3.1672 10.7664,-7.7422 14.0487,-13.7247 3.3152,-6.0178 4.9894,-13.2673 5.0223,-21.8189 0,-10.1351 -1.9696,-18.2645 -5.8757,-24.4229 -3.9389,-6.1234 -9.7815,-10.3113 -17.5609,-12.5283l0 -0.4223c6.2038,-2.8505 10.8321,-7.1088 13.9175,-12.7745 3.0526,-5.666 4.5954,-12.6691 4.5954,-21.0096 -0.0328,-8.27 -1.51,-15.2379 -4.4641,-20.939 -2.9542,-5.7009 -7.2541,-10.0647 -12.9328,-13.0209 -5.6456,-2.9561 -12.5059,-4.4692 -20.6136,-4.4692l-55.5385 0zm78.975 40.3296c-0.0328,8.7627 -2.1664,15.3436 -6.4664,19.7776 -4.2998,4.3989 -10.5365,6.6161 -18.7425,6.6161l-43.5249 0 0 -52.3652 43.5249 0c8.3702,0 14.6723,2.1467 18.8738,6.4753 4.2344,4.3286 6.3351,10.839 6.3351,19.4962zm-2.1664 88.2607c-2.2648,2.3227 -5.0549,4.0822 -8.3702,5.2434 -3.3152,1.1615 -7.09,1.7244 -11.3242,1.7244l-46.873 0 0 -55.1101 46.873 0c4.2342,0 8.009,0.5631 11.3242,1.7244 3.3153,1.1614 6.1054,2.9209 8.3702,5.2436 2.2649,2.4283 3.9388,5.3492 5.055,8.7628 1.116,3.4136 1.6411,7.3901 1.6411,11.93 0,4.5397 -0.5251,8.5162 -1.6411,11.8946 -1.1162,3.4136 -2.7901,6.2643 -5.055,8.5869z"/>
  <path class="fil2" d="M-491.857 27.7941c-4.6084,-10.0254 -11.0606,-15.0379 -19.3558,-15.5747 -11.7985,-0.0005 -23.596,-0.0003 -34.288,0.0002 -7.5574,8.9507 -16.9589,20.7658 -28.2039,35.445 15.0073,-0.1119 31.2781,-1.1335 47.8999,0.6755 13.3367,1.4515 24.3507,6.0039 32.2889,14.8993 1.1061,-14.1423 1.2902,-25.7789 1.6589,-35.4453z"/>
  <path class="fil3" d="M-539.471 54.5139l0 112.177 45.8105 0 0 -93.0483c-12.0114,-14.4394 -27.653,-18.3756 -45.8105,-19.129z"/>
  <path class="fil4" d="M-385.85 165.174c-20.6296,1.7341 -43.8427,4.2564 -63.1076,-5.1802 -10.8833,-5.3309 -19.5286,-12.8696 -25.8344,-22.6162 -13.2882,-20.5407 -15.5157,-67.346 -1.5126,-92.8201 3.6491,-6.6388 8.8043,-11.7107 14.8797,-16.1372 15.1298,-11.0282 35.4803,-16.838 61.0508,-17.4267 -27.1518,21.5426 -38.6972,37.4232 -40.7118,61.53 -1.1136,13.3288 -1.9934,38.6826 9.2468,47.7603 2.8757,2.3219 6.2046,4.2932 9.9725,5.6187 18.9178,6.6543 49.2718,3.0731 66.7411,1.2852 -11.3577,18.9922 -23.0898,32.0277 -30.7245,37.9862z"/>
  <path class="fil5" d="M-241.596 13.4861c20.6295,-1.7341 43.8427,-4.2565 63.1076,5.1802 10.8832,5.3308 19.5285,12.8696 25.8344,22.6161 13.2881,20.5407 15.5157,67.3461 1.5126,92.8202 -3.6491,6.6387 -8.8043,11.7107 -14.8798,16.1371 -15.1298,11.0283 -35.4803,16.838 -61.0507,17.4268 27.1517,-21.5426 38.6971,-37.4232 40.7117,-61.53 1.1137,-13.3289 1.9935,-38.6826 -9.2467,-47.7604 -2.8757,-2.3219 -6.2047,-4.2932 -9.9725,-5.6187 -18.9178,-6.6542 -49.2719,-3.073 -66.7412,-1.2851 11.3578,-18.9923 23.0899,-32.0278 30.7246,-37.9862z"/>
  <path class="fil6" d="M-376.353 166.292c21.6946,-18.1116 35.2911,-38.1606 38.5096,-64.7522 0.9504,-7.8483 0.8213,-15.7877 1.5759,-23.6613 1.4737,-15.374 5.2448,-30.8629 16.8289,-42.5764 14.1132,-14.2722 35.1778,-21.4459 66.5419,-23.7498 -25.874,23.1968 -35.3568,42.1364 -39.1258,71.5569 -0.915,7.1495 -1.0872,14.3973 -2.2612,21.5063 -6.5987,39.9748 -39.439,63.4116 -82.0693,61.6765z"/>
  <path class="fil7" d="M-344.365 61.9928c-6.859,-5.5281 -12.888,-8.2208 -19.4261,-9.8692 -18.6827,-4.7104 -40.6216,-1.9719 -60.7597,-1.3485 11.2177,-19.804 22.8508,-32.2682 34.484,-38.6388 9.7051,-0.3377 18.8445,-0.3151 27.5124,0.1613 10.0503,0.5522 18.2087,1.6943 27.5285,5.5441 6.0778,2.5107 9.8893,4.9021 11.4344,7.1742 -11.4946,10.9407 -18.4191,23.4049 -20.7735,36.9769z"/>
  <path class="fil8" d="M-288.213 116.668c7.0427,5.5281 13.2331,8.2208 19.9463,9.8692 19.183,4.7103 41.7094,1.9719 62.3868,1.3485 -11.5181,19.804 -23.4628,32.2681 -35.4075,38.6388 -9.965,0.3376 -19.3491,0.3151 -28.2491,-0.1613 -10.3194,-0.5523 -18.6963,-1.6943 -28.2657,-5.5441 -6.2406,-2.5107 -10.1542,-4.9021 -11.7406,-7.1742 11.8024,-10.9407 18.9124,-23.4049 21.3298,-36.9769z"/>
  <g id="_131344184">
   <path id="_130863080" class="fil1 str0" d="M-532.751 202.758c-1.0505,0.4169 -1.8843,0.8504 -2.4679,1.3007 -0.5669,0.4335 -0.9838,1.0005 -1.2006,1.6675 -0.2334,0.667 -0.3502,1.5507 -0.3335,2.6346l0 64.6324c0,0.6837 0.1334,1.1673 0.4169,1.4174 0.2835,0.2668 0.7337,0.4002 1.384,0.3835l3.2016 0c0.6503,0.0167 1.1006,-0.1167 1.3841,-0.3835 0.2834,-0.2501 0.4168,-0.7337 0.4168,-1.4174l0 -22.2111c0.8505,0.3502 2.001,0.8004 3.4684,1.334 1.4674,0.5169 3.185,0.9838 5.1359,1.4007 1.951,0.4169 4.0854,0.6503 6.4033,0.667 4.7023,-0.0167 8.5542,-0.7837 11.5891,-2.3345 3.0349,-1.5508 5.2693,-3.8019 6.7367,-6.7701 1.4674,-2.9514 2.2011,-6.5533 2.1844,-10.8054l0 -14.4072c0.0167,-4.2855 -0.7337,-7.904 -2.2177,-10.8888 -1.4841,-2.9682 -3.7686,-5.236 -6.8368,-6.7868 -3.0682,-1.5507 -6.9868,-2.3178 -11.7559,-2.3345 -4.0354,0.0334 -7.4871,0.3169 -10.3719,0.8838 -2.8681,0.567 -5.2526,1.234 -7.1369,2.0177zm31.6159 17.3087l0 14.007c0.0333,4.569 -1.1172,8.0374 -3.4351,10.4219 -2.3178,2.3679 -5.9363,3.5685 -10.8721,3.5851 -2.2178,-0.0166 -4.2688,-0.2501 -6.1864,-0.667 -1.901,-0.4168 -3.5685,-0.9004 -5.0025,-1.434 -1.4341,-0.5503 -2.5346,-1.0172 -3.3184,-1.4007l0 -33.917c-0.0166,-0.5336 0.0334,-0.9505 0.1168,-1.2507 0.0833,-0.3168 0.2668,-0.5836 0.5336,-0.8004 0.2668,-0.2167 0.6836,-0.4335 1.2506,-0.6503 1.4007,-0.5169 3.1015,-0.9671 5.1025,-1.334 2.001,-0.3668 4.3022,-0.5503 6.9035,-0.5669 5.0025,0 8.7377,1.1839 11.2056,3.5517 2.4679,2.3512 3.7019,5.8363 3.7019,10.4553zm16.7084 -1.8009l0 17.6088c0.0167,3.8186 0.9005,7.0869 2.6513,9.8216 1.7509,2.718 4.2688,4.8191 7.5372,6.2698 3.2516,1.4674 7.1702,2.2011 11.7225,2.2178 4.619,-0.0167 8.571,-0.7504 11.8726,-2.2178 3.285,-1.4507 5.8196,-3.5518 7.5705,-6.2698 1.7675,-2.7347 2.6513,-6.003 2.668,-9.8216l0 -17.6088c-0.0167,-3.8186 -0.9005,-7.1036 -2.668,-9.8383 -1.7509,-2.7514 -4.2855,-4.8524 -7.5705,-6.3365 -3.3016,-1.4674 -7.2536,-2.2178 -11.8726,-2.2345 -4.5523,0.0167 -8.4709,0.7671 -11.7225,2.2345 -3.2684,1.4841 -5.7863,3.5851 -7.5372,6.3365 -1.7508,2.7347 -2.6346,6.0197 -2.6513,9.8383zm37.2187 0l0 17.6088c-0.0167,2.5513 -0.6337,4.7191 -1.8843,6.5366 -1.2339,1.8343 -2.9848,3.2183 -5.2693,4.2021 -2.2845,0.9672 -5.0025,1.4508 -8.1541,1.4674 -3.0849,-0.0166 -5.7696,-0.5002 -8.0374,-1.4674 -2.2678,-0.9838 -4.0186,-2.3678 -5.2693,-4.2021 -1.2506,-1.8175 -1.8843,-3.9853 -1.9009,-6.5366l0 -17.6088c0.0166,-2.5846 0.6503,-4.7858 1.9009,-6.62 1.2507,-1.8343 3.0015,-3.235 5.2693,-4.2021 2.2678,-0.9838 4.9525,-1.4841 8.0374,-1.4841 3.1516,0 5.8696,0.5003 8.1541,1.4841 2.2845,0.9671 4.0354,2.3678 5.2693,4.2021 1.2506,1.8342 1.8676,4.0354 1.8843,6.62zm16.6084 1.3006l0 14.9075c0,4.0854 0.7837,7.6038 2.3678,10.5386 1.5841,2.9348 3.9687,5.186 7.1369,6.7701 3.1683,1.5841 7.1369,2.3845 11.906,2.4012 3.952,0 7.3537,-0.5336 10.2051,-1.6008 2.8348,-1.0839 5.186,-2.6513 7.0369,-4.7357 1.8509,-2.0677 3.285,-4.6357 4.2688,-7.6705 0.3001,-0.7337 0.3335,-1.284 0.1167,-1.6675 -0.2168,-0.3836 -0.667,-0.7004 -1.3173,-0.9338l-2.6013 -0.8004c-0.7337,-0.2168 -1.2673,-0.2335 -1.6342,-0.0667 -0.3668,0.15 -0.6836,0.5836 -0.9671,1.2673 -0.7004,2.2678 -1.6842,4.1687 -2.9515,5.7028 -1.284,1.5175 -2.9015,2.668 -4.8691,3.4351 -1.9677,0.7837 -4.3355,1.1672 -7.0869,1.1672 -3.2683,-0.0166 -6.0197,-0.5669 -8.2208,-1.6675 -2.2178,-1.0838 -3.8853,-2.6513 -5.0025,-4.669 -1.1172,-2.0343 -1.6842,-4.4522 -1.6842,-7.2703l0 -15.3077c0,-2.818 0.5503,-5.2193 1.6675,-7.2369 1.1006,-2.0177 2.7681,-3.5518 4.9692,-4.6357 2.2178,-1.0839 4.9691,-1.6175 8.2708,-1.6341 2.8514,0 5.2526,0.3501 7.2036,1.0672 1.9343,0.717 3.5184,1.8009 4.7357,3.2516 1.234,1.4507 2.1845,3.285 2.8681,5.4861 0.2335,0.6503 0.5336,1.0672 0.9172,1.2673 0.3668,0.2001 0.9004,0.1834 1.5841,-0.0667l2.6013 -0.9005c0.6503,-0.2334 1.0672,-0.5502 1.2673,-0.9338 0.2001,-0.3835 0.1834,-0.9338 -0.0667,-1.6675 -0.8171,-2.7514 -2.1011,-5.1359 -3.8186,-7.1536 -1.7342,-2.0176 -4.002,-3.5684 -6.8034,-4.669 -2.8014,-1.1172 -6.2365,-1.6675 -10.2885,-1.6842 -4.9025,0.0167 -8.9712,0.8171 -12.1894,2.4179 -3.235,1.6008 -5.6362,3.8686 -7.237,6.8034 -1.5841,2.9348 -2.3845,6.4366 -2.3845,10.4886zm51.5259 0l0 14.9075c0,4.0854 0.7837,7.6038 2.3678,10.5386 1.5841,2.9348 3.9687,5.186 7.1369,6.7701 3.1683,1.5841 7.1369,2.3845 11.906,2.4012 3.952,0 7.3537,-0.5336 10.2051,-1.6008 2.8348,-1.0839 5.186,-2.6513 7.0369,-4.7357 1.8509,-2.0677 3.285,-4.6357 4.2688,-7.6705 0.3001,-0.7337 0.3335,-1.284 0.1167,-1.6675 -0.2168,-0.3836 -0.667,-0.7004 -1.3173,-0.9338l-2.6013 -0.8004c-0.7337,-0.2168 -1.2673,-0.2335 -1.6342,-0.0667 -0.3668,0.15 -0.6836,0.5836 -0.9671,1.2673 -0.7004,2.2678 -1.6842,4.1687 -2.9515,5.7028 -1.284,1.5175 -2.9015,2.668 -4.8691,3.4351 -1.9677,0.7837 -4.3355,1.1672 -7.0869,1.1672 -3.2683,-0.0166 -6.0197,-0.5669 -8.2208,-1.6675 -2.2178,-1.0838 -3.8853,-2.6513 -5.0025,-4.669 -1.1172,-2.0343 -1.6842,-4.4522 -1.6842,-7.2703l0 -15.3077c0,-2.818 0.5503,-5.2193 1.6675,-7.2369 1.1006,-2.0177 2.7681,-3.5518 4.9692,-4.6357 2.2178,-1.0839 4.9691,-1.6175 8.2708,-1.6341 2.8514,0 5.2526,0.3501 7.2036,1.0672 1.9343,0.717 3.5184,1.8009 4.7357,3.2516 1.234,1.4507 2.1845,3.285 2.8681,5.4861 0.2335,0.6503 0.5336,1.0672 0.9172,1.2673 0.3668,0.2001 0.9004,0.1834 1.5841,-0.0667l2.6013 -0.9005c0.6503,-0.2334 1.0672,-0.5502 1.2673,-0.9338 0.2001,-0.3835 0.1834,-0.9338 -0.0667,-1.6675 -0.8171,-2.7514 -2.1011,-5.1359 -3.8186,-7.1536 -1.7342,-2.0176 -4.002,-3.5684 -6.8034,-4.669 -2.8014,-1.1172 -6.2365,-1.6675 -10.2885,-1.6842 -4.9025,0.0167 -8.9712,0.8171 -12.1894,2.4179 -3.235,1.6008 -5.6362,3.8686 -7.237,6.8034 -1.5841,2.9348 -2.3845,6.4366 -2.3845,10.4886zm58.2292 -18.2091l-3.2016 0c-0.6503,-0.0167 -1.1005,0.1167 -1.384,0.3668 -0.2835,0.2668 -0.4169,0.7504 -0.4169,1.4341l0 47.824c0,0.6837 0.1334,1.1672 0.4169,1.4174 0.2835,0.2668 0.7337,0.4002 1.384,0.3835l3.2016 0c0.4002,0 0.7337,-0.0667 1.0172,-0.2001 0.2835,-0.1501 0.5336,-0.4169 0.7837,-0.8004l24.8125 -32.8165c0.7003,-0.9838 1.3673,-1.9343 1.9843,-2.8347 0.617,-0.8838 1.234,-1.8009 1.8009,-2.7014 0.5836,-0.9171 1.1506,-1.9176 1.7175,-2.9681l0.3002 0c-0.2001,1.2172 -0.4002,2.4679 -0.5836,3.7185 -0.1668,1.2506 -0.3169,2.5846 -0.4336,3.9687 -0.1167,1.384 -0.1834,2.8847 -0.1834,4.5189l0 28.3142c0,0.6837 0.1334,1.1672 0.4169,1.4174 0.2834,0.2668 0.7337,0.4002 1.384,0.3835l3.2016 0c0.6503,0.0167 1.1005,-0.1167 1.384,-0.3835 0.2835,-0.2502 0.4169,-0.7337 0.4169,-1.4174l0 -47.824c0,-0.6837 -0.1334,-1.1673 -0.4169,-1.4341 -0.2835,-0.2501 -0.7337,-0.3835 -1.384,-0.3668l-3.2016 0c-0.3835,0 -0.717,0.05 -0.9672,0.1834 -0.2501,0.1334 -0.4835,0.3669 -0.7337,0.717l-25.2126 33.3168c-0.6337,0.817 -1.234,1.6508 -1.8009,2.4679 -0.567,0.8004 -1.1172,1.6841 -1.6675,2.6013 -0.567,0.9338 -1.1339,1.9843 -1.7342,3.1349l-0.2001 0c0.2334,-1.284 0.4335,-2.5513 0.6003,-3.7853 0.1667,-1.2339 0.2835,-2.5012 0.3668,-3.8019 0.0834,-1.2839 0.1334,-2.668 0.1334,-4.1187l0 -28.9145c0,-0.6837 -0.1334,-1.1673 -0.4168,-1.4341 -0.2835,-0.2501 -0.7338,-0.3835 -1.3841,-0.3668zm88.2443 -18.4092c0.1501,-0.4336 0.1667,-0.7838 0.05,-1.0339 -0.1167,-0.2501 -0.4002,-0.4836 -0.8504,-0.667l-2.7014 -0.9004c-0.4335,-0.1501 -0.767,-0.1668 -0.9838,-0.0667 -0.2168,0.1167 -0.4335,0.3668 -0.617,0.767 -0.7503,2.6513 -1.951,4.6023 -3.6185,5.8863 -1.6841,1.284 -3.8352,1.9176 -6.4865,1.9176 -2.6514,0 -4.8025,-0.6336 -6.47,-1.9176 -1.6508,-1.284 -2.8347,-3.235 -3.5351,-5.8863 -0.1834,-0.4002 -0.4168,-0.6503 -0.6836,-0.767 -0.2835,-0.1001 -0.6837,-0.0834 -1.2173,0.0667l-2.4012 0.9004c-0.4502,0.1834 -0.7337,0.4169 -0.8504,0.667 -0.1168,0.2501 -0.1001,0.6003 0.05,1.0339 1.0672,3.6518 2.8681,6.3865 5.4194,8.1874 2.5512,1.8176 5.7695,2.718 9.6882,2.718 3.9519,0 7.2036,-0.9004 9.7382,-2.718 2.5513,-1.8009 4.3688,-4.5356 5.4694,-8.1874zm-32.0161 18.4092l-3.2016 0c-0.6503,-0.0167 -1.1005,0.1167 -1.384,0.3668 -0.2835,0.2668 -0.4169,0.7504 -0.4169,1.4341l0 47.824c0,0.6837 0.1334,1.1672 0.4169,1.4174 0.2835,0.2668 0.7337,0.4002 1.384,0.3835l3.2016 0c0.4002,0 0.7337,-0.0667 1.0172,-0.2001 0.2835,-0.1501 0.5336,-0.4169 0.7837,-0.8004l24.8125 -32.8165c0.7003,-0.9838 1.3673,-1.9343 1.9843,-2.8347 0.617,-0.8838 1.234,-1.8009 1.8009,-2.7014 0.5836,-0.9171 1.1506,-1.9176 1.7175,-2.9681l0.3002 0c-0.2001,1.2172 -0.4002,2.4679 -0.5836,3.7185 -0.1668,1.2506 -0.3169,2.5846 -0.4336,3.9687 -0.1167,1.384 -0.1834,2.8847 -0.1834,4.5189l0 28.3142c0,0.6837 0.1334,1.1672 0.4169,1.4174 0.2834,0.2668 0.7337,0.4002 1.384,0.3835l3.2016 0c0.6503,0.0167 1.1005,-0.1167 1.384,-0.3835 0.2835,-0.2502 0.4169,-0.7337 0.4169,-1.4174l0 -47.824c0,-0.6837 -0.1334,-1.1673 -0.4169,-1.4341 -0.2835,-0.2501 -0.7337,-0.3835 -1.384,-0.3668l-3.2016 0c-0.3835,0 -0.717,0.05 -0.9672,0.1834 -0.2501,0.1334 -0.4835,0.3669 -0.7337,0.717l-25.2126 33.3168c-0.6337,0.817 -1.234,1.6508 -1.8009,2.4679 -0.567,0.8004 -1.1172,1.6841 -1.6675,2.6013 -0.567,0.9338 -1.1339,1.9843 -1.7342,3.1349l-0.2001 0c0.2334,-1.284 0.4335,-2.5513 0.6003,-3.7853 0.1667,-1.2339 0.2835,-2.5012 0.3668,-3.8019 0.0834,-1.2839 0.1334,-2.668 0.1334,-4.1187l0 -28.9145c0,-0.6837 -0.1334,-1.1673 -0.4168,-1.4341 -0.2835,-0.2501 -0.7338,-0.3835 -1.3841,-0.3668zm49.5249 18.2091l0 14.9075c0,4.0854 0.7837,7.6038 2.3678,10.5386 1.5841,2.9348 3.9687,5.186 7.1369,6.7701 3.1683,1.5841 7.1369,2.3845 11.906,2.4012 3.952,0 7.3537,-0.5336 10.2051,-1.6008 2.8348,-1.0839 5.186,-2.6513 7.0369,-4.7357 1.8509,-2.0677 3.285,-4.6357 4.2688,-7.6705 0.3001,-0.7337 0.3335,-1.284 0.1167,-1.6675 -0.2168,-0.3836 -0.667,-0.7004 -1.3173,-0.9338l-2.6013 -0.8004c-0.7337,-0.2168 -1.2673,-0.2335 -1.6342,-0.0667 -0.3668,0.15 -0.6836,0.5836 -0.9671,1.2673 -0.7004,2.2678 -1.6842,4.1687 -2.9515,5.7028 -1.284,1.5175 -2.9015,2.668 -4.8691,3.4351 -1.9677,0.7837 -4.3355,1.1672 -7.0869,1.1672 -3.2683,-0.0166 -6.0197,-0.5669 -8.2208,-1.6675 -2.2178,-1.0838 -3.8853,-2.6513 -5.0025,-4.669 -1.1172,-2.0343 -1.6842,-4.4522 -1.6842,-7.2703l0 -15.3077c0,-2.818 0.5503,-5.2193 1.6675,-7.2369 1.1006,-2.0177 2.7681,-3.5518 4.9692,-4.6357 2.2178,-1.0839 4.9691,-1.6175 8.2708,-1.6341 2.8514,0 5.2526,0.3501 7.2036,1.0672 1.9343,0.717 3.5184,1.8009 4.7357,3.2516 1.234,1.4507 2.1845,3.285 2.8681,5.4861 0.2335,0.6503 0.5336,1.0672 0.9172,1.2673 0.3668,0.2001 0.9004,0.1834 1.5841,-0.0667l2.6013 -0.9005c0.6503,-0.2334 1.0672,-0.5502 1.2673,-0.9338 0.2001,-0.3835 0.1834,-0.9338 -0.0667,-1.6675 -0.8171,-2.7514 -2.1011,-5.1359 -3.8186,-7.1536 -1.7342,-2.0176 -4.002,-3.5684 -6.8034,-4.669 -2.8014,-1.1172 -6.2365,-1.6675 -10.2885,-1.6842 -4.9025,0.0167 -8.9712,0.8171 -12.1894,2.4179 -3.235,1.6008 -5.6362,3.8686 -7.237,6.8034 -1.5841,2.9348 -2.3845,6.4366 -2.3845,10.4886zm96.0482 31.1156l-9.0045 -18.009c-0.717,-1.4674 -1.5008,-2.7347 -2.3178,-3.8186 -0.8338,-1.0672 -1.7676,-1.9676 -2.8015,-2.668 -1.0338,-0.717 -2.2344,-1.2506 -3.5851,-1.6175l16.9085 -21.1105c0.5002,-0.7004 0.667,-1.234 0.4836,-1.5842 -0.1835,-0.3502 -0.7337,-0.5169 -1.6842,-0.5169l-2.8014 0c-0.6503,-0.0167 -1.1839,0 -1.6008,0.05 -0.4169,0.05 -0.7671,0.1668 -1.0672,0.3669 -0.3002,0.2001 -0.617,0.5169 -0.9338,0.9838l-16.0081 20.5103 -1.0005 0 -10.6053 0 0 -20.1101c0,-0.6837 -0.1334,-1.1673 -0.4335,-1.4341 -0.2835,-0.2501 -0.7838,-0.3835 -1.4674,-0.3668l-3.0015 0c-0.6837,-0.0167 -1.184,0.1167 -1.4674,0.3668 -0.3002,0.2668 -0.4336,0.7504 -0.4336,1.4341l0 47.7239c0,0.7337 0.1334,1.234 0.4336,1.5175 0.2834,0.2668 0.7837,0.4002 1.4674,0.3835l3.0015 0c0.6836,0.0167 1.1839,-0.1167 1.4674,-0.3835 0.3001,-0.2835 0.4335,-0.7838 0.4335,-1.5175l0 -21.4107 11.5058 0c1.6842,0 3.1349,0.2168 4.3355,0.6503 1.2006,0.4336 2.2345,1.1006 3.1016,2.001 0.8504,0.9005 1.6174,2.0511 2.2678,3.4518l7.6038 15.6078c0.2168,0.4335 0.4502,0.7504 0.667,0.9838 0.2334,0.2335 0.5336,0.4002 0.9004,0.4836 0.3669,0.1 0.8838,0.1334 1.5341,0.1334l3.0015 0c0.8338,0 1.3174,-0.1501 1.4508,-0.4836 0.1334,-0.3335 0.0166,-0.8671 -0.3502,-1.6175zm13.907 -49.3247l-3.2016 0c-0.6503,-0.0167 -1.1005,0.1167 -1.384,0.3668 -0.2835,0.2668 -0.4169,0.7504 -0.4169,1.4341l0 47.824c0,0.6837 0.1334,1.1672 0.4169,1.4174 0.2835,0.2668 0.7337,0.4002 1.384,0.3835l3.2016 0c0.4002,0 0.7337,-0.0667 1.0172,-0.2001 0.2835,-0.1501 0.5336,-0.4169 0.7837,-0.8004l24.8125 -32.8165c0.7003,-0.9838 1.3673,-1.9343 1.9843,-2.8347 0.617,-0.8838 1.234,-1.8009 1.8009,-2.7014 0.5836,-0.9171 1.1506,-1.9176 1.7175,-2.9681l0.3002 0c-0.2001,1.2172 -0.4002,2.4679 -0.5836,3.7185 -0.1668,1.2506 -0.3169,2.5846 -0.4336,3.9687 -0.1167,1.384 -0.1834,2.8847 -0.1834,4.5189l0 28.3142c0,0.6837 0.1334,1.1672 0.4169,1.4174 0.2834,0.2668 0.7337,0.4002 1.384,0.3835l3.2016 0c0.6503,0.0167 1.1005,-0.1167 1.384,-0.3835 0.2835,-0.2502 0.4169,-0.7337 0.4169,-1.4174l0 -47.824c0,-0.6837 -0.1334,-1.1673 -0.4169,-1.4341 -0.2835,-0.2501 -0.7337,-0.3835 -1.384,-0.3668l-3.2016 0c-0.3835,0 -0.717,0.05 -0.9672,0.1834 -0.2501,0.1334 -0.4835,0.3669 -0.7337,0.717l-25.2126 33.3168c-0.6337,0.817 -1.234,1.6508 -1.8009,2.4679 -0.567,0.8004 -1.1172,1.6841 -1.6675,2.6013 -0.567,0.9338 -1.1339,1.9843 -1.7342,3.1349l-0.2001 0c0.2334,-1.284 0.4335,-2.5513 0.6003,-3.7853 0.1667,-1.2339 0.2835,-2.5012 0.3668,-3.8019 0.0834,-1.2839 0.1334,-2.668 0.1334,-4.1187l0 -28.9145c0,-0.6837 -0.1334,-1.1673 -0.4168,-1.4341 -0.2835,-0.2501 -0.7338,-0.3835 -1.3841,-0.3668zm88.2443 -18.4092c0.1501,-0.4336 0.1667,-0.7838 0.05,-1.0339 -0.1167,-0.2501 -0.4002,-0.4836 -0.8504,-0.667l-2.7014 -0.9004c-0.4335,-0.1501 -0.767,-0.1668 -0.9838,-0.0667 -0.2168,0.1167 -0.4335,0.3668 -0.617,0.767 -0.7503,2.6513 -1.951,4.6023 -3.6185,5.8863 -1.6841,1.284 -3.8352,1.9176 -6.4865,1.9176 -2.6514,0 -4.8025,-0.6336 -6.47,-1.9176 -1.6508,-1.284 -2.8347,-3.235 -3.5351,-5.8863 -0.1834,-0.4002 -0.4168,-0.6503 -0.6836,-0.767 -0.2835,-0.1001 -0.6837,-0.0834 -1.2173,0.0667l-2.4012 0.9004c-0.4502,0.1834 -0.7337,0.4169 -0.8504,0.667 -0.1168,0.2501 -0.1001,0.6003 0.05,1.0339 1.0672,3.6518 2.8681,6.3865 5.4194,8.1874 2.5512,1.8176 5.7695,2.718 9.6882,2.718 3.9519,0 7.2036,-0.9004 9.7382,-2.718 2.5513,-1.8009 4.3688,-4.5356 5.4694,-8.1874zm-32.0161 18.4092l-3.2016 0c-0.6503,-0.0167 -1.1005,0.1167 -1.384,0.3668 -0.2835,0.2668 -0.4169,0.7504 -0.4169,1.4341l0 47.824c0,0.6837 0.1334,1.1672 0.4169,1.4174 0.2835,0.2668 0.7337,0.4002 1.384,0.3835l3.2016 0c0.4002,0 0.7337,-0.0667 1.0172,-0.2001 0.2835,-0.1501 0.5336,-0.4169 0.7837,-0.8004l24.8125 -32.8165c0.7003,-0.9838 1.3673,-1.9343 1.9843,-2.8347 0.617,-0.8838 1.234,-1.8009 1.8009,-2.7014 0.5836,-0.9171 1.1506,-1.9176 1.7175,-2.9681l0.3002 0c-0.2001,1.2172 -0.4002,2.4679 -0.5836,3.7185 -0.1668,1.2506 -0.3169,2.5846 -0.4336,3.9687 -0.1167,1.384 -0.1834,2.8847 -0.1834,4.5189l0 28.3142c0,0.6837 0.1334,1.1672 0.4169,1.4174 0.2834,0.2668 0.7337,0.4002 1.384,0.3835l3.2016 0c0.6503,0.0167 1.1005,-0.1167 1.384,-0.3835 0.2835,-0.2502 0.4169,-0.7337 0.4169,-1.4174l0 -47.824c0,-0.6837 -0.1334,-1.1673 -0.4169,-1.4341 -0.2835,-0.2501 -0.7337,-0.3835 -1.384,-0.3668l-3.2016 0c-0.3835,0 -0.717,0.05 -0.9672,0.1834 -0.2501,0.1334 -0.4835,0.3669 -0.7337,0.717l-25.2126 33.3168c-0.6337,0.817 -1.234,1.6508 -1.8009,2.4679 -0.567,0.8004 -1.1172,1.6841 -1.6675,2.6013 -0.567,0.9338 -1.1339,1.9843 -1.7342,3.1349l-0.2001 0c0.2334,-1.284 0.4335,-2.5513 0.6003,-3.7853 0.1667,-1.2339 0.2835,-2.5012 0.3668,-3.8019 0.0834,-1.2839 0.1334,-2.668 0.1334,-4.1187l0 -28.9145c0,-0.6837 -0.1334,-1.1673 -0.4168,-1.4341 -0.2835,-0.2501 -0.7338,-0.3835 -1.3841,-0.3668zm115.058 0l-38.4193 0c-0.6503,-0.0167 -1.1005,0.1167 -1.384,0.3668 -0.2835,0.2668 -0.4169,0.7504 -0.4169,1.4341l0 47.824c0,0.6837 0.1334,1.1672 0.4169,1.4174 0.2835,0.2668 0.7337,0.4002 1.384,0.3835l3.2016 0c0.6503,0.0167 1.1006,-0.1167 1.3841,-0.3835 0.2834,-0.2502 0.4168,-0.7337 0.4168,-1.4174l0 -43.4218 28.5143 0 0 43.4218c-0.0166,0.6837 0.1168,1.1672 0.3836,1.4174 0.2501,0.2668 0.7337,0.4002 1.4173,0.3835l3.1016 0c0.6837,0.0167 1.1672,-0.1167 1.434,-0.3835 0.2502,-0.2502 0.3836,-0.7337 0.3669,-1.4174l0 -47.824c0.0167,-0.6837 -0.1167,-1.1673 -0.3669,-1.4341 -0.2668,-0.2501 -0.7503,-0.3835 -1.434,-0.3668zm18.8094 1.4007c-1.0505,0.4169 -1.8843,0.8504 -2.4679,1.3007 -0.5669,0.4335 -0.9838,1.0005 -1.2006,1.6675 -0.2334,0.667 -0.3502,1.5507 -0.3335,2.6346l0 64.6324c0,0.6837 0.1334,1.1673 0.4169,1.4174 0.2835,0.2668 0.7337,0.4002 1.384,0.3835l3.2016 0c0.6503,0.0167 1.1006,-0.1167 1.3841,-0.3835 0.2834,-0.2501 0.4168,-0.7337 0.4168,-1.4174l0 -22.2111c0.8505,0.3502 2.001,0.8004 3.4684,1.334 1.4674,0.5169 3.185,0.9838 5.1359,1.4007 1.951,0.4169 4.0854,0.6503 6.4033,0.667 4.7023,-0.0167 8.5542,-0.7837 11.5891,-2.3345 3.0349,-1.5508 5.2693,-3.8019 6.7367,-6.7701 1.4674,-2.9514 2.2011,-6.5533 2.1844,-10.8054l0 -14.4072c0.0167,-4.2855 -0.7337,-7.904 -2.2177,-10.8888 -1.4841,-2.9682 -3.7686,-5.236 -6.8368,-6.7868 -3.0682,-1.5507 -6.9868,-2.3178 -11.7559,-2.3345 -4.0354,0.0334 -7.4871,0.3169 -10.3719,0.8838 -2.8681,0.567 -5.2526,1.234 -7.1369,2.0177zm31.6159 17.3087l0 14.007c0.0333,4.569 -1.1172,8.0374 -3.4351,10.4219 -2.3178,2.3679 -5.9363,3.5685 -10.8721,3.5851 -2.2178,-0.0166 -4.2688,-0.2501 -6.1864,-0.667 -1.901,-0.4168 -3.5685,-0.9004 -5.0025,-1.434 -1.4341,-0.5503 -2.5346,-1.0172 -3.3184,-1.4007l0 -33.917c-0.0166,-0.5336 0.0334,-0.9505 0.1168,-1.2507 0.0833,-0.3168 0.2668,-0.5836 0.5336,-0.8004 0.2668,-0.2167 0.6836,-0.4335 1.2506,-0.6503 1.4007,-0.5169 3.1015,-0.9671 5.1025,-1.334 2.001,-0.3668 4.3022,-0.5503 6.9035,-0.5669 5.0025,0 8.7377,1.1839 11.2056,3.5517 2.4679,2.3512 3.7019,5.8363 3.7019,10.4553zm17.1086 -9.7049c-0.3502,0.6837 -0.4335,1.234 -0.2501,1.6342 0.1834,0.4002 0.6003,0.7337 1.2506,0.9671l2.4012 1.0005c0.617,0.3002 1.1006,0.3835 1.4341,0.2335 0.3335,-0.1334 0.7003,-0.4836 1.0672,-1.0339 1.284,-2.3178 3.0682,-4.1187 5.3527,-5.386 2.2844,-1.2673 5.1692,-1.901 8.6543,-1.9176 2.718,0 4.9525,0.3501 6.72,1.0338 1.7509,0.7004 3.1349,1.6508 4.1188,2.8848 1.0005,1.2506 1.7008,2.6847 2.101,4.3522 0.3836,1.6675 0.5837,3.4684 0.567,5.436l0 4.6023c-0.617,-0.0833 -1.5842,-0.1834 -2.8848,-0.3501 -1.3007,-0.1501 -2.8348,-0.3002 -4.6023,-0.4336 -1.7509,-0.1334 -3.6352,-0.2001 -5.6195,-0.2168 -5.2193,-0.0166 -9.4381,0.4669 -12.6897,1.4674 -3.235,1.0005 -5.6028,2.6347 -7.1036,4.9025 -1.5007,2.2845 -2.2344,5.3193 -2.2177,9.1379 -0.0167,2.5013 0.2834,4.7191 0.9338,6.6367 0.6336,1.9343 1.7508,3.5518 3.3516,4.8691 1.5842,1.3173 3.7853,2.3178 6.6034,2.9848 2.818,0.667 6.3865,1.0172 10.722,1.0172 3.7852,-0.0167 7.0369,-0.2501 9.7716,-0.7003 2.718,-0.4669 5.0025,-1.1006 6.8367,-1.901 0.9338,-0.3835 1.6509,-0.8004 2.1845,-1.234 0.5169,-0.4335 0.8837,-1.0005 1.1005,-1.7008 0.2168,-0.7004 0.3168,-1.6175 0.3168,-2.7681l0 -26.2131c0.0167,-2.718 -0.2834,-5.2693 -0.8837,-7.6539 -0.617,-2.3845 -1.6675,-4.4855 -3.1516,-6.3031 -1.4841,-1.8176 -3.5351,-3.2517 -6.1364,-4.2855 -2.6013,-1.0172 -5.8863,-1.5508 -9.8383,-1.5675 -5.0359,0.0167 -9.2213,0.9505 -12.5229,2.7681 -3.3184,1.8343 -5.853,4.4022 -7.5872,7.7372zm33.4168 19.3097l0 14.4072c0,0.617 -0.05,1.1173 -0.1501,1.4674 -0.1167,0.3502 -0.3168,0.6337 -0.5836,0.8338 -0.2835,0.2168 -0.667,0.4169 -1.1673,0.6003 -1.384,0.5002 -3.0515,0.9004 -5.0025,1.1839 -1.951,0.2668 -4.3188,0.4169 -7.1036,0.4169 -2.9014,0 -5.3026,-0.2335 -7.1535,-0.6837 -1.8676,-0.4335 -3.3184,-1.1005 -4.3355,-1.951 -1.0339,-0.8671 -1.7509,-1.9176 -2.1511,-3.1515 -0.4002,-1.234 -0.5837,-2.6347 -0.567,-4.2188 -0.0167,-2.2678 0.4169,-4.1188 1.334,-5.5695 0.9172,-1.4507 2.4179,-2.5179 4.5356,-3.2016 2.1178,-0.7003 4.9525,-1.0338 8.5376,-1.0338 1.9677,0 3.8687,0.0667 5.7196,0.1834 1.8509,0.1167 3.4851,0.2501 4.9024,0.4002 1.4341,0.1334 2.5013,0.2334 3.185,0.3168zm59.7299 -14.9075c0,-2.8181 -0.5669,-5.2193 -1.6841,-7.2203 -1.1173,-1.9843 -2.7347,-3.5184 -4.8691,-4.5856 -2.1178,-1.0505 -4.7024,-1.5841 -7.7539,-1.6008l-24.5123 0c-0.6837,0 -1.184,0.1334 -1.4674,0.4169 -0.3002,0.2834 -0.4336,0.7337 -0.4336,1.384l0 47.7239c0,0.6837 0.1334,1.184 0.4336,1.4674 0.2834,0.3002 0.7837,0.4336 1.4674,0.4336l25.8129 0c3.0849,-0.0167 5.7196,-0.5836 7.9373,-1.7342 2.2011,-1.1339 3.902,-2.7514 5.0692,-4.8691 1.184,-2.1177 1.7843,-4.6523 1.8009,-7.6038 0.0167,-3.0516 -0.6336,-5.6529 -1.9176,-7.7873 -1.3006,-2.1177 -3.285,-3.7685 -5.9863,-4.9191 2.1344,-1.1172 3.6852,-2.6347 4.669,-4.5356 0.9671,-1.9176 1.4507,-4.1021 1.434,-6.57zm-15.0075 8.7044l-18.9095 0 0 -16.4082 18.5093 0c2.8181,0 4.9525,0.717 6.4032,2.1177 1.4674,1.4007 2.2011,3.4184 2.2011,6.0864 0,1.7342 -0.3501,3.2183 -1.0338,4.4355 -0.6837,1.2173 -1.6342,2.1511 -2.8681,2.8014 -1.2173,0.6337 -2.6514,0.9672 -4.3022,0.9672zm0.8004 23.5118l-19.7099 0 0 -17.909 19.5098 0c2.9682,0.0167 5.236,0.8004 6.8201,2.3512 1.5841,1.5508 2.3679,3.7352 2.3845,6.5533 -0.0166,2.8681 -0.8004,5.0859 -2.3678,6.6366 -1.5508,1.5675 -3.7686,2.3512 -6.6367,2.3679zm25.2127 -28.7144l0 17.6088c0.0167,3.8186 0.9005,7.0869 2.6513,9.8216 1.7509,2.718 4.2688,4.8191 7.5372,6.2698 3.2516,1.4674 7.1702,2.2011 11.7225,2.2178 4.619,-0.0167 8.571,-0.7504 11.8726,-2.2178 3.285,-1.4507 5.8196,-3.5518 7.5705,-6.2698 1.7675,-2.7347 2.6513,-6.003 2.668,-9.8216l0 -17.6088c-0.0167,-3.8186 -0.9005,-7.1036 -2.668,-9.8383 -1.7509,-2.7514 -4.2855,-4.8524 -7.5705,-6.3365 -3.3016,-1.4674 -7.2536,-2.2178 -11.8726,-2.2345 -4.5523,0.0167 -8.4709,0.7671 -11.7225,2.2345 -3.2684,1.4841 -5.7863,3.5851 -7.5372,6.3365 -1.7508,2.7347 -2.6346,6.0197 -2.6513,9.8383zm37.2187 0l0 17.6088c-0.0167,2.5513 -0.6337,4.7191 -1.8843,6.5366 -1.2339,1.8343 -2.9848,3.2183 -5.2693,4.2021 -2.2845,0.9672 -5.0025,1.4508 -8.1541,1.4674 -3.0849,-0.0166 -5.7696,-0.5002 -8.0374,-1.4674 -2.2678,-0.9838 -4.0186,-2.3678 -5.2693,-4.2021 -1.2506,-1.8175 -1.8843,-3.9853 -1.9009,-6.5366l0 -17.6088c0.0166,-2.5846 0.6503,-4.7858 1.9009,-6.62 1.2507,-1.8343 3.0015,-3.235 5.2693,-4.2021 2.2678,-0.9838 4.9525,-1.4841 8.0374,-1.4841 3.1516,0 5.8696,0.5003 8.1541,1.4841 2.2845,0.9671 4.0354,2.3678 5.2693,4.2021 1.2506,1.8342 1.8676,4.0354 1.8843,6.62zm59.0296 -3.5018c0,-2.8181 -0.5669,-5.2193 -1.6841,-7.2203 -1.1173,-1.9843 -2.7347,-3.5184 -4.8691,-4.5856 -2.1178,-1.0505 -4.7024,-1.5841 -7.7539,-1.6008l-24.5123 0c-0.6837,0 -1.184,0.1334 -1.4674,0.4169 -0.3002,0.2834 -0.4336,0.7337 -0.4336,1.384l0 47.7239c0,0.6837 0.1334,1.184 0.4336,1.4674 0.2834,0.3002 0.7837,0.4336 1.4674,0.4336l25.8129 0c3.0849,-0.0167 5.7196,-0.5836 7.9373,-1.7342 2.2011,-1.1339 3.902,-2.7514 5.0692,-4.8691 1.184,-2.1177 1.7843,-4.6523 1.8009,-7.6038 0.0167,-3.0516 -0.6336,-5.6529 -1.9176,-7.7873 -1.3006,-2.1177 -3.285,-3.7685 -5.9863,-4.9191 2.1344,-1.1172 3.6852,-2.6347 4.669,-4.5356 0.9671,-1.9176 1.4507,-4.1021 1.434,-6.57zm-15.0075 8.7044l-18.9095 0 0 -16.4082 18.5093 0c2.8181,0 4.9525,0.717 6.4032,2.1177 1.4674,1.4007 2.2011,3.4184 2.2011,6.0864 0,1.7342 -0.3501,3.2183 -1.0338,4.4355 -0.6837,1.2173 -1.6342,2.1511 -2.8681,2.8014 -1.2173,0.6337 -2.6514,0.9672 -4.3022,0.9672zm0.8004 23.5118l-19.7099 0 0 -17.909 19.5098 0c2.9682,0.0167 5.236,0.8004 6.8201,2.3512 1.5841,1.5508 2.3679,3.7352 2.3845,6.5533 -0.0166,2.8681 -0.8004,5.0859 -2.3678,6.6366 -1.5508,1.5675 -3.7686,2.3512 -6.6367,2.3679z"/>
   <path id="_130863008" class="fil1 str0" d="M345.09 218.266l0 17.6088c0.0167,3.8186 0.9005,7.0869 2.6513,9.8216 1.7509,2.718 4.2688,4.8191 7.5372,6.2698 3.2516,1.4674 7.1702,2.2011 11.7225,2.2178 4.619,-0.0167 8.571,-0.7504 11.8726,-2.2178 3.285,-1.4507 5.8196,-3.5518 7.5705,-6.2698 1.7675,-2.7347 2.6513,-6.003 2.668,-9.8216l0 -17.6088c-0.0167,-3.8186 -0.9005,-7.1036 -2.668,-9.8383 -1.7509,-2.7514 -4.2855,-4.8524 -7.5705,-6.3365 -3.3016,-1.4674 -7.2536,-2.2178 -11.8726,-2.2345 -4.5523,0.0167 -8.4709,0.7671 -11.7225,2.2345 -3.2684,1.4841 -5.7863,3.5851 -7.5372,6.3365 -1.7508,2.7347 -2.6346,6.0197 -2.6513,9.8383zm37.2187 0l0 17.6088c-0.0167,2.5513 -0.6337,4.7191 -1.8843,6.5366 -1.2339,1.8343 -2.9848,3.2183 -5.2693,4.2021 -2.2845,0.9672 -5.0025,1.4508 -8.1541,1.4674 -3.0849,-0.0166 -5.7696,-0.5002 -8.0374,-1.4674 -2.2678,-0.9838 -4.0186,-2.3678 -5.2693,-4.2021 -1.2506,-1.8175 -1.8843,-3.9853 -1.9009,-6.5366l0 -17.6088c0.0166,-2.5846 0.6503,-4.7858 1.9009,-6.62 1.2507,-1.8343 3.0015,-3.235 5.2693,-4.2021 2.2678,-0.9838 4.9525,-1.4841 8.0374,-1.4841 3.1516,0 5.8696,0.5003 8.1541,1.4841 2.2845,0.9671 4.0354,2.3678 5.2693,4.2021 1.2506,1.8342 1.8676,4.0354 1.8843,6.62zm55.3278 -35.3177c0.1501,-0.4336 0.1667,-0.7838 0.05,-1.0339 -0.1167,-0.2501 -0.4002,-0.4836 -0.8504,-0.667l-2.7014 -0.9004c-0.4335,-0.1501 -0.767,-0.1668 -0.9838,-0.0667 -0.2168,0.1167 -0.4335,0.3668 -0.617,0.767 -0.7503,2.6513 -1.951,4.6023 -3.6185,5.8863 -1.6841,1.284 -3.8352,1.9176 -6.4865,1.9176 -2.6514,0 -4.8025,-0.6336 -6.47,-1.9176 -1.6508,-1.284 -2.8347,-3.235 -3.5351,-5.8863 -0.1834,-0.4002 -0.4168,-0.6503 -0.6836,-0.767 -0.2835,-0.1001 -0.6837,-0.0834 -1.2173,0.0667l-2.4012 0.9004c-0.4502,0.1834 -0.7337,0.4169 -0.8504,0.667 -0.1168,0.2501 -0.1001,0.6003 0.05,1.0339 1.0672,3.6518 2.8681,6.3865 5.4194,8.1874 2.5512,1.8176 5.7695,2.718 9.6882,2.718 3.9519,0 7.2036,-0.9004 9.7382,-2.718 2.5513,-1.8009 4.3688,-4.5356 5.4694,-8.1874zm-32.0161 18.4092l-3.2016 0c-0.6503,-0.0167 -1.1005,0.1167 -1.384,0.3668 -0.2835,0.2668 -0.4169,0.7504 -0.4169,1.4341l0 47.824c0,0.6837 0.1334,1.1672 0.4169,1.4174 0.2835,0.2668 0.7337,0.4002 1.384,0.3835l3.2016 0c0.4002,0 0.7337,-0.0667 1.0172,-0.2001 0.2835,-0.1501 0.5336,-0.4169 0.7837,-0.8004l24.8125 -32.8165c0.7003,-0.9838 1.3673,-1.9343 1.9843,-2.8347 0.617,-0.8838 1.234,-1.8009 1.8009,-2.7014 0.5836,-0.9171 1.1506,-1.9176 1.7175,-2.9681l0.3002 0c-0.2001,1.2172 -0.4002,2.4679 -0.5836,3.7185 -0.1668,1.2506 -0.3169,2.5846 -0.4336,3.9687 -0.1167,1.384 -0.1834,2.8847 -0.1834,4.5189l0 28.3142c0,0.6837 0.1334,1.1672 0.4169,1.4174 0.2834,0.2668 0.7337,0.4002 1.384,0.3835l3.2016 0c0.6503,0.0167 1.1005,-0.1167 1.384,-0.3835 0.2835,-0.2502 0.4169,-0.7337 0.4169,-1.4174l0 -47.824c0,-0.6837 -0.1334,-1.1673 -0.4169,-1.4341 -0.2835,-0.2501 -0.7337,-0.3835 -1.384,-0.3668l-3.2016 0c-0.3835,0 -0.717,0.05 -0.9672,0.1834 -0.2501,0.1334 -0.4835,0.3669 -0.7337,0.717l-25.2126 33.3168c-0.6337,0.817 -1.234,1.6508 -1.8009,2.4679 -0.567,0.8004 -1.1172,1.6841 -1.6675,2.6013 -0.567,0.9338 -1.1339,1.9843 -1.7342,3.1349l-0.2001 0c0.2334,-1.284 0.4335,-2.5513 0.6003,-3.7853 0.1667,-1.2339 0.2835,-2.5012 0.3668,-3.8019 0.0834,-1.2839 0.1334,-2.668 0.1334,-4.1187l0 -28.9145c0,-0.6837 -0.1334,-1.1673 -0.4168,-1.4341 -0.2835,-0.2501 -0.7338,-0.3835 -1.3841,-0.3668zm115.058 0l-38.4193 0c-0.6503,-0.0167 -1.1005,0.1167 -1.384,0.3668 -0.2835,0.2668 -0.4169,0.7504 -0.4169,1.4341l0 47.824c0,0.6837 0.1334,1.1672 0.4169,1.4174 0.2835,0.2668 0.7337,0.4002 1.384,0.3835l3.2016 0c0.6503,0.0167 1.1006,-0.1167 1.3841,-0.3835 0.2834,-0.2502 0.4168,-0.7337 0.4168,-1.4174l0 -43.4218 28.5143 0 0 43.4218c-0.0166,0.6837 0.1168,1.1672 0.3836,1.4174 0.2501,0.2668 0.7337,0.4002 1.4173,0.3835l3.1016 0c0.6837,0.0167 1.1672,-0.1167 1.434,-0.3835 0.2502,-0.2502 0.3836,-0.7337 0.3669,-1.4174l0 -47.824c0.0167,-0.6837 -0.1167,-1.1673 -0.3669,-1.4341 -0.2668,-0.2501 -0.7503,-0.3835 -1.434,-0.3668zm13.4067 16.9085l0 17.6088c0.0167,3.8186 0.9005,7.0869 2.6513,9.8216 1.7509,2.718 4.2688,4.8191 7.5372,6.2698 3.2516,1.4674 7.1702,2.2011 11.7225,2.2178 4.619,-0.0167 8.571,-0.7504 11.8726,-2.2178 3.285,-1.4507 5.8196,-3.5518 7.5705,-6.2698 1.7675,-2.7347 2.6513,-6.003 2.668,-9.8216l0 -17.6088c-0.0167,-3.8186 -0.9005,-7.1036 -2.668,-9.8383 -1.7509,-2.7514 -4.2855,-4.8524 -7.5705,-6.3365 -3.3016,-1.4674 -7.2536,-2.2178 -11.8726,-2.2345 -4.5523,0.0167 -8.4709,0.7671 -11.7225,2.2345 -3.2684,1.4841 -5.7863,3.5851 -7.5372,6.3365 -1.7508,2.7347 -2.6346,6.0197 -2.6513,9.8383zm37.2187 0l0 17.6088c-0.0167,2.5513 -0.6337,4.7191 -1.8843,6.5366 -1.2339,1.8343 -2.9848,3.2183 -5.2693,4.2021 -2.2845,0.9672 -5.0025,1.4508 -8.1541,1.4674 -3.0849,-0.0166 -5.7696,-0.5002 -8.0374,-1.4674 -2.2678,-0.9838 -4.0186,-2.3678 -5.2693,-4.2021 -1.2506,-1.8175 -1.8843,-3.9853 -1.9009,-6.5366l0 -17.6088c0.0166,-2.5846 0.6503,-4.7858 1.9009,-6.62 1.2507,-1.8343 3.0015,-3.235 5.2693,-4.2021 2.2678,-0.9838 4.9525,-1.4841 8.0374,-1.4841 3.1516,0 5.8696,0.5003 8.1541,1.4841 2.2845,0.9671 4.0354,2.3678 5.2693,4.2021 1.2506,1.8342 1.8676,4.0354 1.8843,6.62zm22.1111 -15.5078c-1.0505,0.4169 -1.8843,0.8504 -2.4679,1.3007 -0.5669,0.4335 -0.9838,1.0005 -1.2006,1.6675 -0.2334,0.667 -0.3502,1.5507 -0.3335,2.6346l0 64.6324c0,0.6837 0.1334,1.1673 0.4169,1.4174 0.2835,0.2668 0.7337,0.4002 1.384,0.3835l3.2016 0c0.6503,0.0167 1.1006,-0.1167 1.3841,-0.3835 0.2834,-0.2501 0.4168,-0.7337 0.4168,-1.4174l0 -22.2111c0.8505,0.3502 2.001,0.8004 3.4684,1.334 1.4674,0.5169 3.185,0.9838 5.1359,1.4007 1.951,0.4169 4.0854,0.6503 6.4033,0.667 4.7023,-0.0167 8.5542,-0.7837 11.5891,-2.3345 3.0349,-1.5508 5.2693,-3.8019 6.7367,-6.7701 1.4674,-2.9514 2.2011,-6.5533 2.1844,-10.8054l0 -14.4072c0.0167,-4.2855 -0.7337,-7.904 -2.2177,-10.8888 -1.4841,-2.9682 -3.7686,-5.236 -6.8368,-6.7868 -3.0682,-1.5507 -6.9868,-2.3178 -11.7559,-2.3345 -4.0354,0.0334 -7.4871,0.3169 -10.3719,0.8838 -2.8681,0.567 -5.2526,1.234 -7.1369,2.0177zm31.6159 17.3087l0 14.007c0.0333,4.569 -1.1172,8.0374 -3.4351,10.4219 -2.3178,2.3679 -5.9363,3.5685 -10.8721,3.5851 -2.2178,-0.0166 -4.2688,-0.2501 -6.1864,-0.667 -1.901,-0.4168 -3.5685,-0.9004 -5.0025,-1.434 -1.4341,-0.5503 -2.5346,-1.0172 -3.3184,-1.4007l0 -33.917c-0.0166,-0.5336 0.0334,-0.9505 0.1168,-1.2507 0.0833,-0.3168 0.2668,-0.5836 0.5336,-0.8004 0.2668,-0.2167 0.6836,-0.4335 1.2506,-0.6503 1.4007,-0.5169 3.1015,-0.9671 5.1025,-1.334 2.001,-0.3668 4.3022,-0.5503 6.9035,-0.5669 5.0025,0 8.7377,1.1839 11.2056,3.5517 2.4679,2.3512 3.7019,5.8363 3.7019,10.4553zm53.4268 -18.7094l-38.5193 0c-0.6503,-0.0167 -1.1005,0.1167 -1.384,0.3668 -0.2835,0.2668 -0.4169,0.7504 -0.4169,1.4341l0 2.6013c0,0.6503 0.1334,1.1006 0.4169,1.384 0.2835,0.2835 0.7337,0.4169 1.384,0.4169l16.008 0 0 43.4218c0,0.6837 0.1334,1.1672 0.4169,1.4174 0.2835,0.2668 0.7337,0.4002 1.384,0.3835l3.1016 0c0.6503,0.0167 1.1006,-0.1167 1.384,-0.3835 0.2835,-0.2502 0.4169,-0.7337 0.4169,-1.4174l0 -43.4218 15.8079 0c0.6837,0 1.1673,-0.1334 1.4174,-0.4169 0.2668,-0.2834 0.4002,-0.7337 0.3835,-1.384l0 -2.6013c0.0167,-0.6837 -0.1167,-1.1673 -0.3835,-1.4341 -0.2501,-0.2501 -0.7337,-0.3835 -1.4174,-0.3668zm8.6043 9.0045c-0.3502,0.6837 -0.4335,1.234 -0.2501,1.6342 0.1834,0.4002 0.6003,0.7337 1.2506,0.9671l2.4012 1.0005c0.617,0.3002 1.1006,0.3835 1.4341,0.2335 0.3335,-0.1334 0.7003,-0.4836 1.0672,-1.0339 1.284,-2.3178 3.0682,-4.1187 5.3527,-5.386 2.2844,-1.2673 5.1692,-1.901 8.6543,-1.9176 2.718,0 4.9525,0.3501 6.72,1.0338 1.7509,0.7004 3.1349,1.6508 4.1188,2.8848 1.0005,1.2506 1.7008,2.6847 2.101,4.3522 0.3836,1.6675 0.5837,3.4684 0.567,5.436l0 4.6023c-0.617,-0.0833 -1.5842,-0.1834 -2.8848,-0.3501 -1.3007,-0.1501 -2.8348,-0.3002 -4.6023,-0.4336 -1.7509,-0.1334 -3.6352,-0.2001 -5.6195,-0.2168 -5.2193,-0.0166 -9.4381,0.4669 -12.6897,1.4674 -3.235,1.0005 -5.6028,2.6347 -7.1036,4.9025 -1.5007,2.2845 -2.2344,5.3193 -2.2177,9.1379 -0.0167,2.5013 0.2834,4.7191 0.9338,6.6367 0.6336,1.9343 1.7508,3.5518 3.3516,4.8691 1.5842,1.3173 3.7853,2.3178 6.6034,2.9848 2.818,0.667 6.3865,1.0172 10.722,1.0172 3.7852,-0.0167 7.0369,-0.2501 9.7716,-0.7003 2.718,-0.4669 5.0025,-1.1006 6.8367,-1.901 0.9338,-0.3835 1.6509,-0.8004 2.1845,-1.234 0.5169,-0.4335 0.8837,-1.0005 1.1005,-1.7008 0.2168,-0.7004 0.3168,-1.6175 0.3168,-2.7681l0 -26.2131c0.0167,-2.718 -0.2834,-5.2693 -0.8837,-7.6539 -0.617,-2.3845 -1.6675,-4.4855 -3.1516,-6.3031 -1.4841,-1.8176 -3.5351,-3.2517 -6.1364,-4.2855 -2.6013,-1.0172 -5.8863,-1.5508 -9.8383,-1.5675 -5.0359,0.0167 -9.2213,0.9505 -12.5229,2.7681 -3.3184,1.8343 -5.853,4.4022 -7.5872,7.7372zm33.4168 19.3097l0 14.4072c0,0.617 -0.05,1.1173 -0.1501,1.4674 -0.1167,0.3502 -0.3168,0.6337 -0.5836,0.8338 -0.2835,0.2168 -0.667,0.4169 -1.1673,0.6003 -1.384,0.5002 -3.0515,0.9004 -5.0025,1.1839 -1.951,0.2668 -4.3188,0.4169 -7.1036,0.4169 -2.9014,0 -5.3026,-0.2335 -7.1535,-0.6837 -1.8676,-0.4335 -3.3184,-1.1005 -4.3355,-1.951 -1.0339,-0.8671 -1.7509,-1.9176 -2.1511,-3.1515 -0.4002,-1.234 -0.5837,-2.6347 -0.567,-4.2188 -0.0167,-2.2678 0.4169,-4.1188 1.334,-5.5695 0.9172,-1.4507 2.4179,-2.5179 4.5356,-3.2016 2.1178,-0.7003 4.9525,-1.0338 8.5376,-1.0338 1.9677,0 3.8687,0.0667 5.7196,0.1834 1.8509,0.1167 3.4851,0.2501 4.9024,0.4002 1.4341,0.1334 2.5013,0.2334 3.185,0.3168zm57.7289 -28.3142l-32.3162 0c-0.6837,-0.0167 -1.1672,0.1167 -1.4174,0.3668 -0.2668,0.2668 -0.4002,0.7504 -0.3835,1.4341l0 16.4082c0,4.6524 -0.2168,8.571 -0.6003,11.7393 -0.4002,3.1682 -0.9505,5.7528 -1.6341,7.7538 -0.6837,2.0011 -1.4508,3.5685 -2.3179,4.7358 -0.8671,1.1505 -1.7842,2.051 -2.7347,2.6846 -0.9504,0.6337 -1.8842,1.1673 -2.818,1.6008 -0.5003,0.2335 -0.8004,0.5003 -0.9172,0.8171 -0.1,0.3002 -0.0333,0.6837 0.2168,1.1839l1.5008 3.1016c0.2501,0.5003 0.5502,0.8171 0.9171,0.9672 0.3502,0.15 0.7837,0.1334 1.284,-0.0667 1.384,-0.617 2.7513,-1.3841 4.0687,-2.3179 1.3173,-0.9338 2.5512,-2.1677 3.7018,-3.7018 1.1506,-1.5341 2.1678,-3.5185 3.0349,-5.953 0.8671,-2.4346 1.5508,-5.4528 2.051,-9.0712 0.4836,-3.6185 0.7337,-7.9707 0.7504,-13.0733l0 -12.3061 22.6113 0 0 43.3217c0,0.6837 0.1334,1.1672 0.4169,1.4174 0.2835,0.2668 0.7337,0.4002 1.384,0.3835l3.2016 0c0.6504,0.0167 1.1006,-0.1167 1.3841,-0.3835 0.2834,-0.2502 0.4168,-0.7337 0.4168,-1.4174l0 -47.824c0,-0.6837 -0.1334,-1.1673 -0.4168,-1.4341 -0.2835,-0.2501 -0.7337,-0.3835 -1.3841,-0.3668z"/>
  </g>
 </g>
</svg>
