<?xml version="1.0" encoding="UTF-8" standalone="no"?>
<svg
   xmlns:dc="http://purl.org/dc/elements/1.1/"
   xmlns:cc="http://creativecommons.org/ns#"
   xmlns:rdf="http://www.w3.org/1999/02/22-rdf-syntax-ns#"
   xmlns:svg="http://www.w3.org/2000/svg"
   xmlns="http://www.w3.org/2000/svg"
   xmlns:xlink="http://www.w3.org/1999/xlink"
   id="svg40"
   version="1.1"
   viewBox="0 0 63.500002 13.229166"
   style="clip-rule:evenodd;fill-rule:evenodd;image-rendering:optimizeQuality;shape-rendering:geometricPrecision;text-rendering:geometricPrecision"
   height="50"
   width="240"
   xml:space="preserve"><metadata
     id="metadata44"><rdf:RDF><cc:Work
         rdf:about=""><dc:format>image/svg+xml</dc:format><dc:type
           rdf:resource="http://purl.org/dc/dcmitype/StillImage" /><dc:title></dc:title></cc:Work></rdf:RDF></metadata><defs
     id="defs15"><style
       id="style2"
       type="text/css"><![CDATA[
    .fil0 {fill:white}
    .fil1 {fill:#1F1A17;fill-rule:nonzero}
    .fil8 {fill:url(#id0)}
    .fil4 {fill:url(#id1)}
    .fil5 {fill:url(#id2)}
    .fil3 {fill:url(#id3)}
    .fil7 {fill:url(#id4)}
    .fil6 {fill:url(#id5)}
    .fil2 {fill:url(#id6)}
   ]]></style><linearGradient
       y2="141.765"
       x2="-221.429"
       y1="141.765"
       x1="-293.99301"
       gradientUnits="userSpaceOnUse"
       id="id0"><stop
         id="stop4"
         style="stop-color:#006F52"
         offset="0" /><stop
         id="stop6"
         style="stop-color:#008F69"
         offset="1" /></linearGradient><linearGradient
       y2="88.914703"
       x2="-376.03799"
       y1="88.914703"
       x1="-464.91699"
       xlink:href="#id0"
       gradientUnits="userSpaceOnUse"
       id="id1" /><linearGradient
       y2="89.745903"
       x2="-251.409"
       y1="89.745903"
       x1="-162.52901"
       xlink:href="#id0"
       gradientUnits="userSpaceOnUse"
       id="id2" /><linearGradient
       y2="110.603"
       x2="-500.991"
       y1="110.603"
       x1="-532.14203"
       xlink:href="#id0"
       gradientUnits="userSpaceOnUse"
       id="id3" /><linearGradient
       y2="36.895802"
       x2="-339.745"
       y1="36.895802"
       x1="-408.39801"
       xlink:href="#id0"
       gradientUnits="userSpaceOnUse"
       id="id4" /><linearGradient
       y2="88.967201"
       x2="-272.64899"
       y1="88.967201"
       x1="-356.60001"
       xlink:href="#id0"
       gradientUnits="userSpaceOnUse"
       id="id5" /><linearGradient
       y2="37.729301"
       x2="-504.952"
       y1="37.729301"
       x1="-560.60901"
       xlink:href="#id0"
       gradientUnits="userSpaceOnUse"
       id="id6" /><linearGradient
       y2="141.765"
       x2="-221.429"
       y1="141.765"
       x1="-293.99301"
       gradientUnits="userSpaceOnUse"
       id="linearGradient3716"
       xlink:href="#id0" /></defs><g
     transform="matrix(0.04472985,0,0,0.04472985,26.828775,1.3671297)"
     id="Слой_x0020_1"><metadata
       id="CorelCorpID_0Corel-Layer" /><rect
       style="fill:#ffffff"
       id="rect18"
       height="292.37399"
       width="1419.26"
       y="-21.4065"
       x="-599.13"
       class="fil0" /><path
       style="fill:#1f1a17;fill-rule:nonzero"
       id="path20"
       d="m -67.6104,81.1815 h -34.2685 V 18.6811 c 0.0328,-1.5484 -0.2297,-2.6745 -0.7549,-3.308 -0.558,-0.6335 -1.5428,-0.9503 -2.987,-0.9149 h -6.4992 c -1.4443,-0.0354 -2.4947,0.2814 -3.0856,0.9149 -0.5906,0.6335 -0.8861,1.7596 -0.8533,3.308 v 141.471 c -0.0328,1.5485 0.2627,2.6746 0.8533,3.308 0.5909,0.6334 1.6413,0.9501 3.0856,0.915 h 6.4992 c 1.4442,0.0351 2.429,-0.2816 2.987,-0.915 0.5252,-0.6334 0.7877,-1.7595 0.7549,-3.308 v -64.612 h 34.2685 v 19.0036 c 0.0328,11.0853 2.0679,20.5519 6.171,28.4348 4.1029,7.8479 10.1099,13.8655 18.0532,18.0182 7.9107,4.1878 17.6266,6.2993 29.1479,6.3345 11.3901,-0.0352 21.0075,-2.1467 28.8852,-6.3345 7.8779,-4.1527 13.8518,-10.1703 17.9221,-18.0182 4.1031,-7.8829 6.1381,-17.3495 6.171,-28.4348 V 64.29 C 38.7071,53.2046 36.6721,43.738 32.569,35.8552 28.4987,28.0074 22.5248,21.9896 14.6469,17.8018 6.7692,13.6491 -2.8482,11.5377 -14.2383,11.5026 c -11.5213,0.0351 -21.2372,2.1465 -29.1479,6.2992 -7.9433,4.1878 -13.9503,10.2056 -18.0532,18.0534 -4.1031,7.8828 -6.1382,17.3494 -6.171,28.4348 v 16.892 z m 92.1702,33.3617 c 0,8.27 -1.5097,15.238 -4.4968,21.0094 -2.987,5.7362 -7.3527,10.1 -13.1298,13.0914 -5.7443,3.0264 -12.8013,4.5045 -21.1715,4.5397 -8.403,-0.0352 -15.5257,-1.5133 -21.3028,-4.5397 -5.81,-2.9914 -10.2085,-7.3552 -13.1955,-13.0914 -2.9869,-5.7714 -4.4968,-12.7394 -4.4968,-21.0094 V 64.2895 c 0,-8.27 1.5099,-15.2733 4.4968,-21.0095 2.987,-5.7362 7.3855,-10.1 13.1955,-13.1264 5.7771,-2.9912 12.8998,-4.5045 21.3028,-4.5045 8.3702,0 15.4272,1.5133 21.1715,4.5045 5.7771,3.0264 10.1428,7.3902 13.1298,13.1264 2.9871,5.7362 4.4968,12.7395 4.4968,21.0095 z M 69.2664,14.4582 c -1.4442,-0.0354 -2.4946,0.2814 -3.0854,0.9149 -0.5909,0.6335 -0.8862,1.7596 -0.8534,3.308 v 141.471 c -0.0328,1.5485 0.2625,2.6746 0.8534,3.308 0.5908,0.6334 1.6412,0.9501 3.0854,0.915 h 6.4991 c 1.4444,0.0351 2.4291,-0.2816 2.9871,-0.915 0.5253,-0.6334 0.7878,-1.7595 0.755,-3.308 v -52.154 h 42.3432 c 9.2237,-0.0353 17.1669,-1.9005 23.7974,-5.5955 6.6307,-3.66 11.7183,-8.9739 15.2962,-15.9418 3.5779,-6.9328 5.3831,-15.3084 5.416,-25.1269 -0.0329,-9.8184 -1.8381,-18.2293 -5.416,-25.1973 -3.5779,-6.968 -8.6655,-12.317 -15.2962,-16.0473 -6.6305,-3.7303 -14.5737,-5.5955 -23.7974,-5.6306 H 69.2664 Z M 79.5076,93.8504 V 28.8163 h 41.1615 c 6.4008,0.0351 11.9151,1.3373 16.5106,3.9062 4.5953,2.6042 8.1732,6.3345 10.6351,11.1558 2.4945,4.8565 3.7419,10.6631 3.7747,17.4551 -0.0328,6.7921 -1.2802,12.5986 -3.7747,17.455 -2.4619,4.8213 -6.0398,8.5516 -10.6351,11.1206 -4.5955,2.6042 -10.1098,3.9063 -16.5106,3.9414 z m 203.838,-79.3922 c -0.8862,0 -1.6739,0.1759 -2.3632,0.4926 -0.6894,0.3519 -1.2802,0.8797 -1.7724,1.6188 l -56.7202,88.4719 c -4.6283,7.2845 -8.7642,14.2525 -12.4732,20.8686 -3.6764,6.6512 -6.926,12.9153 -9.7817,18.8275 h -0.5908 c 0.7877,-7.2847 1.3785,-14.71 1.7725,-22.3114 0.3938,-7.5663 0.5907,-15.2733 0.5907,-23.0858 V 18.6811 c 0.0328,-1.5484 -0.2297,-2.6745 -0.7549,-3.308 -0.558,-0.6335 -1.5427,-0.9503 -2.987,-0.9149 h -6.4992 c -1.4444,-0.0354 -2.4946,0.2814 -3.0854,0.9149 -0.5908,0.6335 -0.8862,1.7596 -0.8535,3.308 v 141.471 c -0.0327,1.5485 0.2627,2.6746 0.8535,3.308 0.5908,0.6334 1.641,0.9501 3.0854,0.915 h 6.4992 c 0.8862,0 1.6742,-0.2111 2.3634,-0.5983 0.6893,-0.4223 1.28,-0.9853 1.7725,-1.7244 L 260.5,71.4691 c 4.6283,-7.6014 8.6986,-14.5342 12.2435,-20.7631 3.5121,-6.2289 6.4665,-11.7539 8.8297,-16.6105 h 0.3938 c -0.8861,7.4959 -1.5098,14.8158 -1.9367,21.9948 -0.4266,7.1791 -0.6235,14.2175 -0.6235,21.0799 v 82.9819 c 0,1.5485 0.2627,2.6746 0.8534,3.308 0.6237,0.6334 1.6412,0.9501 3.0854,0.915 h 6.4993 c 1.4442,0.0351 2.4946,-0.2816 3.0856,-0.915 0.5908,-0.6334 0.8862,-1.7595 0.8532,-3.308 V 18.6811 c 0.033,-1.5484 -0.2624,-2.6745 -0.8532,-3.308 -0.591,-0.6335 -1.6414,-0.9503 -3.0856,-0.9149 z m 37.0259,99.8738 c 0.0328,11.0854 2.1335,20.5871 6.3349,28.4701 4.2015,7.883 10.307,13.9359 18.316,18.1589 8.009,4.1878 17.7907,6.3345 29.312,6.3697 9.8801,0 18.3158,-1.3725 25.3403,-4.1527 6.9915,-2.7448 12.7358,-6.8623 17.1999,-12.317 4.4969,-5.4898 7.9105,-12.3172 10.2409,-20.4815 0.394,-1.2669 0.394,-2.3227 0,-3.2025 -0.3937,-0.8446 -1.1815,-1.5485 -2.3632,-2.0763 l -6.1053,-2.5337 c -1.1815,-0.3169 -2.1991,-0.2464 -3.0856,0.1759 -0.8532,0.4575 -1.5425,1.302 -2.035,2.5689 -1.8052,6.4048 -4.3328,11.6484 -7.5824,15.7659 -3.2494,4.1174 -7.4512,7.1791 -12.6045,9.1499 -5.1534,1.9707 -11.4884,2.9561 -19.0051,2.9561 -8.5015,-0.0352 -15.6572,-1.5836 -21.5657,-4.6102 -5.8753,-3.0617 -10.3394,-7.4606 -13.3921,-13.232 -3.0854,-5.7363 -4.5955,-12.6691 -4.6281,-20.7983 V 64.2895 c 0,-8.1997 1.5098,-15.1676 4.5296,-20.9039 3.0199,-5.7362 7.4512,-10.1351 13.3266,-13.1617 5.8757,-3.0264 13.1297,-4.5748 21.7297,-4.5748 7.3855,-0.0352 13.622,0.9501 18.7098,2.8856 5.1205,1.9356 9.2892,4.9269 12.5387,8.9387 3.2169,4.0119 5.7443,9.1499 7.5498,15.4139 0.4922,1.1614 1.1487,1.9357 1.9692,2.358 0.8207,0.4222 1.871,0.4927 3.1512,0.1759 l 6.1054,-2.3226 c 1.4442,-0.4927 2.3304,-1.1614 2.6587,-1.9708 0.3282,-0.8094 0.2297,-1.9708 -0.2954,-3.5192 -2.3307,-8.0941 -5.7443,-14.8156 -10.2084,-20.1648 -4.4641,-5.3491 -10.1754,-9.3258 -17.1341,-11.9652 -6.9588,-2.6745 -15.2961,-3.9765 -25.0449,-3.9765 -11.6526,0.0351 -21.467,2.1465 -29.4762,6.3696 -8.0092,4.223 -14.1143,10.276 -18.2501,18.1589 -4.1359,7.883 -6.2038,17.3847 -6.2366,28.47 z m 120.53,-99.8738 c -1.4443,-0.0354 -2.4946,0.2814 -3.0855,0.9149 -0.5908,0.6335 -0.8863,1.7596 -0.8535,3.308 v 5.9122 c -0.0328,1.5484 0.2627,2.6394 0.8535,3.308 0.5909,0.6334 1.6412,0.915 3.0855,0.915 h 39.7829 v 131.335 c -0.0328,1.5485 0.2627,2.6746 0.8534,3.308 0.5908,0.6334 1.6412,0.9501 3.0854,0.915 h 6.4993 c 1.4442,0.0351 2.4946,-0.2816 3.0854,-0.915 0.5908,-0.6334 0.8862,-1.7595 0.8534,-3.308 V 28.8163 h 39.7829 c 1.4442,0 2.4946,-0.2816 3.0854,-0.915 0.591,-0.6686 0.8864,-1.7596 0.8535,-3.308 v -5.9122 c 0.0329,-1.5484 -0.2625,-2.6745 -0.8535,-3.308 -0.5908,-0.6335 -1.6412,-0.9503 -3.0854,-0.9149 z m 111.668,99.8738 c 0.0328,11.0854 2.1336,20.5871 6.3022,28.4701 4.1687,7.883 10.274,13.9359 18.3159,18.1589 8.0419,4.1878 17.8891,6.3345 29.5419,6.3697 11.5868,-0.0352 21.3685,-2.1819 29.4103,-6.3697 8.0091,-4.223 14.1145,-10.2759 18.283,-18.1589 4.1359,-7.883 6.2368,-17.3847 6.2696,-28.4701 V 64.5006 c -0.0328,-11.0853 -2.1337,-20.587 -6.2696,-28.47 -4.1685,-7.8829 -10.2739,-13.9359 -18.283,-18.1589 -8.0418,-4.2231 -17.8235,-6.3345 -29.4103,-6.3696 -11.6528,0.0351 -21.5,2.1465 -29.5419,6.3696 -8.0419,4.223 -14.1472,10.276 -18.3159,18.1589 -4.1686,7.883 -6.2694,17.3847 -6.3022,28.47 z m 93.9428,0 c 0,8.2701 -1.5427,15.2732 -4.5626,21.0446 -3.0526,5.7714 -7.5167,10.2057 -13.425,13.2321 -5.9084,3.0265 -13.1954,4.5398 -21.7952,4.575 -8.6001,-0.0352 -15.8871,-1.5485 -21.8282,-4.575 -5.9412,-3.0264 -10.4381,-7.4607 -13.5235,-13.2321 -3.0856,-5.7714 -4.6281,-12.7745 -4.6281,-21.0446 V 64.5006 c 0,-8.27 1.5425,-15.2731 4.6281,-21.0445 3.0854,-5.8067 7.5823,-10.2056 13.5235,-13.2322 5.9411,-3.0264 13.2281,-4.5748 21.8282,-4.5748 8.5998,0 15.8868,1.5484 21.7952,4.5748 5.9083,3.0266 10.3724,7.4255 13.425,13.2322 3.0199,5.7714 4.5626,12.7745 4.5626,21.0445 z m 44.7064,-99.8738 c -1.4442,-0.0354 -2.4946,0.2814 -3.0854,0.9149 -0.5909,0.6335 -0.8862,1.7596 -0.8534,3.308 v 141.471 c -0.0328,1.5485 0.2625,2.6746 0.8534,3.308 0.5908,0.6334 1.6412,0.9501 3.0854,0.915 h 57.7049 c 8.3702,-0.0352 15.6243,-1.6188 21.6968,-4.7861 6.0725,-3.1672 10.7664,-7.7422 14.0487,-13.7247 3.3152,-6.0178 4.9894,-13.2673 5.0223,-21.8189 0,-10.1351 -1.9696,-18.2645 -5.8757,-24.4229 -3.9389,-6.1234 -9.7815,-10.3113 -17.5609,-12.5283 v -0.4223 c 6.2038,-2.8505 10.8321,-7.1088 13.9175,-12.7745 3.0526,-5.666 4.5954,-12.6691 4.5954,-21.0096 -0.0328,-8.27 -1.51,-15.2379 -4.4641,-20.939 -2.9542,-5.7009 -7.2541,-10.0647 -12.9328,-13.0209 -5.6456,-2.9561 -12.5059,-4.4692 -20.6136,-4.4692 h -55.5385 z m 78.975,40.3296 c -0.0328,8.7627 -2.1664,15.3436 -6.4664,19.7776 -4.2998,4.3989 -10.5365,6.6161 -18.7425,6.6161 H 701.4599 V 28.8163 h 43.5249 c 8.3702,0 14.6723,2.1467 18.8738,6.4753 4.2344,4.3286 6.3351,10.839 6.3351,19.4962 z m -2.1664,88.2607 c -2.2648,2.3227 -5.0549,4.0822 -8.3702,5.2434 -3.3152,1.1615 -7.09,1.7244 -11.3242,1.7244 h -46.873 V 94.9062 h 46.873 c 4.2342,0 8.009,0.5631 11.3242,1.7244 3.3153,1.1614 6.1054,2.9209 8.3702,5.2436 2.2649,2.4283 3.9388,5.3492 5.055,8.7628 1.116,3.4136 1.6411,7.3901 1.6411,11.93 0,4.5397 -0.5251,8.5162 -1.6411,11.8946 -1.1162,3.4136 -2.7901,6.2643 -5.055,8.5869 z"
       class="fil1" /><g
       id="_69120296"><path
         style="fill:#1f1a17;fill-rule:nonzero"
         d="m -532.42,211.874 h -9.2157 V 196.46 c 0.0136,-0.7611 -0.1224,-1.2776 -0.3942,-1.563 -0.2855,-0.272 -0.802,-0.4078 -1.5631,-0.3943 h -3.4254 c -0.7611,-0.0135 -1.2776,0.1223 -1.5631,0.3943 -0.2718,0.2854 -0.4077,0.8019 -0.3942,1.563 v 38.1678 c 0,1.3048 0.6525,1.9573 1.9573,1.9573 h 3.4254 c 0.7611,0.0136 1.2776,-0.1223 1.5631,-0.3942 0.2718,-0.2854 0.4078,-0.8019 0.3942,-1.5631 V 218.643 h 9.2157 v 3.6699 c 0.0136,3.2487 0.7204,6.0216 2.1068,8.3323 1.4,2.3107 3.4253,4.0777 6.0895,5.3011 2.6506,1.2233 5.8719,1.8485 9.6642,1.8621 3.8195,-0.0136 7.0546,-0.6388 9.7322,-1.8621 2.6642,-1.2234 4.7031,-2.9904 6.1031,-5.3011 1.3864,-2.3107 2.0932,-5.0836 2.1068,-8.3323 v -13.538 c -0.0136,-3.2487 -0.7204,-6.0215 -2.1068,-8.3323 -1.4,-2.3106 -3.4389,-4.0776 -6.1031,-5.301 -2.6776,-1.2369 -5.9127,-1.8486 -9.7322,-1.8622 -3.7923,0.0136 -7.0136,0.6253 -9.6642,1.8622 -2.6642,1.2234 -4.6895,2.9904 -6.0895,5.301 -1.3864,2.3108 -2.0932,5.0836 -2.1068,8.3323 z m 28.4627,10.4389 c 0,1.8487 -0.435,3.439 -1.2777,4.7711 -0.8428,1.3184 -2.0524,2.3378 -3.6428,3.0447 -1.5767,0.7068 -3.4661,1.0738 -5.6817,1.0738 -2.202,0 -4.0913,-0.367 -5.668,-1.0738 -1.5631,-0.7069 -2.7593,-1.7263 -3.5884,-3.0447 -0.8428,-1.3321 -1.2505,-2.9224 -1.2642,-4.7711 v -13.538 c 0.0137,-1.8758 0.4214,-3.4797 1.2642,-4.8118 0.8291,-1.3185 2.0253,-2.3243 3.5884,-3.0311 1.5767,-0.6932 3.466,-1.0466 5.668,-1.0466 3.3981,0.0136 6.0216,0.7884 7.8429,2.3379 1.8214,1.5359 2.7457,3.7243 2.7593,6.5516 z m 19.247,-26.6684 c -0.8564,0.3398 -1.5224,0.6932 -1.9845,1.0738 -0.4622,0.3807 -0.7748,0.8427 -0.9515,1.4137 -0.1768,0.5573 -0.2583,1.2776 -0.2447,2.1611 v 52.2768 c -0.0136,0.6932 0.1359,1.1825 0.4214,1.4952 0.2854,0.3125 0.7748,0.4621 1.4543,0.4621 h 3.4253 c 0.7613,0.0136 1.2778,-0.1223 1.5632,-0.3941 0.2718,-0.2855 0.4078,-0.802 0.3941,-1.5632 v -16.9635 c 2.1205,0.734 4.0643,1.2777 5.8176,1.6447 1.7671,0.367 3.3574,0.5573 4.7846,0.5573 11.5809,0 17.3712,-5.5457 17.3712,-16.6372 V 209.672 c 0,-5.4642 -1.4272,-9.5692 -4.268,-12.3012 -2.8544,-2.7321 -7.1089,-4.0914 -12.777,-4.0914 -2.9767,0 -5.7088,0.2039 -8.2098,0.5981 -2.4874,0.4078 -4.7574,0.9922 -6.7962,1.767 z m 24.7111,25.2821 c 0,3.3845 -0.8699,5.9263 -2.637,7.6389 -1.767,1.6991 -4.4175,2.5555 -7.9651,2.5555 -1.305,0 -2.7865,-0.1768 -4.4584,-0.5438 -1.6855,-0.3534 -3.534,-0.8835 -5.573,-1.5767 v -26.0976 c -0.0135,-0.4758 0.0545,-0.8291 0.2175,-1.0738 0.1495,-0.2447 0.4893,-0.4485 1.0059,-0.6388 1.3864,-0.4078 2.8001,-0.7205 4.2272,-0.9243 1.4408,-0.2039 2.9088,-0.2991 4.4176,-0.2991 3.5885,0 6.2798,0.8292 8.074,2.501 1.7941,1.6583 2.6913,4.1458 2.6913,7.4488 z m 18.1051,-26.4239 c -0.7611,-0.0135 -1.2776,0.1223 -1.563,0.3943 -0.2719,0.2854 -0.4078,0.8019 -0.3943,1.563 v 38.1678 c 0,1.3048 0.6525,1.9573 1.9573,1.9573 h 3.4255 c 0.8155,0 1.4679,-0.3262 1.9573,-0.9787 l 17.5342,-23.8956 c 0.9379,-1.3456 1.7943,-2.6369 2.5554,-3.8738 0.7748,-1.2369 1.4408,-2.4466 2.0117,-3.6292 h 0.2447 c -0.4486,2.1204 -0.7747,4.0777 -0.9922,5.8855 -0.204,1.7942 -0.3127,3.4525 -0.3127,4.9613 v 19.5732 c -0.0136,0.7612 0.1223,1.2777 0.3942,1.5631 0.2855,0.2719 0.802,0.4078 1.5631,0.3942 h 3.4253 c 0.7612,0.0136 1.2777,-0.1223 1.5632,-0.3942 0.2718,-0.2854 0.4078,-0.8019 0.3942,-1.5631 V 196.46 c 0.0136,-0.7611 -0.1224,-1.2776 -0.3942,-1.563 -0.2855,-0.272 -0.802,-0.4078 -1.5632,-0.3943 h -3.4253 c -0.4078,0 -0.7748,0.0816 -1.0874,0.2447 -0.3126,0.1631 -0.5844,0.4078 -0.7884,0.734 l -17.779,24.1402 c -1.7941,2.3652 -3.2621,4.8118 -4.4039,7.3401 h -0.2447 c 0.4486,-1.7535 0.7748,-3.507 0.9923,-5.274 0.2039,-1.7534 0.3127,-3.5341 0.3127,-5.3282 V 196.46 c 0.0135,-0.7611 -0.1224,-1.2776 -0.3943,-1.563 -0.2854,-0.272 -0.8019,-0.4078 -1.563,-0.3943 z m 80.6579,35.3133 V 196.46 c 0,-0.7611 -0.1495,-1.2776 -0.462,-1.563 -0.3127,-0.272 -0.802,-0.4078 -1.4953,-0.3943 h -26.9131 c -0.6932,-0.0135 -1.1825,0.1223 -1.4951,0.3943 -0.3127,0.2854 -0.4622,0.8019 -0.4622,1.563 v 12.3149 c 0,3.3845 -0.1223,6.2797 -0.3535,8.6992 -0.2446,2.4058 -0.5843,4.3495 -1.033,5.8176 -0.4893,1.5087 -1.0601,2.8 -1.7262,3.8738 -0.6524,1.0738 -1.4136,1.9573 -2.2699,2.6505 h -2.202 c -0.6796,-0.0135 -1.169,0.136 -1.4544,0.435 -0.2854,0.3126 -0.4349,0.8428 -0.4214,1.604 v 14.1089 c -0.0135,0.6933 0.136,1.1826 0.4214,1.4952 0.2854,0.3126 0.7748,0.4622 1.4544,0.4622 h 3.1806 c 0.6932,0 1.2097,-0.1632 1.536,-0.4893 0.3398,-0.3263 0.5029,-0.8157 0.5029,-1.4681 v -9.3788 h 32.2142 v 9.3788 c 0,0.6933 0.1496,1.1826 0.4621,1.4952 0.3127,0.3126 0.8156,0.4622 1.4952,0.4622 h 3.1806 c 0.7613,0 1.2778,-0.1496 1.5632,-0.4622 0.2719,-0.3126 0.4078,-0.8019 0.3942,-1.4952 V 231.855 c 0.0136,-0.7612 -0.1223,-1.2914 -0.3942,-1.604 -0.2854,-0.299 -0.8019,-0.4485 -1.5632,-0.435 z m -23.7324,-28.5442 h 16.3925 v 28.5442 h -20.4703 c 1.3457,-1.9573 2.3651,-4.6486 3.0448,-8.0874 0.6932,-3.4254 1.033,-7.6119 1.033,-12.5459 z m 38.2492,-6.7691 c -0.7611,-0.0135 -1.2776,0.1223 -1.5631,0.3943 -0.2718,0.2854 -0.4078,0.8019 -0.3942,1.563 v 38.1678 c 0,1.3048 0.6525,1.9573 1.9573,1.9573 h 3.4254 c 0.8155,0 1.4679,-0.3262 1.9573,-0.9787 l 17.5343,-23.8956 c 0.9378,-1.3456 1.7942,-2.6369 2.5553,-3.8738 0.7748,-1.2369 1.4408,-2.4466 2.0118,-3.6292 h 0.2447 c -0.4487,2.1204 -0.7748,4.0777 -0.9923,5.8855 -0.2039,1.7942 -0.3127,3.4525 -0.3127,4.9613 v 19.5732 c -0.0135,0.7612 0.1223,1.2777 0.3943,1.5631 0.2854,0.2719 0.8019,0.4078 1.563,0.3942 h 3.4253 c 0.7613,0.0136 1.2778,-0.1223 1.5632,-0.3942 0.2719,-0.2854 0.4078,-0.8019 0.3943,-1.5631 V 196.46 c 0.0135,-0.7611 -0.1224,-1.2776 -0.3943,-1.563 -0.2854,-0.272 -0.8019,-0.4078 -1.5632,-0.3943 h -3.4253 c -0.4077,0 -0.7747,0.0816 -1.0873,0.2447 -0.3127,0.1631 -0.5845,0.4078 -0.7884,0.734 l -17.779,24.1402 c -1.7942,2.3652 -3.2622,4.8118 -4.4039,7.3401 h -0.2447 c 0.4485,-1.7535 0.7747,-3.507 0.9922,-5.274 0.204,-1.7534 0.3127,-3.5341 0.3127,-5.3282 V 196.46 c 0.0136,-0.7611 -0.1224,-1.2776 -0.3942,-1.563 -0.2855,-0.272 -0.802,-0.4078 -1.5631,-0.3943 z m 41.43,11.8255 c -0.0136,5.1788 1.3185,9.0526 4.0233,11.6352 2.705,2.569 6.8779,3.8602 12.5324,3.8602 4.8117,0 8.237,-0.4077 10.2759,-1.2233 v 14.0275 c 0,0.7612 0.1495,1.2777 0.4621,1.5631 0.3127,0.2719 0.802,0.4078 1.4952,0.3942 h 3.4253 c 0.6933,0.0136 1.1826,-0.1223 1.4951,-0.3942 0.3127,-0.2854 0.4622,-0.8019 0.4622,-1.5631 V 196.46 c 0,-0.7611 -0.1495,-1.2776 -0.4622,-1.563 -0.3125,-0.272 -0.8018,-0.4078 -1.4951,-0.3943 h -3.4253 c -0.6932,-0.0135 -1.1825,0.1223 -1.4952,0.3943 -0.3126,0.2854 -0.4621,0.8019 -0.4621,1.563 v 17.2897 c -2.4467,0.9786 -5.5458,1.468 -9.2973,1.468 -6.8506,0 -10.2759,-3.0175 -10.2759,-9.0526 V 196.46 c 0.0135,-0.6932 -0.136,-1.1825 -0.4213,-1.4951 -0.2855,-0.3126 -0.7748,-0.4622 -1.4545,-0.4622 h -3.4253 c -0.7612,-0.0135 -1.2777,0.1223 -1.5631,0.3943 -0.2719,0.2854 -0.4078,0.8019 -0.3942,1.563 z m 42.8163,14.5168 c 0,3.4932 0.6661,6.5108 1.9981,9.039 1.3321,2.5282 3.3302,4.4719 6.0079,5.8448 2.6913,1.3728 6.0486,2.066 10.0992,2.0796 4.2408,0 7.8293,-0.6932 10.7517,-2.0933 2.936,-1.3863 5.1923,-3.4932 6.7826,-6.3068 0.8972,-1.3865 0.6525,-2.4466 -0.734,-3.1806 l -2.2019,-1.1418 c -0.6797,-0.4485 -1.2642,-0.6117 -1.7399,-0.4894 -0.4893,0.1224 -0.9651,0.5302 -1.4408,1.2234 -1.101,1.8758 -2.6098,3.2893 -4.4991,4.2272 -1.903,0.9379 -4.1865,1.4 -6.8371,1.4 -3.5611,-0.0136 -6.2661,-0.8563 -8.1282,-2.5418 -1.8487,-1.6718 -2.7865,-4.0913 -2.8001,-7.2447 v -3.9147 h 26.587 c 1.0193,0 1.7805,-0.2446 2.2698,-0.7204 0.503,-0.4894 0.7477,-1.1962 0.7477,-2.134 v -4.7302 c 0,-3.3981 -0.7069,-6.3477 -2.0933,-8.8759 -1.4,-2.5146 -3.466,-4.4856 -6.1982,-5.8719 -2.7321,-1.4001 -6.1166,-2.1068 -10.14,-2.1341 -3.9961,0.0136 -7.3671,0.6933 -10.1128,2.0525 -2.7321,1.3728 -4.7981,3.3437 -6.1982,5.9399 -1.4135,2.5961 -2.1204,5.7496 -2.1204,9.4604 z m 29.6045,-8.7264 h -22.3461 v -2.3651 c 0,-2.1611 0.4349,-3.9961 1.2777,-5.5321 0.8564,-1.5223 2.1204,-2.7049 3.7787,-3.5069 1.6583,-0.8155 3.6971,-1.2369 6.1166,-1.2369 3.6428,0.0136 6.4157,0.9107 8.3051,2.6913 1.9029,1.767 2.8544,4.2952 2.868,7.5846 z m 14.0275,9.2157 c 0,3.4933 0.666,6.4564 1.9845,8.9167 1.3184,2.4466 3.2893,4.3088 5.9263,5.6001 2.6369,1.2913 5.9262,1.9437 9.8682,1.9573 9.2156,0 15.1692,-3.7515 17.8605,-11.2545 0.2446,-0.6525 0.2446,-1.2098 0.0135,-1.6583 -0.2447,-0.4622 -0.7067,-0.8292 -1.4,-1.1146 l -2.8544,-0.8156 c -0.7476,-0.299 -1.3321,-0.3398 -1.7262,-0.1495 -0.3942,0.2039 -0.7477,0.6796 -1.0467,1.4545 -0.7748,2.365 -2.0388,4.1456 -3.8195,5.3281 -1.767,1.1826 -4.0506,1.7671 -6.8642,1.7671 -3.4797,-0.0271 -6.103,-0.8699 -7.8973,-2.5554 -1.7941,-1.6855 -2.6913,-4.0642 -2.7048,-7.1496 v -12.3149 c 0.0135,-3.0718 0.9107,-5.4506 2.7048,-7.1088 1.7943,-1.6583 4.4176,-2.5011 7.8973,-2.5146 2.8136,0 5.0972,0.5708 6.8642,1.7126 1.7535,1.1418 3.004,2.8545 3.738,5.138 0.2855,0.734 0.6525,1.2097 1.1145,1.4136 0.4486,0.2175 1.006,0.1767 1.6583,-0.1088 l 2.8545,-0.897 c 0.6932,-0.2447 1.1418,-0.5981 1.3592,-1.0466 0.2039,-0.4622 0.1903,-1.0331 -0.0544,-1.7263 -1.1417,-3.6292 -3.1398,-6.3613 -6.0078,-8.1827 -2.8544,-1.8349 -6.5924,-2.7457 -11.2002,-2.7457 -4.0506,0.0136 -7.4351,0.6661 -10.1401,1.9438 -2.7049,1.2913 -4.7301,3.1534 -6.0894,5.6001 -1.3593,2.433 -2.0388,5.3826 -2.0388,8.8487 z m 71.7683,-1.5495 c -0.8563,-1.7535 -1.835,-3.1807 -2.9223,-4.2952 -1.101,-1.1011 -2.2972,-1.903 -3.6021,-2.3923 l 13.0488,-16.311 c 0.6117,-0.7748 0.8155,-1.3456 0.6117,-1.7263 -0.2039,-0.367 -0.8155,-0.5573 -1.835,-0.5573 h -3.0991 c -0.7747,-0.0135 -1.3864,0.0136 -1.8214,0.068 -0.4486,0.0543 -0.8156,0.1903 -1.1146,0.4078 -0.2855,0.2039 -0.5845,0.5437 -0.897,0.9922 l -12.1517,15.7401 h -0.734 -6.4429 V 196.46 c 0.0136,-0.7611 -0.1359,-1.2776 -0.435,-1.563 -0.3126,-0.272 -0.8427,-0.4078 -1.6039,-0.3943 h -3.2622 c -0.7612,-0.0135 -1.2912,0.1223 -1.6039,0.3943 -0.299,0.2854 -0.4485,0.8019 -0.435,1.563 v 38.0863 c -0.0135,0.7611 0.136,1.2912 0.435,1.6038 0.3127,0.299 0.8427,0.4486 1.6039,0.435 h 3.2622 c 0.7612,0.0136 1.2913,-0.136 1.6039,-0.435 0.2991,-0.3126 0.4486,-0.8427 0.435,-1.6038 v -16.0664 h 7.4215 c 1.2641,0 2.3515,0.1359 3.2622,0.435 0.9107,0.299 1.6855,0.7747 2.3379,1.4407 0.6524,0.6525 1.2369,1.5225 1.7399,2.6098 l 5.6272,11.8255 c 0.2311,0.5029 0.4622,0.8971 0.7069,1.1554 0.231,0.2582 0.5573,0.4349 0.9514,0.5165 0.4078,0.0815 0.9651,0.1223 1.6855,0.1223 h 3.1807 c 0.9378,0 1.4951,-0.1767 1.6854,-0.5301 0.1903,-0.367 0.0272,-0.9515 -0.4621,-1.7534 z m 16.1478,-25.2821 c -0.7611,-0.0135 -1.2776,0.1223 -1.563,0.3943 -0.2719,0.2854 -0.4078,0.8019 -0.3943,1.563 v 38.1678 c 0,1.3048 0.6525,1.9573 1.9573,1.9573 h 3.4255 c 0.8155,0 1.4679,-0.3262 1.9573,-0.9787 l 17.5342,-23.8956 c 0.9379,-1.3456 1.7943,-2.6369 2.5554,-3.8738 0.7748,-1.2369 1.4408,-2.4466 2.0117,-3.6292 h 0.2447 c -0.4486,2.1204 -0.7747,4.0777 -0.9922,5.8855 -0.204,1.7942 -0.3127,3.4525 -0.3127,4.9613 v 19.5732 c -0.0136,0.7612 0.1223,1.2777 0.3942,1.5631 0.2855,0.2719 0.802,0.4078 1.5631,0.3942 h 3.4253 c 0.7612,0.0136 1.2777,-0.1223 1.5632,-0.3942 0.2718,-0.2854 0.4078,-0.8019 0.3942,-1.5631 V 196.46 c 0.0136,-0.7611 -0.1224,-1.2776 -0.3942,-1.563 -0.2855,-0.272 -0.802,-0.4078 -1.5632,-0.3943 h -3.4253 c -0.4078,0 -0.7748,0.0816 -1.0874,0.2447 -0.3126,0.1631 -0.5844,0.4078 -0.7884,0.734 l -17.779,24.1402 c -1.7941,2.3652 -3.2621,4.8118 -4.4039,7.3401 h -0.2447 c 0.4486,-1.7535 0.7748,-3.507 0.9923,-5.274 0.2039,-1.7534 0.3127,-3.5341 0.3127,-5.3282 V 196.46 c 0.0135,-0.7611 -0.1224,-1.2776 -0.3943,-1.563 -0.2854,-0.272 -0.8019,-0.4078 -1.563,-0.3943 z m 42.4086,26.3423 c 0,3.4932 0.6662,6.5108 1.9982,9.039 1.3321,2.5282 3.3301,4.4719 6.0079,5.8448 2.6913,1.3728 6.0486,2.066 10.0992,2.0796 4.2408,0 7.8293,-0.6932 10.7516,-2.0933 2.936,-1.3863 5.1924,-3.4932 6.7827,-6.3068 0.8971,-1.3865 0.6524,-2.4466 -0.734,-3.1806 l -2.2019,-1.1418 c -0.6797,-0.4485 -1.2642,-0.6117 -1.7399,-0.4894 -0.4893,0.1224 -0.9651,0.5302 -1.4408,1.2234 -1.101,1.8758 -2.6098,3.2893 -4.4991,4.2272 -1.903,0.9379 -4.1866,1.4 -6.8371,1.4 -3.5612,-0.0136 -6.2661,-0.8563 -8.1282,-2.5418 -1.8487,-1.6718 -2.7865,-4.0913 -2.8001,-7.2447 v -3.9147 h 26.5869 c 1.0194,0 1.7806,-0.2446 2.2699,-0.7204 0.503,-0.4894 0.7477,-1.1962 0.7477,-2.134 v -4.7302 c 0,-3.3981 -0.7069,-6.3477 -2.0933,-8.8759 -1.4,-2.5146 -3.4661,-4.4856 -6.1982,-5.8719 -2.7321,-1.4001 -6.1166,-2.1068 -10.14,-2.1341 -3.9961,0.0136 -7.3671,0.6933 -10.1128,2.0525 -2.7321,1.3728 -4.7982,3.3437 -6.1982,5.9399 -1.4136,2.5961 -2.1205,5.7496 -2.1205,9.4604 z m 29.6046,-8.7264 h -22.3461 v -2.3651 c 0,-2.1611 0.4349,-3.9961 1.2776,-5.5321 0.8565,-1.5223 2.1205,-2.7049 3.7788,-3.5069 1.6583,-0.8155 3.6971,-1.2369 6.1166,-1.2369 3.6428,0.0136 6.4156,0.9107 8.3051,2.6913 1.9028,1.767 2.8543,4.2952 2.868,7.5846 z m 62.308,7.6662 c -0.8563,-1.7535 -1.835,-3.1807 -2.9224,-4.2952 -1.101,-1.1011 -2.2972,-1.903 -3.602,-2.3923 l 13.0487,-16.311 c 0.6117,-0.7748 0.8156,-1.3456 0.6117,-1.7263 -0.2039,-0.367 -0.8155,-0.5573 -1.835,-0.5573 h -3.099 c -0.7748,-0.0135 -1.3865,0.0136 -1.8215,0.068 -0.4485,0.0543 -0.8155,0.1903 -1.1145,0.4078 -0.2855,0.2039 -0.5845,0.5437 -0.8971,0.9922 l -12.1517,15.7401 h -0.734 -6.4428 V 196.46 c 0.0135,-0.7611 -0.136,-1.2776 -0.435,-1.563 -0.3127,-0.272 -0.8428,-0.4078 -1.604,-0.3943 h -3.2621 c -0.7612,-0.0135 -1.2913,0.1223 -1.604,0.3943 -0.299,0.2854 -0.4485,0.8019 -0.435,1.563 v 38.0863 c -0.0135,0.7611 0.136,1.2912 0.435,1.6038 0.3127,0.299 0.8428,0.4486 1.604,0.435 h 3.2621 c 0.7612,0.0136 1.2913,-0.136 1.604,-0.435 0.299,-0.3126 0.4485,-0.8427 0.435,-1.6038 v -16.0664 h 7.4214 c 1.2642,0 2.3515,0.1359 3.2622,0.435 0.9108,0.299 1.6855,0.7747 2.3379,1.4407 0.6525,0.6525 1.237,1.5225 1.7399,2.6098 l 5.6272,11.8255 c 0.2312,0.5029 0.4622,0.8971 0.7069,1.1554 0.2311,0.2582 0.5573,0.4349 0.9514,0.5165 0.4079,0.0815 0.9652,0.1223 1.6855,0.1223 h 3.1807 c 0.9378,0 1.4951,-0.1767 1.6854,-0.5301 0.1904,-0.367 0.0272,-0.9515 -0.4621,-1.7534 z m 12.8856,2.4466 c 0.0136,3.2486 0.7476,6.0351 2.2021,8.3458 1.4543,2.3243 3.534,4.1049 6.2525,5.3554 2.7184,1.237 5.9942,1.8622 9.8137,1.8758 3.9011,-0.0136 7.2177,-0.6388 9.9362,-1.8758 2.732,-1.2505 4.8117,-3.0311 6.2525,-5.3554 1.4272,-2.3107 2.1476,-5.0972 2.1612,-8.3458 V 208.938 c -0.0136,-3.2758 -0.734,-6.0759 -2.1612,-8.4137 -1.4408,-2.3244 -3.5205,-4.1186 -6.2525,-5.3555 -2.7185,-1.2505 -6.0351,-1.8758 -9.9362,-1.8894 -3.8195,0.0136 -7.0953,0.6389 -9.8137,1.8894 -2.7185,1.2369 -4.7982,3.0311 -6.2525,5.3555 -1.4545,2.3378 -2.1885,5.1379 -2.2021,8.4137 z m 29.3598,0 c 0,1.8758 -0.4485,3.4933 -1.3321,4.8253 -0.8835,1.3321 -2.1475,2.3651 -3.8058,3.072 -1.6447,0.7068 -3.6293,1.0738 -5.9536,1.0738 -2.297,0 -4.2544,-0.367 -5.8991,-1.0738 -1.6447,-0.7069 -2.8952,-1.7399 -3.7787,-3.072 -0.8835,-1.332 -1.3185,-2.9495 -1.3321,-4.8253 v -13.375 c 0.0136,-1.8893 0.4486,-3.4933 1.3321,-4.8253 0.8835,-1.3457 2.134,-2.3651 3.7787,-3.072 1.6447,-0.7067 3.6021,-1.0737 5.8991,-1.0737 2.3243,0 4.3089,0.367 5.9536,1.0737 1.6583,0.7069 2.9223,1.7263 3.8058,3.072 0.8836,1.332 1.3321,2.936 1.3321,4.8253 z m 45.997,-27.7287 c -0.6933,-0.0135 -1.1826,0.1223 -1.4951,0.3943 -0.3127,0.2854 -0.4622,0.8019 -0.4622,1.563 v 15.2508 H 69.0479 V 196.46 c 0.0136,-0.7611 -0.1224,-1.2776 -0.3942,-1.563 -0.2855,-0.272 -0.802,-0.4078 -1.5631,-0.3943 h -3.4254 c -0.7611,-0.0135 -1.2776,0.1223 -1.5631,0.3943 -0.2718,0.2854 -0.4078,0.8019 -0.3942,1.563 v 38.1678 c 0,1.3048 0.6525,1.9573 1.9573,1.9573 h 3.4254 c 0.7611,0.0136 1.2776,-0.1223 1.5631,-0.3942 0.2718,-0.2854 0.4078,-0.8019 0.3942,-1.5631 v -16.1479 h 20.6334 v 16.1479 c 0,0.7612 0.1495,1.2777 0.4622,1.5631 0.3125,0.2719 0.8018,0.4078 1.4951,0.3942 h 3.4253 c 0.6932,0.0136 1.1825,-0.1223 1.4952,-0.3942 0.3126,-0.2854 0.4621,-0.8019 0.4621,-1.5631 V 196.46 c 0,-0.7611 -0.1495,-1.2776 -0.4621,-1.563 -0.3127,-0.272 -0.802,-0.4078 -1.4952,-0.3943 z m 14.1091,26.8316 c 0,3.4933 0.666,6.4564 1.9845,8.9167 1.3184,2.4466 3.2893,4.3088 5.9263,5.6001 2.6369,1.2913 5.9262,1.9437 9.8682,1.9573 9.2156,0 15.1692,-3.7515 17.8605,-11.2545 0.2446,-0.6525 0.2446,-1.2098 0.0135,-1.6583 -0.2447,-0.4622 -0.7068,-0.8292 -1.4,-1.1146 l -2.8545,-0.8156 c -0.7475,-0.299 -1.332,-0.3398 -1.7261,-0.1495 -0.3942,0.2039 -0.7477,0.6796 -1.0467,1.4545 -0.7748,2.365 -2.0388,4.1456 -3.8195,5.3281 -1.767,1.1826 -4.0506,1.7671 -6.8642,1.7671 -3.4797,-0.0271 -6.103,-0.8699 -7.8973,-2.5554 -1.7941,-1.6855 -2.6913,-4.0642 -2.7048,-7.1496 v -12.3149 c 0.0135,-3.0718 0.9107,-5.4506 2.7048,-7.1088 1.7943,-1.6583 4.4176,-2.5011 7.8973,-2.5146 2.8136,0 5.0972,0.5708 6.8642,1.7126 1.7535,1.1418 3.004,2.8545 3.738,5.138 0.2854,0.734 0.6524,1.2097 1.1145,1.4136 0.4486,0.2175 1.0059,0.1767 1.6583,-0.1088 l 2.8545,-0.897 c 0.6932,-0.2447 1.1417,-0.5981 1.3592,-1.0466 0.2039,-0.4622 0.1903,-1.0331 -0.0544,-1.7263 -1.1418,-3.6292 -3.1398,-6.3613 -6.0079,-8.1827 -2.8543,-1.8349 -6.5923,-2.7457 -11.2001,-2.7457 -4.0506,0.0136 -7.4351,0.6661 -10.1401,1.9438 -2.7049,1.2913 -4.7301,3.1534 -6.0894,5.6001 -1.3593,2.433 -2.0388,5.3826 -2.0388,8.8487 z m 73.3178,-26.8316 c -0.6932,-0.0135 -1.1825,0.1223 -1.4952,0.3943 -0.3125,0.2854 -0.4621,0.8019 -0.4621,1.563 v 31.3987 c -1.835,0.5709 -3.6292,1.0058 -5.369,1.2913 -1.7535,0.2855 -3.4389,0.4214 -5.07,0.4214 -3.4254,0 -5.9943,-0.8156 -7.707,-2.4331 -1.7126,-1.6311 -2.569,-4.0506 -2.569,-7.272 V 196.46 c 0.0137,-0.6932 -0.1358,-1.1825 -0.4213,-1.4951 -0.2855,-0.3126 -0.7748,-0.4622 -1.4544,-0.4622 h -3.4253 c -0.7611,-0.0135 -1.2777,0.1223 -1.5631,0.3943 -0.2719,0.2854 -0.4078,0.8019 -0.3942,1.563 v 23.651 c 0,5.3827 1.3864,9.4196 4.1457,12.1109 2.7729,2.6914 6.9049,4.037 12.41,4.037 1.7126,0 3.5203,-0.1495 5.4369,-0.435 1.903,-0.2854 3.901,-0.7068 5.9807,-1.2776 v 4.4039 c 0,3.5884 -0.8699,6.2797 -2.6233,8.074 -1.7399,1.7941 -4.3497,2.6913 -7.8157,2.6913 -2.3243,0 -4.3224,-0.4486 -6.0079,-1.3593 -1.6718,-0.8971 -3.0448,-2.27 -4.1049,-4.105 -0.3127,-0.4349 -0.6252,-0.7475 -0.9107,-0.9378 -0.299,-0.1903 -0.6253,-0.2582 -0.9787,-0.2175 -0.3534,0.0272 -0.7883,0.1767 -1.2913,0.4213 l -2.3651,1.305 c -0.6932,0.367 -1.1145,0.8019 -1.264,1.3048 -0.1495,0.503 0,1.101 0.4485,1.7943 1.5903,2.7728 3.7515,4.8525 6.5108,6.2389 2.7456,1.3864 6.0894,2.0797 10.0449,2.0797 11.7439,0 17.6158,-5.872 17.6158,-17.616 V 196.46 c 0.0136,-0.7611 -0.1223,-1.2776 -0.3942,-1.563 -0.2854,-0.272 -0.8019,-0.4078 -1.5631,-0.3943 z m 21.6121,0 c -0.7612,-0.0135 -1.2777,0.1223 -1.5631,0.3943 -0.2719,0.2854 -0.4077,0.8019 -0.3942,1.563 v 12.7227 c 0,4.2408 -0.2039,7.7884 -0.6252,10.6429 -0.435,2.8543 -1.0875,5.0156 -1.9846,6.4836 -0.5845,0.965 -1.1145,1.7126 -1.6039,2.2563 -0.4893,0.5437 -1.0058,1.0059 -1.5496,1.3593 -0.5436,0.3534 -1.2096,0.7204 -1.9844,1.1145 -0.4486,0.2855 -0.734,0.6117 -0.8564,0.9923 -0.1223,0.367 -0.0815,0.802 0.1224,1.2913 l 1.7126,3.2622 c 0.2855,0.5301 0.6117,0.87 1.0058,1.033 0.3807,0.1631 0.8292,0.1495 1.3593,-0.0543 1.101,-0.5302 2.0933,-1.0874 2.9768,-1.6719 0.8699,-0.5981 1.699,-1.3185 2.4738,-2.1748 0.7884,-0.8563 1.5767,-1.9301 2.3787,-3.2486 1.2233,-1.9573 2.134,-4.6894 2.7457,-8.1691 0.6116,-3.4797 0.9243,-7.6934 0.9243,-12.6274 v -8.4002 h 15.7401 v 33.356 c -0.0136,0.7612 0.1223,1.2777 0.3942,1.5631 0.2855,0.2719 0.802,0.4078 1.5631,0.3942 h 3.3438 c 0.6932,0.0136 1.1825,-0.1223 1.4952,-0.3942 0.3125,-0.2854 0.4621,-0.8019 0.4621,-1.5631 V 196.46 c 0,-0.7611 -0.1496,-1.2776 -0.4621,-1.563 -0.3127,-0.272 -0.802,-0.4078 -1.4952,-0.3943 z m 45.0184,12.7227 V 196.46 c 0.0135,-0.7611 -0.1224,-1.2776 -0.3942,-1.563 -0.2855,-0.272 -0.802,-0.4078 -1.5631,-0.3943 h -3.4254 c -0.7611,-0.0135 -1.2776,0.1223 -1.5631,0.3943 -0.2718,0.2854 -0.4078,0.8019 -0.3942,1.563 v 38.1678 c -0.0136,0.7612 0.1224,1.2777 0.3942,1.5631 0.2855,0.2719 0.802,0.4078 1.5631,0.3942 h 18.0237 c 3.1398,-0.0136 5.8311,-0.6117 8.0603,-1.7806 2.2291,-1.169 3.9418,-2.8544 5.1379,-5.0565 1.1962,-2.2019 1.7943,-4.8388 1.8079,-7.9244 -0.0136,-3.0583 -0.6117,-5.668 -1.8079,-7.8428 -1.1961,-2.1748 -2.9088,-3.8466 -5.1379,-5.0021 -2.2292,-1.1553 -4.9205,-1.7398 -8.0603,-1.7533 z m 0,22.8353 v -16.2294 h 11.7439 c 2.5961,0.0272 4.6078,0.734 6.0486,2.134 1.4408,1.4 2.1748,3.3438 2.1884,5.8583 -0.0136,2.5963 -0.7476,4.6079 -2.1884,6.0487 -1.4408,1.4408 -3.4525,2.1612 -6.0486,2.1884 z m 32.9481,-35.558 c -0.7612,-0.0135 -1.2777,0.1223 -1.5631,0.3943 -0.2719,0.2854 -0.4078,0.8019 -0.3942,1.563 v 2.8545 c -0.0136,0.6933 0.1223,1.1826 0.3942,1.4951 0.2854,0.3127 0.8019,0.4622 1.5631,0.4622 h 11.9071 v 33.356 c -0.0137,0.7612 0.1223,1.2777 0.3941,1.5631 0.2855,0.2719 0.802,0.4078 1.5632,0.3942 h 3.4253 c 0.6796,0.0136 1.1689,-0.1223 1.4543,-0.3942 0.2855,-0.2854 0.435,-0.8019 0.4215,-1.5631 v -33.356 h 11.907 c 0.6932,0 1.1825,-0.1495 1.4952,-0.4622 0.3125,-0.3125 0.4621,-0.8018 0.4621,-1.4951 V 196.46 c 0,-0.7611 -0.1496,-1.2776 -0.4621,-1.563 -0.3127,-0.272 -0.802,-0.4078 -1.4952,-0.3943 z m 38.4124,7.34 c -0.3263,0.6524 -0.4078,1.2097 -0.2311,1.6582 0.1631,0.4622 0.5981,0.8292 1.2913,1.1147 l 2.5282,1.1418 c 0.5029,0.1902 0.8971,0.2853 1.1689,0.2853 0.2719,0 0.5165,-0.0951 0.734,-0.299 0.2175,-0.2175 0.4758,-0.5301 0.7884,-0.965 1.0194,-1.6719 2.3651,-2.9224 4.0506,-3.7379 1.6718,-0.8292 3.6971,-1.237 6.0622,-1.237 2.3787,0 4.2817,0.3806 5.7088,1.1146 1.4273,0.7476 2.4467,1.835 3.072,3.2758 0.6252,1.4544 0.9378,3.2214 0.9243,5.3147 v 3.0991 c -1.6311,-0.204 -3.2215,-0.3535 -4.771,-0.435 -1.5496,-0.0952 -3.0583,-0.136 -4.5263,-0.136 -4.3632,-0.0135 -7.87,0.3942 -10.5478,1.2234 -2.6777,0.8291 -4.6215,2.1748 -5.8448,4.0506 -1.2097,1.8893 -1.8078,4.3903 -1.7941,7.5302 0,2.2428 0.3261,4.1865 0.965,5.8176 0.6524,1.631 1.6039,2.9495 2.8681,3.969 1.264,1.0602 3.0718,1.8486 5.4233,2.3786 2.3516,0.5302 5.2196,0.802 8.6041,0.802 3.0583,0 5.7496,-0.1767 8.0875,-0.5437 2.3243,-0.3534 4.3088,-0.8835 5.94,-1.5767 0.7611,-0.3126 1.3456,-0.6524 1.7806,-1.0059 0.4213,-0.3533 0.7204,-0.8155 0.897,-1.3863 0.1767,-0.571 0.2583,-1.3185 0.2583,-2.2565 v -21.2858 c 0.0136,-3.4117 -0.5301,-6.3477 -1.6446,-8.8079 -1.1147,-2.4466 -2.9088,-4.336 -5.3828,-5.6681 -2.4873,-1.3185 -5.7631,-1.9845 -9.8544,-1.9981 -4.0371,0 -7.4351,0.7068 -10.208,2.1341 -2.7593,1.4272 -4.8797,3.5748 -6.3477,6.4292 z m 26.0976,27.0763 c 0,0.4485 -0.0952,0.8155 -0.2991,1.1145 -0.2039,0.2855 -0.5165,0.5165 -0.9242,0.6797 -1.8758,0.6524 -4.8933,0.9786 -9.0526,0.9786 -2.5146,0 -4.4856,-0.2447 -5.9264,-0.7476 -1.4408,-0.4893 -2.4738,-1.2505 -3.0718,-2.2563 -0.5982,-1.0195 -0.8835,-2.2972 -0.87,-3.8467 -0.0135,-1.604 0.299,-2.9088 0.9378,-3.9146 0.639,-1.0059 1.6855,-1.7535 3.1535,-2.2292 1.4816,-0.4758 3.4526,-0.7068 5.9399,-0.7068 1.1826,0 2.6234,0.0543 4.3225,0.1767 1.699,0.1087 3.6291,0.2718 5.7904,0.4757 z m 51.298,0.897 V 196.46 c 0,-0.7611 -0.1495,-1.2776 -0.4621,-1.563 -0.3126,-0.272 -0.8019,-0.4078 -1.4952,-0.3943 h -3.4253 c -0.6932,-0.0135 -1.1825,0.1223 -1.4952,0.3943 -0.3126,0.2854 -0.4621,0.8019 -0.4621,1.563 v 33.356 H 367.2944 V 196.46 c 0.0135,-0.7611 -0.1224,-1.2776 -0.3942,-1.563 -0.2855,-0.272 -0.802,-0.4078 -1.5631,-0.3943 h -3.4254 c -1.3049,0 -1.9573,0.6525 -1.9573,1.9573 v 38.1678 c -0.0136,0.7612 0.1224,1.2777 0.3942,1.5631 0.2854,0.2719 0.802,0.4078 1.5631,0.3942 h 31.5618 v 9.3788 c 0,0.6933 0.1495,1.1826 0.4621,1.4952 0.3127,0.3126 0.8155,0.4622 1.4952,0.4622 h 3.1806 c 0.7612,0 1.2778,-0.1496 1.5632,-0.4622 0.2718,-0.3126 0.4078,-0.8019 0.3941,-1.4952 V 231.855 c 0.0137,-0.7612 -0.1223,-1.2914 -0.3941,-1.604 -0.2854,-0.299 -0.802,-0.4485 -1.5632,-0.435 z"
         class="fil1"
         id="_69120392" /><path
         style="fill:#1f1a17;fill-rule:nonzero"
         d="m 408.969,194.503 c -0.7611,-0.0135 -1.2776,0.1223 -1.5631,0.3943 -0.2718,0.2854 -0.4078,0.8019 -0.3942,1.563 v 38.1678 c 0,1.3048 0.6524,1.9573 1.9573,1.9573 h 3.4254 c 0.8155,0 1.4679,-0.3262 1.9573,-0.9787 l 17.5343,-23.8956 c 0.9378,-1.3456 1.7942,-2.6369 2.5553,-3.8738 0.7748,-1.2369 1.4408,-2.4466 2.0118,-3.6292 h 0.2447 c -0.4487,2.1204 -0.7748,4.0777 -0.9923,5.8855 -0.2039,1.7942 -0.3127,3.4525 -0.3127,4.9613 v 19.5732 c -0.0135,0.7612 0.1223,1.2777 0.3942,1.5631 0.2855,0.2719 0.802,0.4078 1.5631,0.3942 h 3.4253 c 0.7612,0.0136 1.2778,-0.1223 1.5632,-0.3942 0.2718,-0.2854 0.4078,-0.8019 0.3942,-1.5631 v -38.1678 c 0.0136,-0.7611 -0.1224,-1.2776 -0.3942,-1.563 -0.2854,-0.272 -0.802,-0.4078 -1.5632,-0.3943 h -3.4253 c -0.4077,0 -0.7747,0.0816 -1.0873,0.2447 -0.3127,0.1631 -0.5845,0.4078 -0.7884,0.734 l -17.779,24.1402 c -1.7942,2.3652 -3.2622,4.8118 -4.4039,7.3401 h -0.2448 c 0.4486,-1.7535 0.7748,-3.507 0.9923,-5.274 0.2039,-1.7534 0.3127,-3.5341 0.3127,-5.3282 v -19.8995 c 0.0135,-0.7611 -0.1224,-1.2776 -0.3942,-1.563 -0.2855,-0.272 -0.802,-0.4078 -1.5631,-0.3943 z m 45.8339,0 c -0.7611,-0.0135 -1.2776,0.1223 -1.5631,0.3943 -0.2718,0.2854 -0.4078,0.8019 -0.3942,1.563 v 38.1678 c 0,1.3048 0.6524,1.9573 1.9573,1.9573 h 3.4254 c 0.8155,0 1.4679,-0.3262 1.9573,-0.9787 l 17.5343,-23.8956 c 0.9378,-1.3456 1.7942,-2.6369 2.5553,-3.8738 0.7748,-1.2369 1.4408,-2.4466 2.0118,-3.6292 h 0.2447 c -0.4487,2.1204 -0.7748,4.0777 -0.9923,5.8855 -0.2039,1.7942 -0.3127,3.4525 -0.3127,4.9613 v 19.5732 c -0.0135,0.7612 0.1223,1.2777 0.3942,1.5631 0.2855,0.2719 0.802,0.4078 1.5631,0.3942 h 3.4253 c 0.7612,0.0136 1.2778,-0.1223 1.5632,-0.3942 0.2718,-0.2854 0.4078,-0.8019 0.3942,-1.5631 v -38.1678 c 0.0136,-0.7611 -0.1224,-1.2776 -0.3942,-1.563 -0.2854,-0.272 -0.802,-0.4078 -1.5632,-0.3943 h -3.4253 c -0.4077,0 -0.7747,0.0816 -1.0873,0.2447 -0.3127,0.1631 -0.5845,0.4078 -0.7884,0.734 l -17.779,24.1402 c -1.7942,2.3652 -3.2622,4.8118 -4.4039,7.3401 h -0.2447 c 0.4485,-1.7535 0.7747,-3.507 0.9922,-5.274 0.2039,-1.7534 0.3127,-3.5341 0.3127,-5.3282 v -19.8995 c 0.0135,-0.7611 -0.1224,-1.2776 -0.3942,-1.563 -0.2855,-0.272 -0.802,-0.4078 -1.5631,-0.3943 z m 61.1663,27.7287 c 0.0135,3.2486 0.7475,6.0351 2.202,8.3458 1.4543,2.3243 3.534,4.1049 6.2526,5.3554 2.7184,1.237 5.9942,1.8622 9.8137,1.8758 3.901,-0.0136 7.2176,-0.6388 9.9361,-1.8758 2.7321,-1.2505 4.8118,-3.0311 6.2526,-5.3554 1.4271,-2.3107 2.1476,-5.0972 2.1611,-8.3458 v -13.2934 c -0.0135,-3.2758 -0.734,-6.0759 -2.1611,-8.4137 -1.4408,-2.3244 -3.5205,-4.1186 -6.2526,-5.3555 -2.7185,-1.2505 -6.0351,-1.8758 -9.9361,-1.8894 -3.8195,0.0136 -7.0953,0.6389 -9.8137,1.8894 -2.7186,1.2369 -4.7983,3.0311 -6.2526,5.3555 -1.4545,2.3378 -2.1885,5.1379 -2.202,8.4137 z m 29.3597,0 c 0,1.8758 -0.4485,3.4933 -1.332,4.8253 -0.8835,1.3321 -2.1476,2.3651 -3.8059,3.072 -1.6447,0.7068 -3.6292,1.0738 -5.9535,1.0738 -2.2971,0 -4.2544,-0.367 -5.8991,-1.0738 -1.6448,-0.7069 -2.8953,-1.7399 -3.7788,-3.072 -0.8835,-1.332 -1.3185,-2.9495 -1.332,-4.8253 v -13.375 c 0.0135,-1.8893 0.4485,-3.4933 1.332,-4.8253 0.8835,-1.3457 2.134,-2.3651 3.7788,-3.072 1.6447,-0.7067 3.602,-1.0737 5.8991,-1.0737 2.3243,0 4.3088,0.367 5.9535,1.0737 1.6583,0.7069 2.9224,1.7263 3.8059,3.072 0.8835,1.332 1.332,2.936 1.332,4.8253 z m 45.997,-27.7287 c -0.6932,-0.0135 -1.1825,0.1223 -1.4951,0.3943 -0.3127,0.2854 -0.4622,0.8019 -0.4622,1.563 v 15.2508 h -20.6334 v -15.2508 c 0.0136,-0.7611 -0.1224,-1.2776 -0.3942,-1.563 -0.2854,-0.272 -0.802,-0.4078 -1.5631,-0.3943 h -3.4254 c -0.7611,-0.0135 -1.2776,0.1223 -1.5631,0.3943 -0.2718,0.2854 -0.4077,0.8019 -0.3942,1.563 v 38.1678 c 0,1.3048 0.6525,1.9573 1.9573,1.9573 h 3.4254 c 0.7611,0.0136 1.2777,-0.1223 1.5631,-0.3942 0.2718,-0.2854 0.4078,-0.8019 0.3942,-1.5631 v -16.1479 h 20.6334 v 16.1479 c 0,0.7612 0.1495,1.2777 0.4622,1.5631 0.3126,0.2719 0.8019,0.4078 1.4951,0.3942 h 3.4253 c 0.6932,0.0136 1.1825,-0.1223 1.4952,-0.3942 0.3126,-0.2854 0.4621,-0.8019 0.4621,-1.5631 v -38.1678 c 0,-0.7611 -0.1495,-1.2776 -0.4621,-1.563 -0.3127,-0.272 -0.802,-0.4078 -1.4952,-0.3943 z m 21.8568,0 c -0.7612,-0.0135 -1.2778,0.1223 -1.5631,0.3943 -0.2719,0.2854 -0.4078,0.8019 -0.3942,1.563 v 12.7227 c 0,4.2408 -0.204,7.7884 -0.6253,10.6429 -0.435,2.8543 -1.0874,5.0156 -1.9845,6.4836 -0.5845,0.965 -1.1146,1.7126 -1.604,2.2563 -0.4893,0.5437 -1.0058,1.0059 -1.5495,1.3593 -0.5436,0.3534 -1.2096,0.7204 -1.9844,1.1145 -0.4486,0.2855 -0.734,0.6117 -0.8564,0.9923 -0.1223,0.367 -0.0815,0.802 0.1224,1.2913 l 1.7126,3.2622 c 0.2855,0.5301 0.6117,0.87 1.0058,1.033 0.3807,0.1631 0.8292,0.1495 1.3593,-0.0543 1.101,-0.5302 2.0932,-1.0874 2.9767,-1.6719 0.87,-0.5981 1.6991,-1.3185 2.4738,-2.1748 0.7885,-0.8563 1.5768,-1.9301 2.3788,-3.2486 1.2233,-1.9573 2.134,-4.6894 2.7457,-8.1691 0.6116,-3.4797 0.9243,-7.6934 0.9243,-12.6274 v -8.4002 h 15.74 v 33.356 c -0.0135,0.7612 0.1223,1.2777 0.3943,1.5631 0.2854,0.2719 0.8019,0.4078 1.563,0.3942 h 3.3438 c 0.6932,0.0136 1.1825,-0.1223 1.4952,-0.3942 0.3126,-0.2854 0.4621,-0.8019 0.4621,-1.5631 v -38.1678 c 0,-0.7611 -0.1495,-1.2776 -0.4621,-1.563 -0.3127,-0.272 -0.802,-0.4078 -1.4952,-0.3943 z m 36.8628,7.34 c -0.3262,0.6524 -0.4078,1.2097 -0.231,1.6582 0.163,0.4622 0.598,0.8292 1.2912,1.1147 l 2.5283,1.1418 c 0.5028,0.1902 0.897,0.2853 1.1688,0.2853 0.272,0 0.5166,-0.0951 0.7341,-0.299 0.2174,-0.2175 0.4757,-0.5301 0.7884,-0.965 1.0193,-1.6719 2.365,-2.9224 4.0505,-3.7379 1.6719,-0.8292 3.6972,-1.237 6.0622,-1.237 2.3787,0 4.2817,0.3806 5.7089,1.1146 1.4272,0.7476 2.4467,1.835 3.0719,3.2758 0.6253,1.4544 0.9379,3.2214 0.9243,5.3147 v 3.0991 c -1.6311,-0.204 -3.2215,-0.3535 -4.771,-0.435 -1.5495,-0.0952 -3.0583,-0.136 -4.5263,-0.136 -4.3631,-0.0135 -7.87,0.3942 -10.5477,1.2234 -2.6778,0.8291 -4.6215,2.1748 -5.8448,4.0506 -1.2098,1.8893 -1.8078,4.3903 -1.7942,7.5302 0,2.2428 0.3262,4.1865 0.9651,5.8176 0.6523,1.631 1.6038,2.9495 2.868,3.969 1.2641,1.0602 3.0719,1.8486 5.4234,2.3786 2.3515,0.5302 5.2195,0.802 8.6041,0.802 3.0583,0 5.7496,-0.1767 8.0874,-0.5437 2.3243,-0.3534 4.3088,-0.8835 5.94,-1.5767 0.7611,-0.3126 1.3456,-0.6524 1.7806,-1.0059 0.4213,-0.3533 0.7204,-0.8155 0.8971,-1.3863 0.1767,-0.571 0.2582,-1.3185 0.2582,-2.2565 v -21.2858 c 0.0137,-3.4117 -0.53,-6.3477 -1.6446,-8.8079 -1.1147,-2.4466 -2.9088,-4.336 -5.3827,-5.6681 -2.4874,-1.3185 -5.7632,-1.9845 -9.8545,-1.9981 -4.037,0 -7.4351,0.7068 -10.2079,2.1341 -2.7593,1.4272 -4.8798,3.5748 -6.3478,6.4292 z m 26.0976,27.0763 c 0,0.4485 -0.0952,0.8155 -0.299,1.1145 -0.204,0.2855 -0.5165,0.5165 -0.9243,0.6797 -1.8758,0.6524 -4.8933,0.9786 -9.0526,0.9786 -2.5146,0 -4.4856,-0.2447 -5.9263,-0.7476 -1.4408,-0.4893 -2.4739,-1.2505 -3.0719,-2.2563 -0.5981,-1.0195 -0.8835,-2.2972 -0.87,-3.8467 -0.0135,-1.604 0.2991,-2.9088 0.9379,-3.9146 0.6389,-1.0059 1.6855,-1.7535 3.1535,-2.2292 1.4815,-0.4758 3.4525,-0.7068 5.9399,-0.7068 1.1825,0 2.6234,0.0543 4.3224,0.1767 1.6991,0.1087 3.6292,0.2718 5.7904,0.4757 z m 47.5465,-48.8515 c 0.1224,-0.4077 0.1224,-0.7612 -0.0135,-1.0466 -0.1496,-0.2991 -0.435,-0.5437 -0.8836,-0.7476 l -2.8544,-1.0602 c -0.8156,-0.2446 -1.3864,0 -1.7126,0.734 -1.0603,3.5884 -3.4253,5.3827 -7.0953,5.3827 -1.835,0 -3.3302,-0.4487 -4.4856,-1.3457 -1.1553,-0.8971 -1.998,-2.2428 -2.5281,-4.037 -0.1632,-0.367 -0.4078,-0.5981 -0.734,-0.6932 -0.3263,-0.0952 -0.734,-0.0816 -1.2233,0.0408 l -2.5283,0.9786 c -0.4485,0.1224 -0.734,0.3399 -0.8835,0.6525 -0.1359,0.3125 -0.1359,0.6932 -0.0135,1.1417 0.9378,2.8953 2.433,5.0564 4.4854,6.4972 2.0525,1.4272 4.6895,2.1477 7.9109,2.1477 3.2622,0 5.94,-0.7205 8.0196,-2.1477 2.0932,-1.4408 3.602,-3.6019 4.5398,-6.4972 z m -28.7889,14.4352 c -0.7611,-0.0135 -1.2776,0.1223 -1.5631,0.3943 -0.2718,0.2854 -0.4078,0.8019 -0.3942,1.563 v 38.1678 c 0,1.3048 0.6525,1.9573 1.9573,1.9573 h 3.4254 c 0.8155,0 1.4679,-0.3262 1.9573,-0.9787 l 17.5343,-23.8956 c 0.9378,-1.3456 1.7942,-2.6369 2.5554,-3.8738 0.7747,-1.2369 1.4407,-2.4466 2.0117,-3.6292 h 0.2447 c -0.4487,2.1204 -0.7748,4.0777 -0.9923,5.8855 -0.2039,1.7942 -0.3127,3.4525 -0.3127,4.9613 v 19.5732 c -0.0135,0.7612 0.1223,1.2777 0.3943,1.5631 0.2854,0.2719 0.8019,0.4078 1.563,0.3942 h 3.4254 c 0.7612,0.0136 1.2777,-0.1223 1.5631,-0.3942 0.2719,-0.2854 0.4078,-0.8019 0.3943,-1.5631 v -38.1678 c 0.0135,-0.7611 -0.1224,-1.2776 -0.3943,-1.563 -0.2854,-0.272 -0.8019,-0.4078 -1.5631,-0.3943 h -3.4254 c -0.4077,0 -0.7747,0.0816 -1.0873,0.2447 -0.3127,0.1631 -0.5845,0.4078 -0.7884,0.734 l -17.779,24.1402 c -1.7942,2.3652 -3.2622,4.8118 -4.4039,7.3401 h -0.2447 c 0.4485,-1.7535 0.7747,-3.507 0.9922,-5.274 0.204,-1.7534 0.3127,-3.5341 0.3127,-5.3282 v -19.8995 c 0.0136,-0.7611 -0.1224,-1.2776 -0.3942,-1.563 -0.2855,-0.272 -0.802,-0.4078 -1.5631,-0.3943 z m 73.8073,0 c -0.6932,-0.0135 -1.1825,0.1223 -1.4951,0.3943 -0.3127,0.2854 -0.4622,0.8019 -0.4622,1.563 v 15.2508 h -20.6334 v -15.2508 c 0.0136,-0.7611 -0.1224,-1.2776 -0.3942,-1.563 -0.2855,-0.272 -0.802,-0.4078 -1.5631,-0.3943 h -3.4254 c -0.7611,-0.0135 -1.2776,0.1223 -1.5631,0.3943 -0.2718,0.2854 -0.4077,0.8019 -0.3942,1.563 v 38.1678 c 0,1.3048 0.6525,1.9573 1.9573,1.9573 h 3.4254 c 0.7611,0.0136 1.2776,-0.1223 1.5631,-0.3942 0.2718,-0.2854 0.4078,-0.8019 0.3942,-1.5631 v -16.1479 h 20.6334 v 16.1479 c 0,0.7612 0.1495,1.2777 0.4622,1.5631 0.3126,0.2719 0.8019,0.4078 1.4951,0.3942 h 3.4253 c 0.6932,0.0136 1.1825,-0.1223 1.4952,-0.3942 0.3126,-0.2854 0.4621,-0.8019 0.4621,-1.5631 v -38.1678 c 0,-0.7611 -0.1495,-1.2776 -0.4621,-1.563 -0.3127,-0.272 -0.802,-0.4078 -1.4952,-0.3943 z"
         class="fil1"
         id="_69120320" /></g><path
       style="fill:url(#id6)"
       id="path25"
       d="m -491.857,27.7941 c -4.6084,-10.0254 -11.0606,-15.0379 -19.3558,-15.5747 -11.7985,-5e-4 -23.596,-3e-4 -34.288,2e-4 -7.5574,8.9507 -16.9589,20.7658 -28.2039,35.445 15.0073,-0.1119 31.2781,-1.1335 47.8999,0.6755 13.3367,1.4515 24.3507,6.0039 32.2889,14.8993 1.1061,-14.1423 1.2902,-25.7789 1.6589,-35.4453 z"
       class="fil2" /><path
       style="fill:url(#id3)"
       id="path27"
       d="m -539.471,54.5139 v 112.177 h 45.8105 V 73.6426 c -12.0114,-14.4394 -27.653,-18.3756 -45.8105,-19.129 z"
       class="fil3" /><path
       style="fill:url(#id1)"
       id="path29"
       d="m -385.85,165.174 c -20.6296,1.7341 -43.8427,4.2564 -63.1076,-5.1802 -10.8833,-5.3309 -19.5286,-12.8696 -25.8344,-22.6162 -13.2882,-20.5407 -15.5157,-67.346 -1.5126,-92.8201 3.6491,-6.6388 8.8043,-11.7107 14.8797,-16.1372 15.1298,-11.0282 35.4803,-16.838 61.0508,-17.4267 -27.1518,21.5426 -38.6972,37.4232 -40.7118,61.53 -1.1136,13.3288 -1.9934,38.6826 9.2468,47.7603 2.8757,2.3219 6.2046,4.2932 9.9725,5.6187 18.9178,6.6543 49.2718,3.0731 66.7411,1.2852 -11.3577,18.9922 -23.0898,32.0277 -30.7245,37.9862 z"
       class="fil4" /><path
       style="fill:url(#id2)"
       id="path31"
       d="m -241.596,13.4861 c 20.6295,-1.7341 43.8427,-4.2565 63.1076,5.1802 10.8832,5.3308 19.5285,12.8696 25.8344,22.6161 13.2881,20.5407 15.5157,67.3461 1.5126,92.8202 -3.6491,6.6387 -8.8043,11.7107 -14.8798,16.1371 -15.1298,11.0283 -35.4803,16.838 -61.0507,17.4268 27.1517,-21.5426 38.6971,-37.4232 40.7117,-61.53 1.1137,-13.3289 1.9935,-38.6826 -9.2467,-47.7604 -2.8757,-2.3219 -6.2047,-4.2932 -9.9725,-5.6187 -18.9178,-6.6542 -49.2719,-3.073 -66.7412,-1.2851 11.3578,-18.9923 23.0899,-32.0278 30.7246,-37.9862 z"
       class="fil5" /><path
       style="fill:url(#id5)"
       id="path33"
       d="m -376.353,166.292 c 21.6946,-18.1116 35.2911,-38.1606 38.5096,-64.7522 0.9504,-7.8483 0.8213,-15.7877 1.5759,-23.6613 1.4737,-15.374 5.2448,-30.8629 16.8289,-42.5764 14.1132,-14.2722 35.1778,-21.4459 66.5419,-23.7498 -25.874,23.1968 -35.3568,42.1364 -39.1258,71.5569 -0.915,7.1495 -1.0872,14.3973 -2.2612,21.5063 -6.5987,39.9748 -39.439,63.4116 -82.0693,61.6765 z"
       class="fil6" /><path
       style="fill:url(#id4)"
       id="path35"
       d="m -344.365,61.9928 c -6.859,-5.5281 -12.888,-8.2208 -19.4261,-9.8692 -18.6827,-4.7104 -40.6216,-1.9719 -60.7597,-1.3485 11.2177,-19.804 22.8508,-32.2682 34.484,-38.6388 9.7051,-0.3377 18.8445,-0.3151 27.5124,0.1613 10.0503,0.5522 18.2087,1.6943 27.5285,5.5441 6.0778,2.5107 9.8893,4.9021 11.4344,7.1742 -11.4946,10.9407 -18.4191,23.4049 -20.7735,36.9769 z"
       class="fil7" /><path
       style="fill:url(#linearGradient3716)"
       id="path37"
       d="m -288.213,116.668 c 7.0427,5.5281 13.2331,8.2208 19.9463,9.8692 19.183,4.7103 41.7094,1.9719 62.3868,1.3485 -11.5181,19.804 -23.4628,32.2681 -35.4075,38.6388 -9.965,0.3376 -19.3491,0.3151 -28.2491,-0.1613 -10.3194,-0.5523 -18.6963,-1.6943 -28.2657,-5.5441 -6.2406,-2.5107 -10.1542,-4.9021 -11.7406,-7.1742 11.8024,-10.9407 18.9124,-23.4049 21.3298,-36.9769 z"
       class="fil8" /></g></svg>