<?xml version="1.0" ?><!DOCTYPE svg  PUBLIC '-//W3C//DTD SVG 1.1//EN'  'http://www.w3.org/Graphics/SVG/1.1/DTD/svg11.dtd'><svg enable-background="new 0 0 512 512" height="512px" id="Layer_1" version="1.1" viewBox="0 0 512 512" width="512px" xml:space="preserve" xmlns="http://www.w3.org/2000/svg" xmlns:xlink="http://www.w3.org/1999/xlink"><g><g><path d="M448,0H64C46.312,0,32,14.312,32,32v448c0,17.688,14.312,32,32,32h384c17.688,0,32-14.312,32-32V32    C480,14.312,465.688,0,448,0z M160,448H96v-64h64V448z M160,352H96v-64h64V352z M160,256H96v-64h64V256z M288,448h-64v-64h64V448z     M288,352h-64v-64h64V352z M288,256h-64v-64h64V256z M416,448h-64v-64h64V448z M416,352h-64v-64h64V352z M416,256h-64v-64h64V256z     M416,128H96V64h320V128z"/></g></g></svg>