<svg width="150" height="150" viewBox="0 0 150 150" fill="none" xmlns="http://www.w3.org/2000/svg">
<circle cx="75" cy="75" r="75" fill="white"/>
<mask id="mask0" mask-type="alpha" maskUnits="userSpaceOnUse" x="0" y="0" width="150" height="150">
<circle cx="75" cy="75" r="75" fill="white"/>
</mask>
<g mask="url(#mask0)">
<path d="M108.267 87.0631C100.426 97.0735 88.4134 103.413 74.5658 103.413C61.0518 103.413 48.7057 97.0735 40.8642 87.0631C22.6788 98.575 11 118.596 11 140.785C11 146.792 15.6715 151.296 21.5109 151.296H127.454C133.46 151.463 138.132 146.458 138.132 140.785C138.132 118.596 126.453 98.4082 108.267 87.0631Z" fill="#90BAE1"/>
<path d="M74.5655 26C55.5458 26 40.1966 41.5161 40.1966 60.3689C40.1966 79.3886 55.7127 94.7378 74.5655 94.7378C93.4184 94.7378 108.934 79.5554 108.934 60.3689C108.934 41.1824 93.5852 26 74.5655 26Z" fill="#B0D3F0"/>
</g>
</svg>
