<svg width="22" height="21" viewBox="0 0 22 21" fill="none" xmlns="http://www.w3.org/2000/svg">
<path d="M19.8 0H2.2C1.0076 0 0 1.0076 0 2.2V14.3C0 15.4924 1.0076 16.5 2.2 16.5H5.13333V20.1667C5.13333 20.3181 5.22647 20.4541 5.36763 20.5088C5.4109 20.5253 5.45563 20.5333 5.5 20.5333C5.6012 20.5333 5.70057 20.4912 5.77133 20.4134L9.32873 16.5H19.8C20.9924 16.5 22 15.4924 22 14.3V2.2C22 1.0076 20.9924 0 19.8 0ZM21.2667 14.3C21.2667 15.0949 20.5949 15.7667 19.8 15.7667H9.96563L11.2779 14.241C11.4099 14.0877 11.3927 13.856 11.2391 13.724C11.0858 13.592 10.8537 13.6096 10.7217 13.7628L8.8891 15.8935L5.86667 19.2185V16.1333C5.86667 15.9309 5.7024 15.7667 5.5 15.7667H2.2C1.40507 15.7667 0.733333 15.0949 0.733333 14.3V2.2C0.733333 1.40507 1.40507 0.733333 2.2 0.733333H19.8C20.5949 0.733333 21.2667 1.40507 21.2667 2.2V14.3Z" fill="#1A77A3"/>
</svg>
