<svg width="48" height="48" viewBox="0 0 48 48" fill="none" xmlns="http://www.w3.org/2000/svg">
<path d="M47.9195 29.269L47.9267 29.2666L40.046 12.0716L41.9572 11.1204L41.242 9.68838L39.3788 10.6164L39.1268 10.0668C38.9426 9.66518 38.4678 9.48888 38.0662 9.67298C37.892 9.75288 37.7523 9.89257 37.6724 10.0668L37.4476 10.558C36.0917 9.92817 34.6148 9.60138 33.1197 9.60038H26.3998V8.00039H27.9997V6.40041H26.6245L27.1997 4.09883C27.6413 2.33155 26.5667 0.540865 24.7995 0.0991698C23.0322 -0.342426 21.2415 0.732163 20.7998 2.49945C20.6686 3.02444 20.6686 3.57374 20.7998 4.09873L21.375 6.40031H19.9998V8.00029H21.5998V9.60028H14.8839C13.3873 9.60148 11.9089 9.92907 10.5519 10.5603L10.3271 10.0691C10.143 9.66748 9.66812 9.49118 9.26652 9.67528C9.09232 9.75517 8.95262 9.89487 8.87272 10.0691L8.62073 10.6187L6.75754 9.68668L6.04235 11.1203L7.95353 12.0755L0.0728099 29.2666C0.0242104 29.3711 -0.000589362 29.485 1.06325e-05 29.6002C0.0035106 32.6914 2.50869 35.1966 5.59996 35.2001H13.5999C16.6911 35.1966 19.1963 32.6914 19.1998 29.6002C19.1978 29.4853 19.1705 29.3722 19.1198 29.269L11.2175 12.0092C12.3662 11.476 13.6175 11.2 14.8839 11.2004H21.5998V40.4689L18.8686 43.2H15.9999C13.7919 43.2026 12.0025 44.992 11.9999 47.2C11.9999 47.6418 12.3581 48 12.7999 48H35.1997C35.6415 48 35.9997 47.6418 35.9997 47.2C35.9971 44.992 34.2077 43.2026 31.9997 43.2H29.1309L26.3998 40.4689V11.2004H33.1197C34.3861 11.2 35.6374 11.476 36.786 12.0092L28.8725 29.2666C28.8239 29.3711 28.7991 29.485 28.7997 29.6002C28.8032 32.6914 31.3084 35.1966 34.3997 35.2001H42.3996C45.4909 35.1966 47.996 32.6914 47.9995 29.6002C47.9976 29.4853 47.9703 29.3722 47.9195 29.269ZM13.5999 33.6001H5.59996C3.69977 33.598 2.06249 32.2615 1.67999 30.4002H17.5198C17.1374 32.2615 15.5001 33.598 13.5999 33.6001ZM17.1534 28.8002H2.04639L9.39512 12.7675C9.52932 12.8035 9.67052 12.8035 9.80472 12.7675L17.1534 28.8002ZM22.6614 2.25325C23.2844 1.51406 24.3887 1.41996 25.1279 2.04295C25.2038 2.10695 25.2742 2.17735 25.3382 2.25325C25.6618 2.66484 25.7761 3.20324 25.6478 3.71083L24.975 6.40041H23.0246L22.3518 3.71083C22.2235 3.20324 22.3379 2.66484 22.6614 2.25325ZM23.1998 9.60038V8.00039H24.7998V9.60038H23.1998ZM24.7998 11.2004V40.0001H23.1998V11.2004H24.7998ZM31.9997 44.8C33.0165 44.8012 33.9226 45.4418 34.2629 46.4H13.7367C14.077 45.4418 14.9831 44.8012 15.9999 44.8H31.9997ZM26.8685 43.2H21.131L22.731 41.6001H25.2686L26.8685 43.2ZM38.1932 12.7699C38.3253 12.8164 38.4702 12.8104 38.598 12.7531L45.9532 28.8002H30.8461L38.1932 12.7699ZM42.3996 33.6001H34.3997C32.4995 33.598 30.8622 32.2615 30.4797 30.4002H46.3196C45.9372 32.2615 44.2998 33.598 42.3996 33.6001Z" fill="#017052"/>
</svg>
