<svg width="48" height="48" viewBox="0 0 48 48" fill="none" xmlns="http://www.w3.org/2000/svg">
<path d="M47.7732 37.001L38.8366 28.0645L39.4839 27.4173L39.7107 27.6441C39.8617 27.7951 40.0599 27.871 40.2581 27.871C40.4563 27.871 40.6544 27.7951 40.8054 27.6441L43.128 25.3215C43.4307 25.0188 43.4307 24.5295 43.128 24.2268L38.7097 19.8085V5.41935C38.7097 2.43097 36.2779 0 33.2903 0H3.87097C1.73652 0 0 1.73652 0 3.87097V10.0645C0 10.4919 0.346065 10.8387 0.774194 10.8387H6.19355V44.129C6.19355 46.2635 7.93006 48 10.0645 48H37.9355C40.0699 48 41.8064 46.2635 41.8064 44.129V42.5806C41.8064 42.1533 41.4604 41.8064 41.0323 41.8064H38.7097V33.9979L44.743 40.0312C44.8939 40.1822 45.0921 40.2581 45.2903 40.2581C45.4885 40.2581 45.6867 40.1822 45.8377 40.0312L47.7732 38.0957C48.0759 37.793 48.0759 37.3037 47.7732 37.001ZM34.0645 30.6472L31.2883 27.871L35.6129 23.5463L38.3892 26.3226L34.0645 30.6472ZM33.744 32.5161L32.5161 33.744L28.1915 29.4194L29.4194 28.1915L33.744 32.5161ZM40.2581 26.0021L35.9334 21.6774L37.1613 20.4495L41.4859 24.7742L40.2581 26.0021ZM6.19355 9.29032H1.54839V3.87097C1.54839 2.59045 2.59045 1.54839 3.87097 1.54839C5.15148 1.54839 6.19355 2.59045 6.19355 3.87097V9.29032ZM40.2581 44.129C40.2581 45.4095 39.216 46.4516 37.9355 46.4516H13.1597C13.6467 45.8044 13.9355 45 13.9355 44.129V43.3548H40.2581V44.129ZM37.1613 41.8064H13.1613C12.7332 41.8064 12.3871 42.1533 12.3871 42.5806V44.129C12.3871 45.4095 11.345 46.4516 10.0645 46.4516C8.784 46.4516 7.74194 45.4095 7.74194 44.129V3.87097C7.74194 2.99613 7.43923 2.19716 6.94761 1.54839H33.2903C35.4248 1.54839 37.1613 3.2849 37.1613 5.41935V18.5806C36.9631 18.5806 36.7649 18.6565 36.6139 18.8075L34.2914 21.1301C33.9886 21.4328 33.9886 21.9221 34.2914 22.2248L34.5182 22.4516L30.1935 26.7763L29.9667 26.5494C29.664 26.2467 29.1747 26.2467 28.872 26.5494L26.5494 28.872C26.2467 29.1747 26.2467 29.664 26.5494 29.9667L31.9688 35.3861C32.1197 35.537 32.3179 35.6129 32.5161 35.6129C32.7143 35.6129 32.9125 35.537 33.0635 35.3861L35.3861 33.0635C35.6888 32.7608 35.6888 32.2715 35.3861 31.9688L35.1592 31.7419L35.8064 31.0947L37.1613 32.4495V41.8064ZM45.2903 38.3892L36.9012 30L37.7419 29.1592L46.1311 37.5484L45.2903 38.3892Z" fill="#017052"/>
<path d="M10.0645 13.9355H35.6129V15.4839H10.0645V13.9355Z" fill="#017052"/>
<path d="M10.0645 20.129H32.5161V21.6774H10.0645V20.129Z" fill="#017052"/>
<path d="M10.0645 17.0323H35.6129V18.5806H10.0645V17.0323Z" fill="#017052"/>
<path d="M10.0645 7.74194H35.6129V9.29032H10.0645V7.74194Z" fill="#017052"/>
<path d="M10.0645 4.64516H35.6129V6.19355H10.0645V4.64516Z" fill="#017052"/>
<path d="M10.0645 10.8387H35.6129V12.3871H10.0645V10.8387Z" fill="#017052"/>
<path d="M10.0645 23.2258H30.9677V24.7742H10.0645V23.2258Z" fill="#017052"/>
<path d="M16.2581 26.3226C12.4157 26.3226 9.29032 29.4488 9.29032 33.2903C9.29032 37.1319 12.4157 40.2581 16.2581 40.2581C20.1004 40.2581 23.2258 37.1319 23.2258 33.2903C23.2258 29.4488 20.1004 26.3226 16.2581 26.3226ZM16.2581 38.7097C13.2705 38.7097 10.8387 36.2787 10.8387 33.2903C10.8387 30.3019 13.2705 27.871 16.2581 27.871C19.2457 27.871 21.6774 30.3019 21.6774 33.2903C21.6774 36.2787 19.2457 38.7097 16.2581 38.7097Z" fill="#017052"/>
<path d="M16.2581 29.4194C14.1236 29.4194 12.3871 31.1559 12.3871 33.2903C12.3871 35.4248 14.1236 37.1613 16.2581 37.1613C18.3925 37.1613 20.129 35.4248 20.129 33.2903C20.129 31.1559 18.3925 29.4194 16.2581 29.4194ZM16.2581 35.6129C14.9776 35.6129 13.9355 34.5708 13.9355 33.2903C13.9355 32.0098 14.9776 30.9677 16.2581 30.9677C17.5386 30.9677 18.5806 32.0098 18.5806 33.2903C18.5806 34.5708 17.5386 35.6129 16.2581 35.6129Z" fill="#017052"/>
<path d="M29.4194 37.1613C29.4194 36.8206 29.1964 36.5187 28.8697 36.4204C28.5445 36.3213 28.1899 36.4475 28.001 36.7316L27.7409 37.1218C27.0782 38.1159 25.9688 38.7097 24.7742 38.7097V40.2581C26.1252 40.2581 27.4003 39.7285 28.3448 38.8065C28.8929 39.6774 29.8637 40.2581 30.9677 40.2581H34.0645V38.7097H30.9677C30.1138 38.7097 29.4194 38.0152 29.4194 37.1613Z" fill="#017052"/>
</svg>
