<svg width="13" height="20" viewBox="0 0 13 20" fill="none" xmlns="http://www.w3.org/2000/svg">
<path d="M6.5 0C2.9159 0 3.77532e-05 2.91587 0 6.5C0 9.96993 5.97527 18.8116 6.22961 19.1863C6.29043 19.276 6.39169 19.3296 6.5 19.3296C6.60828 19.3296 6.7096 19.2759 6.77039 19.1863C7.02477 18.8117 13 9.96993 13 6.5C13 2.91587 10.0841 0 6.5 0ZM6.50004 18.4134C5.31591 16.6187 0.65362 9.36958 0.65362 6.5C0.65362 3.2763 3.27626 0.653583 6.5 0.653583C9.72374 0.653583 12.3464 3.2763 12.3465 6.5C12.3465 9.36954 7.68417 16.6187 6.50004 18.4134Z" fill="black"/>
<path d="M6.5 2.29573C4.18177 2.29573 2.29573 4.18177 2.29573 6.5C2.29573 8.81823 4.18177 10.7043 6.5 10.7043C8.81827 10.7043 10.7043 8.81827 10.7043 6.50004C10.7043 4.1818 8.81823 2.29573 6.5 2.29573ZM6.5 10.0507C4.54212 10.0507 2.94931 8.45788 2.94931 6.5C2.94931 4.54212 4.54212 2.94931 6.5 2.94931C8.45792 2.94931 10.0507 4.54212 10.0507 6.5C10.0507 8.45788 8.45788 10.0507 6.5 10.0507Z" fill="black"/>
</svg>
