<svg height="480pt" viewBox="0 0 480 480" width="480pt" xmlns="http://www.w3.org/2000/svg"><path d="m479.550781 245.351562-53.152343-151.824218c5.660156-2.746094 10.015624-7.601563 12.128906-13.527344h25.472656v-16h-25.472656c-3.339844-9.585938-12.378906-16.007812-22.527344-16.007812s-19.1875 6.421874-22.527344 16.007812h-73.472656v-40c0-13.253906-10.746094-24-24-24h-96c-13.253906 0-24 10.746094-24 24v17.472656c-9.554688 3.378906-15.957031 12.394532-16 22.527344h-73.472656c-3.339844-9.585938-12.378906-16.007812-22.527344-16.007812s-19.1875 6.421874-22.527344 16.007812h-25.472656v16h25.472656c2.113282 5.925781 6.46875 10.78125 12.128906 13.527344l-53.152343 151.824218c-.296875.851563-.449219 1.746094-.449219 2.648438v32c0 22.054688 28.710938 40 64 40s64-17.945312 64-40v-32c0-.902344-.152344-1.796875-.449219-2.648438l-53.152343-151.824218c5.660156-2.746094 10.015624-7.601563 12.128906-13.527344h73.472656v56c0 1.242188.285156 2.464844.839844 3.574219l15.160156 30.3125v62.113281c0 4.417969 3.582031 8 8 8v176h-8c-13.253906 0-24 10.746094-24 24v32c0 4.417969 3.582031 8 8 8h176c4.417969 0 8-3.582031 8-8v-32c0-13.253906-10.746094-24-24-24h-8v-176c4.417969 0 8-3.582031 8-8v-152h73.472656c2.113282 5.925781 6.46875 10.78125 12.128906 13.527344l-53.152343 151.824218c-.296875.851563-.449219 1.746094-.449219 2.648438v32c0 22.054688 28.710938 40 64 40s64-17.945312 64-40v-32c0-.902344-.152344-1.796875-.449219-2.648438zm-415.550781-181.351562c4.417969 0 8 3.582031 8 8s-3.582031 8-8 8-8-3.582031-8-8 3.582031-8 8-8zm48 216c0 9.785156-18.695312 24-48 24s-48-14.214844-48-24v-8h96zm0-24h-96v-6.640625l48-137.144531 48 137.144531zm192-232v48c0 4.417969-3.582031 8-8 8s-8-3.582031-8-8v-56h8c4.417969 0 8 3.582031 8 8zm-32 48c0 4.417969-3.582031 8-8 8s-8-3.582031-8-8v-56h16zm-32 0c0 4.417969-3.582031 8-8 8s-8-3.582031-8-8v-56h16zm-24 17.761719c.398438.359375.800781.695312 1.246094 1.03125-.597656-.199219-1.191406-.410157-1.796875-.578125.183593-.160156.375-.292969.550781-.453125zm-16-73.761719h8v48c-.019531-10.144531-6.429688-19.175781-16-22.542969v-17.457031c0-4.417969 3.582031-8 8-8zm-24 48c0-4.417969 3.582031-8 8-8 2.15625-.007812 4.21875.878906 5.695312 2.449219 1.492188 1.457031 2.324219 3.464843 2.304688 5.550781v32c0 4.417969 3.582031 8 8 8 7.859375-.03125 15.546875 2.292969 22.070312 6.671875 11.207032 7.382813 17.945313 19.910156 17.929688 33.328125h16c.03125-18.769531-9.382812-36.300781-25.046875-46.640625-.96875-.648437-1.984375-1.183594-2.984375-1.765625 7.226562 1.382812 14.675781-.785156 20.03125-5.832031 9.042969 8.320312 22.957031 8.320312 32 0 6.445312 6.015625 15.738281 7.875 24 4.796875v65.441406h-115.054688l-12.945312-25.886719zm16 160v-48h112v48zm136 216v24h-160v-24c0-4.417969 3.582031-8 8-8h144c4.417969 0 8 3.582031 8 8zm-32-24h-96v-176h96zm120-352c4.417969 0 8 3.582031 8 8s-3.582031 8-8 8-8-3.582031-8-8 3.582031-8 8-8zm0 48.214844 48 137.144531v6.640625h-96v-6.640625zm48 167.785156c0 9.785156-18.695312 24-48 24s-48-14.214844-48-24v-8h96zm0 0"/></svg>