<?xml version="1.0"?>
<svg xmlns="http://www.w3.org/2000/svg" viewBox="0 0 64 64" width="512" height="512"><g id="Building"><path d="M61,60h-.56A3.906,3.906,0,0,0,61,58a4,4,0,0,0-4-4c-.05,0-.09.01-.14.01A4.013,4.013,0,0,0,54,51.14V25a.977.977,0,0,0-.55-.89L34,14.38V7a1,1,0,0,0-1-1H27V3a1,1,0,0,0-2,0V6H7A1,1,0,0,0,6,7V52.42A5.014,5.014,0,0,0,3,57a4.924,4.924,0,0,0,1.03,3H3a1,1,0,0,0,0,2H61a1,1,0,0,0,0-2ZM13,60H8a3,3,0,1,1,2.28-4.94,4.032,4.032,0,0,0-.99,1.43,1,1,0,0,0,1.86.76,2.022,2.022,0,0,1,.91-1.02c.02-.01.04-.01.05-.02A1.914,1.914,0,0,1,13,56a2,2,0,0,1,0,4Zm14,0H21V48h6Zm5,0H29V47a1,1,0,0,0-1-1H20a1,1,0,0,0-1,1V60H16.44A3.906,3.906,0,0,0,17,58a4,4,0,0,0-4-4,4.081,4.081,0,0,0-.93.11A4.982,4.982,0,0,0,8,52V8H32Zm12.03,0H34V16.62l18,9V51.14a3.949,3.949,0,0,0-2.04,1.27A5.06,5.06,0,0,0,48,52a5,5,0,0,0-5,5A4.924,4.924,0,0,0,44.03,60ZM57,60H48a3,3,0,0,1,0-6,3.106,3.106,0,0,1,1.09.21A4.157,4.157,0,0,0,49,55a1,1,0,0,0,2,0,1.92,1.92,0,0,1,.19-.85,1.989,1.989,0,0,1,3.75.43,4.033,4.033,0,0,0-1.71,2.09,1,1,0,1,0,1.88.66A2,2,0,1,1,57,60Z"/><path d="M11,16H29a1,1,0,0,0,1-1V11a1,1,0,0,0-1-1H11a1,1,0,0,0-1,1v4A1,1,0,0,0,11,16Zm1-4H28v2H12Z"/><path d="M19,19a1,1,0,0,0-1-1H14a1,1,0,0,0-1,1v4a1,1,0,0,0,1,1h4a1,1,0,0,0,1-1Zm-2,3H15V20h2Z"/><path d="M27,19a1,1,0,0,0-1-1H22a1,1,0,0,0-1,1v4a1,1,0,0,0,1,1h4a1,1,0,0,0,1-1Zm-2,3H23V20h2Z"/><path d="M19,27a1,1,0,0,0-1-1H14a1,1,0,0,0-1,1v4a1,1,0,0,0,1,1h4a1,1,0,0,0,1-1Zm-2,3H15V28h2Z"/><path d="M27,27a1,1,0,0,0-1-1H22a1,1,0,0,0-1,1v4a1,1,0,0,0,1,1h4a1,1,0,0,0,1-1Zm-2,3H23V28h2Z"/><path d="M18,34H14a1,1,0,0,0-1,1v4a1,1,0,0,0,1,1h4a1,1,0,0,0,1-1V35A1,1,0,0,0,18,34Zm-1,4H15V36h2Z"/><path d="M26,34H22a1,1,0,0,0-1,1v4a1,1,0,0,0,1,1h4a1,1,0,0,0,1-1V35A1,1,0,0,0,26,34Zm-1,4H23V36h2Z"/><path d="M41,26H37a1,1,0,0,0-1,1v4a1,1,0,0,0,1,1h4a1,1,0,0,0,1-1V27A1,1,0,0,0,41,26Zm-1,4H38V28h2Z"/><path d="M45,32h4a1,1,0,0,0,1-1V27a1,1,0,0,0-1-1H45a1,1,0,0,0-1,1v4A1,1,0,0,0,45,32Zm1-4h2v2H46Z"/><path d="M41,34H37a1,1,0,0,0-1,1v4a1,1,0,0,0,1,1h4a1,1,0,0,0,1-1V35A1,1,0,0,0,41,34Zm-1,4H38V36h2Z"/><path d="M45,40h4a1,1,0,0,0,1-1V35a1,1,0,0,0-1-1H45a1,1,0,0,0-1,1v4A1,1,0,0,0,45,40Zm1-4h2v2H46Z"/><path d="M41,42H37a1,1,0,0,0-1,1v4a1,1,0,0,0,1,1h4a1,1,0,0,0,1-1V43A1,1,0,0,0,41,42Zm-1,4H38V44h2Z"/><path d="M45,48h4a1,1,0,0,0,1-1V43a1,1,0,0,0-1-1H45a1,1,0,0,0-1,1v4A1,1,0,0,0,45,48Zm1-4h2v2H46Z"/><path d="M30,43a1,1,0,0,0-1-1H11a1,1,0,0,0,0,2H29A1,1,0,0,0,30,43Z"/></g></svg>
