<?xml version="1.0"?>
<svg xmlns="http://www.w3.org/2000/svg" viewBox="0 0 64 64" width="512" height="512"><g id="Dept"><path d="M22,28v.681a7.04,7.04,0,0,0-3.593,3.964,7.445,7.445,0,0,0,.815,6.485A6.413,6.413,0,0,0,24.966,42a1.926,1.926,0,0,1,1.648.824,2,2,0,0,1,.27,1.869,1.927,1.927,0,0,1-1.217,1.2,2.01,2.01,0,0,1-2.545-1.207,2.5,2.5,0,1,0-4.7,1.7A6.934,6.934,0,0,0,22,50.321V51a3,3,0,0,0,6,0v-.681a7.037,7.037,0,0,0,3.593-3.964,7.445,7.445,0,0,0-.815-6.485A6.48,6.48,0,0,0,25.034,37a2.013,2.013,0,0,1-1.918-2.693,1.922,1.922,0,0,1,1.189-1.19,2,2,0,0,1,2.573,1.2,2.5,2.5,0,1,0,4.7-1.7A6.934,6.934,0,0,0,28,28.679V28a3,3,0,0,0-6,0Zm4,0v1.35a1,1,0,0,0,.672.944,5.014,5.014,0,0,1,3.031,3,.538.538,0,0,1-.062.494.484.484,0,0,1-.4.209.532.532,0,0,1-.482-.376,4.02,4.02,0,0,0-5.087-2.4,3.9,3.9,0,0,0-2.448,2.451A4.012,4.012,0,0,0,25.068,39a4.461,4.461,0,0,1,4,1.915,5.493,5.493,0,0,1,.637,4.768,5.008,5.008,0,0,1-3.039,3.023A1,1,0,0,0,26,49.65V51a1,1,0,0,1-2,0V49.65a1,1,0,0,0-.672-.944,5.014,5.014,0,0,1-3.031-3,.538.538,0,0,1,.062-.494.484.484,0,0,1,.4-.209.534.534,0,0,1,.483.377A4.026,4.026,0,0,0,26.281,47.8a3.9,3.9,0,0,0,2.5-2.468,4.006,4.006,0,0,0-.553-3.685A4.071,4.071,0,0,0,24.932,40a4.474,4.474,0,0,1-4-1.915,5.491,5.491,0,0,1-.637-4.767,5.007,5.007,0,0,1,3.039-3.024A1,1,0,0,0,24,29.35V28a1,1,0,0,1,2,0Z"/><path d="M61.619,8.215,59.4,6.462l-.407-2.8a1,1,0,0,0-1.36-.785L55,3.923,52.369,2.875a1,1,0,0,0-1.36.785l-.406,2.8L48.381,8.215a1,1,0,0,0,0,1.57L50.6,11.538l.407,2.8a1,1,0,0,0,1.36.785L54,14.475V17a3,3,0,0,1-3,3H46a3,3,0,0,1-3-3V7a5.006,5.006,0,0,0-5-5H29a5.006,5.006,0,0,0-5,5V8a3,3,0,0,0-3,3v1H19a1,1,0,0,0-.97.757L16.844,17.5a23,23,0,1,0,16.312,0L31.97,12.757A1,1,0,0,0,31,12H29V11a3,3,0,0,0-3-3V7a3,3,0,0,1,3-3h9a3,3,0,0,1,3,3V17a5.006,5.006,0,0,0,5,5h5a5.006,5.006,0,0,0,5-5V14.475l1.631.65A.985.985,0,0,0,58,15.2a1,1,0,0,0,.99-.856l.406-2.8,2.222-1.753a1,1,0,0,0,0-1.57ZM46,39A21,21,0,1,1,25,18,21.023,21.023,0,0,1,46,39ZM30.913,16.774a22.973,22.973,0,0,0-11.826,0L19.781,14H30.219ZM27,11v1H23V11a1,1,0,0,1,1-1h2A1,1,0,0,1,27,11Zm30.846-.786a1,1,0,0,0-.37.642L57.194,12.8,56,12.322V9a1,1,0,0,0-2,0v3.322l-1.194.476-.282-1.942a1,1,0,0,0-.37-.642L50.615,9l1.539-1.214a1,1,0,0,0,.37-.642L52.806,5.2l1.824.727a1.006,1.006,0,0,0,.74,0L57.194,5.2l.282,1.942a1,1,0,0,0,.37.642L59.385,9Z"/></g></svg>
