<?xml version="1.0"?>
<svg xmlns="http://www.w3.org/2000/svg" id="Outline" viewBox="0 0 512 512" width="512" height="512"><path d="M16.429,66.589a24,24,0,0,0,16.98,29.39L141.32,124.856l26.118,38.122a8.011,8.011,0,0,0,4.532,3.207l38.64,10.339a8,8,0,0,0,9.329-11.086L205.3,133.782l51.074,7.048a23.993,23.993,0,0,0,26.464-17.57l4.621-17.268,8.273-30.912a8,8,0,0,0-5.661-9.8l-23.184-6.2a8.008,8.008,0,0,0-9.065,3.848L246.3,83.686,211.65,71.5l31-21.88a8,8,0,0,0-2.545-14.264L201.468,25.01a8.016,8.016,0,0,0-5.528.514L147.433,48.786l.068.144L85.588,27.15c-.192-.067-.389-.128-.586-.181-20.026-5.359-36.329-3.421-48.45,5.76C27.216,39.8,20.634,50.876,16.429,66.589Zm162.536,84.9-26.251-38.315.245-1.771,27.8,7.44,17.488,37.8ZM268.781,76.15l9.423,2.522L274.233,93.51l-12.619-4.439ZM200.19,41.231l19.282,5.161L193.131,64.981l-24.5-8.617ZM80.575,42.348l189.509,66.664-2.706,10.111a8.018,8.018,0,0,1-8.82,5.857l-61.242-8.45-3.609-7.8a8,8,0,0,0-5.192-4.371l-54.1-14.476a8,8,0,0,0-8.668,12.25l1.674,2.442L37.546,80.521a8,8,0,0,1-5.66-9.8c.732-2.736,1.544-5.272,2.432-7.63l15.091,4.038a8,8,0,1,0,4.137-15.457L42.669,48.766C51.094,39.671,63.285,37.778,80.575,42.348Z"/><path d="M465.756,357.729c14.1-22.284,21.244-46.072,21.244-70.7,0-38.181-17.191-74.371-49.716-104.655-31.388-29.225-74.195-50.391-123.793-61.208a7,7,0,0,0-2.982,13.678c46.47,10.136,88.106,30.654,117.235,57.776C457.351,220.183,473,252.829,473,287.024c0,20.771-5.761,40.94-17.115,60.008a242.423,242.423,0,0,0-30.18-36.737A240,240,0,0,0,16,480a8,8,0,0,0,8,8H488a8,8,0,0,0,8-8,238.59,238.59,0,0,0-31.9-119.737C464.655,359.42,465.218,358.579,465.756,357.729ZM256,256a227.764,227.764,0,0,1,26.167,1.516L295.034,273.6l-14.026,42.08-25.759,25.758L228.8,321.6A8,8,0,0,0,224,320H196.529L174.86,283.884a8,8,0,0,0-4.33-3.474l-9.8-3.266A223.244,223.244,0,0,1,256,256ZM32.14,472A222.4,222.4,0,0,1,97.608,321.608a228.079,228.079,0,0,1,17.294-15.6L136.41,370.53a8.025,8.025,0,0,0,1.933,3.127l32,32a8.05,8.05,0,0,0,1.541,1.2L205.9,427.268,186.725,472ZM272,464v8H204.133l19.221-44.849a8,8,0,0,0-3.238-10.011l-39.155-23.494-29.969-29.967L128.383,295.85q6.45-4.491,13.168-8.5l-.081.244,21.193,7.063,22.477,37.463A8,8,0,0,0,192,336h29.333L251.2,358.4a8,8,0,0,0,10.457-.743l32-32a8.025,8.025,0,0,0,1.933-3.127l16-48A8,8,0,0,0,310.247,267l-4.363-5.454A221.356,221.356,0,0,1,383.109,295.5l-34.687,17.344a7.994,7.994,0,0,0-3.078,2.717l-16,24A8.005,8.005,0,0,0,328,344v34.584l-34.971,13.988a8,8,0,0,0-4.79,5.488l-16,64A7.977,7.977,0,0,0,272,464Zm207.86,8H288v-7.016l14.769-59.076,36.2-14.48A8,8,0,0,0,344,384V346.422l13.478-20.217,39.92-19.96a228.444,228.444,0,0,1,16.994,15.363A225.771,225.771,0,0,1,446.106,361.4,178.887,178.887,0,0,1,407.6,397.78a23.974,23.974,0,1,0,7.532,11.82,196.4,196.4,0,0,0,38.515-35.216A222.468,222.468,0,0,1,479.86,472ZM400,416a8,8,0,1,1-8-8A8.009,8.009,0,0,1,400,416Z"/></svg>
