<svg id="Layer_3" enable-background="new 0 0 64 64" height="512" viewBox="0 0 64 64" width="512" xmlns="http://www.w3.org/2000/svg"><g><path d="m8 51h21v2h-21z"/><path d="m62.707 41.793-11.543-11.543.836-.836.293.293c.195.195.451.293.707.293s.512-.098.707-.293l3-3c.391-.391.391-1.023 0-1.414l-7-7c-.391-.391-1.023-.391-1.414 0l-3 3c-.391.391-.391 1.023 0 1.414l.293.293-2.586 2.586v-23.586c0-.552-.448-1-1-1h-40c-.552 0-1 .448-1 1v50c0 2.757 2.243 5 5 5h23v-2h-23c-1.654 0-3-1.346-3-3s1.346-3 3-3h23v-2h-18v-44h30v24.586l-1 1-.293-.293c-.391-.391-1.023-.391-1.414 0l-3 3c-.391.391-.391 1.023 0 1.414l7 7c.195.195.451.293.707.293s.512-.098.707-.293l3-3c.391-.391.391-1.023 0-1.414l-.293-.293.836-.836 11.543 11.543c.195.195.451.293.707.293s.512-.098.707-.293l2.5-2.5c.391-.391.391-1.023 0-1.414zm-53.707 5.207h-3c-1.13 0-2.162.391-3 1.026v-45.026h6zm40-26.586 5.586 5.586-1.586 1.586-5.586-5.586zm-6 17.172-5.586-5.586 1.586-1.586 5.586 5.586zm-1.586-7.586 5.586-5.586 3.586 3.586-5.586 5.586zm18.086 13.586-10.836-10.836 1.086-1.086 10.836 10.836z"/><path d="m47 57h-1v-3c0-.553-.448-1-1-1h-12c-.552 0-1 .447-1 1v3h-1c-.552 0-1 .447-1 1v4c0 .553.448 1 1 1h16c.552 0 1-.447 1-1v-4c0-.553-.448-1-1-1zm-13-2h10v2h-10zm12 6h-14v-2h14z"/><path d="m42.316 41.052c-.408-.138-.858.004-1.116.349l-2.2 2.932-2.2-2.933c-.258-.345-.708-.487-1.116-.349-.409.137-.684.518-.684.949v3.78l-3.804-.761c-.416-.086-.833.101-1.05.461-.219.358-.189.816.073 1.145l4 5 1.562-1.25-2.285-2.856 2.308.462c.294.057.598-.018.83-.207.232-.191.366-.474.366-.774v-2l1.2 1.6c.377.504 1.223.504 1.6 0l1.2-1.6v2c0 .3.134.583.366.773.231.189.535.264.83.207l2.308-.462-2.285 2.856 1.562 1.25 4-5c.263-.328.292-.786.073-1.145-.219-.36-.639-.548-1.05-.461l-3.804.762v-3.78c0-.431-.275-.812-.684-.948z"/><path d="m25 27h-2c-2.206 0-4 1.794-4 4v1c0 .552.448 1 1 1h12c.552 0 1-.448 1-1v-1c0-2.206-1.794-4-4-4h-2v-12h4.382l-2.276 4.553.009.005c-.068.134-.115.281-.115.442v1c0 2.206 1.794 4 4 4s4-1.794 4-4v-1c0-.161-.047-.308-.115-.443l.009-.005-2.276-4.552h2.382c.265 0 .52-.105.707-.293l2-2-1.414-1.414-1.707 1.707h-9.586v-2.184c1.161-.414 2-1.514 2-2.816 0-1.654-1.346-3-3-3s-3 1.346-3 3c0 1.302.839 2.402 2 2.816v2.184h-9.586l-1.707-1.707-1.414 1.414 2 2c.187.188.442.293.707.293h2.382l-2.276 4.553.009.005c-.068.134-.115.281-.115.442v1c0 2.206 1.794 4 4 4s4-1.794 4-4v-1c0-.161-.047-.308-.115-.443l.009-.005-2.276-4.552h4.382zm6 4h-10c0-1.103.897-2 2-2h6c1.103 0 2 .897 2 2zm2-14.764 1.382 2.764h-2.764zm0 6.764c-1.103 0-2-.897-2-2h4c0 1.103-.897 2-2 2zm-7-16c.551 0 1 .449 1 1s-.449 1-1 1-1-.449-1-1 .449-1 1-1zm-7 9.236 1.382 2.764h-2.764zm0 6.764c-1.103 0-2-.897-2-2h4c0 1.103-.897 2-2 2z"/></g></svg>