<svg id="Capa_1" enable-background="new 0 0 511.988 511.988" height="512" viewBox="0 0 511.988 511.988" width="512" xmlns="http://www.w3.org/2000/svg"><g><path d="m406.648 273.065c.864-44.04.442-88.617-1.286-132.61-.002-.049-.01-.097-.013-.146-1.143-24.577-49.251-72.586-58.901-81.976-15.688-15.268-32.055-29.159-46.083-39.115-16.889-11.986-29.622-17.976-38.927-18.31-.027-.001-.053.002-.08.001-65.89-2.396-132.721-.055-198.643 6.96-21.906 2.331-39.071 19.933-40.813 41.855-.526 6.643-.986 12.73-1.404 18.61-.294 4.132 2.817 7.72 6.948 8.014.182.013.361.02.541.02 3.899 0 7.192-3.018 7.473-6.968.416-5.84.873-11.888 1.396-18.488 1.17-14.73 12.714-26.559 27.447-28.126 62.935-6.697 126.707-9.074 189.665-7.104 1.183 27.896 2.895 56.032 5.109 83.748 1.747 21.923 18.916 39.523 40.823 41.851 30.134 3.207 60.614 5.442 90.72 6.679 1.466 40.573 1.829 81.585 1.081 122.166-5.221-.688-10.545-1.048-15.951-1.048-15.661 0-30.638 2.98-44.396 8.402h-176.455c-4.142 0-7.5 3.358-7.5 7.5s3.358 7.5 7.5 7.5h149.268c-25.801 18.888-43.899 47.695-48.632 80.76h-100.636c-4.142 0-7.5 3.358-7.5 7.5s3.358 7.5 7.5 7.5h99.429c-.014.761-.029 1.523-.029 2.288 0 18.303 4.077 35.669 11.358 51.249-66.868 2.65-134.546.403-201.358-6.708-14.73-1.559-26.271-13.383-27.443-28.118-8.149-102.205-9.266-205.77-3.319-307.817.241-4.135-2.916-7.683-7.051-7.924-4.147-.239-7.683 2.916-7.924 7.051-5.987 102.733-4.863 206.993 3.341 309.881 1.744 21.927 18.91 39.525 40.813 41.843 49.265 5.242 98.985 7.873 148.528 7.873 20.893 0 41.759-.488 62.536-1.425 21.663 33.407 59.277 55.555 101.969 55.555 27.052 0 52.65-8.707 74.028-25.179 3.281-2.528 3.892-7.238 1.363-10.519-2.528-3.281-7.239-3.893-10.519-1.363-18.73 14.433-41.163 22.061-64.873 22.061-58.697 0-106.45-47.758-106.45-106.46 0-58.697 47.753-106.45 106.45-106.45 58.702 0 106.46 47.753 106.46 106.45 0 23.671-7.599 46.067-21.976 64.769-2.525 3.284-1.909 7.992 1.375 10.517s7.992 1.909 10.517-1.375c16.41-21.346 25.083-46.904 25.083-73.911.002-56.295-38.503-103.76-90.559-117.463zm-105.163-146.7c-14.735-1.565-26.282-13.394-27.457-28.127-2.115-26.484-3.775-53.355-4.945-80.027 12.017 5.045 34.367 19.21 66.904 50.873 15.063 14.658 28.766 29.91 38.583 42.944 7.127 9.462 11.053 16.192 13.209 20.812-28.656-1.252-57.635-3.426-86.294-6.475z"/><path d="m375.752 306.081c-46.566 0-84.45 37.884-84.45 84.45s37.884 84.45 84.45 84.45 84.45-37.884 84.45-84.45-37.884-84.45-84.45-84.45zm0 153.899c-38.295 0-69.45-31.155-69.45-69.45s31.155-69.45 69.45-69.45 69.45 31.155 69.45 69.45-31.155 69.45-69.45 69.45z"/><path d="m388.152 382.857c-9.551-2.78-20.138-6.156-26.254-10.105-2.848-1.84-2.827-4.794-2.561-6.392.56-3.355 3.316-7.476 9.375-8.979 13.311-3.304 21.888 2.642 22.375 2.991 3.294 2.452 7.958 1.798 10.45-1.48 2.506-3.298 1.863-8.003-1.436-10.509-.392-.298-6.89-5.115-17.48-6.571v-4.008c0-4.142-3.358-7.5-7.5-7.5s-7.5 3.358-7.5 7.5v4.47c-.83.161-1.667.337-2.52.549-10.802 2.68-18.872 10.951-20.56 21.072-1.439 8.634 2.093 16.856 9.218 21.458 6.237 4.029 14.986 7.479 30.2 11.908 7.896 2.298 11.958 6.951 11.145 12.765-1.239 8.865-11.242 13.7-20.025 13.748-10.145.052-14.141-.315-22.723-4.938-3.645-1.965-8.196-.602-10.16 3.045-1.965 3.646-.601 8.195 3.045 10.16 8.748 4.713 14.773 6.19 22.38 6.596v4.624c0 4.142 3.358 7.5 7.5 7.5s7.5-3.358 7.5-7.5v-5.161c15.993-2.874 25.733-14.518 27.338-25.997 1.869-13.366-6.691-24.845-21.807-29.246z"/><path d="m93.728 199.391c.058 0 .116 0 .174-.002 2.753-.063 5.25-1.631 6.503-4.082l29.258-57.185c1.887-3.688.427-8.206-3.261-10.093-3.685-1.886-8.206-.427-10.093 3.261l-22.945 44.847-9.083-15.895c-2.056-3.596-6.638-4.846-10.233-2.791-3.596 2.055-4.846 6.636-2.791 10.233l15.958 27.927c1.339 2.342 3.826 3.78 6.513 3.78z"/><path d="m154.903 162.154h93.733c4.142 0 7.5-3.358 7.5-7.5s-3.358-7.5-7.5-7.5h-93.733c-4.142 0-7.5 3.358-7.5 7.5s3.358 7.5 7.5 7.5z"/><path d="m154.903 196.731h180.865c4.142 0 7.5-3.358 7.5-7.5s-3.358-7.5-7.5-7.5h-180.865c-4.142 0-7.5 3.358-7.5 7.5s3.358 7.5 7.5 7.5z"/><path d="m71.258 263.437 15.958 27.927c1.337 2.34 3.824 3.779 6.511 3.779.058 0 .116 0 .174-.002 2.753-.063 5.25-1.631 6.503-4.082l29.258-57.185c1.887-3.688.427-8.206-3.261-10.093-3.685-1.886-8.206-.427-10.093 3.261l-22.945 44.847-9.083-15.895c-2.056-3.597-6.638-4.846-10.233-2.791-3.595 2.056-4.844 6.637-2.789 10.234z"/><path d="m154.903 257.906h93.733c4.142 0 7.5-3.358 7.5-7.5s-3.358-7.5-7.5-7.5h-93.733c-4.142 0-7.5 3.358-7.5 7.5s3.358 7.5 7.5 7.5z"/><path d="m71.258 359.189 15.958 27.927c1.337 2.34 3.824 3.779 6.511 3.779.058 0 .116 0 .174-.002 2.753-.063 5.25-1.631 6.503-4.082l29.258-57.185c1.887-3.688.427-8.206-3.261-10.093-3.685-1.885-8.206-.427-10.093 3.261l-22.945 44.847-9.083-15.895c-2.056-3.596-6.638-4.846-10.233-2.791-3.595 2.056-4.844 6.637-2.789 10.234z"/><path d="m154.903 353.658h93.733c4.142 0 7.5-3.358 7.5-7.5s-3.358-7.5-7.5-7.5h-93.733c-4.142 0-7.5 3.358-7.5 7.5s3.358 7.5 7.5 7.5z"/></g></svg>