<svg id="Capa_1" enable-background="new 0 0 511.994 511.994" height="512" viewBox="0 0 511.994 511.994" width="512" xmlns="http://www.w3.org/2000/svg"><path d="m503.542 235.815c11.27-11.269 11.269-29.606 0-40.875l-1.967-1.967c-5.513-5.512-13.146-8.603-20.939-8.461-1.062.024-2.065-.599-2.521-1.573l-3.088-6.602 1.927-1.927c2.929-2.929 2.929-7.678 0-10.606l-25.525-25.525c-2.929-2.929-7.678-2.929-10.606 0l-1.732 1.732-67.107-67.107 1.732-1.732c2.929-2.929 2.929-7.678 0-10.606l-25.526-25.525c-2.926-2.927-7.678-2.929-10.606 0l-1.927 1.927-6.602-3.088c-.975-.456-1.592-1.445-1.573-2.521.136-7.794-2.948-15.426-8.461-20.94l-1.966-1.966c-11.269-11.27-29.606-11.271-40.875 0l-82.785 82.786c-11.27 11.269-11.27 29.606 0 40.875l1.967 1.967c5.513 5.513 13.168 8.746 20.939 8.461 2.845-.104 3.061 3.579 5.609 8.175-.935 1.188-4.123 3.018-4.123 7.23 0 5.428 2.851 5.457 27.722 30.828 2.897 2.955 7.678 2.929 10.606 0l1.732-1.732 11.24 11.24-70.252 70.252-2.605-2.605c-2.929-2.929-7.678-2.929-10.606 0l-22.204 22.204c-2.929 2.929-2.929 7.678 0 10.606l2.605 2.605-156.775 156.771c-12.333 12.332-12.334 32.295 0 44.628 12.332 12.333 32.295 12.334 44.628 0l156.773-156.772c1.832 1.469 3.52 4.802 7.908 4.802 5.443 0 5.815-3.219 27.507-24.4 2.964-2.894 2.929-7.678 0-10.606l-2.605-2.605 23.8-23.8c2.929-2.929 2.929-7.678 0-10.606-2.928-2.929-7.677-2.929-10.606 0l-23.8 23.8-23.415-23.415 70.251-70.251 23.415 23.415-21.306 21.304c-2.929 2.929-2.929 7.678 0 10.606 2.929 2.929 7.678 2.929 10.606 0l21.307-21.307 11.239 11.239-1.732 1.732c-2.929 2.929-2.96 7.708 0 10.606 25.358 24.83 25.362 27.722 30.828 27.722 1.919 0 3.839-.732 5.303-2.197l1.927-1.927c4.881 2.701 8.225 2.717 8.175 5.608-.136 7.795 2.948 15.427 8.461 20.94l1.967 1.967c11.269 11.269 29.605 11.27 40.875 0zm-460.27 256.322c-6.47 6.47-16.943 6.472-23.415 0-6.47-6.47-6.472-16.943 0-23.415l156.772-156.773 23.416 23.416zm175.287-159.47c-10.659-10.659-39.232-39.232-39.232-39.232l11.597-11.597 39.232 39.232zm17.333-174.722c7.535-7.535 57.662-57.662 64.591-64.591 2.929-2.929 2.929-7.678 0-10.606-2.929-2.93-7.678-2.929-10.606 0l-56.685 56.685c-.197-.232-4.229-12.111-17.152-11.89-7.362.164-11.079-5.329-12.04-6.036-5.421-5.421-5.421-14.241 0-19.662l82.785-82.786c5.421-5.42 14.242-5.421 19.663 0l1.966 1.966c2.652 2.652 4.136 6.324 4.07 10.072-.122 6.984 3.888 13.409 10.215 16.369l1.675.784-8.913 8.913c-2.929 2.929-2.929 7.678 0 10.606 2.929 2.929 7.678 2.929 10.606 0l16.819-16.819 14.918 14.918c-7.276 7.276-96.876 96.877-106.995 106.995zm32.56 18.49 92.925-92.925 67.107 67.107-92.925 92.925c-52.503-52.503-14.669-14.669-67.107-67.107zm70.678 84.749c37.832-37.832 70.673-70.673 106.995-106.995l14.918 14.918s-94.892 94.892-106.995 106.995zm153.805-35.975-82.786 82.785c-5.421 5.421-14.241 5.421-19.662 0l-1.967-1.967c-2.651-2.652-4.135-6.323-4.069-10.073.121-6.983-3.889-13.408-10.215-16.368l-1.675-.783 91.183-91.183.784 1.676c2.959 6.326 9.383 10.299 16.368 10.215 3.748-.07 7.42 1.418 10.073 4.07l1.966 1.966c5.421 5.42 5.421 14.241 0 19.662z"/><path d="m403.78 447.923h-17.084l-6.475-21.176c-2.577-8.428-10.229-14.091-19.043-14.091h-170.341c-8.813 0-16.466 5.663-19.043 14.09l-6.475 21.176h-17.084c-4.142 0-7.5 3.358-7.5 7.5v49.063c0 4.142 3.358 7.5 7.5 7.5h255.545c4.142 0 7.5-3.358 7.5-7.5v-49.063c0-4.141-3.358-7.499-7.5-7.499zm-7.5 49.064h-240.546v-34.063h167.733c4.142 0 7.5-3.358 7.5-7.5s-3.358-7.5-7.5-7.5h-142.462l5.134-16.79c.636-2.08 2.524-3.477 4.698-3.477h170.341c2.174 0 4.063 1.397 4.698 3.477l5.134 16.79h-12.542c-4.142 0-7.5 3.358-7.5 7.5s3.358 7.5 7.5 7.5h37.813v34.063z"/></svg>