<svg id="_x33_0" enable-background="new 0 0 64 64" height="512" viewBox="0 0 64 64" width="512" xmlns="http://www.w3.org/2000/svg"><g><path d="m23 53h18c1.103 0 2-.897 2-2v-4c0-1.103-.897-2-2-2h-18c-1.103 0-2 .897-2 2v4c0 1.103.897 2 2 2zm0-6h18l.001 4h-18.001z"/><path d="m63 17.121c0-1.721-1.4-3.121-3.121-3.121-.834 0-1.618.325-2.207.914l-3.172 3.172-1.086-1.086h-4.414v4.414l1.086 1.086-1.842 1.842c-.546-.223-1.136-.342-1.744-.342-1.234 0-2.395.48-3.268 1.354l-5.49 5.49-.614-2.457c.973-.677 1.802-1.542 2.444-2.54l.928-.292c1.382-.461 2.588-1.382 3.395-2.593.723-1.086 1.105-2.348 1.105-3.652v-9.31c0-4.962-4.038-9-9-9h-8c-4.962 0-9 4.038-9 9v3.382l-2.683 1.341c-2.046 1.023-3.317 3.079-3.317 5.367v.952c-1.047.103-1.989.653-2.555 1.559l-8.348 13.358c-.718 1.148-1.097 2.471-1.097 3.824 0 3.98 3.237 7.217 7.217 7.217h8.783v16h40v-17.354c0-3.88-1.689-7.553-4.635-10.078-.645-.553-1.34-1.033-2.068-1.449l1.703-1.705c.645-.645 1-1.502 1-2.414 0-.466-.095-.918-.272-1.334l9.358-9.338c.589-.589.914-1.373.914-2.207zm-13.086 8.379 7.086-7.086 1.583 1.583-7.094 7.078zm1.086-4.914v-1.586h1.586l.5.5-1.586 1.586zm-34.327 12.122 2.865-4.645c.302-.518.462-1.109.462-1.709 0-.284-.038-.563-.107-.832l1.31-1.31c.667.596 1.445 1.059 2.314 1.348l.912.287c.641.998 1.471 1.863 2.444 2.54l-.684 2.735zm6.433-10.4c.048.327.113.649.196.964-.241-.139-.469-.298-.681-.479zm3.618 10.752 3.277 2.622-5.001 1.875v-4.21zm-1.724 6.633 7-2.625 7 2.625v.307c0 .552-.449 1-1 1h-6-6c-.551 0-1-.448-1-1zm14-2.136-5.001-1.875 3.272-2.618 1.729.305zm.915-6.058 1.085-1.085 1.55 1.55zm-4.041.121-3.874 3.099-3.874-3.099.565-2.259c1.025.408 2.14.639 3.309.639s2.284-.231 3.309-.639zm-3.874-3.62c-3.86 0-7-3.14-7-7v-2c0-.615-.174-1.199-.477-1.716l.933-.667c.573-.41.988-.98 1.248-1.617h12.296v6c0 3.86-3.14 7-7 7zm2-17v2h-4v-2zm2 2v-2h7v2zm6.23 8.852c-.393.59-.927 1.072-1.533 1.422.191-.728.303-1.488.303-2.274v-6h2v4.31c0 .907-.266 1.786-.77 2.542zm-14.23-18.852h8c3.519 0 6.432 2.613 6.92 6h-21.84c.488-3.387 3.401-6 6.92-6zm-7 8h3.382 3.618v2h-1.082c-.28-1.145-1.307-2-2.537-2-.404 0-.809.096-1.171.276l-2.21 1.106zm-3.789 5.513 6.894-3.447c.392-.197.895.116.895.552 0 .543-.264 1.056-.706 1.371l-5.875 4.197 1.162 1.628 3.306-2.362c.073.173.113.359.113.548 0 .372-.151.737-.414 1l-3.78 3.78c-.142-.121-.29-.236-.452-.333l-3.268-1.961c-.028-.017-.058-.028-.086-.044v-1.352c0-1.525.847-2.896 2.211-3.577zm-4.211 28.487v-2h-2v2h-2.783c-1.003 0-1.932-.298-2.728-.791l2.066-1.377-1.109-1.664-2.461 1.641c-.614-.855-.985-1.895-.985-3.026 0-.83.208-1.638.584-2.372l2.968 1.484.895-1.789-2.826-1.413 3.434-5.494 4.43 2.658 1.029-1.715-4.399-2.64 3.026-4.842c.393-.629 1.279-.842 1.915-.46l3.268 1.961c.417.25.676.707.676 1.193 0 .246-.065.488-.177.68l-1.011 1.64-2.257-1.505-1.109 1.664 2.316 1.544-3.246 5.263-3.068-1.533-.895 1.789 2.908 1.454-1.312 2.127 1.702 1.051 3.428-5.558 1.721-.29v3.32h-2v2h2v5zm6-10.653 4-.667v6.32c0 1.654 1.346 3 3 3h6 6c1.654 0 3-1.346 3-3v-6.278l4 .706v26.572h-2v-4c0-1.103-.897-2-2-2h-6c-1.103 0-2 .897-2 2v4h-2v-4c0-1.103-.897-2-2-2h-6c-1.103 0-2 .897-2 2v4h-2zm22 26.653h-6v-4h6zm-12 0h-6v-4h6zm26-15.354v3.354h-4v-4h3.965c.012.215.035.429.035.646zm-2.175-6.646h-1.825v2h2.996c.29.642.514 1.312.68 2h-3.676c-1.103 0-2 .897-2 2v4c0 1.103.897 2 2 2h4v6h-4v2h4v2h-8v-6h6v-2h-6v-18.135c1.487.451 2.871 1.199 4.063 2.22.668.573 1.253 1.219 1.762 1.915zm-2.239-8-2.21 2.211c-.773-.289-1.574-.499-2.389-.638l-3.573-3.573 1.086-1.086 2.793 2.793 1.414-1.414-2.764-2.764c1.011-.734 2.512-.66 3.411.239l2.232 2.232c.263.263.414.628.414 1s-.151.737-.414 1zm10.086-13.087-.673.672-1.585-1.585.672-.672c.212-.211.493-.328.793-.328.618 0 1.121.503 1.121 1.121 0 .3-.117.581-.328.792z"/></g></svg>