<svg height="503pt" viewBox="-19 0 503 503.656" width="503pt" xmlns="http://www.w3.org/2000/svg"><path d="m64.328125 503.65625c-35.289063 0-64-28.710938-64-64s28.710937-64 64-64 64 28.710938 64 64-28.710937 64-64 64zm0-112c-26.472656 0-48 21.527344-48 48s21.527344 48 48 48 48-21.527344 48-48-21.527344-48-48-48zm0 0"/><path d="m64.328125 463.65625c-13.230469 0-24-10.769531-24-24s10.769531-24 24-24 24 10.769531 24 24-10.769531 24-24 24zm0-32c-4.417969 0-8 3.582031-8 8 0 4.414062 3.582031 8 8 8 4.414063 0 8-3.585938 8-8 0-4.417969-3.585937-8-8-8zm0 0"/><path d="m96.238281 493.65625c-4.191406 0-7.71875-3.265625-7.972656-7.503906-.785156-12.609375-11.296875-22.496094-23.953125-22.496094s-23.167969 9.878906-23.953125 22.496094c-.269531 4.40625-4.0625 7.703125-8.480469 7.496094-4.40625-.273438-7.765625-4.074219-7.496094-8.480469 1.296876-21.03125 18.832032-37.503907 39.921876-37.503907 21.085937 0 38.625 16.480469 39.917968 37.503907.273438 4.40625-3.085937 8.199219-7.496094 8.480469-.152343 0-.320312.007812-.488281.007812zm0 0"/><path d="m232.328125 503.65625c-35.289063 0-64-28.710938-64-64s28.710937-64 64-64 64 28.710938 64 64-28.710937 64-64 64zm0-112c-26.472656 0-48 21.527344-48 48s21.527344 48 48 48 48-21.527344 48-48-21.527344-48-48-48zm0 0"/><path d="m232.328125 463.65625c-13.230469 0-24-10.769531-24-24s10.769531-24 24-24 24 10.769531 24 24-10.769531 24-24 24zm0-32c-4.417969 0-8 3.582031-8 8 0 4.414062 3.582031 8 8 8 4.414063 0 8-3.585938 8-8 0-4.417969-3.585937-8-8-8zm0 0"/><path d="m264.238281 493.65625c-4.191406 0-7.71875-3.265625-7.972656-7.503906-.785156-12.609375-11.296875-22.496094-23.953125-22.496094s-23.167969 9.878906-23.953125 22.496094c-.261719 4.40625-4.121094 7.703125-8.480469 7.496094-4.40625-.273438-7.765625-4.074219-7.496094-8.480469 1.296876-21.03125 18.832032-37.503907 39.921876-37.503907 21.085937 0 38.625 16.480469 39.917968 37.503907.273438 4.40625-3.085937 8.199219-7.496094 8.480469-.152343 0-.320312.007812-.488281.007812zm0 0"/><path d="m400.328125 503.65625c-35.289063 0-64-28.710938-64-64s28.710937-64 64-64 64 28.710938 64 64-28.710937 64-64 64zm0-112c-26.472656 0-48 21.527344-48 48s21.527344 48 48 48 48-21.527344 48-48-21.527344-48-48-48zm0 0"/><path d="m400.328125 463.65625c-13.230469 0-24-10.769531-24-24s10.769531-24 24-24 24 10.769531 24 24-10.769531 24-24 24zm0-32c-4.417969 0-8 3.582031-8 8 0 4.414062 3.582031 8 8 8 4.414063 0 8-3.585938 8-8 0-4.417969-3.585937-8-8-8zm0 0"/><path d="m432.238281 493.65625c-4.191406 0-7.71875-3.265625-7.972656-7.503906-.785156-12.609375-11.296875-22.496094-23.953125-22.496094s-23.167969 9.878906-23.953125 22.496094c-.261719 4.40625-4.175781 7.703125-8.480469 7.496094-4.40625-.273438-7.765625-4.074219-7.496094-8.480469 1.296876-21.03125 18.832032-37.503907 39.921876-37.503907 21.085937 0 38.625 16.480469 39.917968 37.503907.273438 4.40625-3.085937 8.199219-7.496094 8.480469-.152343 0-.320312.007812-.488281.007812zm0 0"/><path d="m232.3125 367.664062c-4.425781 0-8-3.574218-8-8v-48c0-4.425781 3.574219-8 8-8 4.421875 0 8 3.574219 8 8v48c0 4.425782-3.578125 8-8 8zm0 0"/><path d="m400.328125 343.664062h-336.015625c-4.425781 0-8-3.574218-8-8 0-4.425781 3.574219-8 8-8h336.015625c4.425781 0 8 3.574219 8 8 0 4.425782-3.574219 8-8 8zm0 0"/><path d="m400.328125 367.664062c-4.425781 0-8-3.574218-8-8v-24c0-4.425781 3.574219-8 8-8s8 3.574219 8 8v24c0 4.425782-3.574219 8-8 8zm0 0"/><path d="m64.328125 367.664062c-4.425781 0-8-3.574218-8-8v-24c0-4.425781 3.574219-8 8-8s8 3.574219 8 8v24c0 4.425782-3.574219 8-8 8zm0 0"/><path d="m136.441406 295.992188c-4.425781 0-8-3.578126-8-8v-48.007813c0-4.425781 3.574219-8 8-8 4.421875 0 8 3.574219 8 8v48.015625c0 4.414062-3.585937 7.992188-8 7.992188zm0 0"/><path d="m144.441406 303.992188c-8.824218 0-16-7.175782-16-16 0-4.25 3.34375-7.3125 7.582032-7.542969 4.375-.226563 7.945312 3.328125 8.417968 7.535156 4.414063 0 8 3.582031 8 8 0 4.421875-3.585937 8.007813-8 8.007813zm0 0"/><path d="m136.441406 247.984375c-4.425781 0-8-3.578125-8-8 0-26.472656 21.527344-48 48-48 4.421875 0 8 3.574219 8 8 0 4.421875-3.578125 8-8 8-17.648437 0-32 14.351563-32 32 0 4.414063-3.585937 8-8 8zm0 0"/><path d="m200.441406 207.984375h-24c-4.425781 0-8-3.578125-8-8 0-4.425781 3.574219-8 8-8h24c4.421875 0 8 3.574219 8 8 0 4.421875-3.585937 8-8 8zm0 0"/><path d="m328.441406 247.984375c-4.425781 0-8-3.578125-8-8 0-17.648437-14.351562-32-32-32-4.425781 0-8-3.578125-8-8 0-4.425781 3.574219-8 8-8 26.46875 0 48 21.527344 48 48 0 4.414063-3.585937 8-8 8zm0 0"/><path d="m288.441406 207.984375h-24c-4.425781 0-8-3.578125-8-8 0-4.425781 3.574219-8 8-8h24c4.421875 0 8 3.574219 8 8 0 4.421875-3.585937 8-8 8zm0 0"/><path d="m328.441406 295.992188c-4.425781 0-8-3.578126-8-8v-48.007813c0-4.425781 3.574219-8 8-8 4.421875 0 8 3.574219 8 8v48.015625c0 4.414062-3.585937 7.992188-8 7.992188zm0 0"/><path d="m320.441406 303.992188c-4.425781 0-8-3.578126-8-8 0-4.425782 3.574219-8 8-8 0-4.425782 3.574219-8 8-8 4.421875 0 8 3.574218 8 8 0 8.824218-7.183594 16-16 16zm0 0"/><path d="m320.441406 303.992188h-176c-4.425781 0-8-3.578126-8-8 0-4.425782 3.574219-8 8-8h176c4.421875 0 8 3.574218 8 8 0 4.421874-3.585937 8-8 8zm0 0"/><path d="m232.441406 191.992188c-44.113281 0-80-35.878907-80-79.984376 0-4.421874 3.574219-8 8-8 4.421875 0 8 3.578126 8 8 0 35.28125 28.710938 63.984376 64 63.984376 35.285156 0 64-28.703126 64-63.984376 0-4.421874 3.574219-8 8-8 4.421875 0 8 3.578126 8 8 0 44.105469-35.898437 79.984376-80 79.984376zm0 0"/><path d="m304.441406 87.984375c-4.425781 0-8-3.578125-8-8 0-35.28125-28.707031-63.984375-63.984375-63.984375-35.296875 0-64.015625 28.703125-64.015625 63.984375 0 4.421875-3.578125 8-8 8-4.425781 0-8-3.578125-8-8 0-44.105469 35.894532-79.984375 80.015625-79.984375 44.101563 0 79.984375 35.878906 79.984375 79.984375 0 4.414063-3.585937 8-8 8zm0 0"/><path d="m160.441406 120.398438c-4.425781 0-8-3.574219-8-8v-32.390626c0-4.421874 3.574219-8 8-8 4.421875 0 8 3.578126 8 8v32.390626c0 4.425781-3.585937 8-8 8zm0 0"/><path d="m304.441406 120.007812c-4.425781 0-8-3.574218-8-8v-32c0-4.421874 3.574219-8 8-8 4.421875 0 8 3.578126 8 8v32c0 4.425782-3.585937 8-8 8zm0 0"/><path d="m304.441406 87.984375h-144c-4.425781 0-8-3.578125-8-8 0-4.425781 3.574219-8 8-8h144c4.421875 0 8 3.574219 8 8 0 4.421875-3.585937 8-8 8zm0 0"/><path d="m304.441406 119.953125h-64c-2.128906 0-4.160156-.839844-5.65625-2.34375l-2.34375-2.34375-2.34375 2.34375c-1.503906 1.503906-3.53125 2.34375-5.65625 2.34375h-64c-4.425781 0-8-3.578125-8-8 0-4.425781 3.574219-8 8-8h60.6875l5.65625-5.65625c3.125-3.128906 8.183594-3.128906 11.3125 0l5.65625 5.65625h60.6875c4.421875 0 8 3.574219 8 8 0 4.421875-3.585937 8-8 8zm0 0"/><path d="m208.457031 95.953125h-16c-4.425781 0-8-3.578125-8-8 0-4.425781 3.574219-8 8-8h16c4.421875 0 8 3.574219 8 8 0 4.421875-3.585937 8-8 8zm0 0"/><path d="m272.511719 95.953125h-16c-4.421875 0-8-3.578125-8-8 0-4.425781 3.578125-8 8-8h16c4.425781 0 8 3.574219 8 8 0 4.421875-3.574219 8-8 8zm0 0"/><path d="m304.449219 103.96875c-2.59375 0-5.136719-1.257812-6.671875-3.570312-2.449219-3.679688-1.449219-8.644532 2.230468-11.09375l24.015626-15.953126c3.6875-2.464843 8.648437-1.441406 11.097656 2.234376 2.445312 3.679687 1.445312 8.644531-2.234375 11.09375l-24.015625 15.953124c-1.375.902344-2.902344 1.335938-4.421875 1.335938zm0 0"/><path d="m328.449219 118.992188c-1.457031 0-2.914063-.390626-4.234375-1.214844l-24.015625-15.035156c-3.75-2.34375-4.878907-7.277344-2.535157-11.023438 2.34375-3.757812 7.296876-4.871094 11.023438-2.535156l24.015625 15.03125c3.753906 2.34375 4.882813 7.28125 2.535156 11.023437-1.519531 2.425781-4.125 3.753907-6.789062 3.753907zm0 0"/><path d="m200.441406 207.984375c-4.425781 0-8-3.578125-8-8v-23.472656c0-4.421875 3.574219-8 8-8 4.421875 0 8 3.578125 8 8v23.472656c0 4.414063-3.585937 8-8 8zm0 0"/><path d="m264.441406 207.984375c-4.425781 0-8-3.578125-8-8v-23.488281c0-4.425782 3.574219-8 8-8 4.421875 0 8 3.574218 8 8v23.488281c0 4.414063-3.585937 8-8 8zm0 0"/><path d="m328.441406 271.96875h-192c-4.425781 0-8-3.578125-8-8 0-4.425781 3.574219-8 8-8h192c4.421875 0 8 3.574219 8 8 0 4.421875-3.585937 8-8 8zm0 0"/><path d="m327.625 239.9375h-190.113281c-4.421875 0-8-3.578125-8-8 0-4.425781 3.578125-8 8-8h190.113281c4.421875 0 8 3.574219 8 8 0 4.421875-3.578125 8-8 8zm0 0"/><path d="m232.3125 239.9375c-2.054688 0-4.105469-.785156-5.664062-2.351562l-31.871094-31.953126c-3.121094-3.128906-3.121094-8.191406.015625-11.3125 3.136719-3.121093 8.191406-3.121093 11.3125.015626l31.871093 31.953124c3.121094 3.125 3.121094 8.191407-.015624 11.3125-1.5625 1.550782-3.601563 2.335938-5.648438 2.335938zm0 0"/><path d="m232.3125 239.9375c-2.054688 0-4.113281-.792969-5.671875-2.363281-3.121094-3.132813-3.105469-8.191407.03125-11.308594l32.128906-31.953125c3.136719-3.128906 8.191407-3.105469 11.3125.03125 3.117188 3.136719 3.101563 8.191406-.035156 11.3125l-32.125 31.953125c-1.5625 1.550781-3.601563 2.328125-5.640625 2.328125zm0 0"/></svg>