<svg id="wave" enable-background="new 0 0 300 300" height="512" viewBox="0 0 300 300" width="512" xmlns="http://www.w3.org/2000/svg"><g><path d="m78.338 100.747c.781.781 1.805 1.172 2.828 1.172s2.047-.391 2.828-1.172l5.172-5.172 5.172 5.172c.781.781 1.805 1.172 2.828 1.172s2.047-.391 2.828-1.172c1.562-1.562 1.562-4.094 0-5.656l-5.172-5.172 5.172-5.172c1.562-1.562 1.562-4.094 0-5.656s-4.094-1.562-5.656 0l-5.172 5.172-5.172-5.172c-1.562-1.562-4.094-1.562-5.656 0s-1.562 4.094 0 5.656l5.172 5.172-5.172 5.172c-1.563 1.563-1.563 4.094 0 5.656z"/><path d="m89.232 61.365c2.362 0 4.277-1.915 4.277-4.277s-1.915-4.276-4.277-4.276-4.276 1.915-4.276 4.276c0 2.362 1.914 4.277 4.276 4.277z"/><path d="m117.322 194.146c.957-1.98.137-4.367-1.844-5.336-1.984-.965-4.379-.145-5.352 1.836-2.715 5.551-4.926 18.514 6.156 27.852.75.633 1.664.941 2.574.941 1.141 0 2.273-.484 3.062-1.422 1.422-1.689 1.207-4.213-.48-5.637-8.983-7.57-4.354-17.732-4.116-18.234z"/><path d="m162.858 123.605c.453.211 11.105 5.305 8.914 17.5-.391 2.174 1.055 4.254 3.23 4.645.238.043.477.062.711.062 1.898 0 3.586-1.357 3.934-3.293 2.645-14.736-7.668-23.582-13.488-26.201-2.004-.902-4.355-.014-5.27 1.992-.914 2-.028 4.369 1.969 5.295z"/><path d="m268.869 144.167c-4.797-1.984-10.41.264-12.48 4.947l-3.016 6.486 1.75-22.678c.273-4.084-2.098-7.85-5.898-9.369-2.652-1.059-5.586-.869-8.078.521-2.484 1.387-4.195 3.789-4.684 6.582l-1.809 10.156c-.539-7.791-1.066-15.125-1.441-19.564-.461-5.516-5.379-9.635-11.031-9.148-.49.041-.956.151-1.421.259l17.351-27.191c.082-.127.156-.258.223-.395 2.336-4.777.871-10.455-3.492-13.504-4.812-3.35-11.297-2.281-14.73 2.391l-7.707 10.094 9.055-29.898c1.277-4.361-.391-9.008-4.148-11.559-2.609-1.777-5.836-2.279-8.867-1.369-3.023.906-5.449 3.1-6.652 6.012l-7.07 17.041c1.703-11.324 3.395-22.793 4.254-29.193.398-2.973-.383-5.916-2.211-8.293-1.816-2.367-4.457-3.893-7.613-4.316-5.773-.777-11.227 3.143-12.262 8.916l-6.348 33.842c-.391-6.115-.754-12.098-1.016-16.871-.188-3.484-1.906-6.67-4.715-8.738-2.82-2.076-6.395-2.771-9.988-1.871-5.008 1.262-8.539 5.752-8.582 11.1l1.75 48.131c-1.727-2.984-3.324-6.006-4.262-8.418-1.23-3.152-3.543-5.57-6.512-6.812-3.066-1.281-6.562-1.213-9.84.199-3.609 1.557-7.402 5.254-4.953 14.137l16.641 54.615c1.191 4.324 4.641 8.688 8.742 11.338l-4.327 18.633-13.376-31.868c-3.641-8.078-8.801-8.492-12.488-7.406-3.336.982-5.996 3.105-7.496 5.977-1.453 2.779-1.68 6.031-.637 9.158.734 2.205 1.371 5.16 1.906 8.211l-28.004-36.328c-3.254-3.844-8.695-5.012-13.414-2.76-3.09 1.479-5.332 4.227-6.152 7.541-.816 3.301-.121 6.76 1.906 9.488 2.547 3.432 5.676 7.697 8.891 12.109l-24.512-20.324c-4.398-3.719-10.891-3.303-14.902 1.051-1.984 2.154-3.016 4.943-2.906 7.855.113 2.918 1.359 5.615 3.508 7.596 4.398 4.049 12.25 11.096 20.152 18.156l-14.586-7.678c-2.723-1.443-5.906-1.582-8.746-.377s-4.957 3.596-5.812 6.562c-1.227 4.26.422 8.789 4.129 11.289l24.324 16.064-11.004-2.523c-5.555-1.379-11.094 1.85-12.617 7.373-1.379 5.006 1.062 10.186 5.797 12.314.137.061.277.115.422.162l36.105 11.555c3.336 1.508 6.586 3.256 9.676 5.195l17.133 10.75c5.297 3.32 11.465 6.619 18.59 4.85l6.163 5.547h-76.366c-13.234 0-24 10.766-24 24 0 2.209 1.789 4 4 4h236c2.211 0 4-1.791 4-4 0-9.857-5.977-18.338-14.493-22.027-.001-.066.029-.125.024-.191l-1.613-22.246c5.02-4.086 6.055-10.143 6.605-15.613l1.77-17.592c.316-3.145.852-6.297 1.586-9.369l11.379-31.094c.051-.141.094-.283.129-.426 1.137-4.659-1.258-9.366-5.684-11.194zm-54.969 1.932c-.906-3.172-1.758-6.168-2.473-8.736-.209-.754-.5-1.473-.863-2.147l2.031-6.187c.212-.646.475-1.277.703-1.919zm-67.152 2.078-16.641-54.615c-1.078-3.906-.238-4.27.434-4.559 1.262-.547 2.535-.611 3.59-.166.965.402 1.703 1.211 2.145 2.336 3.227 8.291 12.566 21.826 12.961 22.398.088.128.214.211.314.325.065.075.09.17.162.241 1.203 1.193 2.711 2.678 4.035 3.883.766.699 1.73 1.043 2.691 1.043 1.086 0 2.168-.439 2.957-1.307 1.488-1.635 1.371-4.164-.266-5.65-.868-.79-1.788-1.685-2.667-2.547l-2.227-61.111c.016-1.531 1.059-2.861 2.727-3.281 1.469-.377 2.578.215 3.102.602.516.379 1.395 1.24 1.477 2.73.906 16.723 3.094 48.186 3.113 48.502.141 2.008 1.75 3.6 3.762 3.717 1.996.125 3.789-1.277 4.16-3.256l12.18-64.922c.285-1.58 1.758-2.668 3.504-2.408.871.117 1.637.557 2.16 1.238.516.672.738 1.506.625 2.35-2.082 15.518-9.098 61.072-9.168 61.529-.309 2 .926 3.916 2.875 4.461 1.961.557 4-.453 4.773-2.318l19.66-47.393c.383-.934 1.141-1.283 1.555-1.406.414-.125 1.234-.25 2.074.32.875.596 1.266 1.68.977 2.66l-15.449 51.01c-.562 1.852.285 3.84 2.004 4.721 1.734.885 3.836.402 5.004-1.133l21.164-27.715c.887-1.201 2.543-1.467 3.75-.625 1.055.738 1.445 2.09.957 3.266l-21.188 33.205c-.082.127-.156.258-.219.391-1.871 3.809-3.492 7.793-4.82 11.84l-1.161 3.537c-2.392-.58-4.934-.331-7.296.852-4.141 2.074-6.363 6.688-5.363 11.396l3.3 12.736c-1.322 1.709-2.886 2.814-4.925 3.463-1.422.451-2.473 1.656-2.73 3.125l-1.557 8.934c-1.157.375-2.288.892-3.334 1.645-2.887 2.08-5.531 6.066-1.684 13.33l1.842 3.271c-.001.005-.005.009-.006.015l-10.638 61.084h-35.902l20.754-89.369c.449-1.932-.586-3.902-2.434-4.627-3.078-1.211-6.257-4.641-7.113-7.748zm34.686 91.002 18.252 10.74h-20.122zm1.466-8.418 5.386-30.929 15.493 27.513c1.805 3.418 5.336 6.373 9.203 7.893l.093 13.28zm17.766-51.807c-1.262-1.455-2.395-2.871-3.215-4.102-1.085-1.627-2.532-2.851-4.171-3.685l1.034-5.942c.86-.405 1.657-.895 2.426-1.424zm-81.84 57.2c-4.273 1.732-8.145.139-13.801-3.408l-17.129-10.748c-3.461-2.174-7.113-4.129-10.852-5.809-.137-.062-.277-.115-.422-.162l-36.059-11.539c-1.012-.541-1.52-1.699-1.211-2.816.359-1.295 1.668-2.053 3.043-1.719l32.613 7.48c1.887.432 3.809-.547 4.57-2.324s.145-3.846-1.473-4.912l-42.727-28.219c-.793-.533-1.145-1.508-.883-2.42.25-.873.891-1.26 1.25-1.412.359-.15 1.074-.342 1.887.086l43.648 22.973c1.797.945 4.008.4 5.152-1.266 1.152-1.664.879-3.926-.637-5.268-.332-.295-33.5-29.68-44.574-39.879-.574-.525-.906-1.242-.934-2.016-.031-.783.25-1.539.914-2.254.977-1.07 2.629-1.176 3.762-.211l48.867 40.518c1.543 1.279 3.812 1.217 5.285-.156 1.469-1.373 1.691-3.627.516-5.26-.176-.248-17.891-24.863-27.488-37.791-.816-1.102-.703-2.225-.562-2.797.145-.578.574-1.641 2.004-2.326 1.27-.598 2.785-.281 3.574.648l35.994 46.701c-.134 1.126-.27 2.253-.432 3.416-.305 2.189 1.223 4.209 3.41 4.514.188.027.371.039.555.039 1.965 0 3.68-1.447 3.957-3.447.238-1.709.473-3.393.633-5.016.082-.822.001-1.752-.195-2.785-.444-4.398-1.788-16.191-4.012-22.86-.355-1.062-.309-2.074.137-2.924.484-.932 1.434-1.645 2.664-2.006.598-.18 1.383-.428 2.898 2.924l17.618 41.981-11.303 48.676-6.081-5.473c-1.133-1.028-2.758-1.308-4.176-.733zm141.832 33.765h-226.984c1.777-6.893 8.051-12 15.492-12h196c7.442 0 13.715 5.108 15.492 12zm-5.207-85.574c-.051.141-.094.285-.129.432-.848 3.498-1.461 7.088-1.824 10.672l-1.77 17.592c-.66 6.582-1.828 9.248-4.801 10.971-1.324.768-2.098 2.223-1.984 3.75l1.611 22.229c-.462-.027-.92-.07-1.389-.07h-24.081l-.123-17.732c-.012-1.959-1.441-3.619-3.375-3.924-2.531-.398-5.613-2.531-6.789-4.75l-23.535-41.797c-1.094-2.066-.957-2.729-.961-2.729.004-.004.07-.107.305-.275.797-.576 1.668-.812 2.426-.678.688.125 1.297.559 1.762 1.258 4.195 6.279 14.363 15.75 14.793 16.15 1.312 1.211 3.25 1.412 4.773.504 1.523-.91 2.266-2.719 1.82-4.439l-13.223-51.02c-.207-.975.273-1.967 1.305-2.486.91-.455 1.711-.23 2.109-.055.391.174 1.082.605 1.348 1.562 3.773 13.564 11.266 38.998 11.344 39.254.57 1.932 2.527 3.15 4.469 2.818 1.988-.318 3.43-2.064 3.363-4.076l-1.758-55.496c-.039-1.002.711-1.852 1.855-1.949 1.289-.137 2.152.723 2.25 1.859 1.094 13.105 3.59 51.758 3.613 52.146.129 2.02 1.75 3.623 3.77 3.736 1.945.094 3.809-1.295 4.16-3.293l7.555-42.459c.098-.574.48-.865.699-.988s.664-.299 1.215-.078c.57.227.926.793.887 1.367l-3.441 44.664c-.148 1.928 1.105 3.686 2.977 4.176 1.863.498 3.828-.43 4.641-2.184l12.359-26.592c.359-.809 1.309-1.197 2.133-.855.707.291 1.109 1.01 1 1.748z"/><path d="m51.166 73.919c7.719 0 14-6.281 14-14s-6.281-14-14-14-14 6.281-14 14 6.281 14 14 14zm0-20c3.309 0 6 2.691 6 6s-2.691 6-6 6-6-2.691-6-6 2.692-6 6-6z"/></g></svg>