<?xml version="1.0"?>
<svg xmlns="http://www.w3.org/2000/svg" id="outline" viewBox="0 0 512 512" width="512" height="512"><path d="M488,16H64a8.00008,8.00008,0,0,0-8,8V56a8.00008,8.00008,0,0,0,8,8H80V181.87085a35.52351,35.52351,0,0,0-16,29.66138V264a47.75351,47.75351,0,0,0,10.44037,29.83569l-54.018,27.009A7.99979,7.99979,0,0,0,16,328v96a7.99868,7.99868,0,0,0,.23877,1.94043l16,64A8.00005,8.00005,0,0,0,40,496H184a7.99938,7.99938,0,0,0,7.49072-5.19141l19.6377-52.36621,23.21484,23.21485A8.00035,8.00035,0,0,0,240,464H352a8.00222,8.00222,0,0,0,4.7998-1.59961L386.667,440H448a24.02718,24.02718,0,0,0,24-24V64h16a8.00008,8.00008,0,0,0,8-8V24A8.00008,8.00008,0,0,0,488,16ZM99.53223,192a19.4812,19.4812,0,0,1,6.17675,1.00293l20.99219,6.99609A25.26545,25.26545,0,0,1,142.70258,216H80v-4.46777A19.55415,19.55415,0,0,1,99.53223,192ZM114.584,328h-5.168l-6.76868-16.92163a47.916,47.916,0,0,0,18.70532,0ZM112,296a32.03635,32.03635,0,0,1-32-32V232h64v32A32.03635,32.03635,0,0,1,112,296ZM95.23779,335.63574l-9.62555,19.251-22.01544-37.741,20.20447-10.10229ZM108.94434,344h6.11132l13.69971,27.39941L112,400.12305,95.24463,371.39941Zm29.44342,10.88672-9.62555-19.251,11.43652-28.59228,20.20453,10.10229ZM288,448H243.31348l-29.65674-29.65723a8.00056,8.00056,0,0,0-13.14746,2.84864L178.45605,480h-132.21L32,423.01465V332.94434l17.2561-8.62818,55.83374,95.71509a8.00016,8.00016,0,0,0,13.82032,0l55.8338-95.71509,35.5119,17.75611,30.79834,53.89648a7.98644,7.98644,0,0,0,2.50829,2.6875L288,428.28125Zm61.3335,0H304V427.314L331.31348,400h11.07177l-13.0415,19.5625,13.3125,8.875L350.94794,416h12.77081l9.42676,14.14062ZM456,416a8.00917,8.00917,0,0,1-8,8H388.28125l-13.625-20.4375A7.99943,7.99943,0,0,0,368,400h-8v-8a8.00008,8.00008,0,0,0-8-8H328a8.00035,8.00035,0,0,0-5.65674,2.34277l-27.36291,27.3628-40.97156-27.314-31.063-54.36035a7.992,7.992,0,0,0-3.36816-3.18652l-70.018-35.009A47.75351,47.75351,0,0,0,160,264V224a41.24914,41.24914,0,0,0-28.23877-39.17969l-20.99365-6.99707A35.47453,35.47453,0,0,0,99.53223,176c-1.19208,0-2.37.06128-3.53223.17651V64H456ZM480,48H72V32H480Z"/><rect x="424" y="328" width="16" height="16"/><rect x="424" y="96" width="16" height="16"/><path d="M199.72034,178.29346A95.98436,95.98436,0,0,0,283.931,311.90771L305.6001,340.7998A7.99927,7.99927,0,0,0,312,344h96V328H316l-12.89423-17.19214a95.98882,95.98882,0,0,0,30.31177-179.36474L348,112h60V96H344a7.99927,7.99927,0,0,0-6.3999,3.2002l-19.282,25.70947a95.9566,95.9566,0,0,0-110.20246,37.91162L190.3999,139.2002A7.99927,7.99927,0,0,0,184,136H144v16h36ZM288,296a80.11016,80.11016,0,0,1-79.599-72H288a7.97515,7.97515,0,0,0,5.65656-2.343l.00018.00025,56.25616-56.25611A79.95236,79.95236,0,0,1,288,296Zm8-159.59912a79.63211,79.63211,0,0,1,42.59894,17.68628L296,196.686Zm-16,0V208H208.401A80.14118,80.14118,0,0,1,280,136.40088Z"/><rect x="112" y="136" width="16" height="16"/><rect x="424" y="128" width="16" height="16"/><rect x="376" y="128" width="32" height="16"/><rect x="376" y="296" width="32" height="16"/><rect x="424" y="296" width="16" height="16"/><rect x="112" y="104" width="16" height="16"/><rect x="144" y="104" width="40" height="16"/></svg>
