<svg height="511pt" viewBox="-24 0 511 511.984" width="511pt" xmlns="http://www.w3.org/2000/svg"><path d="m456.445312 511.984375h-447.953124c-4.425782 0-8-3.578125-8-8v-207.921875c0-4.421875 3.574218-8 8-8h23.992187c4.421875 0 8 3.578125 8 8 0 4.425781-3.578125 8-8 8h-15.992187v191.921875h431.953124v-191.921875h-15.992187c-4.425781 0-8-3.574219-8-8 0-4.421875 3.574219-8 8-8h23.992187c4.421876 0 8 3.578125 8 8v207.921875c0 4.421875-3.578124 8-8 8zm0 0"/><path d="m232.46875 304.0625c-4.425781 0-8-3.574219-8-8 0-22.0625 17.941406-40.015625 40-40.015625 4.421875 0 8 3.585937 8 8 0 4.425781-3.578125 8-8 8-13.234375 0-24 10.777344-24 24.015625 0 4.425781-3.578125 8-8 8zm0 0"/><path d="m432.453125 272.046875h-167.984375c-4.425781 0-8-3.574219-8-8 0-4.414063 3.574219-8 8-8h167.984375c4.421875 0 8 3.585937 8 8 0 4.425781-3.578125 8-8 8zm0 0"/><path d="m232.46875 511.984375c-4.425781 0-8-3.578125-8-8 0-22.054687 17.941406-40 40-40 4.421875 0 8 3.574219 8 8 0 4.421875-3.578125 8-8 8-13.234375 0-24 10.769531-24 24 0 4.421875-3.578125 8-8 8zm0 0"/><path d="m432.453125 479.984375h-167.984375c-4.425781 0-8-3.578125-8-8 0-4.425781 3.574219-8 8-8h167.984375c4.421875 0 8 3.574219 8 8 0 4.421875-3.578125 8-8 8zm0 0"/><path d="m432.453125 479.984375c-4.425781 0-8-3.578125-8-8v-207.9375c0-4.414063 3.574219-8 8-8 4.421875 0 8 3.585937 8 8v207.9375c0 4.421875-3.578125 8-8 8zm0 0"/><path d="m232.46875 304.0625c-4.425781 0-8-3.574219-8-8 0-13.238281-10.769531-24.015625-24-24.015625-4.425781 0-8-3.574219-8-8 0-4.414063 3.574219-8 8-8 22.054688 0 40 17.953125 40 40.015625 0 4.425781-3.578125 8-8 8zm0 0"/><path d="m200.46875 272.046875h-167.984375c-4.425781 0-8-3.574219-8-8 0-4.414063 3.574219-8 8-8h167.984375c4.421875 0 8 3.585937 8 8 0 4.425781-3.578125 8-8 8zm0 0"/><path d="m232.46875 511.984375c-4.425781 0-8-3.578125-8-8 0-13.230469-10.769531-24-24-24-4.425781 0-8-3.578125-8-8 0-4.425781 3.574219-8 8-8 22.054688 0 40 17.945313 40 40 0 4.421875-3.578125 8-8 8zm0 0"/><path d="m200.46875 479.984375h-167.984375c-4.425781 0-8-3.578125-8-8 0-4.425781 3.574219-8 8-8h167.984375c4.421875 0 8 3.574219 8 8 0 4.421875-3.578125 8-8 8zm0 0"/><path d="m32.484375 479.984375c-4.425781 0-8-3.578125-8-8v-207.9375c0-4.414063 3.574219-8 8-8 4.421875 0 8 3.585937 8 8v207.9375c0 4.421875-3.578125 8-8 8zm0 0"/><path d="m232.46875 511.984375c-4.425781 0-8-3.578125-8-8v-207.921875c0-4.421875 3.574219-8 8-8 4.421875 0 8 3.578125 8 8v207.921875c0 4.421875-3.578125 8-8 8zm0 0"/><path d="m144.46875 312.046875h-71.984375c-4.425781 0-8-3.574219-8-8 0-4.421875 3.574219-8 8-8h71.984375c4.421875 0 8 3.578125 8 8 0 4.425781-3.578125 8-8 8zm0 0"/><path d="m128.484375 376.078125h-56c-4.425781 0-8-3.574219-8-8 0-4.421875 3.574219-8 8-8h56c4.421875 0 8 3.578125 8 8 0 4.425781-3.578125 8-8 8zm0 0"/><path d="m192.46875 376.078125h-31.984375c-4.425781 0-8-3.574219-8-8 0-4.421875 3.574219-8 8-8h31.984375c4.421875 0 8 3.578125 8 8 0 4.425781-3.578125 8-8 8zm0 0"/><path d="m192.46875 344.0625h-87.984375c-4.425781 0-8-3.574219-8-8 0-4.421875 3.574219-8 8-8h87.984375c4.421875 0 8 3.578125 8 8 0 4.425781-3.578125 8-8 8zm0 0"/><path d="m80.484375 344.0625h-8c-4.425781 0-8-3.574219-8-8 0-4.421875 3.574219-8 8-8h8c4.421875 0 8 3.578125 8 8 0 4.425781-3.578125 8-8 8zm0 0"/><path d="m192.46875 312.046875h-16c-4.425781 0-8-3.574219-8-8 0-4.421875 3.574219-8 8-8h16c4.421875 0 8 3.578125 8 8 0 4.425781-3.578125 8-8 8zm0 0"/><path d="m152.46875 408.097656h-79.984375c-4.425781 0-8-3.578125-8-8 0-4.425781 3.574219-8 8-8h79.984375c4.421875 0 8 3.574219 8 8 0 4.421875-3.578125 8-8 8zm0 0"/><path d="m192.46875 408.097656h-8c-4.425781 0-8-3.578125-8-8 0-4.425781 3.574219-8 8-8h8c4.421875 0 8 3.574219 8 8 0 4.421875-3.578125 8-8 8zm0 0"/><path d="m104.484375 440.113281h-32c-4.425781 0-8-3.578125-8-8 0-4.425781 3.574219-8 8-8h32c4.421875 0 8 3.574219 8 8 0 4.421875-3.578125 8-8 8zm0 0"/><path d="m192.46875 440.113281h-55.984375c-4.425781 0-8-3.578125-8-8 0-4.425781 3.574219-8 8-8h55.984375c4.421875 0 8 3.574219 8 8 0 4.421875-3.578125 8-8 8zm0 0"/><path d="m392.589844 311.976562h-71.984375c-4.425781 0-8-3.578124-8-8 0-4.425781 3.574219-8 8-8h71.984375c4.421875 0 8 3.574219 8 8 0 4.421876-3.585938 8-8 8zm0 0"/><path d="m392.589844 376.007812h-56c-4.425782 0-8-3.574218-8-8 0-4.421874 3.574218-8 8-8h56c4.421875 0 8 3.578126 8 8 0 4.425782-3.585938 8-8 8zm0 0"/><path d="m304.589844 376.007812h-31.984375c-4.425781 0-8-3.574218-8-8 0-4.421874 3.574219-8 8-8h31.984375c4.421875 0 8 3.578126 8 8 0 4.425782-3.585938 8-8 8zm0 0"/><path d="m360.589844 343.992188h-87.984375c-4.425781 0-8-3.578126-8-8 0-4.425782 3.574219-8 8-8h87.984375c4.421875 0 8 3.574218 8 8 0 4.421874-3.585938 8-8 8zm0 0"/><path d="m392.589844 343.992188h-8c-4.425782 0-8-3.578126-8-8 0-4.425782 3.574218-8 8-8h8c4.421875 0 8 3.574218 8 8 0 4.421874-3.585938 8-8 8zm0 0"/><path d="m288.605469 311.976562h-16c-4.425781 0-8-3.578124-8-8 0-4.425781 3.574219-8 8-8h16c4.421875 0 8 3.574219 8 8 0 4.421876-3.585938 8-8 8zm0 0"/><path d="m392.589844 408.023438h-79.984375c-4.425781 0-8-3.574219-8-8 0-4.421876 3.574219-8 8-8h79.984375c4.421875 0 8 3.578124 8 8 0 4.425781-3.585938 8-8 8zm0 0"/><path d="m280.605469 408.023438h-8c-4.425781 0-8-3.574219-8-8 0-4.421876 3.574219-8 8-8h8c4.421875 0 8 3.578124 8 8 0 4.425781-3.585938 8-8 8zm0 0"/><path d="m392.589844 440.039062h-32c-4.425782 0-8-3.574218-8-8 0-4.421874 3.574218-8 8-8h32c4.421875 0 8 3.578126 8 8 0 4.425782-3.585938 8-8 8zm0 0"/><path d="m328.589844 440.039062h-55.984375c-4.425781 0-8-3.574218-8-8 0-4.421874 3.574219-8 8-8h55.984375c4.421875 0 8 3.578126 8 8 0 4.425782-3.585938 8-8 8zm0 0"/><path d="m144.46875 256.023438c-4.425781 0-8-3.582032-8-8 0-13.230469 10.765625-24 24-24 4.421875 0 8 3.585937 8 8 0 4.417968-3.578125 8-8 8-4.417969 0-8 3.59375-8 8 0 4.417968-3.578125 8-8 8zm0 0"/><path d="m144.46875 272.046875c-4.425781 0-8-3.574219-8-8v-16.023437c0-4.414063 3.574219-8 8-8 4.421875 0 8 3.585937 8 8v16.023437c0 4.425781-3.578125 8-8 8zm0 0"/><path d="m320.476562 256.023438c-4.425781 0-8-3.582032-8-8 0-4.40625-3.585937-8-8-8-4.425781 0-8-3.582032-8-8 0-4.414063 3.574219-8 8-8 13.230469 0 24 10.769531 24 24 0 4.417968-3.578124 8-8 8zm0 0"/><path d="m320.476562 272.046875c-4.425781 0-8-3.574219-8-8v-16.023437c0-4.414063 3.574219-8 8-8 4.421876 0 8 3.585937 8 8v16.023437c0 4.425781-3.578124 8-8 8zm0 0"/><path d="m304.476562 240.023438h-144.007812c-4.425781 0-8-3.582032-8-8 0-4.414063 3.574219-8 8-8h144.007812c4.421876 0 8 3.585937 8 8 0 4.417968-3.578124 8-8 8zm0 0"/><path d="m220.476562 240.015625c-4.425781 0-8-3.582031-8-8v-176.015625c0-4.414062 3.574219-8 8-8 4.421876 0 8 3.585938 8 8v176.015625c0 4.417969-3.578124 8-8 8zm0 0"/><path d="m244.46875 240.015625c-4.425781 0-8-3.582031-8-8v-176.015625c0-4.414062 3.574219-8 8-8 4.421875 0 8 3.585938 8 8v176.015625c0 4.417969-3.578125 8-8 8zm0 0"/><path d="m244.46875 28c-4.425781 0-8-3.585938-8-8 0-2.207031-1.800781-4-4-4s-4 1.792969-4 4c0 4.414062-3.578125 8-8 8-4.425781 0-8-3.585938-8-8 0-11.023438 8.96875-20 20-20s20 8.976562 20 20c0 4.414062-3.578125 8-8 8zm0 0"/><path d="m340.589844 64c-4.425782 0-8-3.585938-8-8s3.574218-8 8-8c2.199218 0 4-1.792969 4-4s-1.800782-4-4-4c-4.425782 0-8-3.585938-8-8s3.574218-8 8-8c11.03125 0 20 8.976562 20 20s-8.96875 20-20 20zm0 0"/><path d="m124.578125 64c-11.03125 0-20-8.976562-20-20s8.96875-20 20-20c4.425781 0 8 3.585938 8 8s-3.574219 8-8 8c-2.199219 0-4 1.792969-4 4s1.800781 4 4 4c4.425781 0 8 3.585938 8 8s-3.582031 8-8 8zm0 0"/><path d="m340.589844 40.007812h-215.472656c-4.425782 0-8-3.582031-8-8 0-4.414062 3.574218-8 8-8h215.472656c4.421875 0 8 3.585938 8 8 0 4.417969-3.585938 8-8 8zm0 0"/><path d="m340.589844 64h-215.472656c-4.425782 0-8-3.585938-8-8s3.574218-8 8-8h215.472656c4.421875 0 8 3.585938 8 8s-3.585938 8-8 8zm0 0"/><path d="m220.46875 40.007812c-4.425781 0-8-3.582031-8-8v-12.007812c0-4.414062 3.574219-8 8-8 4.421875 0 8 3.585938 8 8v12.007812c0 4.417969-3.578125 8-8 8zm0 0"/><path d="m244.46875 40c-4.425781 0-8-3.585938-8-8v-12c0-4.414062 3.574219-8 8-8 4.421875 0 8 3.585938 8 8v12c0 4.414062-3.578125 8-8 8zm0 0"/><path d="m128.589844 184.015625c-22.058594 0-40-17.945313-40-40 0-4.414063 3.574218-8 8-8 4.421875 0 8 3.585937 8 8 0 13.230469 10.765625 24 24 24 13.230468 0 24-10.769531 24-24 0-4.414063 3.574218-8 8-8 4.421875 0 8 3.585937 8 8 0 22.054687-17.953125 40-40 40zm0 0"/><path d="m160.589844 152.015625h-64c-4.425782 0-8-3.582031-8-8 0-4.414063 3.574218-8 8-8h64c4.421875 0 8 3.585937 8 8 0 4.417969-3.585938 8-8 8zm0 0"/><path d="m96.589844 152.015625c-.90625 0-1.832032-.160156-2.738282-.488281-4.152343-1.511719-6.296874-6.101563-4.785156-10.253906l32.007813-88.015626c1.503906-4.152343 6.074219-6.296874 10.25-4.785156 4.152343 1.511719 6.296875 6.101563 4.785156 10.253906l-32.007813 88.015626c-1.175781 3.257812-4.25 5.273437-7.511718 5.273437zm0 0"/><path d="m160.589844 152.015625c-3.265625 0-6.335938-2.015625-7.515625-5.273437l-32-88.007813c-1.511719-4.148437.632812-8.742187 4.785156-10.253906 4.167969-1.511719 8.746094.640625 10.25 4.785156l31.992187 88.015625c1.511719 4.152344-.632812 8.742188-4.785156 10.253906-.90625.328125-1.824218.480469-2.726562.480469zm0 0"/><path d="m336.789062 184.015625c-22.058593 0-40-17.945313-40-40 0-4.414063 3.574219-8 8-8 4.421876 0 8 3.585937 8 8 0 13.230469 10.765626 24 24 24 13.230469 0 24-10.769531 24-24 0-4.414063 3.574219-8 8-8 4.421876 0 8 3.585937 8 8 0 22.054687-17.945312 40-40 40zm0 0"/><path d="m368.789062 152.015625h-64c-4.425781 0-8-3.582031-8-8 0-4.414063 3.574219-8 8-8h64c4.421876 0 8 3.585937 8 8 0 4.417969-3.578124 8-8 8zm0 0"/><path d="m304.789062 152.015625c-.90625 0-1.832031-.160156-2.738281-.488281-4.152343-1.511719-6.292969-6.101563-4.78125-10.253906l32.007813-88.015626c1.503906-4.152343 6.085937-6.296874 10.246094-4.785156 4.152343 1.511719 6.296874 6.101563 4.785156 10.253906l-32.007813 88.015626c-1.175781 3.257812-4.25 5.273437-7.511719 5.273437zm0 0"/><path d="m368.789062 152.015625c-3.265624 0-6.335937-2.015625-7.511718-5.273437l-31.992188-88.007813c-1.511718-4.148437.628906-8.742187 4.78125-10.253906 4.175782-1.511719 8.746094.640625 10.25 4.785156l31.992188 88.015625c1.511718 4.152344-.632813 8.742188-4.785156 10.253906-.902344.328125-1.832032.480469-2.734376.480469zm0 0"/></svg>