<svg id="Layer_1_1_" enable-background="new 0 0 64 64" height="512" viewBox="0 0 64 64" width="512" xmlns="http://www.w3.org/2000/svg"><path d="m60 35.884-.263 1.116h-23.474l-.289-1.229c-.107-.452-.51-.771-.974-.771h-5c0-2.757-2.243-5-5-5h-3v-1c0-3.07-1.74-5.738-4.284-7.078 1.969-1.241 3.284-3.428 3.284-5.922 0-3.86-3.141-7-7-7s-7 3.14-7 7c0 2.494 1.315 4.681 3.284 5.922-2.544 1.34-4.284 4.008-4.284 7.078v9.043c0 1.345.529 2.602 1.466 3.536l-1.425 7.116-3.955 8.898c-.205.462-.033 1.004.399 1.264l5 3c.158.095.335.143.515.143.094 0 .188-.013.279-.04.268-.078.49-.264.615-.513l5-10c.04-.08.068-.164.086-.25l.781-3.893.337.262 2.924 13.644c.099.46.506.79.978.79h6c.296 0 .576-.131.766-.357s.271-.525.219-.816l-3-17c-.017-.095-.047-.187-.09-.273l-3.277-6.554h14.59l3.792 16.117v3.883c0 1.654 1.346 3 3 3h1.184c.414 1.161 1.514 2 2.816 2s2.402-.839 2.816-2h4.369c.414 1.161 1.514 2 2.816 2 1.654 0 3-1.346 3-3s-1.346-3-3-3c-1.302 0-2.402.839-2.816 2h-4.369c-.414-1.161-1.514-2-2.816-2s-2.402.839-2.816 2h-1.184c-.552 0-1-.449-1-1v-3h17c.464 0 .867-.319.974-.771l4-17c.017-.075.026-.152.026-.229v-1h-2zm-51-19.884c0-2.757 2.243-5 5-5s5 2.243 5 5-2.243 5-5 5-5-2.243-5-5zm3.046 34.672-4.457 8.915-3.315-1.989 3.641-8.191c.029-.067.052-.138.066-.21l1.241-6.201 3.775 2.936zm4.954-15.672c-.552 0-1-.449-1-1v-6h-2v6c0 1.654 1.346 3 3 3h.382l3.658 7.317 2.768 15.683h-3.999l-2.831-13.209c-.049-.23-.178-.436-.363-.58l-7.456-5.798c-.726-.565-1.159-1.451-1.159-2.37v-9.043c0-3.309 2.691-6 6-6s6 2.691 6 6v2c0 .552.447 1 1 1h4c1.654 0 3 1.346 3 3zm38 23c.552 0 1 .449 1 1s-.448 1-1 1-1-.449-1-1 .448-1 1-1zm-10 0c.552 0 1 .449 1 1s-.448 1-1 1-1-.449-1-1 .448-1 1-1zm14.267-19-.706 3h-21.122l-.706-3zm-21.357 5h20.18l-.706 3h-18.768zm1.882 8-.706-3h17.828l-.706 3z"/><path d="m32 16v-12h3v-2h-4c-.553 0-1 .448-1 1v12.586l-2.715 2.715c-.391-.188-.823-.301-1.285-.301-1.654 0-3 1.346-3 3s1.346 3 3 3 3-1.346 3-3c0-.462-.113-.894-.301-1.285l3.008-3.008c.188-.187.293-.442.293-.707zm-6 6c-.552 0-1-.449-1-1s.448-1 1-1 1 .449 1 1-.448 1-1 1z"/><path d="m37 2h4v2h-4z"/><path d="m37 6h11v2h-11z"/><path d="m55 10h7v2h-7z"/><path d="m37 14h13v2h-13z"/><path d="m43 2h10v2h-10z"/><path d="m55 2h7v2h-7z"/><path d="m50 6h12v2h-12z"/><path d="m37 10h2v2h-2z"/><path d="m41 10h12v2h-12z"/><path d="m52 14h2v2h-2z"/><path d="m56 14h2v2h-2z"/><path d="m60 14h2v2h-2z"/><path d="m52 22v-2c0-.552-.447-1-1-1h-5c-.553 0-1 .448-1 1v6h-4c-.553 0-1 .448-1 1v4h-3v2h23v-2h-3v-8c0-.552-.447-1-1-1zm-5-1h3v2 8h-3v-4zm-5 7h3v3h-3zm10 3v-7h3v7z"/></svg>