<?xml version="1.0"?>
<svg xmlns="http://www.w3.org/2000/svg" viewBox="0 0 64 64" width="512" height="512"><g id="Money_bag" data-name="Money bag"><path d="M32,36A10,10,0,1,0,42,46,10.011,10.011,0,0,0,32,36Zm0,18a8,8,0,1,1,8-8A8.009,8.009,0,0,1,32,54Z"/><path d="M31,43h2a1,1,0,0,1,1,1,1,1,0,0,0,2,0,3,3,0,0,0-3-3V40a1,1,0,0,0-2,0v1a3,3,0,0,0,0,6h2a1,1,0,0,1,0,2H31a1,1,0,0,1-1-1,1,1,0,0,0-2,0,3,3,0,0,0,3,3v1a1,1,0,0,0,2,0V51a3,3,0,0,0,0-6H31a1,1,0,0,1,0-2Z"/><path d="M39.25,28.96a2.991,2.991,0,0,0,.74-2.22,2.843,2.843,0,0,0-.4-1.21A2.992,2.992,0,0,0,41,23a2.942,2.942,0,0,0-.4-1.47,2.981,2.981,0,0,0-.82-5.41,2.969,2.969,0,0,0-1.35-3.74l4.46-8.93A1,1,0,0,0,42,2H38a1.014,1.014,0,0,0-.8.4L35,5.33,32.8,2.4A1.014,1.014,0,0,0,32,2H22a1,1,0,0,0-.89,1.45l1.35,2.72A2.973,2.973,0,0,0,20.6,8.05l-1.09,3.27a1,1,0,0,1-.95.68H17a1,1,0,0,0-1-1H13a1,1,0,0,0-1-1H3a1,1,0,0,0-1,1V29a1,1,0,0,0,1,1h9a1,1,0,0,0,1-1h3a1,1,0,0,0,1-1l1.87,1.4a2.974,2.974,0,0,0,1.8.6h2.9C18.75,34.61,15,42.25,15,48c0,9.19,8.55,14,17,14s17-4.81,17-14C49,41.86,44.56,33.34,39.25,28.96ZM11,28H4V12h7Zm4-1H13V13h2ZM31.5,4l2.7,3.6a1.041,1.041,0,0,0,1.6,0L38.5,4h1.88l-4,8H27.62l-4-8ZM20.67,28a.984.984,0,0,1-.6-.2L17,25.5V14h1.56a2.978,2.978,0,0,0,2.84-2.05l1.09-3.27a.991.991,0,0,1,.9-.67l2.72,5.44A.977.977,0,0,0,27,14H37a1,1,0,0,1,1,1,.949.949,0,0,1-.31.71A.928.928,0,0,1,37,16H35a1,1,0,0,0,0,2h4a1,1,0,0,1,0,2H35a1,1,0,0,0,0,2h3a1,1,0,0,1,0,2H35a1,1,0,0,0,0,2h1.89a1.092,1.092,0,0,1,1.11.91.985.985,0,0,1-.31.8A.928.928,0,0,1,37,28ZM32,60c-7.45,0-15-4.12-15-12,0-5.83,4.49-14.15,9.67-18H37a2.4,2.4,0,0,0,.28-.03C42.49,33.8,47,42.11,47,48,47,55.88,39.45,60,32,60Z"/></g></svg>
