<?xml version="1.0"?>
<svg xmlns="http://www.w3.org/2000/svg" id="outline" viewBox="0 0 512 512" width="512" height="512"><path d="M490.9707,88.57227,456,74.584V40a8.00039,8.00039,0,0,0-8-8H432a8.00235,8.00235,0,0,0-5.65723,2.34277l-8.15136,8.15137-3.03614-6.07226a8,8,0,0,0-10.36132-3.751l-128,56a8.001,8.001,0,0,0-4.38379,9.85937l6.21923,18.65772L252.751,128.68945a8.00114,8.00114,0,0,0-3.57715,3.13867L163.51318,272H128V216a7.99912,7.99912,0,0,0-4.42188-7.15527l-32-16A7.99951,7.99951,0,0,0,80,200v72H24a8.00039,8.00039,0,0,0-8,8V392a8.00039,8.00039,0,0,0,8,8H48.022A39.97806,39.97806,0,0,0,80,464H336a40,40,0,0,0,0-80H320.00024l14.40015-19.2002A8.00115,8.00115,0,0,0,336,360V240a8.00039,8.00039,0,0,0-8-8H293.93018l32.437-58.97656,52.49267-47.72022L395.67505,198.169,368,179.71875V160H352V278.05859a41.94165,41.94165,0,0,0,71.59863,29.65723L435.31348,296H480a8.00039,8.00039,0,0,0,8-8V120a8.00039,8.00039,0,0,0,8-8V96A7.99873,7.99873,0,0,0,490.9707,88.57227ZM480,101.416V104H456V91.81641ZM406.26538,54.42017,395.39209,65.29346,361.19116,80.49365l-4.62866-9.25732L404.24316,50.376Zm-116.366,45.9812,51.98511-22.74366,4.67066,9.34107-53.23584,23.6604ZM226.584,336,240,369.541V384H176V368h16a7.99912,7.99912,0,0,0,7.15527-4.42188L212.94434,336ZM96,212.94434l16,8V272H96ZM160,288v48H32V288ZM32,352H160v32H32Zm326.62378,64H344v16h14.62378A24.0384,24.0384,0,0,1,336,448H80a24.0384,24.0384,0,0,1-22.62378-16H72V416H57.37622A24.0384,24.0384,0,0,1,80,400H336A24.0384,24.0384,0,0,1,358.62378,416ZM256,384V368a7.99723,7.99723,0,0,0-.57227-2.9707l-14.59521-36.488,13.1814-23.96631,10.55835,26.39575A7.99873,7.99873,0,0,0,272,336h48v21.333L300,384Zm64-136v72H277.416l-13.42554-33.564L285.13013,248Zm-5.38184-85.91992a8.00128,8.00128,0,0,0-1.62793,2.06445L227.26978,320H208a7.99912,7.99912,0,0,0-7.15527,4.42188L187.05566,352H176V282.251l85.52637-139.95313L396.26367,82.415l1.8711,3.74219Zm77.81446-49.11572,20.94922-19.04444a8.0024,8.0024,0,0,0,1.77343-9.498l-5.42089-10.8418L435.31348,48H440V224h-5.57812l-19.34131-12.894ZM472,280H432a8.00235,8.00235,0,0,0-5.65723,2.34277l-14.05859,14.0586A25.9406,25.9406,0,0,1,368,278.05859V198.94824l59.5625,39.708A8.00221,8.00221,0,0,0,432,240h40Zm0-56H456V120h16Z"/><rect x="88" y="416" width="16" height="16"/><rect x="120" y="416" width="16" height="16"/><rect x="152" y="416" width="16" height="16"/><rect x="184" y="416" width="16" height="16"/><rect x="216" y="416" width="16" height="16"/><rect x="248" y="416" width="16" height="16"/><rect x="280" y="416" width="16" height="16"/><rect x="312" y="416" width="16" height="16"/></svg>
