<?xml version="1.0"?>
<svg xmlns="http://www.w3.org/2000/svg" viewBox="0 0 64 64" width="512" height="512"><g id="Outline"><path d="M34,59.238c-.656.26-1.32.505-2,.716a29.412,29.412,0,0,1-13.822-9.317l-1.73,1.057A31.421,31.421,0,0,0,31.716,61.958a1,1,0,0,0,.574,0c.595-.178,1.17-.4,1.748-.611A2.832,2.832,0,0,1,34,61Z"/><path d="M48.927,26.355c.027.046.049.1.076.142V15.2a1,1,0,0,0-.869-.992,44.876,44.876,0,0,1-15.653-5.1,1,1,0,0,0-.957,0,44.878,44.878,0,0,1-15.652,5.1A1,1,0,0,0,15,15.2V31.051a26.243,26.243,0,0,0,1.2,7.79l1.792-.976A24.3,24.3,0,0,1,17,31.051V16.067a46.83,46.83,0,0,0,15-4.949,46.83,46.83,0,0,0,15,4.949v7.31C47.677,24.334,48.329,25.318,48.927,26.355Z"/><path d="M42.542,45.118A23.683,23.683,0,0,1,32,53.589a23.43,23.43,0,0,1-8.65-6.113l-1.732,1.058A25.487,25.487,0,0,0,31.643,55.6a1.012,1.012,0,0,0,.719,0A25.827,25.827,0,0,0,45.239,44.626a5,5,0,0,1-2.2.525A4.9,4.9,0,0,1,42.542,45.118Z"/><path d="M40.483,38.6a3.039,3.039,0,0,0-.346.775,3,3,0,0,0,2.122,3.674,3.028,3.028,0,0,0,.782.1,2.983,2.983,0,0,0,1.5-.4l6.928-4A2.988,2.988,0,0,0,49.9,33.166,36.567,36.567,0,0,0,43.521,22.1a2.99,2.99,0,0,0-4.057-4.14l-6.928,4a3,3,0,0,0,1.5,5.6c.021,0,.041-.008.062-.008.37,1.03.808,2.075,1.3,3.111L4.048,47.735a3.925,3.925,0,0,0,.908,7.252,3.889,3.889,0,0,0,3.016-.455L38.434,35.915C39.088,36.857,39.775,37.76,40.483,38.6Zm9.48-3.448a1,1,0,0,1,.5,1.865h0l-6.928,4a1.006,1.006,0,0,1-.759.1,1,1,0,0,1-.241-1.832l6.928-4A1,1,0,0,1,49.963,35.15Zm-4.5-6.795a33.84,33.84,0,0,1,2.554,5.453L41.977,37.3a34.112,34.112,0,0,1-3.441-4.942A33.725,33.725,0,0,1,35.984,26.9l6.037-3.486A34.6,34.6,0,0,1,45.464,28.355ZM33.17,25.061a1,1,0,0,1,.366-1.366l6.927-4a1,1,0,0,1,1.367.366,1,1,0,0,1-.366,1.366l-6.927,4A1,1,0,0,1,33.17,25.061ZM6.929,52.825A1.926,1.926,0,1,1,5.005,49.49l31.3-17.043c.164.3.325.61.5.908s.357.59.538.884Z"/><path d="M12.627,40.786A30.247,30.247,0,0,1,11,31.051V10.579A41.018,41.018,0,0,0,32,4.185a41.015,41.015,0,0,0,21,6.394V31.051c0,.376-.015.749-.029,1.123a4.917,4.917,0,0,1,1.319,1.472,4.976,4.976,0,0,1,.476,1.2A32.166,32.166,0,0,0,55,31.051V9.591a1,1,0,0,0-1-1A39.02,39.02,0,0,1,33.015,2.459l-.476-.3a1,1,0,0,0-1.072,0l-.478.3A39.014,39.014,0,0,1,10,8.591a1,1,0,0,0-1,1v21.46a32.2,32.2,0,0,0,1.85,10.7Z"/><path d="M52.463,40.48l-1.2.7A30.789,30.789,0,0,1,46.382,50h2.476a32.779,32.779,0,0,0,5.1-10.839A4.958,4.958,0,0,1,52.463,40.48Z"/><path d="M59,56H58V55a3,3,0,0,0-3-3H43a3,3,0,0,0-3,3v1H39a3,3,0,0,0-3,3v2a1,1,0,0,0,1,1H61a1,1,0,0,0,1-1V59A3,3,0,0,0,59,56ZM42,55a1,1,0,0,1,1-1H55a1,1,0,0,1,1,1v1H42Zm18,5H38V59a1,1,0,0,1,1-1H59a1,1,0,0,1,1,1Z"/></g></svg>
