<svg id="Capa_1" enable-background="new 0 0 512 512" height="512" viewBox="0 0 512 512" width="512" xmlns="http://www.w3.org/2000/svg"><g><g><path d="m157.826 85.379c-3.26-2.555-7.976-1.981-10.529 1.28l-34.705 44.308-19.344-14.296c-3.331-2.462-8.027-1.758-10.489 1.574-2.462 3.331-1.757 8.027 1.574 10.489l25.209 18.631c3.266 2.414 7.858 1.79 10.362-1.407l39.202-50.05c2.554-3.261 1.981-7.974-1.28-10.529z"/><path d="m67.49 44.667c-12.119 0-21.979 9.86-21.979 21.979v101.547c0 12.119 9.86 21.979 21.979 21.979h101.547c12.119 0 21.979-9.86 21.979-21.979v-101.547c0-12.12-9.86-21.979-21.979-21.979zm108.527 21.979v101.547c0 3.848-3.131 6.979-6.979 6.979h-101.548c-3.848 0-6.979-3.131-6.979-6.979v-101.547c0-3.849 3.131-6.979 6.979-6.979h101.547c3.849 0 6.98 3.13 6.98 6.979z"/><path d="m206.959 497h-163.545c-14.28 0-25.898-11.618-25.898-25.898v-430.205c0-14.279 11.617-25.897 25.898-25.897h244.414c1.01 0 2.004.101 2.98.265v51.343c0 22.551 18.347 40.897 40.897 40.897h51.343c.164.977.265 1.97.265 2.98v62.346c0 4.142 3.358 7.5 7.5 7.5s7.5-3.358 7.5-7.5v-62.346c0-8.761-3.412-16.999-9.607-23.194l-77.685-77.684c-6.195-6.195-14.432-9.607-23.194-9.607h-244.413c-22.552 0-40.898 18.347-40.898 40.897v430.205c0 22.551 18.346 40.898 40.898 40.898h163.545c4.142 0 7.5-3.358 7.5-7.5s-3.358-7.5-7.5-7.5zm165.748-404.494h-41.002c-14.28 0-25.897-11.618-25.897-25.897v-41.002z"/><path d="m471.915 416.012h-45.786c-8.606-23.019-25.959-30.829-25.959-62.291v-.179c0-17.858 5.975-34.93 16.825-48.071 35.465-42.951 5.939-107.798-48.883-110.325-58.593-2.715-91.527 64.864-55.971 109.438 11.314 14.185 17.546 31.536 17.546 48.856v.281c0 31.481-17.389 39.364-25.96 62.291h-45.787c-20.716 0-37.569 16.854-37.569 37.569v16.397c0 7.444 5.289 13.674 12.307 15.134v8.016c0 10.406 8.466 18.872 18.872 18.872h226.757c10.406 0 18.872-8.466 18.872-18.872v-8.016c7.017-1.46 12.307-7.69 12.307-15.134v-16.397c-.002-20.716-16.855-37.569-37.571-37.569zm-127.229-62.291v-.281c0-20.706-7.394-41.379-20.819-58.21-27.655-34.669-2.039-87.204 43.554-85.1 42.598 1.963 65.585 52.389 38.007 85.791-13.064 15.822-20.258 36.285-20.258 57.621v.179c0 33.69 17.78 47.761 24.689 62.291h-89.862c6.946-14.609 24.689-28.537 24.689-62.291zm-109.315 99.86c0-12.445 10.125-22.569 22.569-22.569h213.975c12.445 0 22.569 10.125 22.569 22.569v16.397c0 .253-.206.459-.459.459h-258.195c-.253 0-.459-.206-.459-.459zm242.935 43.419h-226.757c-2.135 0-3.872-1.737-3.872-3.872v-7.691h234.5v7.691c.001 2.135-1.736 3.872-3.871 3.872z"/></g></g></svg>