<?xml version="1.0"?>
<svg xmlns="http://www.w3.org/2000/svg" id="outline" viewBox="0 0 512 512" width="512" height="512"><path d="M488,320H416a8.00008,8.00008,0,0,0-8,8v8H393.94629a89.30427,89.30427,0,0,0-61.17383,24.00586L304.00391,360H304a23.90508,23.90508,0,0,0-10.44141,2.38135A39.9657,39.9657,0,0,0,288,360.812V137.88818l10.17822-20.35693A51.42967,51.42967,0,0,0,313.94141,120h82.70605l-34.28564,96H344a8.00008,8.00008,0,0,0-8,8v8a72,72,0,0,0,144,0v-8a8.00008,8.00008,0,0,0-8-8H453.63818l-34.28564-96H456a8.00008,8.00008,0,0,0,8-8V88a8.00034,8.00034,0,0,0-7.53027-7.98633L333.70215,72.792a26.83787,26.83787,0,0,1-17.418-7.82129,85.25369,85.25369,0,0,0-120.56738-.00049A26.84061,26.84061,0,0,1,178.29785,72.792L55.53027,80.01367A8.00034,8.00034,0,0,0,48,88v24a8.00008,8.00008,0,0,0,8,8H92.64771L58.36182,216H40a8.00008,8.00008,0,0,0-8,8v8a72,72,0,0,0,144,0v-8a8.00008,8.00008,0,0,0-8-8H149.63818l-34.28589-96h82.7063a51.42694,51.42694,0,0,0,15.76294-2.46863L224,137.88818V360.80493a40.13163,40.13163,0,0,0-30.7561,29.28687,183.30875,183.30875,0,0,0-53.29468-34.8169L120,346.7251V336a8.00008,8.00008,0,0,0-8-8H24a8.00008,8.00008,0,0,0-8,8v96a8.00008,8.00008,0,0,0,8,8h88a7.96954,7.96954,0,0,0,5.58032-2.27368A95.77127,95.77127,0,0,0,191.0957,472H272a23.99065,23.99065,0,0,0,22.62354-32H328a128.848,128.848,0,0,0,74.61816-24H408v8a8.00008,8.00008,0,0,0,8,8h72a8.00008,8.00008,0,0,0,8-8V328A8.00008,8.00008,0,0,0,488,320ZM104,424H32V344h72ZM464,232a56,56,0,0,1-112,0Zm-27.35254-16H379.35254L408,135.78662ZM160,232a56,56,0,0,1-112,0Zm-27.35229-16H75.35229L104,135.78662ZM223.03027,93.65674A35.08681,35.08681,0,0,1,198.05859,104H64V95.54346l115.2373-6.77881a42.82366,42.82366,0,0,0,27.793-12.48047,69.25362,69.25362,0,0,1,97.94043.00049,42.821,42.821,0,0,0,27.792,12.48L448,95.54346V104H313.94141A35.08291,35.08291,0,0,1,288.9707,93.65674l-.001-.00049a46.62627,46.62627,0,0,0-65.93946.00049ZM236.94434,128l-8.853-17.70569a51.951,51.951,0,0,0,6.25146-5.32361,30.628,30.628,0,0,1,43.31446,0s4.05224,3.72925,6.25146,5.32373L275.05566,128ZM272,144V360H240V144ZM232,376h48c.4502,0,.89941.019,1.34717.04419A24.04992,24.04992,0,0,0,281.37646,392H209.37109A24.04166,24.04166,0,0,1,232,376Zm40,80H191.0957a79.83745,79.83745,0,0,1-66.56347-35.62451L120,413.57751V364.13232l13.64648,5.84864a167.473,167.473,0,0,1,52.69727,35.68164,7.99952,7.99952,0,0,0,5.65723,2.34375h.00195L223.99805,408a8,8,0,0,1,.00488,16H184v16l88,.00049A7.99976,7.99976,0,1,1,272,456Zm136-56h-8a7.9984,7.9984,0,0,0-4.7998,1.6001A112.70022,112.70022,0,0,1,328,424H256a7.99976,7.99976,0,1,1,0-15.99951l55.99707.00195V408H344V392h-40.002A8,8,0,0,1,304,376h.001l31.99609.00635h.00195a7.99952,7.99952,0,0,0,5.65723-2.34375A73.45859,73.45859,0,0,1,393.94629,352H408Zm72,16H424V336h56Z"/></svg>
