<svg width="18" height="20" viewBox="0 0 18 20" fill="none" xmlns="http://www.w3.org/2000/svg">
<path d="M15.9387 19.33H3.73033C2.79538 19.33 2.03473 18.5694 2.03473 17.6344V9.49549C2.03473 9.3083 2.18666 9.15637 2.37385 9.15637C2.56104 9.15637 2.71297 9.3083 2.71297 9.49549V17.6344C2.71297 18.1953 3.16943 18.6518 3.73033 18.6518H15.9387C16.4996 18.6518 16.9561 18.1953 16.9561 17.6344V5.42604C16.9561 4.86514 16.4996 4.40868 15.9387 4.40868H14.2431C14.0559 4.40868 13.904 4.25675 13.904 4.06956C13.904 3.88236 14.0559 3.73044 14.2431 3.73044H15.9387C16.8736 3.73044 17.6343 4.49109 17.6343 5.42604V17.6344C17.6343 18.5694 16.8736 19.33 15.9387 19.33Z" fill="#017052"/>
<path d="M14.2431 12.5476C14.1159 12.5476 13.9969 12.476 13.9389 12.358C12.3494 9.12517 10.5409 7.12164 6.4433 7.12164H6.10418V9.15637C6.10418 9.28727 6.02889 9.4063 5.91088 9.4626C5.79286 9.51923 5.65281 9.50227 5.55141 9.41953L0.125475 5.01096C0.0461204 4.94686 0 4.85021 0 4.7478C0 4.64538 0.0461204 4.54907 0.125136 4.48464L5.55107 0.0760677C5.65247 -0.00667783 5.79252 -0.0232948 5.91054 0.0329993C6.02889 0.0892934 6.10418 0.208664 6.10418 0.339226V2.37395H6.4433C10.6704 2.37395 14.5822 3.56528 14.5822 12.2085C14.5822 12.3662 14.4733 12.5032 14.3201 12.5388C14.2943 12.5449 14.2685 12.5476 14.2431 12.5476ZM5.76506 6.4434H6.4433C10.2923 6.4434 12.3162 8.13426 13.8673 10.7848C13.5218 4.38935 10.7471 3.05219 6.4433 3.05219H5.76506C5.57786 3.05219 5.42593 2.90027 5.42593 2.71307V1.05172L0.876967 4.7478L5.42593 8.44388V6.78252C5.42593 6.59533 5.57786 6.4434 5.76506 6.4434Z" fill="#017052"/>
</svg>
