<svg width="16" height="16" viewBox="0 0 16 16" fill="none" xmlns="http://www.w3.org/2000/svg">
<path d="M5.66666 0C2.542 0 0 2.542 0 5.66666C0 8.79131 2.542 11.3333 5.66666 11.3333C8.79131 11.3333 11.3333 8.79131 11.3333 5.66666C11.3333 2.542 8.79134 0 5.66666 0ZM5.66666 10.6667C2.90931 10.6667 0.666656 8.424 0.666656 5.66666C0.666656 2.90931 2.90931 0.666656 5.66666 0.666656C8.424 0.666656 10.6667 2.90931 10.6667 5.66666C10.6667 8.424 8.424 10.6667 5.66666 10.6667Z" fill="black"/>
<path d="M15.902 15.4313L9.67334 9.20266C9.54334 9.07266 9.33199 9.07266 9.20199 9.20266C9.07199 9.33266 9.07199 9.544 9.20199 9.674L15.4306 15.9027C15.496 15.9673 15.5813 16 15.6666 16C15.752 16 15.8373 15.9673 15.902 15.9027C16.032 15.7727 16.032 15.5613 15.902 15.4313Z" fill="black"/>
</svg>
