<svg width="16" height="24" viewBox="0 0 16 24" fill="none" xmlns="http://www.w3.org/2000/svg">
<path d="M8 0C3.5888 0 4.64654e-05 3.58876 0 8C0 12.2707 7.35418 23.1528 7.66721 23.614C7.74207 23.7243 7.86669 23.7903 8 23.7903C8.13326 23.7903 8.25798 23.7242 8.33278 23.614C8.64587 23.1528 16 12.2707 16 8C16 3.58876 12.4112 0 8 0ZM8.00005 22.6626C6.54266 20.4538 0.804456 11.5318 0.804456 8C0.804456 4.03236 4.03232 0.80441 8 0.80441C11.9677 0.80441 15.1956 4.03236 15.1956 8C15.1956 11.5317 9.45743 20.4538 8.00005 22.6626Z" fill="white"/>
<path d="M8.00001 2.82552C5.1468 2.82552 2.82553 5.14679 2.82553 8C2.82553 10.8532 5.1468 13.1745 8.00001 13.1745C10.8533 13.1745 13.1745 10.8533 13.1745 8.00005C13.1745 5.14684 10.8532 2.82552 8.00001 2.82552ZM8.00001 12.3701C5.59032 12.3701 3.62994 10.4097 3.62994 8C3.62994 5.5903 5.59032 3.62993 8.00001 3.62993C10.4098 3.62993 12.3701 5.5903 12.3701 8C12.3701 10.4097 10.4097 12.3701 8.00001 12.3701Z" fill="white"/>
</svg>
