<svg width="22" height="22" viewBox="0 0 22 22" fill="none" xmlns="http://www.w3.org/2000/svg">
<path d="M11 0C4.9346 0 0 4.9346 0 11C0 13.6565 0.946733 16.0959 2.52047 17.9989C2.5245 18.0044 2.52487 18.0114 2.52927 18.0165C3.66557 19.3868 5.09263 20.4373 6.68287 21.116C6.7012 21.1237 6.71917 21.1321 6.7375 21.1398C6.8662 21.1941 6.99637 21.2443 7.1269 21.2934C7.17823 21.3129 7.22957 21.3327 7.28163 21.3514C7.3942 21.3917 7.5075 21.4298 7.62153 21.4665C7.6945 21.49 7.76747 21.5131 7.84117 21.5351C7.942 21.5651 8.0432 21.5941 8.14513 21.6216C8.2346 21.6458 8.3248 21.6682 8.415 21.6898C8.5063 21.7118 8.59797 21.7338 8.69 21.7532C8.79267 21.7752 8.89643 21.7947 9.00057 21.8137C9.08417 21.8291 9.1674 21.8453 9.25173 21.8588C9.36723 21.8775 9.48347 21.8922 9.60007 21.9072C9.67523 21.9168 9.75003 21.9278 9.82557 21.9358C9.95757 21.9498 10.0907 21.9597 10.2241 21.9688C10.2861 21.9732 10.3477 21.9798 10.41 21.9831C10.6047 21.9941 10.8016 22 11 22C11.1984 22 11.3953 21.9941 11.5907 21.9839C11.653 21.9806 11.7146 21.974 11.7766 21.9696C11.9101 21.96 12.0432 21.9505 12.1752 21.9366C12.2507 21.9285 12.3255 21.9175 12.4007 21.908C12.5173 21.8929 12.6335 21.8783 12.749 21.8596C12.833 21.846 12.9166 21.8299 13.0002 21.8145C13.1039 21.7954 13.2077 21.776 13.3107 21.754C13.4028 21.7342 13.4941 21.7125 13.5857 21.6905C13.6759 21.6685 13.7661 21.6462 13.8556 21.6223C13.9575 21.5952 14.0587 21.5659 14.1596 21.5358C14.2333 21.5138 14.3062 21.4907 14.3792 21.4672C14.4932 21.4306 14.6065 21.3924 14.7191 21.3521C14.7708 21.3334 14.8221 21.3136 14.8738 21.2942C15.0047 21.245 15.1345 21.1944 15.2632 21.1405C15.2816 21.1328 15.2995 21.1244 15.3179 21.1167C16.9077 20.438 18.3352 19.3875 19.4715 18.0173C19.4759 18.0121 19.4762 18.0048 19.4803 17.9997C21.0533 16.0959 22 13.6565 22 11C22 4.9346 17.0654 0 11 0ZM15.4576 20.2473C15.4521 20.2499 15.4469 20.2528 15.4414 20.2554C15.3105 20.3185 15.1774 20.3779 15.0432 20.4358C15.0128 20.4486 14.9827 20.4618 14.9523 20.4747C14.835 20.5238 14.7162 20.5704 14.5966 20.6151C14.5468 20.6338 14.4969 20.6521 14.4467 20.6697C14.3407 20.7075 14.2344 20.7438 14.1269 20.7783C14.0602 20.7995 13.9931 20.8197 13.926 20.8395C13.8307 20.8681 13.735 20.8956 13.6382 20.9213C13.5568 20.9429 13.4746 20.9627 13.3925 20.9821C13.3063 21.0027 13.2205 21.0236 13.1336 21.0419C13.0387 21.0621 12.943 21.0793 12.8476 21.0965C12.7703 21.1108 12.6933 21.1259 12.6152 21.1383C12.5077 21.1552 12.3992 21.1688 12.291 21.1823C12.2225 21.1911 12.1543 21.2014 12.085 21.2087C11.9614 21.2219 11.8367 21.2304 11.7124 21.2392C11.6571 21.2428 11.6021 21.2491 11.546 21.252C11.3645 21.2615 11.1826 21.2667 11 21.2667C10.8174 21.2667 10.6355 21.2615 10.4544 21.252C10.3987 21.2491 10.3437 21.2432 10.2879 21.2392C10.1633 21.2307 10.039 21.2219 9.9154 21.2087C9.8461 21.2014 9.7779 21.1911 9.70933 21.1823C9.60117 21.1688 9.49263 21.1552 9.3852 21.1383C9.3071 21.1259 9.2301 21.1108 9.15273 21.0965C9.05703 21.0793 8.96133 21.0617 8.86673 21.0419C8.77983 21.0236 8.69367 21.0027 8.60787 20.9821C8.52573 20.9623 8.4436 20.9429 8.3622 20.9213C8.26577 20.8956 8.1697 20.8677 8.07437 20.8395C8.00727 20.8197 7.94017 20.7995 7.87343 20.7783C7.766 20.7438 7.6593 20.7075 7.5537 20.6697C7.50347 20.6518 7.4536 20.6334 7.40373 20.6151C7.2842 20.5704 7.1654 20.5238 7.04807 20.4747C7.01763 20.4622 6.98793 20.449 6.9575 20.4362C6.8233 20.3786 6.6902 20.3188 6.55893 20.2558C6.55343 20.2532 6.5483 20.2506 6.5428 20.2477C5.2635 19.6288 4.13343 18.7502 3.2164 17.6832C3.92517 15.0733 5.93157 12.9694 8.5129 12.1323C8.56387 12.1634 8.61703 12.1913 8.66947 12.2206C8.70027 12.2379 8.7307 12.2562 8.76187 12.2727C8.87113 12.3306 8.98187 12.3849 9.09517 12.4337C9.18207 12.4718 9.2719 12.5041 9.36137 12.5371C9.37897 12.5433 9.39657 12.5503 9.41417 12.5565C9.91137 12.7325 10.4434 12.8333 11 12.8333C11.5566 12.8333 12.0886 12.7325 12.5855 12.5565C12.6031 12.5503 12.6207 12.5433 12.6383 12.5371C12.7277 12.5041 12.8176 12.4718 12.9045 12.4337C13.0178 12.3849 13.1285 12.3306 13.2378 12.2727C13.2689 12.2558 13.2994 12.2379 13.3302 12.2206C13.3826 12.1913 13.4361 12.1634 13.4875 12.1319C16.0688 12.9694 18.0748 15.0733 18.784 17.6829C17.8669 18.7495 16.7369 19.628 15.4576 20.2473ZM6.96667 8.06667C6.96667 5.84283 8.77617 4.03333 11 4.03333C13.2238 4.03333 15.0333 5.84283 15.0333 8.06667C15.0333 9.48127 14.2996 10.7261 13.1941 11.4462C13.0497 11.5401 12.8993 11.6241 12.745 11.6974C12.7266 11.7062 12.7087 11.7154 12.6903 11.7238C11.6285 12.2067 10.3715 12.2067 9.30967 11.7238C9.29133 11.7154 9.273 11.7062 9.25503 11.6974C9.1003 11.6241 8.95033 11.5401 8.80587 11.4462C7.70037 10.7261 6.96667 9.48127 6.96667 8.06667ZM19.334 16.9851C18.5027 14.5306 16.6063 12.547 14.1834 11.6046C15.1525 10.7316 15.7667 9.471 15.7667 8.06667C15.7667 5.4384 13.6283 3.3 11 3.3C8.37173 3.3 6.23333 5.4384 6.23333 8.06667C6.23333 9.471 6.8475 10.7316 7.81697 11.6046C5.39403 12.5473 3.49763 14.5306 2.6664 16.9851C1.45163 15.2988 0.733333 13.2323 0.733333 11C0.733333 5.33903 5.33903 0.733333 11 0.733333C16.661 0.733333 21.2667 5.33903 21.2667 11C21.2667 13.2323 20.5484 15.2988 19.334 16.9851Z" fill="#017052"/>
</svg>
