<svg width="23" height="22" viewBox="0 0 23 22" fill="none" xmlns="http://www.w3.org/2000/svg">
<path d="M21.4242 16.9723L16.971 14.0025C16.4059 13.6286 15.6484 13.7516 15.2306 14.2851L13.9334 15.953C13.7667 16.1728 13.4637 16.2366 13.2225 16.1026L12.9758 15.9666C12.1578 15.5207 11.14 14.9656 9.08941 12.9143C7.0388 10.863 6.48261 9.84441 6.03676 9.02794L5.90146 8.78119C5.76565 8.54007 5.82821 8.23575 6.0481 8.06771L7.71482 6.77093C8.24811 6.35309 8.37129 5.59578 7.99787 5.03048L5.0281 0.577286C4.64541 0.00163523 3.87762 -0.171172 3.28517 0.184969L1.423 1.30357C0.837898 1.64755 0.408631 2.20464 0.225211 2.85811C-0.44535 5.30138 0.0591063 9.51809 6.27071 15.7304C11.2119 20.6712 14.8904 21.9999 17.4187 21.9999C18.0006 22.0024 18.5802 21.9267 19.1419 21.7748C19.7955 21.5916 20.3527 21.1623 20.6965 20.5771L21.8162 18.716C22.1729 18.1234 22.0001 17.3552 21.4242 16.9723ZM21.1844 18.3398L20.0673 20.202C19.8205 20.6244 19.4197 20.935 18.949 21.0687C16.6935 21.688 12.7529 21.175 6.78947 15.2117C0.826083 9.24827 0.313204 5.308 0.932465 3.05209C1.06635 2.58085 1.37733 2.1796 1.80028 1.93237L3.66245 0.815229C3.91951 0.660553 4.25275 0.735528 4.41881 0.985329L6.03203 3.40733L7.38605 5.43814C7.5482 5.68334 7.49492 6.01198 7.26359 6.19343L5.59649 7.49021C5.08916 7.87814 4.94428 8.58007 5.25664 9.13716L5.38901 9.37768C5.85759 10.2371 6.44016 11.3062 8.56704 13.4327C10.6939 15.5592 11.7627 16.1418 12.6217 16.6104L12.8625 16.7431C13.4196 17.0554 14.1216 16.9106 14.5095 16.4032L15.8063 14.7361C15.9878 14.5049 16.3163 14.4517 16.5616 14.6137L21.0144 17.5834C21.2644 17.7494 21.3393 18.0828 21.1844 18.3398Z" fill="#1A77A3"/>
<path d="M12.4669 3.66805C15.9076 3.67187 18.6959 6.4602 18.6998 9.90091C18.6998 10.1034 18.8639 10.2675 19.0664 10.2675C19.2689 10.2675 19.433 10.1034 19.433 9.90091C19.4288 6.05538 16.3124 2.93901 12.4669 2.9348C12.2644 2.9348 12.1003 3.09893 12.1003 3.30142C12.1003 3.50392 12.2644 3.66805 12.4669 3.66805Z" fill="#1A77A3"/>
<path d="M12.4669 5.86788C14.6932 5.8705 16.4973 7.67462 16.4999 9.90091C16.4999 10.1034 16.6641 10.2675 16.8666 10.2675C17.0691 10.2675 17.2332 10.1034 17.2332 9.90091C17.2301 7.2698 15.098 5.13764 12.4669 5.13463C12.2644 5.13463 12.1003 5.29876 12.1003 5.50125C12.1003 5.70375 12.2644 5.86788 12.4669 5.86788Z" fill="#1A77A3"/>
<path d="M12.4669 8.06771C13.4788 8.06891 14.2989 8.88895 14.3001 9.90091C14.3001 10.1034 14.4643 10.2675 14.6667 10.2675C14.8692 10.2675 15.0334 10.1034 15.0334 9.90091C15.0317 8.48417 13.8836 7.33605 12.4669 7.33446C12.2644 7.33446 12.1003 7.49859 12.1003 7.70108C12.1003 7.90358 12.2644 8.06771 12.4669 8.06771Z" fill="#1A77A3"/>
</svg>
