<svg width="22" height="22" viewBox="0 0 22 22" fill="none" xmlns="http://www.w3.org/2000/svg">
<path d="M21.8042 11.0877C21.8603 10.9518 21.8294 10.7955 21.7255 10.6915L18.8146 7.7806C18.6719 7.64255 18.4448 7.64468 18.3045 7.78504C18.1641 7.92522 18.1621 8.15228 18.3 8.29495L20.5898 10.5848H16.0102V1.12419C16.0102 0.521353 15.5216 0.0325832 14.9186 0.0325832H1.69498C1.28136 -0.0583838 0.848913 0.0434211 0.519336 0.309215C0.189758 0.575187 -0.00123767 0.976189 6.03647e-06 1.39975V18.4012C0.000894375 18.8917 0.327985 19.3219 0.800587 19.4537L9.89729 21.9604C10.226 22.0514 10.5783 21.9835 10.8496 21.7769C11.1209 21.5703 11.2801 21.2489 11.2799 20.9077V19.6815H14.9186C15.5216 19.6815 16.0102 19.1929 16.0102 18.5899V11.3125H20.5898L18.3 13.6025C18.2055 13.6938 18.1675 13.829 18.2009 13.9562C18.2341 14.0834 18.3336 14.1828 18.4608 14.2162C18.588 14.2494 18.7232 14.2115 18.8146 14.1168L21.7255 11.2059C21.7593 11.1721 21.7859 11.132 21.8042 11.0877ZM15.2825 1.12419V10.5848H11.2799V3.49662C11.2785 3.04533 10.9996 2.64149 10.5781 2.48034C10.5454 2.46666 10.512 2.4544 10.4781 2.4441L4.37122 0.76032H14.9186C15.1195 0.76032 15.2825 0.923243 15.2825 1.12419ZM10.5522 20.9077C10.5524 21.0215 10.4994 21.1288 10.4088 21.1977C10.3184 21.2666 10.2009 21.2894 10.0913 21.259L0.994603 18.7523C0.836832 18.7085 0.727565 18.5648 0.727743 18.4012V1.39975C0.72721 1.18833 0.825639 0.988803 0.993892 0.860703C1.16215 0.732603 1.38068 0.690495 1.58429 0.74735L10.2844 3.14518C10.4427 3.18854 10.5525 3.33245 10.5522 3.49662V20.9077ZM15.2825 18.5899C15.2825 18.791 15.1195 18.9537 14.9186 18.9537H11.2799V11.3125H15.2825V18.5899Z" fill="#1A77A3"/>
</svg>
