<svg width="16" height="16" viewBox="0 0 16 16" fill="none" xmlns="http://www.w3.org/2000/svg">
<path d="M13.6569 2.34313C12.1458 0.832156 10.1369 0 8 0C5.86312 0 3.85416 0.832156 2.34313 2.34313C0.832156 3.85416 0 5.86312 0 8C0 10.1369 0.832156 12.1458 2.34313 13.6569C3.85416 15.1678 5.86312 16 8 16C10.1369 16 12.1458 15.1678 13.6569 13.6569C15.1678 12.1458 16 10.1369 16 8C16 5.86312 15.1678 3.85416 13.6569 2.34313ZM14.7494 7.53125V8.46875H13.4984V7.53125H14.7494ZM3.78059 4.4435L2.896 3.55891L3.55891 2.896L4.4435 3.78059L3.78059 4.4435ZM4.4435 12.2194L3.55891 13.104L2.896 12.4411L3.78059 11.5565L4.4435 12.2194ZM11.3091 7.53125V8.46875H7.53125V4.69088H8.46875V7.53125H11.3091ZM8.46875 2.50163H7.53125V1.25063H8.46875V2.50163ZM7.53125 13.4984H8.46875V14.7494H7.53125V13.4984ZM11.5565 12.2194L12.2194 11.5565L13.104 12.4411L12.4411 13.104L11.5565 12.2194ZM12.2194 4.4435L11.5565 3.78059L12.4411 2.896L13.104 3.55891L12.2194 4.4435ZM2.50163 7.53125V8.46875H1.25063V7.53125H2.50163Z" fill="white"/>
</svg>
