<svg width="12" height="16" viewBox="0 0 12 16" fill="none" xmlns="http://www.w3.org/2000/svg">
<path d="M5.66666 0C2.542 0 0 2.542 0 5.66666C0 8.68931 5.18066 15.576 5.40134 15.868C5.46334 15.9513 5.56269 16 5.66669 16C5.77069 16 5.87003 15.9513 5.93203 15.868C6.15269 15.576 11.3334 8.68934 11.3334 5.66666C11.3333 2.542 8.79131 0 5.66666 0ZM5.66666 8.66666C4.01266 8.66666 2.66666 7.32066 2.66666 5.66666C2.66666 4.01266 4.01266 2.66666 5.66666 2.66666C7.32066 2.66666 8.66666 4.01266 8.66666 5.66666C8.66666 7.32066 7.32066 8.66666 5.66666 8.66666Z" fill="white"/>
</svg>
