<svg width="17" height="16" viewBox="0 0 17 16" fill="none" xmlns="http://www.w3.org/2000/svg">
<path d="M12.4204 7.79735C11.4191 9.0756 9.88517 9.88516 8.11691 9.88516C6.39127 9.88516 4.81476 9.0756 3.81346 7.79735C1.4913 9.26734 0 11.8238 0 14.6573C0 15.4243 0.596519 15.9995 1.34217 15.9995H14.8704C15.6373 16.0208 16.2338 15.3817 16.2338 14.6573C16.2338 11.8238 14.7425 9.24604 12.4204 7.79735Z" fill="white"/>
<path d="M8.11688 0C5.6882 0 3.72821 1.98129 3.72821 4.38867C3.72821 6.81736 5.7095 8.77735 8.11688 8.77735C10.5243 8.77735 12.5056 6.83866 12.5056 4.38867C12.5056 1.93869 10.5456 0 8.11688 0Z" fill="white"/>
</svg>
