<svg width="16" height="16" viewBox="0 0 16 16" fill="none" xmlns="http://www.w3.org/2000/svg">
<path d="M12.2188 15.5C12.2188 14.7233 11.5892 14.0938 10.8125 14.0938H5.1875C4.41084 14.0938 3.78125 14.7233 3.78125 15.5V16H12.2188V15.5Z" fill="white"/>
<path d="M15.0625 3.78125V2.84375H9.31991C9.17828 2.44662 8.86588 2.13422 8.46875 1.99259V0H7.53125V1.99259C7.13412 2.13422 6.82172 2.44662 6.68009 2.84375H0.9375V3.78125H2.1095L0 8.9375C0 10.2298 1.05147 11.2812 2.34375 11.2812H3.28125C4.57353 11.2812 5.625 10.2298 5.625 8.9375L3.50597 3.78125H6.68013C6.82175 4.17838 7.13416 4.49078 7.53128 4.63241V11.3326C6.61519 11.5201 5.8905 12.2398 5.70372 13.1562H10.2963C10.1096 12.2398 9.38488 11.5201 8.46878 11.3326V4.63241C8.86591 4.49078 9.17831 4.17838 9.31994 3.78125H12.4845L10.375 8.9375C10.375 10.2298 11.4265 11.2812 12.7188 11.2812H13.6562C14.9485 11.2812 16 10.2298 16 8.9375L13.881 3.78125H15.0625ZM4.453 8.46875H1.172L2.8125 4.53106L4.453 8.46875ZM14.828 8.46875H11.547L13.1875 4.53106L14.828 8.46875Z" fill="white"/>
</svg>
