<svg width="11" height="17" viewBox="0 0 11 17" fill="none" xmlns="http://www.w3.org/2000/svg">
<path d="M5.5 0C2.4673 0 3.1945e-05 2.46727 0 5.5C0 8.4361 5.056 15.9175 5.27121 16.2346C5.32267 16.3104 5.40835 16.3558 5.5 16.3558C5.59162 16.3558 5.67736 16.3104 5.72879 16.2346C5.94404 15.9176 11 8.4361 11 5.5C11 2.46727 8.53273 0 5.5 0ZM5.50003 15.5805C4.49808 14.062 0.553063 7.92811 0.553063 5.5C0.553063 2.77225 2.77222 0.553032 5.5 0.553032C8.22778 0.553032 10.447 2.77225 10.447 5.5C10.447 7.92807 6.50199 14.062 5.50003 15.5805Z" fill="#1A77A3"/>
<path d="M5.50002 1.94254C3.53844 1.94254 1.94257 3.53842 1.94257 5.5C1.94257 7.46158 3.53844 9.05749 5.50002 9.05749C7.46164 9.05749 9.05748 7.46161 9.05748 5.50003C9.05748 3.53845 7.46161 1.94254 5.50002 1.94254ZM5.50002 8.50443C3.84336 8.50443 2.4956 7.15667 2.4956 5.5C2.4956 3.84333 3.84336 2.49557 5.50002 2.49557C7.15672 2.49557 8.50445 3.84333 8.50445 5.5C8.50445 7.15667 7.15669 8.50443 5.50002 8.50443Z" fill="#1A77A3"/>
</svg>
