<svg width="16" height="16" viewBox="0 0 16 16" fill="none" xmlns="http://www.w3.org/2000/svg">
<path d="M13.6568 2.34316C12.1458 0.832156 10.1369 0 8 0C5.86309 0 3.85413 0.832156 2.34313 2.34316C0.832156 3.85416 0 5.86312 0 8C0 10.1369 0.832156 12.1459 2.34313 13.6569C3.85413 15.1679 5.86309 16 8 16C10.1369 16 12.1458 15.1679 13.6568 13.6569C15.1678 12.1459 16 10.1369 16 8C16 5.86312 15.1678 3.85416 13.6568 2.34316ZM12.0971 5.89719L7.22847 10.7657C7.13694 10.8573 7.01697 10.9031 6.89703 10.9031C6.77706 10.9031 6.65709 10.8573 6.56556 10.7657L3.90291 8.10316C3.71984 7.92013 3.71984 7.62328 3.90287 7.44025C4.08594 7.25719 4.38272 7.25719 4.56581 7.44025L6.89703 9.77141L11.4342 5.23428C11.6172 5.05122 11.914 5.05122 12.0971 5.23428C12.2802 5.41734 12.2802 5.71413 12.0971 5.89719Z" fill="white"/>
</svg>
