<svg width="15" height="16" viewBox="0 0 15 16" fill="none" xmlns="http://www.w3.org/2000/svg">
<path d="M13.1929 16H3.08771C2.31381 16 1.6842 15.3704 1.6842 14.5965V7.85969C1.6842 7.70475 1.80996 7.57899 1.9649 7.57899C2.11985 7.57899 2.2456 7.70475 2.2456 7.85969V14.5965C2.2456 15.0608 2.62343 15.4386 3.08771 15.4386H13.1929C13.6572 15.4386 14.035 15.0608 14.035 14.5965V4.49129C14.035 4.02701 13.6572 3.64919 13.1929 3.64919H11.7894C11.6345 3.64919 11.5087 3.52344 11.5087 3.36849C11.5087 3.21355 11.6345 3.08779 11.7894 3.08779H13.1929C13.9668 3.08779 14.5964 3.7174 14.5964 4.49129V14.5965C14.5964 15.3704 13.9668 16 13.1929 16Z" fill="#017052"/>
<path d="M11.7894 10.386C11.6841 10.386 11.5856 10.3268 11.5376 10.2291C10.222 7.55317 8.725 5.89479 5.3333 5.89479H5.0526V7.57899C5.0526 7.68734 4.99029 7.78587 4.8926 7.83246C4.79492 7.87934 4.67899 7.86531 4.59506 7.79682L0.103859 4.14771C0.0381752 4.09466 0 4.01466 0 3.92989C0 3.84512 0.0381752 3.7654 0.103578 3.71207L4.59478 0.0629634C4.67871 -0.00552744 4.79464 -0.0192817 4.89232 0.0273145C4.99029 0.0739107 5.0526 0.172717 5.0526 0.280787V1.96499H5.3333C8.83223 1.96499 12.0701 2.95109 12.0701 10.1053C12.0701 10.2358 11.98 10.3492 11.8531 10.3787C11.8318 10.3837 11.8105 10.386 11.7894 10.386ZM4.7719 5.33339H5.3333C8.51925 5.33339 10.1945 6.73296 11.4784 8.92692C11.1924 3.63319 8.89567 2.52639 5.3333 2.52639H4.7719C4.61696 2.52639 4.4912 2.40063 4.4912 2.24569V0.870538L0.725891 3.92989L4.4912 6.98924V5.61409C4.4912 5.45914 4.61696 5.33339 4.7719 5.33339Z" fill="#017052"/>
</svg>
