<svg width="15" height="15" viewBox="0 0 15 15" fill="none" xmlns="http://www.w3.org/2000/svg">
<path d="M7.5 0C3.35791 0 0 3.35791 0 7.5C0 11.6421 3.35791 15 7.5 15C11.6421 15 15 11.6421 15 7.5C14.9954 3.35986 11.6401 0.00463869 7.5 0ZM7.5 14.5C3.63403 14.5 0.5 11.366 0.5 7.5C0.5 3.63403 3.63403 0.5 7.5 0.5C11.366 0.5 14.5 3.63403 14.5 7.5C14.4956 11.3641 11.3641 14.4956 7.5 14.5Z" fill="#1A77A3"/>
<path d="M7.5 6C7.36194 6 7.25 6.11194 7.25 6.25V11.25C7.25 11.3881 7.36194 11.5 7.5 11.5C7.63806 11.5 7.75 11.3881 7.75 11.25V6.25C7.75 6.11194 7.63806 6 7.5 6Z" fill="#1A77A3"/>
<path d="M7.5 3.5C7.08582 3.5 6.75 3.83582 6.75 4.25C6.75 4.66418 7.08582 5 7.5 5C7.91418 5 8.25 4.66418 8.25 4.25C8.25 3.83582 7.91418 3.5 7.5 3.5ZM7.5 4.5C7.36194 4.5 7.25 4.38806 7.25 4.25C7.25 4.11194 7.36194 4 7.5 4C7.63806 4 7.75 4.11194 7.75 4.25C7.75 4.38806 7.63806 4.5 7.5 4.5Z" fill="#1A77A3"/>
</svg>
