<svg width="13" height="14" viewBox="0 0 13 14" fill="none" xmlns="http://www.w3.org/2000/svg">
<path d="M11.4643 1.14286H11.3036V0.875C11.3036 0.392857 10.9107 0 10.4286 0C9.94643 0 9.55357 0.392857 9.55357 0.875V1.14286H3.28571V0.875C3.28571 0.410714 2.89286 0.0178571 2.41071 0.0178571C1.92857 0.0178571 1.53571 0.410714 1.53571 0.892857V1.16071H1.375C0.607143 1.16071 0 1.78571 0 2.53571V12.625C0 13.3929 0.625 14 1.375 14H11.4643C12.2321 14 12.8393 13.375 12.8393 12.625V2.51786C12.8393 1.75 12.2143 1.14286 11.4643 1.14286ZM10.4464 0.5C10.6607 0.5 10.8214 0.678571 10.8214 0.875V1.89286C10.8214 2.10714 10.6429 2.26786 10.4464 2.26786C10.2321 2.26786 10.0714 2.08929 10.0714 1.89286V1.39286V0.892857C10.0536 0.678571 10.2321 0.5 10.4464 0.5ZM2.03571 1.39286V0.892857C2.03571 0.678571 2.21429 0.5 2.41071 0.5C2.625 0.5 2.78571 0.678571 2.78571 0.875V1.89286C2.78571 2.10714 2.60714 2.26786 2.41071 2.26786C2.19643 2.26786 2.03571 2.08929 2.03571 1.89286V1.39286ZM12.3571 12.6071C12.3571 13.0893 11.9643 13.5 11.4643 13.5H1.39286C0.910714 13.5 0.5 13.1071 0.5 12.6071V4.46429H12.3571V12.6071ZM12.375 3.98214H0.5V2.53571C0.5 2.05357 0.892857 1.64286 1.39286 1.64286H1.55357V1.91071C1.55357 2.39286 1.94643 2.78571 2.42857 2.78571C2.91071 2.78571 3.30357 2.39286 3.30357 1.91071V1.64286H9.57143V1.91071C9.57143 2.39286 9.96429 2.78571 10.4464 2.78571C10.9286 2.78571 11.3214 2.39286 11.3214 1.91071V1.64286H11.4821C11.9643 1.64286 12.375 2.03571 12.375 2.53571V3.98214Z" fill="#1A77A3"/>
<path d="M2.9107 6.64286H1.69641C1.55355 6.64286 1.44641 6.75 1.44641 6.89286C1.46427 7.03572 1.57141 7.14286 1.69641 7.14286H2.9107C3.05355 7.14286 3.1607 7.03572 3.1607 6.89286C3.1607 6.75 3.05355 6.64286 2.9107 6.64286Z" fill="#1A77A3"/>
<path d="M4.92858 6.64286H3.71429C3.57144 6.64286 3.46429 6.75 3.46429 6.89286C3.46429 7.03572 3.57144 7.14286 3.71429 7.14286H4.92858C5.07144 7.14286 5.17858 7.03572 5.17858 6.89286C5.17858 6.75 5.07144 6.64286 4.92858 6.64286Z" fill="#1A77A3"/>
<path d="M6.92858 6.64286H5.71429C5.57144 6.64286 5.46429 6.75 5.46429 6.89286C5.46429 7.03572 5.58929 7.14286 5.71429 7.14286H6.92858C7.07144 7.14286 7.17858 7.03572 7.17858 6.89286C7.17858 6.75 7.07144 6.64286 6.92858 6.64286Z" fill="#1A77A3"/>
<path d="M8.92858 6.64286H7.71429C7.57144 6.64286 7.46429 6.75 7.46429 6.89286C7.48215 7.03572 7.58929 7.14286 7.71429 7.14286H8.92858C9.07144 7.14286 9.17858 7.03572 9.17858 6.89286C9.17858 6.75 9.07144 6.64286 8.92858 6.64286Z" fill="#1A77A3"/>
<path d="M10.9464 6.64286H9.73212C9.58926 6.64286 9.48212 6.75 9.48212 6.89286C9.48212 7.03572 9.58926 7.14286 9.73212 7.14286H10.9464C11.0893 7.14286 11.1964 7.03572 11.1964 6.89286C11.1964 6.75 11.0893 6.64286 10.9464 6.64286Z" fill="#1A77A3"/>
<path d="M2.98217 8.01786H1.76788C1.62503 8.01786 1.51788 8.125 1.51788 8.26786C1.51788 8.41072 1.62503 8.51786 1.76788 8.51786H2.98217C3.12503 8.51786 3.23217 8.41072 3.23217 8.26786C3.21431 8.125 3.10717 8.01786 2.98217 8.01786Z" fill="#1A77A3"/>
<path d="M4.98217 8.01786H3.76788C3.62503 8.01786 3.51788 8.125 3.51788 8.26786C3.51788 8.41072 3.62503 8.51786 3.76788 8.51786H4.98217C5.12503 8.51786 5.23217 8.41072 5.23217 8.26786C5.23217 8.125 5.10717 8.01786 4.98217 8.01786Z" fill="#1A77A3"/>
<path d="M6.98217 8.01786H5.76788C5.62503 8.01786 5.51788 8.125 5.51788 8.26786C5.51788 8.41072 5.62503 8.51786 5.76788 8.51786H6.98217C7.12503 8.51786 7.23217 8.41072 7.23217 8.26786C7.23217 8.125 7.12503 8.01786 6.98217 8.01786Z" fill="#1A77A3"/>
<path d="M8.99999 8.01786H7.78571C7.64285 8.01786 7.53571 8.125 7.53571 8.26786C7.53571 8.41072 7.64285 8.51786 7.78571 8.51786H8.99999C9.14285 8.51786 9.24999 8.41072 9.24999 8.26786C9.23213 8.125 9.12499 8.01786 8.99999 8.01786Z" fill="#1A77A3"/>
<path d="M11 8.01786H9.78571C9.64285 8.01786 9.53571 8.125 9.53571 8.26786C9.53571 8.41072 9.64285 8.51786 9.78571 8.51786H11C11.1428 8.51786 11.25 8.41072 11.25 8.26786C11.25 8.125 11.125 8.01786 11 8.01786Z" fill="#1A77A3"/>
<path d="M2.7857 10.7321H1.57141C1.42855 10.7321 1.32141 10.8393 1.32141 10.9821C1.32141 11.125 1.42855 11.2321 1.57141 11.2321H2.7857C2.92855 11.2321 3.0357 11.125 3.0357 10.9821C3.0357 10.8571 2.92855 10.7321 2.7857 10.7321Z" fill="#1A77A3"/>
<path d="M4.80358 10.7321H3.58929C3.44644 10.7321 3.33929 10.8393 3.33929 10.9821C3.33929 11.125 3.44644 11.2321 3.58929 11.2321H4.80358C4.94644 11.2321 5.05358 11.125 5.05358 10.9821C5.03572 10.8571 4.92858 10.7321 4.80358 10.7321Z" fill="#1A77A3"/>
<path d="M6.80358 10.7321H5.58929C5.44644 10.7321 5.33929 10.8393 5.33929 10.9821C5.33929 11.125 5.44644 11.2321 5.58929 11.2321H6.80358C6.94644 11.2321 7.05358 11.125 7.05358 10.9821C7.05358 10.8571 6.92858 10.7321 6.80358 10.7321Z" fill="#1A77A3"/>
<path d="M2.7857 9.375H1.57141C1.42855 9.375 1.32141 9.48214 1.32141 9.625C1.32141 9.76786 1.42855 9.875 1.57141 9.875H2.7857C2.92855 9.875 3.0357 9.76786 3.0357 9.625C3.0357 9.48214 2.92855 9.375 2.7857 9.375Z" fill="#1A77A3"/>
<path d="M4.80358 9.375H3.58929C3.44644 9.375 3.33929 9.48214 3.33929 9.625C3.33929 9.76786 3.44644 9.875 3.58929 9.875H4.80358C4.94644 9.875 5.05358 9.76786 5.05358 9.625C5.03572 9.48214 4.92858 9.375 4.80358 9.375Z" fill="#1A77A3"/>
<path d="M6.80358 9.375H5.58929C5.44644 9.375 5.33929 9.48214 5.33929 9.625C5.33929 9.76786 5.44644 9.875 5.58929 9.875H6.80358C6.94644 9.875 7.05358 9.76786 7.05358 9.625C7.05358 9.48214 6.92858 9.375 6.80358 9.375Z" fill="#1A77A3"/>
<path d="M8.80358 9.375H7.58929C7.44644 9.375 7.33929 9.48214 7.33929 9.625C7.33929 9.76786 7.44644 9.875 7.58929 9.875H8.80358C8.94644 9.875 9.05358 9.76786 9.05358 9.625C9.05358 9.48214 8.94644 9.375 8.80358 9.375Z" fill="#1A77A3"/>
<path d="M10.8214 9.375H9.60712C9.46426 9.375 9.35712 9.48214 9.35712 9.625C9.35712 9.76786 9.46426 9.875 9.60712 9.875H10.8214C10.9643 9.875 11.0714 9.76786 11.0714 9.625C11.0535 9.48214 10.9464 9.375 10.8214 9.375Z" fill="#1A77A3"/>
</svg>
