<svg width="33" height="27" viewBox="0 0 33 27" fill="none" xmlns="http://www.w3.org/2000/svg">
<path d="M32.3091 16.0351C30.5564 22.3032 26.2326 26.8534 22.0297 26.8534C21.6921 26.8534 21.3548 26.824 21.0263 26.7659C20.8399 26.7332 20.677 26.6237 20.5761 26.4648C20.4756 26.3048 20.4473 26.1105 20.4983 25.9288L21.3635 22.8341C21.447 22.5353 21.7351 22.3333 22.0347 22.347L22.1035 22.3483C23.6621 22.3483 26.5107 20.0123 27.9629 14.8203C28.0203 14.6143 28.0748 14.4036 28.1272 14.1839C26.497 14.9906 24.5524 15.1772 22.7913 14.6867C18.8184 13.5751 16.4911 9.43932 17.6017 5.46712C18.5019 2.24855 21.4627 -3.8147e-06 24.8018 -3.8147e-06C25.482 -3.8147e-06 26.1611 0.0938263 26.8206 0.278479C29.4405 1.01074 31.4102 3.18584 32.3672 6.40173C33.231 9.30308 33.2093 12.8142 32.3091 16.0351Z" fill="#1A77A3"/>
<path d="M4.70404 26.8528C4.36712 26.8528 4.02954 26.824 3.7013 26.7659C3.51531 26.7339 3.35203 26.6237 3.25152 26.4648C3.15102 26.3048 3.12264 26.1105 3.17339 25.9288L4.03889 22.8341C4.12236 22.5353 4.40519 22.3333 4.71005 22.347L4.77816 22.3483C6.33686 22.3483 9.18578 20.0123 10.638 14.8203C10.6957 14.6129 10.7502 14.4022 10.8022 14.1839C9.17143 14.9906 7.2274 15.1772 5.46635 14.6867C1.49415 13.5751 -0.833872 9.43932 0.277383 5.46712C1.17761 2.24856 4.13839 3.8147e-06 7.4775 3.8147e-06C8.15767 3.8147e-06 8.83685 0.093832 9.49665 0.278484C12.1162 1.01075 14.0859 3.18584 15.0432 6.40174C15.9067 9.30309 15.8854 12.8145 14.9848 16.0357C13.2311 22.3032 8.90797 26.8528 4.70404 26.8528Z" fill="#1A77A3"/>
</svg>
