<svg width="20" height="20" viewBox="0 0 20 20" fill="none" xmlns="http://www.w3.org/2000/svg">
<path d="M9.55862 10.0258C4.28806 10.0258 0 14.3139 0 19.5844C0 19.8138 0.186199 20 0.415606 20C0.645013 20 0.831211 19.8138 0.831211 19.5844C0.831211 14.7718 4.74609 10.8569 9.55866 10.8569C14.3712 10.8569 18.2861 14.7718 18.2861 19.5844C18.2861 19.8138 18.4723 20 18.7017 20C18.9311 20 19.1173 19.8138 19.1173 19.5844C19.1173 14.313 14.8292 10.0258 9.55862 10.0258Z" fill="white"/>
<path d="M9.55857 0C7.0384 0 4.98706 2.05052 4.98706 4.57151C4.98706 7.09249 7.03844 9.14301 9.55857 9.14301C12.0787 9.14301 14.1301 7.09249 14.1301 4.57151C14.1301 2.05052 12.0787 0 9.55857 0ZM9.55857 8.31184C7.4964 8.31184 5.81823 6.63368 5.81823 4.57151C5.81823 2.50934 7.4964 0.831173 9.55857 0.831173C11.6207 0.831173 13.2989 2.50934 13.2989 4.57151C13.2989 6.63368 11.6207 8.31184 9.55857 8.31184Z" fill="white"/>
</svg>
