<svg width="577" height="104" viewBox="0 0 577 104" fill="none" xmlns="http://www.w3.org/2000/svg">
<path d="M214.122 29.6955H199.623V3.25235C199.637 2.59718 199.526 2.1208 199.304 1.85281C199.068 1.58472 198.651 1.45072 198.04 1.46562H195.29C194.679 1.45072 194.235 1.58472 193.985 1.85281C193.735 2.1208 193.61 2.59718 193.624 3.25235V63.1067C193.61 63.7618 193.735 64.2383 193.985 64.5062C194.235 64.7742 194.679 64.9082 195.29 64.8933H198.04C198.651 64.9082 199.068 64.7742 199.304 64.5062C199.526 64.2383 199.637 63.7618 199.623 63.1067V35.7702H214.122V43.8103C214.136 48.5003 214.997 52.5056 216.733 55.8408C218.468 59.161 221.01 61.707 224.371 63.464C227.718 65.2358 231.828 66.1292 236.703 66.144C241.522 66.1292 245.591 65.2358 248.924 63.464C252.257 61.707 254.784 59.161 256.506 55.8408C258.242 52.5056 259.103 48.5003 259.117 43.8103V22.5486C259.103 17.8585 258.242 13.8534 256.506 10.5183C254.784 7.198 252.257 4.6519 248.924 2.88007C245.591 1.12313 241.522 0.229865 236.703 0.214966C231.828 0.229865 227.718 1.12313 224.371 2.88007C221.01 4.6519 218.468 7.198 216.733 10.5183C214.997 13.8534 214.136 17.8585 214.122 22.5486V29.6955ZM253.118 43.8103C253.118 47.3093 252.479 50.2573 251.215 52.6991C249.951 55.1261 248.104 56.9723 245.66 58.2379C243.23 59.5183 240.244 60.1437 236.703 60.1586C233.148 60.1437 230.134 59.5183 227.69 58.2379C225.232 56.9723 223.371 55.1261 222.107 52.6991C220.843 50.2573 220.205 47.3093 220.205 43.8103V22.5486C220.205 19.0498 220.843 16.0868 222.107 13.6599C223.371 11.2329 225.232 9.38662 227.69 8.10617C230.134 6.84062 233.148 6.20044 236.703 6.20044C240.244 6.20044 243.23 6.84062 245.66 8.10617C248.104 9.38662 249.951 11.2329 251.215 13.6599C252.479 16.0868 253.118 19.0498 253.118 22.5486V43.8103ZM272.033 1.46562C271.421 1.45072 270.977 1.58472 270.727 1.85281C270.477 2.1208 270.352 2.59718 270.366 3.25235V63.1067C270.352 63.7618 270.477 64.2383 270.727 64.5062C270.977 64.7742 271.421 64.9082 272.033 64.8933H274.782C275.393 64.9082 275.81 64.7742 276.046 64.5062C276.268 64.2383 276.379 63.7618 276.366 63.1067V41.041H294.28C298.183 41.026 301.543 40.237 304.349 38.6736C307.154 37.1251 309.307 34.8769 310.82 31.9288C312.334 28.9957 313.098 25.452 313.112 21.298C313.098 17.1439 312.334 13.5854 310.82 10.6373C309.307 7.68928 307.154 5.42617 304.349 3.84793C301.543 2.26969 298.183 1.48052 294.28 1.46562H272.033ZM276.366 35.0554V7.54039H293.78C296.488 7.55529 298.821 8.10617 300.766 9.19303C302.71 10.2949 304.224 11.8731 305.265 13.9129C306.321 15.9677 306.848 18.4244 306.862 21.298C306.848 24.1716 306.321 26.6283 305.265 28.683C304.224 30.7227 302.71 32.301 300.766 33.3879C298.821 34.4898 296.488 35.0406 293.78 35.0554H276.366ZM362.607 1.46562C362.232 1.46562 361.898 1.54012 361.607 1.67411C361.315 1.82301 361.065 2.0463 360.857 2.35899L336.859 39.7903C334.901 42.8723 333.151 45.8203 331.582 48.6195C330.027 51.4335 328.652 54.0838 327.444 56.5851H327.194C327.527 53.5032 327.777 50.3616 327.944 47.1455C328.11 43.9443 328.194 40.6836 328.194 37.3783V3.25235C328.207 2.59718 328.096 2.1208 327.874 1.85281C327.638 1.58472 327.221 1.45072 326.61 1.46562H323.861C323.25 1.45072 322.805 1.58472 322.555 1.85281C322.305 2.1208 322.18 2.59718 322.194 3.25235V63.1067C322.18 63.7618 322.305 64.2383 322.555 64.5062C322.805 64.7742 323.25 64.9082 323.861 64.8933H326.61C326.985 64.8933 327.319 64.804 327.61 64.6402C327.902 64.4615 328.152 64.2234 328.36 63.9107L352.941 25.586C354.899 22.3699 356.621 19.4368 358.121 16.8014C359.607 14.166 360.857 11.8285 361.857 9.77381H362.023C361.648 12.9452 361.385 16.0421 361.204 19.0795C361.024 22.1168 360.94 25.0947 360.94 27.9981V63.1067C360.94 63.7618 361.051 64.2383 361.301 64.5062C361.565 64.7742 361.996 64.9082 362.607 64.8933H365.356C365.967 64.9082 366.412 64.7742 366.662 64.5062C366.912 64.2383 367.037 63.7618 367.023 63.1067V3.25235C367.037 2.59718 366.912 2.1208 366.662 1.85281C366.412 1.58472 365.967 1.45072 365.356 1.46562H362.607ZM378.272 43.7209C378.286 48.411 379.174 52.4311 380.952 55.7663C382.73 59.1014 385.313 61.6624 388.701 63.4491C392.09 65.2209 396.228 66.1292 401.103 66.144C405.283 66.144 408.852 65.5633 411.824 64.387C414.782 63.2258 417.212 61.4837 419.101 59.1759C421.004 56.8532 422.448 53.9646 423.434 50.5105C423.601 49.9745 423.601 49.5278 423.434 49.1555C423.267 48.7982 422.934 48.5003 422.434 48.2771L419.851 47.2051C419.351 47.071 418.921 47.1008 418.545 47.2795C418.184 47.4731 417.893 47.8304 417.684 48.3663C416.921 51.0761 415.851 53.2947 414.477 55.0367C413.102 56.7787 411.324 58.0741 409.144 58.9079C406.963 59.7417 404.283 60.1586 401.103 60.1586C397.506 60.1437 394.479 59.4886 391.979 58.2081C389.493 56.9127 387.604 55.0516 386.313 52.6098C385.007 50.1829 384.368 47.2497 384.355 43.8103V22.5486C384.355 19.0795 384.993 16.1315 386.271 13.7045C387.549 11.2775 389.423 9.41642 391.909 8.13597C394.395 6.85552 397.464 6.20044 401.103 6.20044C404.228 6.18554 406.866 6.60243 409.019 7.4213C411.185 8.24016 412.949 9.50572 414.324 11.2032C415.685 12.9005 416.754 15.0743 417.518 17.7245C417.726 18.2159 418.004 18.5435 418.351 18.7222C418.698 18.9008 419.143 18.9306 419.684 18.7966L422.267 17.8139C422.878 17.6055 423.253 17.3225 423.392 16.9801C423.531 16.6376 423.489 16.1463 423.267 15.4912C422.281 12.0667 420.837 9.22293 418.948 6.95971C417.059 4.6966 414.643 3.01406 411.699 1.8974C408.755 0.765846 405.227 0.214966 401.103 0.214966C396.173 0.229865 392.02 1.12313 388.632 2.90986C385.243 4.6966 382.66 7.2575 380.91 10.5927C379.161 13.9278 378.286 17.9479 378.272 22.6379V43.7209ZM429.267 1.46562C428.656 1.45072 428.211 1.58472 427.961 1.85281C427.711 2.1208 427.586 2.59718 427.6 3.25235V5.75376C427.586 6.40883 427.711 6.87042 427.961 7.1533C428.211 7.42129 428.656 7.54039 429.267 7.54039H446.098V63.1067C446.084 63.7618 446.209 64.2383 446.459 64.5062C446.709 64.7742 447.154 64.9082 447.765 64.8933H450.515C451.126 64.9082 451.57 64.7742 451.82 64.5062C452.07 64.2383 452.195 63.7618 452.181 63.1067V7.54039H469.013C469.624 7.54039 470.068 7.42129 470.318 7.1533C470.568 6.87042 470.693 6.40883 470.679 5.75376V3.25235C470.693 2.59718 470.568 2.1208 470.318 1.85281C470.068 1.58472 469.624 1.45072 469.013 1.46562H429.267ZM476.512 43.7209C476.526 48.411 477.415 52.4311 479.178 55.7663C480.942 59.1014 483.525 61.6624 486.927 63.4491C490.33 65.2209 494.496 66.1292 499.426 66.144C504.328 66.1292 508.467 65.2209 511.869 63.4491C515.258 61.6624 517.841 59.1014 519.605 55.7663C521.354 52.4311 522.243 48.411 522.257 43.7209V22.6379C522.243 17.9479 521.354 13.9278 519.605 10.5927C517.841 7.2575 515.258 4.6966 511.869 2.90986C508.467 1.12313 504.328 0.229865 499.426 0.214966C494.496 0.229865 490.33 1.12313 486.927 2.90986C483.525 4.6966 480.942 7.2575 479.178 10.5927C477.415 13.9278 476.526 17.9479 476.512 22.6379V43.7209ZM516.258 43.7209C516.258 47.22 515.605 50.1829 514.327 52.6247C513.036 55.0665 511.147 56.9425 508.648 58.223C506.148 59.5035 503.065 60.1437 499.426 60.1586C495.788 60.1437 492.705 59.5035 490.191 58.223C487.677 56.9425 485.775 55.0665 484.469 52.6247C483.164 50.1829 482.511 47.22 482.511 43.7209V22.6379C482.511 19.1391 483.164 16.1762 484.469 13.7344C485.775 11.2775 487.677 9.41642 490.191 8.13597C492.705 6.85552 495.788 6.20044 499.426 6.20044C503.065 6.20044 506.148 6.85552 508.648 8.13597C511.147 9.41642 513.036 11.2775 514.327 13.7344C515.605 16.1762 516.258 19.1391 516.258 22.6379V43.7209ZM535.173 1.46562C534.561 1.45072 534.117 1.58472 533.867 1.85281C533.617 2.1208 533.492 2.59718 533.506 3.25235V63.1067C533.492 63.7618 533.617 64.2383 533.867 64.5062C534.117 64.7742 534.561 64.9082 535.173 64.8933H559.587C563.128 64.8784 566.197 64.2085 568.766 62.8684C571.335 61.5285 573.322 59.5928 574.71 57.0617C576.113 54.5156 576.821 51.4484 576.835 47.8304C576.835 43.5423 576.002 40.103 574.349 37.4974C572.683 34.9067 570.211 33.1348 566.919 32.1969V32.0182C569.544 30.8121 571.502 29.0105 572.808 26.6134C574.099 24.2163 574.752 21.2533 574.752 17.7245C574.738 14.2256 574.113 11.2775 572.863 8.86554C571.613 6.45353 569.794 4.6073 567.392 3.35655C565.003 2.1059 562.1 1.46562 558.67 1.46562H535.173ZM568.586 18.5286C568.572 22.2359 567.669 25.0202 565.85 26.8963C564.031 28.7574 561.392 29.6955 557.92 29.6955H539.505V7.54039H557.92C561.462 7.54039 564.128 8.44866 565.905 10.28C567.697 12.1114 568.586 14.8659 568.586 18.5286ZM567.669 55.8706C566.711 56.8532 565.531 57.5977 564.128 58.089C562.725 58.5804 561.128 58.8186 559.337 58.8186H539.505V35.5021H559.337C561.128 35.5021 562.725 35.7404 564.128 36.2317C565.531 36.7231 566.711 37.4676 567.669 38.4502C568.627 39.4776 569.336 40.7134 569.808 42.1577C570.28 43.6019 570.502 45.2844 570.502 47.2051C570.502 49.1257 570.28 50.8082 569.808 52.2376C569.336 53.6818 568.627 54.8879 567.669 55.8706Z" fill="#0B1922"/>
<path d="M214.122 29.6955H199.623V3.25235C199.637 2.59718 199.526 2.1208 199.304 1.85281C199.068 1.58472 198.651 1.45072 198.04 1.46562H195.29C194.679 1.45072 194.235 1.58472 193.985 1.85281C193.735 2.1208 193.61 2.59718 193.624 3.25235V63.1067C193.61 63.7618 193.735 64.2383 193.985 64.5062C194.235 64.7742 194.679 64.9082 195.29 64.8933H198.04C198.651 64.9082 199.068 64.7742 199.304 64.5062C199.526 64.2383 199.637 63.7618 199.623 63.1067V35.7702H214.122V43.8103C214.136 48.5003 214.997 52.5056 216.733 55.8408C218.468 59.161 221.01 61.707 224.371 63.464C227.718 65.2358 231.828 66.1292 236.703 66.144C241.522 66.1292 245.591 65.2358 248.924 63.464C252.257 61.707 254.784 59.161 256.506 55.8408C258.242 52.5056 259.103 48.5003 259.117 43.8103V22.5486C259.103 17.8585 258.242 13.8534 256.506 10.5183C254.784 7.198 252.257 4.6519 248.924 2.88007C245.591 1.12313 241.522 0.229865 236.703 0.214966C231.828 0.229865 227.718 1.12313 224.371 2.88007C221.01 4.6519 218.468 7.198 216.733 10.5183C214.997 13.8534 214.136 17.8585 214.122 22.5486V29.6955ZM253.118 43.8103C253.118 47.3093 252.479 50.2573 251.215 52.6991C249.951 55.1261 248.104 56.9723 245.66 58.2379C243.23 59.5183 240.244 60.1437 236.703 60.1586C233.148 60.1437 230.134 59.5183 227.69 58.2379C225.232 56.9723 223.371 55.1261 222.107 52.6991C220.843 50.2573 220.205 47.3093 220.205 43.8103V22.5486C220.205 19.0498 220.843 16.0868 222.107 13.6599C223.371 11.2329 225.232 9.38662 227.69 8.10617C230.134 6.84062 233.148 6.20044 236.703 6.20044C240.244 6.20044 243.23 6.84062 245.66 8.10617C248.104 9.38662 249.951 11.2329 251.215 13.6599C252.479 16.0868 253.118 19.0498 253.118 22.5486V43.8103ZM272.033 1.46562C271.421 1.45072 270.977 1.58472 270.727 1.85281C270.477 2.1208 270.352 2.59718 270.366 3.25235V63.1067C270.352 63.7618 270.477 64.2383 270.727 64.5062C270.977 64.7742 271.421 64.9082 272.033 64.8933H274.782C275.393 64.9082 275.81 64.7742 276.046 64.5062C276.268 64.2383 276.379 63.7618 276.365 63.1067V41.041H294.28C298.183 41.026 301.543 40.237 304.349 38.6736C307.154 37.1251 309.307 34.8769 310.82 31.9288C312.334 28.9957 313.098 25.452 313.112 21.298C313.098 17.1439 312.334 13.5854 310.82 10.6373C309.307 7.68928 307.154 5.42617 304.349 3.84793C301.543 2.26969 298.183 1.48052 294.28 1.46562H272.033ZM276.365 35.0554V7.54039H293.78C296.488 7.55529 298.821 8.10617 300.766 9.19303C302.71 10.2949 304.224 11.8731 305.265 13.9129C306.321 15.9677 306.848 18.4244 306.862 21.298C306.848 24.1716 306.321 26.6283 305.265 28.683C304.224 30.7227 302.71 32.301 300.766 33.3879C298.821 34.4898 296.488 35.0406 293.78 35.0554H276.365ZM362.607 1.46562C362.232 1.46562 361.898 1.54012 361.607 1.67411C361.315 1.823 361.065 2.0463 360.857 2.35899L336.859 39.7903C334.901 42.8723 333.151 45.8203 331.582 48.6195C330.027 51.4335 328.652 54.0838 327.444 56.5851H327.194C327.527 53.5032 327.777 50.3616 327.944 47.1455C328.11 43.9443 328.194 40.6836 328.194 37.3783V3.25235C328.207 2.59718 328.096 2.1208 327.874 1.85281C327.638 1.58472 327.221 1.45072 326.61 1.46562H323.861C323.25 1.45072 322.805 1.58472 322.555 1.85281C322.305 2.1208 322.18 2.59718 322.194 3.25235V63.1067C322.18 63.7618 322.305 64.2383 322.555 64.5062C322.805 64.7742 323.25 64.9082 323.861 64.8933H326.61C326.985 64.8933 327.319 64.804 327.61 64.6402C327.902 64.4615 328.152 64.2233 328.36 63.9107L352.941 25.586C354.899 22.3699 356.621 19.4368 358.121 16.8014C359.607 14.166 360.857 11.8285 361.857 9.77381H362.023C361.648 12.9452 361.385 16.0421 361.204 19.0795C361.024 22.1168 360.94 25.0947 360.94 27.9981V63.1067C360.94 63.7618 361.051 64.2383 361.301 64.5062C361.565 64.7742 361.996 64.9082 362.607 64.8933H365.356C365.967 64.9082 366.412 64.7742 366.662 64.5062C366.912 64.2383 367.037 63.7618 367.023 63.1067V3.25235C367.037 2.59718 366.912 2.1208 366.662 1.85281C366.412 1.58472 365.967 1.45072 365.356 1.46562H362.607ZM378.272 43.7209C378.286 48.411 379.174 52.4311 380.952 55.7663C382.73 59.1014 385.313 61.6624 388.701 63.4491C392.09 65.2209 396.228 66.1292 401.103 66.144C405.283 66.144 408.852 65.5633 411.824 64.387C414.782 63.2258 417.212 61.4837 419.101 59.1759C421.004 56.8532 422.448 53.9646 423.434 50.5105C423.601 49.9745 423.601 49.5278 423.434 49.1555C423.267 48.7982 422.934 48.5003 422.434 48.277L419.851 47.2051C419.351 47.071 418.921 47.1008 418.545 47.2795C418.184 47.4731 417.893 47.8304 417.684 48.3663C416.921 51.0761 415.851 53.2947 414.476 55.0367C413.102 56.7787 411.324 58.0741 409.144 58.9079C406.963 59.7417 404.283 60.1586 401.103 60.1586C397.506 60.1437 394.479 59.4886 391.979 58.2081C389.493 56.9127 387.604 55.0516 386.313 52.6098C385.007 50.1829 384.368 47.2497 384.355 43.8103V22.5486C384.355 19.0795 384.993 16.1315 386.271 13.7045C387.549 11.2775 389.423 9.41642 391.909 8.13597C394.395 6.85552 397.464 6.20044 401.103 6.20044C404.228 6.18554 406.866 6.60243 409.019 7.4213C411.185 8.24016 412.949 9.50572 414.324 11.2032C415.685 12.9005 416.754 15.0743 417.518 17.7245C417.726 18.2159 418.004 18.5435 418.351 18.7222C418.698 18.9008 419.143 18.9306 419.684 18.7966L422.267 17.8139C422.878 17.6055 423.253 17.3225 423.392 16.9801C423.531 16.6376 423.489 16.1463 423.267 15.4912C422.281 12.0667 420.837 9.22293 418.948 6.95971C417.059 4.6966 414.643 3.01406 411.699 1.8974C408.755 0.765846 405.227 0.214966 401.103 0.214966C396.173 0.229865 392.02 1.12313 388.632 2.90986C385.243 4.6966 382.66 7.2575 380.91 10.5927C379.161 13.9278 378.286 17.9479 378.272 22.6379V43.7209ZM429.267 1.46562C428.656 1.45072 428.211 1.58472 427.961 1.85281C427.711 2.1208 427.586 2.59718 427.6 3.25235V5.75376C427.586 6.40883 427.711 6.87041 427.961 7.1533C428.211 7.42129 428.656 7.54039 429.267 7.54039H446.098V63.1067C446.084 63.7618 446.209 64.2383 446.459 64.5062C446.709 64.7742 447.154 64.9082 447.765 64.8933H450.515C451.126 64.9082 451.57 64.7742 451.82 64.5062C452.07 64.2383 452.195 63.7618 452.181 63.1067V7.54039H469.013C469.624 7.54039 470.068 7.42129 470.318 7.1533C470.568 6.87041 470.693 6.40883 470.679 5.75376V3.25235C470.693 2.59718 470.568 2.1208 470.318 1.85281C470.068 1.58472 469.624 1.45072 469.013 1.46562H429.267ZM476.512 43.7209C476.526 48.411 477.414 52.4311 479.178 55.7663C480.942 59.1014 483.525 61.6624 486.927 63.4491C490.33 65.2209 494.496 66.1292 499.426 66.144C504.328 66.1292 508.467 65.2209 511.869 63.4491C515.258 61.6624 517.841 59.1014 519.605 55.7663C521.354 52.4311 522.243 48.411 522.257 43.7209V22.6379C522.243 17.9479 521.354 13.9278 519.605 10.5927C517.841 7.2575 515.258 4.6966 511.869 2.90986C508.467 1.12313 504.328 0.229865 499.426 0.214966C494.496 0.229865 490.33 1.12313 486.927 2.90986C483.525 4.6966 480.942 7.2575 479.178 10.5927C477.414 13.9278 476.526 17.9479 476.512 22.6379V43.7209ZM516.258 43.7209C516.258 47.22 515.605 50.1829 514.327 52.6247C513.036 55.0665 511.147 56.9425 508.648 58.223C506.148 59.5035 503.065 60.1437 499.426 60.1586C495.788 60.1437 492.705 59.5035 490.191 58.223C487.677 56.9425 485.775 55.0665 484.469 52.6247C483.164 50.1829 482.511 47.22 482.511 43.7209V22.6379C482.511 19.1391 483.164 16.1762 484.469 13.7344C485.775 11.2775 487.677 9.41642 490.191 8.13597C492.705 6.85552 495.788 6.20044 499.426 6.20044C503.065 6.20044 506.148 6.85552 508.648 8.13597C511.147 9.41642 513.036 11.2775 514.327 13.7344C515.605 16.1762 516.258 19.1391 516.258 22.6379V43.7209ZM535.173 1.46562C534.561 1.45072 534.117 1.58472 533.867 1.85281C533.617 2.1208 533.492 2.59718 533.506 3.25235V63.1067C533.492 63.7618 533.617 64.2383 533.867 64.5062C534.117 64.7742 534.561 64.9082 535.173 64.8933H559.587C563.128 64.8784 566.197 64.2085 568.766 62.8684C571.335 61.5285 573.321 59.5928 574.71 57.0617C576.113 54.5156 576.821 51.4484 576.835 47.8304C576.835 43.5423 576.002 40.103 574.349 37.4974C572.683 34.9067 570.211 33.1348 566.919 32.1969V32.0182C569.544 30.8121 571.502 29.0105 572.808 26.6134C574.099 24.2163 574.752 21.2533 574.752 17.7245C574.738 14.2256 574.113 11.2775 572.863 8.86554C571.613 6.45353 569.794 4.6073 567.392 3.35655C565.003 2.1059 562.1 1.46562 558.67 1.46562H535.173ZM568.586 18.5286C568.572 22.2359 567.669 25.0202 565.85 26.8963C564.031 28.7574 561.392 29.6955 557.92 29.6955H539.505V7.54039H557.92C561.462 7.54039 564.128 8.44866 565.905 10.28C567.697 12.1114 568.586 14.8659 568.586 18.5286ZM567.669 55.8706C566.711 56.8532 565.531 57.5977 564.128 58.089C562.725 58.5804 561.128 58.8186 559.337 58.8186H539.505V35.5021H559.337C561.128 35.5021 562.725 35.7404 564.128 36.2317C565.531 36.7231 566.711 37.4676 567.669 38.4502C568.627 39.4776 569.336 40.7134 569.808 42.1577C570.28 43.6019 570.502 45.2844 570.502 47.2051C570.502 49.1257 570.28 50.8082 569.808 52.2376C569.336 53.6818 568.627 54.8879 567.669 55.8706Z" fill="#0B1922"/>
<path d="M17.467 84.9893H13.5679V78.468C13.5737 78.1459 13.5161 77.9274 13.4011 77.8066C13.2803 77.6916 13.0619 77.6341 12.7399 77.6398H11.2906C10.9686 77.6341 10.75 77.6916 10.6292 77.8066C10.5143 77.9274 10.4568 78.1459 10.4625 78.468V94.6163C10.4625 95.1682 10.7385 95.4443 11.2906 95.4443H12.7399C13.0619 95.45 13.2803 95.3926 13.4011 95.2775C13.5161 95.1568 13.5737 94.9382 13.5679 94.6163V87.8533H17.467V89.4059C17.4727 90.7804 17.7718 91.9535 18.3584 92.9312C18.9507 93.9089 19.8076 94.6565 20.9348 95.174C22.0561 95.6916 23.4191 95.9561 25.0235 95.9619C26.6395 95.9561 28.0082 95.6916 29.1411 95.174C30.2683 94.6565 31.1309 93.9089 31.7232 92.9312C32.3098 91.9535 32.6088 90.7804 32.6146 89.4059V83.6782C32.6088 82.3037 32.3098 81.1306 31.7232 80.1529C31.1309 79.1753 30.2683 78.4277 29.1411 77.9101C28.0082 77.3868 26.6395 77.128 25.0235 77.1223C23.4191 77.128 22.0561 77.3868 20.9348 77.9101C19.8076 78.4277 18.9507 79.1753 18.3584 80.1529C17.7718 81.1306 17.4727 82.3037 17.467 83.6782V84.9893ZM29.5091 89.4059C29.5091 90.1881 29.3251 90.8609 28.9686 91.4245C28.6121 91.9824 28.1003 92.4136 27.4274 92.7127C26.7603 93.0117 25.9609 93.167 25.0235 93.167C24.0919 93.167 23.2926 93.0117 22.6255 92.7127C21.9641 92.4136 21.458 91.9824 21.1073 91.4245C20.7507 90.8609 20.5782 90.1881 20.5724 89.4059V83.6782C20.5782 82.8846 20.7507 82.2059 21.1073 81.6423C21.458 81.0846 21.9641 80.659 22.6255 80.36C23.2926 80.0667 24.0919 79.9171 25.0235 79.9171C26.4612 79.9229 27.5712 80.2507 28.3418 80.9063C29.1123 81.5561 29.5034 82.482 29.5091 83.6782V89.4059ZM37.6523 78.1229C37.29 78.2667 37.0083 78.4162 36.8127 78.5772C36.6172 78.7382 36.4849 78.9337 36.4102 79.1753C36.3354 79.4111 36.3009 79.7158 36.3066 80.0897V102.207C36.3009 102.501 36.3642 102.708 36.4849 102.84C36.6057 102.972 36.8127 103.035 37.1002 103.035H38.5494C38.8715 103.041 39.09 102.984 39.2108 102.869C39.3258 102.748 39.3834 102.529 39.3776 102.207V95.0302C40.2747 95.3408 41.0971 95.5708 41.8389 95.7261C42.5864 95.8814 43.2593 95.9619 43.8632 95.9619C48.7629 95.9619 51.2127 93.6156 51.2127 88.9229V84.0578C51.2127 81.7459 50.6088 80.0092 49.407 78.8532C48.1993 77.6974 46.3993 77.1223 44.0012 77.1223C42.7417 77.1223 41.5859 77.2085 40.5277 77.3753C39.4754 77.5478 38.5149 77.7951 37.6523 78.1229ZM48.1073 88.8194C48.1073 90.2513 47.7392 91.3268 46.9916 92.0513C46.244 92.7702 45.1226 93.1325 43.6217 93.1325C43.0695 93.1325 42.4427 93.0577 41.7354 92.9025C41.0223 92.7529 40.2402 92.5286 39.3776 92.2353V81.1939C39.3718 80.9926 39.4006 80.8431 39.4696 80.7395C39.5329 80.636 39.6765 80.5498 39.8951 80.4693C40.4817 80.2967 41.0798 80.1644 41.6836 80.0782C42.2932 79.9919 42.9143 79.9516 43.5526 79.9516C45.0708 79.9516 46.2095 80.3025 46.9687 81.0098C47.7277 81.7113 48.1073 82.7638 48.1073 84.1612V88.8194ZM55.7673 77.6398C55.4454 77.6341 55.2268 77.6916 55.106 77.8066C54.991 77.9274 54.9335 78.1459 54.9392 78.468V94.6163C54.9392 95.1682 55.2153 95.4443 55.7673 95.4443H57.2166C57.5616 95.4443 57.8377 95.3063 58.0447 95.0302L65.4632 84.9203C65.86 84.351 66.2223 83.8047 66.5443 83.2814C66.8721 82.7581 67.1539 82.2462 67.3955 81.7459H67.499C67.3092 82.643 67.1712 83.4712 67.0792 84.2359C66.9929 84.9951 66.9469 85.6967 66.9469 86.3351V94.6163C66.9412 94.9382 66.9986 95.1568 67.1137 95.2775C67.2345 95.3926 67.453 95.45 67.775 95.4443H69.2242C69.5463 95.45 69.7648 95.3926 69.8856 95.2775C70.0006 95.1568 70.0581 94.9382 70.0524 94.6163V78.468C70.0581 78.1459 70.0006 77.9274 69.8856 77.8066C69.7648 77.6916 69.5463 77.6341 69.2242 77.6398H67.775C67.6025 77.6398 67.4472 77.6743 67.315 77.7434C67.1827 77.8124 67.0677 77.9159 66.9814 78.0539L59.4593 88.2673C58.7002 89.2679 58.0792 90.3031 57.5961 91.3728H57.4926C57.6824 90.6309 57.8204 89.889 57.9124 89.1415C57.9987 88.3996 58.0447 87.6462 58.0447 86.8871V78.468C58.0505 78.1459 57.9929 77.9274 57.8779 77.8066C57.7571 77.6916 57.5386 77.6341 57.2166 77.6398H55.7673ZM89.8927 92.5804V78.468C89.8927 78.1459 89.8294 77.9274 89.6972 77.8066C89.5649 77.6916 89.3578 77.6341 89.0645 77.6398H77.6779C77.3846 77.6341 77.1776 77.6916 77.0453 77.8066C76.913 77.9274 76.8499 78.1459 76.8499 78.468V83.6782C76.8499 85.1101 76.798 86.3351 76.7002 87.3587C76.5968 88.3766 76.4531 89.199 76.2632 89.82C76.0562 90.4584 75.8147 91.0047 75.5329 91.459C75.2568 91.9134 74.9348 92.2871 74.5725 92.5804H73.6409C73.3534 92.5746 73.1463 92.6379 73.0256 92.7644C72.9048 92.8967 72.8415 93.121 72.8472 93.4431V99.4124C72.8415 99.7057 72.9048 99.9128 73.0256 100.045C73.1463 100.177 73.3534 100.241 73.6409 100.241H74.9865C75.2798 100.241 75.4984 100.171 75.6364 100.033C75.7802 99.8955 75.8492 99.6884 75.8492 99.4124V95.4443H89.4786V99.4124C89.4786 99.7057 89.5419 99.9128 89.6741 100.045C89.8064 100.177 90.0191 100.241 90.3067 100.241H91.6524C91.9745 100.241 92.193 100.177 92.3138 100.045C92.4288 99.9128 92.4863 99.7057 92.4805 99.4124V93.4431C92.4863 93.121 92.4288 92.8967 92.3138 92.7644C92.193 92.6379 91.9745 92.5746 91.6524 92.5804H89.8927ZM79.8517 80.5037H86.7872V92.5804H78.1265C78.6959 91.7523 79.1272 90.6136 79.4146 89.1588C79.7079 87.7095 79.8517 85.9383 79.8517 83.8508V80.5037ZM96.0344 77.6398C95.7124 77.6341 95.4939 77.6916 95.3731 77.8066C95.2581 77.9274 95.2007 78.1459 95.2064 78.468V94.6163C95.2064 95.1682 95.4824 95.4443 96.0344 95.4443H97.4837C97.8288 95.4443 98.1048 95.3063 98.3118 95.0302L105.73 84.9203C106.127 84.351 106.489 83.8047 106.812 83.2814C107.139 82.7581 107.421 82.2462 107.663 81.7459H107.766C107.576 82.643 107.438 83.4712 107.346 84.2359C107.26 84.9951 107.214 85.6967 107.214 86.3351V94.6163C107.208 94.9382 107.266 95.1568 107.381 95.2775C107.502 95.3926 107.72 95.45 108.042 95.4443H109.491C109.813 95.45 110.032 95.3926 110.153 95.2775C110.268 95.1568 110.325 94.9382 110.319 94.6163V78.468C110.325 78.1459 110.268 77.9274 110.153 77.8066C110.032 77.6916 109.813 77.6341 109.491 77.6398H108.042C107.87 77.6398 107.714 77.6743 107.582 77.7434C107.45 77.8124 107.335 77.9159 107.248 78.0539L99.7265 88.2673C98.9674 89.2679 98.3463 90.3031 97.8633 91.3728H97.7598C97.9495 90.6309 98.0875 89.889 98.1795 89.1415C98.2658 88.3996 98.3118 87.6462 98.3118 86.8871V78.468C98.3175 78.1459 98.26 77.9274 98.145 77.8066C98.0242 77.6916 97.8058 77.6341 97.4837 77.6398H96.0344ZM113.563 82.643C113.557 84.8341 114.121 86.4731 115.265 87.5657C116.41 88.6526 118.175 89.199 120.567 89.199C122.603 89.199 124.052 89.0265 124.915 88.6814V94.6163C124.915 94.9382 124.978 95.1568 125.111 95.2775C125.243 95.3926 125.45 95.45 125.743 95.4443H127.192C127.486 95.45 127.693 95.3926 127.825 95.2775C127.957 95.1568 128.021 94.9382 128.021 94.6163V78.468C128.021 78.1459 127.957 77.9274 127.825 77.8066C127.693 77.6916 127.486 77.6341 127.192 77.6398H125.743C125.45 77.6341 125.243 77.6916 125.111 77.8066C124.978 77.9274 124.915 78.1459 124.915 78.468V85.783C123.88 86.197 122.569 86.4041 120.981 86.4041C118.083 86.4041 116.634 85.1274 116.634 82.574V78.468C116.64 78.1747 116.576 77.9676 116.456 77.8354C116.335 77.7031 116.128 77.6398 115.84 77.6398H114.391C114.069 77.6341 113.85 77.6916 113.73 77.8066C113.615 77.9274 113.557 78.1459 113.563 78.468V82.643ZM131.678 88.7849C131.678 90.2628 131.96 91.5395 132.523 92.6091C133.087 93.6789 133.932 94.5012 135.065 95.082C136.204 95.6628 137.624 95.9561 139.338 95.9619C141.132 95.9619 142.651 95.6686 143.887 95.0762C145.129 94.4897 146.084 93.5983 146.757 92.4079C147.136 91.8213 147.033 91.3728 146.446 91.0622L145.514 90.5791C145.227 90.3894 144.98 90.3203 144.778 90.3721C144.571 90.4239 144.37 90.5964 144.169 90.8897C143.703 91.6834 143.065 92.2813 142.265 92.6781C141.46 93.075 140.494 93.2705 139.373 93.2705C137.866 93.2648 136.721 92.9082 135.934 92.1951C135.151 91.4878 134.755 90.4641 134.749 89.13V87.4737H145.998C146.429 87.4737 146.751 87.3702 146.958 87.1689C147.171 86.9618 147.274 86.6629 147.274 86.2661V84.2647C147.274 82.8271 146.975 81.5791 146.389 80.5095C145.796 79.4456 144.922 78.6117 143.766 78.0252C142.61 77.4328 141.178 77.1338 139.476 77.1223C137.785 77.128 136.359 77.4156 135.197 77.9907C134.042 78.5715 133.167 79.4053 132.575 80.5037C131.977 81.6021 131.678 82.9363 131.678 84.5063V88.7849ZM144.203 85.0928H134.749V84.0923C134.749 83.1779 134.933 82.4015 135.289 81.7516C135.652 81.1076 136.187 80.6073 136.888 80.268C137.59 79.9229 138.452 79.7446 139.476 79.7446C141.017 79.7504 142.19 80.1299 142.99 80.8833C143.795 81.6308 144.198 82.7005 144.203 84.0923V85.0928ZM150.138 88.992C150.138 90.4699 150.42 91.7236 150.978 92.7644C151.536 93.7996 152.369 94.5875 153.485 95.1337C154.601 95.6801 155.992 95.9561 157.66 95.9619C161.559 95.9619 164.078 94.3747 165.217 91.2003C165.32 90.9242 165.32 90.6884 165.222 90.4986C165.119 90.3031 164.923 90.1478 164.63 90.027L163.422 89.682C163.106 89.5555 162.859 89.5382 162.692 89.6187C162.525 89.705 162.376 89.9062 162.249 90.2341C161.921 91.2348 161.387 91.9881 160.633 92.4884C159.886 92.9887 158.92 93.236 157.729 93.236C156.257 93.2245 155.147 92.868 154.388 92.1548C153.629 91.4418 153.249 90.4353 153.243 89.13V83.9197C153.249 82.62 153.629 81.6136 154.388 80.9121C155.147 80.2104 156.257 79.8539 157.729 79.8481C158.92 79.8481 159.886 80.0897 160.633 80.5727C161.375 81.0558 161.904 81.7804 162.215 82.7465C162.336 83.0571 162.491 83.2584 162.686 83.3446C162.876 83.4367 163.112 83.4194 163.388 83.2986L164.596 82.9191C164.889 82.8155 165.079 82.666 165.171 82.4763C165.257 82.2807 165.251 82.0391 165.148 81.7459C164.665 80.2104 163.819 79.0545 162.606 78.2839C161.398 77.5076 159.817 77.1223 157.867 77.1223C156.153 77.128 154.722 77.404 153.577 77.9447C152.433 78.491 151.576 79.2788 151.001 80.314C150.426 81.3434 150.138 82.5913 150.138 84.0578V88.992ZM180.502 88.3363C180.14 87.5945 179.726 86.9906 179.266 86.5191C178.8 86.0533 178.294 85.714 177.742 85.5069L183.263 78.606C183.522 78.2782 183.608 78.0367 183.522 77.8756C183.435 77.7203 183.176 77.6398 182.745 77.6398H181.434C181.106 77.6341 180.847 77.6456 180.663 77.6686C180.474 77.6916 180.318 77.7491 180.192 77.8411C180.071 77.9274 179.944 78.0712 179.812 78.261L174.671 84.9203H174.36H171.635V78.468C171.64 78.1459 171.577 77.9274 171.451 77.8066C171.318 77.6916 171.094 77.6341 170.772 77.6398H169.392C169.07 77.6341 168.845 77.6916 168.713 77.8066C168.587 77.9274 168.523 78.1459 168.529 78.468V94.5818C168.523 94.9037 168.587 95.128 168.713 95.2603C168.845 95.3868 169.07 95.45 169.392 95.4443H170.772C171.094 95.45 171.318 95.3868 171.451 95.2603C171.577 95.128 171.64 94.9037 171.635 94.5818V87.7842H174.775C175.309 87.7842 175.769 87.8418 176.155 87.9683C176.54 88.0948 176.868 88.2961 177.144 88.5779C177.42 88.8539 177.667 89.222 177.88 89.682L180.261 94.6853C180.359 94.898 180.456 95.0647 180.56 95.174C180.658 95.2833 180.796 95.358 180.962 95.3926C181.135 95.4271 181.371 95.4443 181.675 95.4443H183.021C183.418 95.4443 183.654 95.3695 183.734 95.22C183.815 95.0647 183.746 94.8174 183.539 94.4782L180.502 88.3363ZM187.334 77.6398C187.012 77.6341 186.794 77.6916 186.673 77.8066C186.558 77.9274 186.5 78.1459 186.506 78.468V94.6163C186.506 95.1682 186.782 95.4443 187.334 95.4443H188.784C189.129 95.4443 189.405 95.3063 189.612 95.0302L197.03 84.9203C197.427 84.351 197.789 83.8047 198.111 83.2814C198.439 82.7581 198.721 82.2462 198.962 81.7459H199.066C198.876 82.643 198.738 83.4712 198.646 84.2359C198.56 84.9951 198.514 85.6967 198.514 86.3351V94.6163C198.508 94.9382 198.566 95.1568 198.681 95.2775C198.801 95.3926 199.02 95.45 199.342 95.4443H200.791C201.113 95.45 201.332 95.3926 201.453 95.2775C201.568 95.1568 201.625 94.9382 201.619 94.6163V78.468C201.625 78.1459 201.568 77.9274 201.453 77.8066C201.332 77.6916 201.113 77.6341 200.791 77.6398H199.342C199.169 77.6398 199.014 77.6743 198.882 77.7434C198.75 77.8124 198.635 77.9159 198.548 78.0539L191.026 88.2673C190.267 89.2679 189.646 90.3031 189.163 91.3728H189.06C189.249 90.6309 189.387 89.889 189.479 89.1415C189.566 88.3996 189.612 87.6462 189.612 86.8871V78.468C189.617 78.1459 189.56 77.9274 189.445 77.8066C189.324 77.6916 189.106 77.6341 188.784 77.6398H187.334ZM205.277 88.7849C205.277 90.2628 205.559 91.5395 206.122 92.6091C206.686 93.6789 207.531 94.5012 208.664 95.082C209.803 95.6628 211.223 95.9561 212.937 95.9619C214.731 95.9619 216.249 95.6686 217.486 95.0762C218.728 94.4897 219.683 93.5983 220.355 92.4079C220.735 91.8213 220.631 91.3728 220.045 91.0622L219.113 90.5791C218.826 90.3894 218.578 90.3203 218.377 90.3721C218.17 90.4239 217.969 90.5964 217.768 90.8897C217.302 91.6834 216.663 92.2813 215.864 92.6781C215.059 93.075 214.093 93.2705 212.971 93.2705C211.465 93.2648 210.32 92.9082 209.532 92.1951C208.75 91.4878 208.353 90.4641 208.348 89.13V87.4737H219.596C220.028 87.4737 220.35 87.3702 220.557 87.1689C220.77 86.9618 220.873 86.6629 220.873 86.2661V84.2647C220.873 82.8271 220.574 81.5791 219.987 80.5095C219.395 79.4456 218.521 78.6117 217.365 78.0252C216.209 77.4328 214.777 77.1338 213.075 77.1223C211.384 77.128 209.958 77.4156 208.796 77.9907C207.64 78.5715 206.766 79.4053 206.174 80.5037C205.576 81.6021 205.277 82.9363 205.277 84.5063V88.7849ZM217.802 85.0928H208.348V84.0923C208.348 83.1779 208.532 82.4015 208.888 81.7516C209.251 81.1076 209.785 80.6073 210.487 80.268C211.189 79.9229 212.051 79.7446 213.075 79.7446C214.616 79.7504 215.789 80.1299 216.589 80.8833C217.394 81.6308 217.796 82.7005 217.802 84.0923V85.0928ZM244.164 88.3363C243.801 87.5945 243.387 86.9906 242.927 86.5191C242.462 86.0533 241.955 85.714 241.403 85.5069L246.924 78.606C247.183 78.2782 247.269 78.0367 247.183 77.8756C247.097 77.7203 246.838 77.6398 246.407 77.6398H245.095C244.768 77.6341 244.509 77.6456 244.325 77.6686C244.135 77.6916 243.98 77.7491 243.853 77.8411C243.732 77.9274 243.606 78.0712 243.474 78.261L238.332 84.9203H238.022H235.296V78.468C235.302 78.1459 235.238 77.9274 235.112 77.8066C234.98 77.6916 234.755 77.6341 234.433 77.6398H233.053C232.731 77.6341 232.507 77.6916 232.375 77.8066C232.248 77.9274 232.185 78.1459 232.191 78.468V94.5818C232.185 94.9037 232.248 95.128 232.375 95.2603C232.507 95.3868 232.731 95.45 233.053 95.4443H234.433C234.755 95.45 234.98 95.3868 235.112 95.2603C235.238 95.128 235.302 94.9037 235.296 94.5818V87.7842H238.436C238.971 87.7842 239.431 87.8418 239.816 87.9683C240.201 88.0948 240.529 88.2961 240.805 88.5779C241.081 88.8539 241.329 89.222 241.541 89.682L243.922 94.6853C244.02 94.898 244.118 95.0647 244.221 95.174C244.319 95.2833 244.457 95.358 244.624 95.3926C244.796 95.4271 245.032 95.4443 245.337 95.4443H246.683C247.079 95.4443 247.315 95.3695 247.396 95.22C247.476 95.0647 247.407 94.8174 247.2 94.4782L244.164 88.3363ZM249.616 89.3714C249.621 90.7459 249.932 91.9249 250.547 92.9025C251.162 93.8859 252.042 94.6392 253.193 95.1682C254.343 95.6916 255.729 95.9561 257.345 95.9619C258.995 95.9561 260.398 95.6916 261.548 95.1682C262.704 94.6392 263.584 93.8859 264.194 92.9025C264.798 91.9249 265.102 90.7459 265.108 89.3714V83.7472C265.102 82.3612 264.798 81.1766 264.194 80.1875C263.584 79.204 262.704 78.445 261.548 77.9216C260.398 77.3925 258.995 77.128 257.345 77.1223C255.729 77.128 254.343 77.3925 253.193 77.9216C252.042 78.445 251.162 79.204 250.547 80.1875C249.932 81.1766 249.621 82.3612 249.616 83.7472V89.3714ZM262.037 89.3714C262.037 90.1651 261.847 90.8494 261.474 91.413C261.1 91.9766 260.565 92.4136 259.863 92.7127C259.168 93.0117 258.328 93.167 257.345 93.167C256.373 93.167 255.545 93.0117 254.849 92.7127C254.153 92.4136 253.624 91.9766 253.25 91.413C252.876 90.8494 252.692 90.1651 252.686 89.3714V83.7127C252.692 82.9133 252.876 82.2347 253.25 81.6711C253.624 81.1018 254.153 80.6705 254.849 80.3715C255.545 80.0724 256.373 79.9171 257.345 79.9171C258.328 79.9171 259.168 80.0724 259.863 80.3715C260.565 80.6705 261.1 81.1018 261.474 81.6711C261.847 82.2347 262.037 82.9133 262.037 83.7127V89.3714ZM281.498 77.6398C281.205 77.6341 280.998 77.6916 280.865 77.8066C280.733 77.9274 280.67 78.1459 280.67 78.468V84.9203H271.94V78.468C271.946 78.1459 271.888 77.9274 271.773 77.8066C271.653 77.6916 271.434 77.6341 271.112 77.6398H269.663C269.341 77.6341 269.122 77.6916 269.001 77.8066C268.887 77.9274 268.829 78.1459 268.835 78.468V94.6163C268.835 95.1682 269.111 95.4443 269.663 95.4443H271.112C271.434 95.45 271.653 95.3926 271.773 95.2775C271.888 95.1568 271.946 94.9382 271.94 94.6163V87.7842H280.67V94.6163C280.67 94.9382 280.733 95.1568 280.865 95.2775C280.998 95.3926 281.205 95.45 281.498 95.4443H282.947C283.24 95.45 283.447 95.3926 283.58 95.2775C283.712 95.1568 283.775 94.9382 283.775 94.6163V78.468C283.775 78.1459 283.712 77.9274 283.58 77.8066C283.447 77.6916 283.24 77.6341 282.947 77.6398H281.498ZM287.467 88.992C287.467 90.4699 287.749 91.7236 288.307 92.7644C288.865 93.7996 289.699 94.5875 290.814 95.1337C291.93 95.6801 293.322 95.9561 294.989 95.9619C298.888 95.9619 301.407 94.3747 302.546 91.2003C302.649 90.9242 302.649 90.6884 302.552 90.4986C302.448 90.3031 302.253 90.1478 301.959 90.027L300.752 89.682C300.435 89.5555 300.188 89.5382 300.021 89.6187C299.855 89.705 299.705 89.9062 299.579 90.2341C299.251 91.2348 298.716 91.9881 297.963 92.4884C297.215 92.9887 296.249 93.236 295.058 93.236C293.586 93.2245 292.476 92.868 291.717 92.1548C290.958 91.4418 290.578 90.4353 290.573 89.13V83.9197C290.578 82.62 290.958 81.6136 291.717 80.9121C292.476 80.2104 293.586 79.8539 295.058 79.8481C296.249 79.8481 297.215 80.0897 297.963 80.5727C298.704 81.0558 299.233 81.7804 299.544 82.7465C299.665 83.0571 299.82 83.2584 300.016 83.3446C300.205 83.4367 300.441 83.4194 300.717 83.2986L301.925 82.9191C302.218 82.8155 302.408 82.666 302.5 82.4763C302.586 82.2807 302.58 82.0391 302.477 81.7459C301.994 80.2104 301.148 79.0545 299.935 78.2839C298.727 77.5076 297.146 77.1223 295.196 77.1223C293.483 77.128 292.051 77.404 290.906 77.9447C289.762 78.491 288.905 79.2788 288.33 80.314C287.755 81.3434 287.467 82.5913 287.467 84.0578V88.992ZM318.487 77.6398C318.194 77.6341 317.987 77.6916 317.855 77.8066C317.722 77.9274 317.659 78.1459 317.659 78.468V91.7523C316.883 91.9938 316.124 92.1778 315.387 92.2986C314.646 92.4194 313.933 92.4769 313.242 92.4769C311.793 92.4769 310.706 92.1318 309.982 91.4475C309.257 90.7574 308.895 89.7337 308.895 88.3708V78.468C308.901 78.1747 308.837 77.9676 308.717 77.8354C308.596 77.7031 308.389 77.6398 308.101 77.6398H306.652C306.33 77.6341 306.112 77.6916 305.991 77.8066C305.876 77.9274 305.818 78.1459 305.824 78.468V88.4744C305.824 90.7517 306.41 92.4596 307.578 93.5983C308.751 94.7369 310.499 95.3063 312.828 95.3063C313.553 95.3063 314.318 95.243 315.129 95.1222C315.934 95.0015 316.779 94.8232 317.659 94.5818V96.445C317.659 97.9632 317.291 99.1019 316.549 99.861C315.813 100.62 314.709 101 313.242 101C312.259 101 311.414 100.81 310.701 100.425C309.993 100.045 309.412 99.4642 308.964 98.6878C308.832 98.5037 308.699 98.3715 308.578 98.291C308.452 98.2105 308.314 98.1817 308.164 98.1989C308.015 98.2105 307.831 98.2737 307.618 98.3772L306.617 98.9293C306.324 99.0846 306.146 99.2686 306.083 99.4814C306.019 99.6942 306.083 99.9472 306.272 100.241C306.945 101.414 307.86 102.294 309.027 102.88C310.189 103.467 311.603 103.76 313.277 103.76C318.246 103.76 320.73 101.276 320.73 96.3069V78.468C320.736 78.1459 320.678 77.9274 320.563 77.8066C320.442 77.6916 320.224 77.6341 319.902 77.6398H318.487ZM327.631 77.6398C327.309 77.6341 327.09 77.6916 326.97 77.8066C326.855 77.9274 326.797 78.1459 326.803 78.468V83.8508C326.803 85.645 326.717 87.1459 326.538 88.3536C326.354 89.5612 326.078 90.4756 325.699 91.0967C325.451 91.505 325.227 91.8213 325.02 92.0513C324.813 92.2813 324.594 92.4769 324.365 92.6264C324.135 92.7759 323.853 92.9312 323.525 93.098C323.335 93.2187 323.214 93.3568 323.163 93.5178C323.111 93.6731 323.128 93.8571 323.214 94.0641L323.939 95.4443C324.06 95.6686 324.198 95.8124 324.365 95.8814C324.525 95.9504 324.715 95.9446 324.94 95.8584C325.405 95.6341 325.825 95.3983 326.199 95.151C326.567 94.898 326.918 94.5932 327.246 94.2309C327.579 93.8686 327.913 93.4143 328.252 92.8564C328.77 92.0283 329.155 90.8725 329.414 89.4002C329.673 87.928 329.805 86.1453 329.805 84.0578V80.5037H336.464V94.6163C336.458 94.9382 336.516 95.1568 336.631 95.2775C336.752 95.3926 336.97 95.45 337.292 95.4443H338.707C339 95.45 339.207 95.3926 339.34 95.2775C339.472 95.1568 339.535 94.9382 339.535 94.6163V78.468C339.535 78.1459 339.472 77.9274 339.34 77.8066C339.207 77.6916 339 77.6341 338.707 77.6398H327.631ZM346.678 83.0226V78.468C346.683 78.1459 346.626 77.9274 346.511 77.8066C346.39 77.6916 346.172 77.6341 345.849 77.6398H344.4C344.078 77.6341 343.86 77.6916 343.739 77.8066C343.624 77.9274 343.566 78.1459 343.572 78.468V94.6163C343.566 94.9382 343.624 95.1568 343.739 95.2775C343.86 95.3926 344.078 95.45 344.4 95.4443H352.026C353.354 95.4386 354.493 95.1855 355.436 94.6909C356.379 94.1964 357.104 93.4833 357.61 92.5516C358.116 91.6201 358.369 90.5044 358.375 89.199C358.369 87.905 358.116 86.8008 357.61 85.8807C357.104 84.9606 356.379 84.2532 355.436 83.7645C354.493 83.2756 353.354 83.0283 352.026 83.0226H346.678ZM346.678 92.6839V85.8175H351.646C352.745 85.829 353.596 86.128 354.205 86.7203C354.815 87.3127 355.126 88.1351 355.131 89.199C355.126 90.2974 354.815 91.1485 354.205 91.7581C353.596 92.3676 352.745 92.6724 351.646 92.6839H346.678ZM360.618 77.6398C360.295 77.6341 360.077 77.6916 359.956 77.8066C359.841 77.9274 359.784 78.1459 359.789 78.468V79.6756C359.784 79.9689 359.841 80.1759 359.956 80.3082C360.077 80.4405 360.295 80.5037 360.618 80.5037H365.655V94.6163C365.65 94.9382 365.707 95.1568 365.822 95.2775C365.943 95.3926 366.161 95.45 366.483 95.4443H367.933C368.22 95.45 368.427 95.3926 368.548 95.2775C368.669 95.1568 368.732 94.9382 368.726 94.6163V80.5037H373.764C374.057 80.5037 374.264 80.4405 374.397 80.3082C374.529 80.1759 374.592 79.9689 374.592 79.6756V78.468C374.592 78.1459 374.529 77.9274 374.397 77.8066C374.264 77.6916 374.057 77.6341 373.764 77.6398H360.618ZM376.869 80.7453C376.731 81.0213 376.697 81.2571 376.772 81.4469C376.841 81.6423 377.025 81.7976 377.318 81.9184L378.388 82.4015C378.6 82.482 378.767 82.5222 378.882 82.5222C378.997 82.5222 379.101 82.482 379.193 82.3957C379.285 82.3037 379.394 82.1714 379.526 81.9874C379.958 81.2801 380.527 80.751 381.24 80.406C381.947 80.0552 382.804 79.8826 383.805 79.8826C384.811 79.8826 385.616 80.0436 386.22 80.3542C386.824 80.6705 387.255 81.1306 387.52 81.7401C387.784 82.3555 387.917 83.1031 387.911 83.9888V85.2999C387.221 85.2136 386.548 85.1504 385.892 85.1159C385.237 85.0756 384.598 85.0583 383.977 85.0583C382.131 85.0526 380.648 85.2251 379.515 85.576C378.382 85.9268 377.559 86.4961 377.042 87.2897C376.53 88.0891 376.277 89.1472 376.283 90.4756C376.283 91.4245 376.421 92.2468 376.691 92.937C376.967 93.6271 377.37 94.1849 377.905 94.6163C378.439 95.0647 379.204 95.3983 380.199 95.6226C381.194 95.8469 382.407 95.9619 383.839 95.9619C385.133 95.9619 386.272 95.8871 387.261 95.7318C388.244 95.5823 389.084 95.358 389.774 95.0647C390.096 94.9325 390.343 94.7887 390.528 94.6391C390.706 94.4897 390.832 94.2942 390.907 94.0527C390.982 93.8111 391.016 93.4948 391.016 93.098V84.0923C391.022 82.6488 390.792 81.4067 390.321 80.3657C389.849 79.3306 389.09 78.5312 388.043 77.9676C386.991 77.4098 385.605 77.128 383.874 77.1223C382.166 77.1223 380.728 77.4213 379.555 78.0252C378.388 78.629 377.49 79.5376 376.869 80.7453ZM387.911 92.2008C387.911 92.3906 387.871 92.5459 387.784 92.6724C387.698 92.7932 387.566 92.8909 387.393 92.96C386.6 93.236 385.323 93.374 383.563 93.374C382.499 93.374 381.665 93.2705 381.056 93.0577C380.446 92.8507 380.009 92.5286 379.756 92.1031C379.503 91.6718 379.382 91.1312 379.388 90.4756C379.382 89.797 379.515 89.245 379.785 88.8194C380.055 88.3938 380.498 88.0775 381.119 87.8762C381.746 87.675 382.58 87.5772 383.632 87.5772C384.133 87.5772 384.742 87.6002 385.461 87.652C386.18 87.698 386.996 87.767 387.911 87.8533V92.2008ZM409.614 92.5804V78.468C409.614 78.1459 409.551 77.9274 409.419 77.8066C409.287 77.6916 409.08 77.6341 408.786 77.6398H407.337C407.044 77.6341 406.837 77.6916 406.704 77.8066C406.572 77.9274 406.509 78.1459 406.509 78.468V92.5804H398.124V78.468C398.13 78.1459 398.073 77.9274 397.958 77.8066C397.837 77.6916 397.618 77.6341 397.296 77.6398H395.847C395.295 77.6398 395.019 77.9159 395.019 78.468V94.6163C395.013 94.9382 395.071 95.1568 395.186 95.2775C395.306 95.3926 395.525 95.45 395.847 95.4443H409.2V99.4124C409.2 99.7057 409.264 99.9128 409.396 100.045C409.528 100.177 409.741 100.241 410.028 100.241H411.374C411.696 100.241 411.915 100.177 412.036 100.045C412.151 99.9128 412.208 99.7057 412.202 99.4124V93.4431C412.208 93.121 412.151 92.8967 412.036 92.7644C411.915 92.6379 411.696 92.5746 411.374 92.5804H409.614Z" fill="#0B1922"/>
<path d="M415.756 77.6406C415.434 77.6349 415.216 77.6924 415.095 77.8074C414.98 77.9282 414.922 78.1467 414.928 78.4687V94.617C414.928 95.169 415.204 95.4451 415.756 95.4451H417.205C417.55 95.4451 417.826 95.3071 418.033 95.031L425.452 84.9211C425.849 84.3518 426.211 83.8054 426.533 83.2822C426.861 82.7589 427.143 82.247 427.384 81.7467H427.488C427.298 82.6438 427.16 83.472 427.068 84.2367C426.982 84.9959 426.936 85.6975 426.936 86.3359V94.617C426.93 94.939 426.987 95.1576 427.103 95.2783C427.223 95.3934 427.442 95.4508 427.764 95.4451H429.213C429.535 95.4508 429.754 95.3934 429.874 95.2783C429.989 95.1576 430.047 94.939 430.041 94.617V78.4687C430.047 78.1467 429.989 77.9282 429.874 77.8074C429.754 77.6924 429.535 77.6349 429.213 77.6406H427.764C427.591 77.6406 427.436 77.6751 427.304 77.7442C427.172 77.8132 427.057 77.9167 426.97 78.0547L419.448 88.2681C418.689 89.2687 418.068 90.3039 417.585 91.3736H417.481C417.671 90.6317 417.809 89.8898 417.901 89.1422C417.987 88.4004 418.033 87.647 418.033 86.8879V78.4687C418.039 78.1467 417.982 77.9282 417.867 77.8074C417.746 77.6924 417.527 77.6349 417.205 77.6406H415.756ZM435.148 77.6406C434.826 77.6349 434.607 77.6924 434.487 77.8074C434.372 77.9282 434.314 78.1467 434.32 78.4687V94.617C434.32 95.169 434.596 95.4451 435.148 95.4451H436.597C436.942 95.4451 437.218 95.3071 437.425 95.031L444.844 84.9211C445.241 84.3518 445.603 83.8054 445.925 83.2822C446.253 82.7589 446.534 82.247 446.776 81.7467H446.88C446.69 82.6438 446.552 83.472 446.46 84.2367C446.373 84.9959 446.327 85.6975 446.327 86.3359V94.617C446.322 94.939 446.379 95.1576 446.494 95.2783C446.615 95.3934 446.834 95.4508 447.156 95.4451H448.605C448.927 95.4508 449.145 95.3934 449.266 95.2783C449.381 95.1576 449.439 94.939 449.433 94.617V78.4687C449.439 78.1467 449.381 77.9282 449.266 77.8074C449.145 77.6924 448.927 77.6349 448.605 77.6406H447.156C446.983 77.6406 446.828 77.6751 446.695 77.7442C446.563 77.8132 446.448 77.9167 446.362 78.0547L438.84 88.2681C438.081 89.2687 437.46 90.3039 436.977 91.3736H436.873C437.063 90.6317 437.201 89.8898 437.293 89.1422C437.379 88.4004 437.425 87.647 437.425 86.8879V78.4687C437.431 78.1467 437.373 77.9282 437.258 77.8074C437.138 77.6924 436.919 77.6349 436.597 77.6406H435.148ZM461.027 89.3722C461.032 90.7467 461.343 91.9256 461.958 92.9033C462.573 93.8867 463.453 94.6399 464.603 95.169C465.754 95.6924 467.14 95.9569 468.756 95.9627C470.406 95.9569 471.809 95.6924 472.959 95.169C474.115 94.6399 474.995 93.8867 475.605 92.9033C476.209 91.9256 476.513 90.7467 476.519 89.3722V83.748C476.513 82.362 476.209 81.1773 475.605 80.1883C474.995 79.2048 474.115 78.4457 472.959 77.9224C471.809 77.3933 470.406 77.1288 468.756 77.1231C467.14 77.1288 465.754 77.3933 464.603 77.9224C463.453 78.4457 462.573 79.2048 461.958 80.1883C461.343 81.1773 461.032 82.362 461.027 83.748V89.3722ZM473.448 89.3722C473.448 90.1659 473.258 90.8502 472.885 91.4138C472.511 91.9773 471.976 92.4144 471.274 92.7135C470.579 93.0125 469.739 93.1678 468.756 93.1678C467.784 93.1678 466.956 93.0125 466.26 92.7135C465.564 92.4144 465.035 91.9773 464.661 91.4138C464.287 90.8502 464.103 90.1659 464.097 89.3722V83.7135C464.103 82.9141 464.287 82.2355 464.661 81.6719C465.035 81.1025 465.564 80.6713 466.26 80.3723C466.956 80.0732 467.784 79.9179 468.756 79.9179C469.739 79.9179 470.579 80.0732 471.274 80.3723C471.976 80.6713 472.511 81.1025 472.885 81.6719C473.258 82.2355 473.448 82.9141 473.448 83.7135V89.3722ZM492.909 77.6406C492.616 77.6349 492.409 77.6924 492.276 77.8074C492.144 77.9282 492.081 78.1467 492.081 78.4687V84.9211H483.351V78.4687C483.357 78.1467 483.299 77.9282 483.184 77.8074C483.064 77.6924 482.845 77.6349 482.523 77.6406H481.074C480.752 77.6349 480.533 77.6924 480.412 77.8074C480.297 77.9282 480.24 78.1467 480.246 78.4687V94.617C480.246 95.169 480.522 95.4451 481.074 95.4451H482.523C482.845 95.4508 483.064 95.3934 483.184 95.2783C483.299 95.1576 483.357 94.939 483.351 94.617V87.785H492.081V94.617C492.081 94.939 492.144 95.1576 492.276 95.2783C492.409 95.3934 492.616 95.4508 492.909 95.4451H494.358C494.651 95.4508 494.858 95.3934 494.991 95.2783C495.123 95.1576 495.186 94.939 495.186 94.617V78.4687C495.186 78.1467 495.123 77.9282 494.991 77.8074C494.858 77.6924 494.651 77.6349 494.358 77.6406H492.909ZM502.156 77.6406C501.834 77.6349 501.616 77.6924 501.495 77.8074C501.38 77.9282 501.322 78.1467 501.328 78.4687V83.8515C501.328 85.6458 501.242 87.1467 501.064 88.3544C500.88 89.562 500.604 90.4764 500.224 91.0975C499.977 91.5058 499.752 91.822 499.545 92.0521C499.338 92.2821 499.12 92.4777 498.89 92.6272C498.66 92.7767 498.378 92.932 498.05 93.0988C497.86 93.2195 497.74 93.3576 497.688 93.5186C497.636 93.6739 497.653 93.8579 497.74 94.0649L498.464 95.4451C498.585 95.6694 498.723 95.8132 498.89 95.8822C499.051 95.9512 499.241 95.9454 499.465 95.8592C499.931 95.6349 500.351 95.3991 500.724 95.1518C501.092 94.8988 501.443 94.5939 501.771 94.2316C502.104 93.8694 502.438 93.4151 502.777 92.8572C503.295 92.0291 503.68 90.8733 503.939 89.401C504.198 87.9288 504.33 86.1461 504.33 84.0585V80.5045H510.99V94.617C510.984 94.939 511.041 95.1576 511.156 95.2783C511.277 95.3934 511.496 95.4508 511.818 95.4451H513.232C513.526 95.4508 513.733 95.3934 513.865 95.2783C513.997 95.1576 514.06 94.939 514.06 94.617V78.4687C514.06 78.1467 513.997 77.9282 513.865 77.8074C513.733 77.6924 513.526 77.6349 513.232 77.6406H502.156ZM517.752 80.7461C517.614 81.022 517.58 81.2578 517.655 81.4476C517.724 81.6431 517.908 81.7984 518.201 81.9192L519.271 82.4023C519.483 82.4828 519.65 82.523 519.765 82.523C519.88 82.523 519.984 82.4828 520.076 82.3965C520.168 82.3045 520.277 82.1722 520.409 81.9882C520.841 81.2808 521.41 80.7518 522.123 80.4068C522.83 80.056 523.687 79.8834 524.688 79.8834C525.694 79.8834 526.499 80.0444 527.103 80.355C527.707 80.6713 528.138 81.1313 528.403 81.7409C528.667 82.3563 528.8 83.1039 528.794 83.9895V85.3007C528.104 85.2144 527.431 85.1512 526.775 85.1167C526.12 85.0764 525.481 85.0591 524.86 85.0591C523.014 85.0534 521.531 85.2259 520.398 85.5768C519.265 85.9276 518.443 86.4968 517.925 87.2905C517.413 88.0899 517.16 89.1479 517.166 90.4764C517.166 91.4253 517.304 92.2476 517.574 92.9378C517.85 93.6279 518.253 94.1857 518.788 94.617C519.322 95.0655 520.087 95.3991 521.082 95.6234C522.077 95.8477 523.29 95.9627 524.722 95.9627C526.016 95.9627 527.155 95.8879 528.144 95.7326C529.128 95.5831 529.967 95.3588 530.657 95.0655C530.979 94.9333 531.227 94.7895 531.411 94.6399C531.589 94.4904 531.715 94.2949 531.79 94.0535C531.865 93.8119 531.899 93.4956 531.899 93.0988V84.093C531.905 82.6496 531.675 81.4074 531.204 80.3665C530.732 79.3314 529.973 78.5319 528.926 77.9684C527.874 77.4106 526.488 77.1288 524.757 77.1231C523.049 77.1231 521.611 77.4221 520.438 78.026C519.271 78.6297 518.374 79.5384 517.752 80.7461ZM528.794 92.2016C528.794 92.3914 528.754 92.5467 528.667 92.6732C528.581 92.794 528.449 92.8917 528.276 92.9608C527.483 93.2368 526.206 93.3748 524.446 93.3748C523.382 93.3748 522.549 93.2713 521.939 93.0585C521.329 92.8515 520.892 92.5294 520.639 92.1039C520.386 91.6725 520.266 91.132 520.271 90.4764C520.266 89.7978 520.398 89.2457 520.668 88.8202C520.938 88.3946 521.381 88.0783 522.002 87.877C522.629 87.6758 523.463 87.578 524.515 87.578C525.016 87.578 525.625 87.601 526.344 87.6528C527.063 87.6988 527.88 87.7678 528.794 87.8541V92.2016ZM548.91 71.5333C548.962 71.3607 548.962 71.2112 548.905 71.0904C548.841 70.9639 548.721 70.8604 548.531 70.7741L547.323 70.3256C546.978 70.2221 546.736 70.3256 546.598 70.6361C546.15 72.1544 545.149 72.9135 543.596 72.9135C542.82 72.9135 542.188 72.7237 541.699 72.3441C541.21 71.9646 540.853 71.3952 540.629 70.6361C540.56 70.4808 540.457 70.3831 540.319 70.3429C540.181 70.3026 540.008 70.3084 539.801 70.3602L538.731 70.7741C538.542 70.8259 538.421 70.9179 538.358 71.0502C538.3 71.1824 538.3 71.3435 538.352 71.5333C538.749 72.7582 539.381 73.6725 540.25 74.2821C541.118 74.886 542.234 75.1908 543.596 75.1908C544.977 75.1908 546.11 74.886 546.99 74.2821C547.875 73.6725 548.514 72.7582 548.91 71.5333ZM536.73 77.6406C536.408 77.6349 536.189 77.6924 536.069 77.8074C535.954 77.9282 535.896 78.1467 535.902 78.4687V94.617C535.902 95.169 536.178 95.4451 536.73 95.4451H538.179C538.524 95.4451 538.8 95.3071 539.007 95.031L546.426 84.9211C546.823 84.3518 547.185 83.8054 547.507 83.2822C547.835 82.7589 548.117 82.247 548.358 81.7467H548.462C548.272 82.6438 548.134 83.472 548.042 84.2367C547.956 84.9959 547.91 85.6975 547.91 86.3359V94.617C547.904 94.939 547.961 95.1576 548.076 95.2783C548.197 95.3934 548.416 95.4508 548.738 95.4451H550.187C550.509 95.4508 550.728 95.3934 550.848 95.2783C550.963 95.1576 551.021 94.939 551.015 94.617V78.4687C551.021 78.1467 550.963 77.9282 550.848 77.8074C550.728 77.6924 550.509 77.6349 550.187 77.6406H548.738C548.565 77.6406 548.41 77.6751 548.278 77.7442C548.145 77.8132 548.03 77.9167 547.944 78.0547L540.422 88.2681C539.663 89.2687 539.042 90.3039 538.559 91.3736H538.455C538.645 90.6317 538.783 89.8898 538.875 89.1422C538.961 88.4004 539.007 87.647 539.007 86.8879V78.4687C539.013 78.1467 538.956 77.9282 538.841 77.8074C538.72 77.6924 538.501 77.6349 538.179 77.6406H536.73ZM567.957 77.6406C567.664 77.6349 567.457 77.6924 567.324 77.8074C567.192 77.9282 567.129 78.1467 567.129 78.4687V84.9211H558.399V78.4687C558.405 78.1467 558.347 77.9282 558.232 77.8074C558.112 77.6924 557.893 77.6349 557.571 77.6406H556.122C555.8 77.6349 555.581 77.6924 555.46 77.8074C555.345 77.9282 555.288 78.1467 555.294 78.4687V94.617C555.294 95.169 555.57 95.4451 556.122 95.4451H557.571C557.893 95.4508 558.112 95.3934 558.232 95.2783C558.347 95.1576 558.405 94.939 558.399 94.617V87.785H567.129V94.617C567.129 94.939 567.192 95.1576 567.324 95.2783C567.457 95.3934 567.664 95.4508 567.957 95.4451H569.406C569.7 95.4508 569.906 95.3934 570.039 95.2783C570.171 95.1576 570.234 94.939 570.234 94.617V78.4687C570.234 78.1467 570.171 77.9282 570.039 77.8074C569.906 77.6924 569.7 77.6349 569.406 77.6406H567.957Z" fill="#0B1922"/>
<path d="M17.467 84.9893H13.5679V78.468C13.5737 78.1459 13.5161 77.9274 13.4011 77.8066C13.2803 77.6916 13.0619 77.6341 12.7399 77.6398H11.2906C10.9686 77.6341 10.75 77.6916 10.6292 77.8066C10.5143 77.9274 10.4568 78.1459 10.4625 78.468V94.6163C10.4625 95.1682 10.7385 95.4443 11.2906 95.4443H12.7399C13.0619 95.45 13.2803 95.3926 13.4011 95.2775C13.5161 95.1568 13.5737 94.9382 13.5679 94.6163V87.8533H17.467V89.4059C17.4727 90.7804 17.7718 91.9535 18.3584 92.9312C18.9507 93.9089 19.8076 94.6565 20.9348 95.174C22.0561 95.6916 23.4191 95.9561 25.0235 95.9619C26.6395 95.9561 28.0082 95.6916 29.1411 95.174C30.2683 94.6565 31.1309 93.9089 31.7232 92.9312C32.3098 91.9535 32.6088 90.7804 32.6146 89.4059V83.6782C32.6088 82.3037 32.3098 81.1306 31.7232 80.1529C31.1309 79.1753 30.2683 78.4277 29.1411 77.9101C28.0082 77.3868 26.6395 77.128 25.0235 77.1223C23.4191 77.128 22.0561 77.3868 20.9348 77.9101C19.8076 78.4277 18.9507 79.1753 18.3584 80.1529C17.7718 81.1306 17.4727 82.3037 17.467 83.6782V84.9893ZM29.5091 89.4059C29.5091 90.1881 29.3251 90.8609 28.9686 91.4245C28.6121 91.9824 28.1003 92.4136 27.4274 92.7127C26.7603 93.0117 25.9609 93.167 25.0235 93.167C24.0919 93.167 23.2926 93.0117 22.6255 92.7127C21.9641 92.4136 21.458 91.9824 21.1073 91.4245C20.7507 90.8609 20.5782 90.1881 20.5724 89.4059V83.6782C20.5782 82.8846 20.7507 82.2059 21.1073 81.6423C21.458 81.0846 21.9641 80.659 22.6255 80.36C23.2926 80.0667 24.0919 79.9171 25.0235 79.9171C26.4612 79.9229 27.5712 80.2507 28.3418 80.9063C29.1123 81.5561 29.5034 82.482 29.5091 83.6782V89.4059ZM37.6523 78.1229C37.29 78.2667 37.0083 78.4162 36.8127 78.5772C36.6172 78.7382 36.4849 78.9337 36.4102 79.1753C36.3354 79.4111 36.3009 79.7158 36.3066 80.0897V102.207C36.3009 102.501 36.3642 102.708 36.4849 102.84C36.6057 102.972 36.8127 103.035 37.1002 103.035H38.5494C38.8715 103.041 39.09 102.984 39.2108 102.869C39.3258 102.748 39.3834 102.529 39.3776 102.207V95.0302C40.2747 95.3408 41.0971 95.5708 41.8389 95.7261C42.5864 95.8814 43.2593 95.9619 43.8632 95.9619C48.7629 95.9619 51.2127 93.6156 51.2127 88.9229V84.0578C51.2127 81.7459 50.6088 80.0092 49.407 78.8532C48.1993 77.6974 46.3993 77.1223 44.0012 77.1223C42.7417 77.1223 41.5859 77.2085 40.5277 77.3753C39.4754 77.5478 38.5149 77.7951 37.6523 78.1229ZM48.1073 88.8194C48.1073 90.2513 47.7392 91.3268 46.9916 92.0513C46.244 92.7702 45.1226 93.1325 43.6217 93.1325C43.0695 93.1325 42.4427 93.0577 41.7354 92.9025C41.0223 92.7529 40.2402 92.5286 39.3776 92.2353V81.1939C39.3718 80.9926 39.4006 80.8431 39.4696 80.7395C39.5329 80.636 39.6765 80.5498 39.8951 80.4693C40.4817 80.2967 41.0798 80.1644 41.6836 80.0782C42.2932 79.9919 42.9143 79.9516 43.5526 79.9516C45.0708 79.9516 46.2095 80.3025 46.9687 81.0098C47.7277 81.7113 48.1073 82.7638 48.1073 84.1612V88.8194ZM55.7673 77.6398C55.4454 77.6341 55.2268 77.6916 55.106 77.8066C54.991 77.9274 54.9335 78.1459 54.9392 78.468V94.6163C54.9392 95.1682 55.2153 95.4443 55.7673 95.4443H57.2166C57.5616 95.4443 57.8377 95.3063 58.0447 95.0302L65.4632 84.9203C65.86 84.351 66.2223 83.8047 66.5443 83.2814C66.8721 82.7581 67.1539 82.2462 67.3955 81.7459H67.499C67.3092 82.643 67.1712 83.4712 67.0792 84.2359C66.9929 84.9951 66.9469 85.6967 66.9469 86.3351V94.6163C66.9412 94.9382 66.9986 95.1568 67.1137 95.2775C67.2345 95.3926 67.453 95.45 67.775 95.4443H69.2242C69.5463 95.45 69.7648 95.3926 69.8856 95.2775C70.0006 95.1568 70.0581 94.9382 70.0524 94.6163V78.468C70.0581 78.1459 70.0006 77.9274 69.8856 77.8066C69.7648 77.6916 69.5463 77.6341 69.2242 77.6398H67.775C67.6025 77.6398 67.4472 77.6743 67.315 77.7434C67.1827 77.8124 67.0677 77.9159 66.9814 78.0539L59.4593 88.2673C58.7002 89.2679 58.0792 90.3031 57.5961 91.3728H57.4926C57.6824 90.6309 57.8204 89.889 57.9124 89.1415C57.9987 88.3996 58.0447 87.6462 58.0447 86.8871V78.468C58.0505 78.1459 57.9929 77.9274 57.8779 77.8066C57.7571 77.6916 57.5386 77.6341 57.2166 77.6398H55.7673ZM89.8927 92.5804V78.468C89.8927 78.1459 89.8294 77.9274 89.6972 77.8066C89.5649 77.6916 89.3578 77.6341 89.0645 77.6398H77.6779C77.3846 77.6341 77.1776 77.6916 77.0453 77.8066C76.913 77.9274 76.8499 78.1459 76.8499 78.468V83.6782C76.8499 85.1101 76.798 86.3351 76.7002 87.3587C76.5968 88.3766 76.4531 89.199 76.2632 89.82C76.0562 90.4584 75.8147 91.0047 75.5329 91.459C75.2568 91.9134 74.9348 92.2871 74.5725 92.5804H73.6409C73.3534 92.5746 73.1463 92.6379 73.0256 92.7644C72.9048 92.8967 72.8415 93.121 72.8472 93.4431V99.4124C72.8415 99.7057 72.9048 99.9128 73.0256 100.045C73.1463 100.177 73.3534 100.241 73.6409 100.241H74.9865C75.2798 100.241 75.4984 100.171 75.6364 100.033C75.7802 99.8955 75.8492 99.6884 75.8492 99.4124V95.4443H89.4786V99.4124C89.4786 99.7057 89.5419 99.9128 89.6741 100.045C89.8064 100.177 90.0191 100.241 90.3067 100.241H91.6524C91.9745 100.241 92.193 100.177 92.3138 100.045C92.4288 99.9128 92.4863 99.7057 92.4805 99.4124V93.4431C92.4863 93.121 92.4288 92.8967 92.3138 92.7644C92.193 92.6379 91.9745 92.5746 91.6524 92.5804H89.8927ZM79.8517 80.5037H86.7872V92.5804H78.1265C78.6959 91.7523 79.1272 90.6136 79.4146 89.1588C79.7079 87.7095 79.8517 85.9383 79.8517 83.8508V80.5037ZM96.0344 77.6398C95.7124 77.6341 95.4939 77.6916 95.3731 77.8066C95.2581 77.9274 95.2007 78.1459 95.2064 78.468V94.6163C95.2064 95.1682 95.4824 95.4443 96.0344 95.4443H97.4837C97.8288 95.4443 98.1048 95.3063 98.3118 95.0302L105.73 84.9203C106.127 84.351 106.489 83.8047 106.812 83.2814C107.139 82.7581 107.421 82.2462 107.663 81.7459H107.766C107.576 82.643 107.438 83.4712 107.346 84.2359C107.26 84.9951 107.214 85.6967 107.214 86.3351V94.6163C107.208 94.9382 107.266 95.1568 107.381 95.2775C107.502 95.3926 107.72 95.45 108.042 95.4443H109.491C109.813 95.45 110.032 95.3926 110.153 95.2775C110.268 95.1568 110.325 94.9382 110.319 94.6163V78.468C110.325 78.1459 110.268 77.9274 110.153 77.8066C110.032 77.6916 109.813 77.6341 109.491 77.6398H108.042C107.87 77.6398 107.714 77.6743 107.582 77.7434C107.45 77.8124 107.335 77.9159 107.248 78.0539L99.7265 88.2673C98.9674 89.2679 98.3463 90.3031 97.8633 91.3728H97.7598C97.9495 90.6309 98.0875 89.889 98.1795 89.1415C98.2658 88.3996 98.3118 87.6462 98.3118 86.8871V78.468C98.3175 78.1459 98.26 77.9274 98.145 77.8066C98.0242 77.6916 97.8058 77.6341 97.4837 77.6398H96.0344ZM113.563 82.643C113.557 84.8341 114.121 86.4731 115.265 87.5657C116.41 88.6526 118.175 89.199 120.567 89.199C122.603 89.199 124.052 89.0265 124.915 88.6814V94.6163C124.915 94.9382 124.978 95.1568 125.111 95.2775C125.243 95.3926 125.45 95.45 125.743 95.4443H127.192C127.486 95.45 127.693 95.3926 127.825 95.2775C127.957 95.1568 128.021 94.9382 128.021 94.6163V78.468C128.021 78.1459 127.957 77.9274 127.825 77.8066C127.693 77.6916 127.486 77.6341 127.192 77.6398H125.743C125.45 77.6341 125.243 77.6916 125.111 77.8066C124.978 77.9274 124.915 78.1459 124.915 78.468V85.783C123.88 86.197 122.569 86.4041 120.981 86.4041C118.083 86.4041 116.634 85.1274 116.634 82.574V78.468C116.64 78.1747 116.576 77.9676 116.456 77.8354C116.335 77.7031 116.128 77.6398 115.84 77.6398H114.391C114.069 77.6341 113.85 77.6916 113.73 77.8066C113.615 77.9274 113.557 78.1459 113.563 78.468V82.643ZM131.678 88.7849C131.678 90.2628 131.96 91.5395 132.523 92.6091C133.087 93.6789 133.932 94.5012 135.065 95.082C136.204 95.6628 137.624 95.9561 139.338 95.9619C141.132 95.9619 142.651 95.6686 143.887 95.0762C145.129 94.4897 146.084 93.5983 146.757 92.4079C147.136 91.8213 147.033 91.3728 146.446 91.0622L145.514 90.5791C145.227 90.3894 144.98 90.3203 144.778 90.3721C144.571 90.4239 144.37 90.5964 144.169 90.8897C143.703 91.6834 143.065 92.2813 142.265 92.6781C141.46 93.075 140.494 93.2705 139.373 93.2705C137.866 93.2648 136.721 92.9082 135.934 92.1951C135.151 91.4878 134.755 90.4641 134.749 89.13V87.4737H145.998C146.429 87.4737 146.751 87.3702 146.958 87.1689C147.171 86.9618 147.274 86.6629 147.274 86.2661V84.2647C147.274 82.8271 146.975 81.5791 146.389 80.5095C145.796 79.4456 144.922 78.6117 143.766 78.0252C142.61 77.4328 141.178 77.1338 139.476 77.1223C137.785 77.128 136.359 77.4156 135.197 77.9907C134.042 78.5715 133.167 79.4053 132.575 80.5037C131.977 81.6021 131.678 82.9363 131.678 84.5063V88.7849ZM144.203 85.0928H134.749V84.0923C134.749 83.1779 134.933 82.4015 135.289 81.7516C135.652 81.1076 136.187 80.6073 136.888 80.268C137.59 79.9229 138.452 79.7446 139.476 79.7446C141.017 79.7504 142.19 80.1299 142.99 80.8833C143.795 81.6308 144.198 82.7005 144.203 84.0923V85.0928ZM150.138 88.992C150.138 90.4699 150.42 91.7236 150.978 92.7644C151.536 93.7996 152.369 94.5875 153.485 95.1337C154.601 95.6801 155.992 95.9561 157.66 95.9619C161.559 95.9619 164.078 94.3747 165.217 91.2003C165.32 90.9242 165.32 90.6884 165.222 90.4986C165.119 90.3031 164.923 90.1478 164.63 90.027L163.422 89.682C163.106 89.5555 162.859 89.5382 162.692 89.6187C162.525 89.705 162.376 89.9062 162.249 90.2341C161.921 91.2348 161.387 91.9881 160.633 92.4884C159.886 92.9887 158.92 93.236 157.729 93.236C156.257 93.2245 155.147 92.868 154.388 92.1548C153.629 91.4418 153.249 90.4353 153.243 89.13V83.9197C153.249 82.62 153.629 81.6136 154.388 80.9121C155.147 80.2104 156.257 79.8539 157.729 79.8481C158.92 79.8481 159.886 80.0897 160.633 80.5727C161.375 81.0558 161.904 81.7804 162.215 82.7465C162.336 83.0571 162.491 83.2584 162.686 83.3446C162.876 83.4367 163.112 83.4194 163.388 83.2986L164.596 82.9191C164.889 82.8155 165.079 82.666 165.171 82.4763C165.257 82.2807 165.251 82.0391 165.148 81.7459C164.665 80.2104 163.819 79.0545 162.606 78.2839C161.398 77.5076 159.817 77.1223 157.867 77.1223C156.153 77.128 154.722 77.404 153.577 77.9447C152.433 78.491 151.576 79.2788 151.001 80.314C150.426 81.3434 150.138 82.5913 150.138 84.0578V88.992ZM180.502 88.3363C180.14 87.5945 179.726 86.9906 179.266 86.5191C178.8 86.0533 178.294 85.714 177.742 85.5069L183.263 78.606C183.522 78.2782 183.608 78.0367 183.522 77.8756C183.435 77.7203 183.176 77.6398 182.745 77.6398H181.434C181.106 77.6341 180.847 77.6456 180.663 77.6686C180.474 77.6916 180.318 77.7491 180.192 77.8411C180.071 77.9274 179.944 78.0712 179.812 78.261L174.671 84.9203H174.36H171.635V78.468C171.64 78.1459 171.577 77.9274 171.451 77.8066C171.318 77.6916 171.094 77.6341 170.772 77.6398H169.392C169.07 77.6341 168.845 77.6916 168.713 77.8066C168.587 77.9274 168.523 78.1459 168.529 78.468V94.5818C168.523 94.9037 168.587 95.128 168.713 95.2603C168.845 95.3868 169.07 95.45 169.392 95.4443H170.772C171.094 95.45 171.318 95.3868 171.451 95.2603C171.577 95.128 171.64 94.9037 171.635 94.5818V87.7842H174.775C175.309 87.7842 175.769 87.8418 176.155 87.9683C176.54 88.0948 176.868 88.2961 177.144 88.5779C177.42 88.8539 177.667 89.222 177.88 89.682L180.261 94.6853C180.359 94.898 180.456 95.0647 180.56 95.174C180.658 95.2833 180.796 95.358 180.962 95.3926C181.135 95.4271 181.371 95.4443 181.675 95.4443H183.021C183.418 95.4443 183.654 95.3695 183.734 95.22C183.815 95.0647 183.746 94.8174 183.539 94.4782L180.502 88.3363ZM187.334 77.6398C187.012 77.6341 186.794 77.6916 186.673 77.8066C186.558 77.9274 186.5 78.1459 186.506 78.468V94.6163C186.506 95.1682 186.782 95.4443 187.334 95.4443H188.784C189.129 95.4443 189.405 95.3063 189.612 95.0302L197.03 84.9203C197.427 84.351 197.789 83.8047 198.111 83.2814C198.439 82.7581 198.721 82.2462 198.962 81.7459H199.066C198.876 82.643 198.738 83.4712 198.646 84.2359C198.56 84.9951 198.514 85.6967 198.514 86.3351V94.6163C198.508 94.9382 198.566 95.1568 198.681 95.2775C198.801 95.3926 199.02 95.45 199.342 95.4443H200.791C201.113 95.45 201.332 95.3926 201.453 95.2775C201.568 95.1568 201.625 94.9382 201.619 94.6163V78.468C201.625 78.1459 201.568 77.9274 201.453 77.8066C201.332 77.6916 201.113 77.6341 200.791 77.6398H199.342C199.169 77.6398 199.014 77.6743 198.882 77.7434C198.75 77.8124 198.635 77.9159 198.548 78.0539L191.026 88.2673C190.267 89.2679 189.646 90.3031 189.163 91.3728H189.06C189.249 90.6309 189.387 89.889 189.479 89.1415C189.566 88.3996 189.612 87.6462 189.612 86.8871V78.468C189.617 78.1459 189.56 77.9274 189.445 77.8066C189.324 77.6916 189.106 77.6341 188.784 77.6398H187.334ZM205.277 88.7849C205.277 90.2628 205.559 91.5395 206.122 92.6091C206.686 93.6789 207.531 94.5012 208.664 95.082C209.803 95.6628 211.223 95.9561 212.937 95.9619C214.731 95.9619 216.249 95.6686 217.486 95.0762C218.728 94.4897 219.683 93.5983 220.355 92.4079C220.735 91.8213 220.631 91.3728 220.045 91.0622L219.113 90.5791C218.826 90.3894 218.578 90.3203 218.377 90.3721C218.17 90.4239 217.969 90.5964 217.768 90.8897C217.302 91.6834 216.663 92.2813 215.864 92.6781C215.059 93.075 214.093 93.2705 212.971 93.2705C211.465 93.2648 210.32 92.9082 209.532 92.1951C208.75 91.4878 208.353 90.4641 208.348 89.13V87.4737H219.596C220.028 87.4737 220.35 87.3702 220.557 87.1689C220.77 86.9618 220.873 86.6629 220.873 86.2661V84.2647C220.873 82.8271 220.574 81.5791 219.987 80.5095C219.395 79.4456 218.521 78.6117 217.365 78.0252C216.209 77.4328 214.777 77.1338 213.075 77.1223C211.384 77.128 209.958 77.4156 208.796 77.9907C207.64 78.5715 206.766 79.4053 206.174 80.5037C205.576 81.6021 205.277 82.9363 205.277 84.5063V88.7849ZM217.802 85.0928H208.348V84.0923C208.348 83.1779 208.532 82.4015 208.888 81.7516C209.251 81.1076 209.785 80.6073 210.487 80.268C211.189 79.9229 212.051 79.7446 213.075 79.7446C214.616 79.7504 215.789 80.1299 216.589 80.8833C217.394 81.6308 217.796 82.7005 217.802 84.0923V85.0928ZM244.164 88.3363C243.801 87.5945 243.387 86.9906 242.927 86.5191C242.462 86.0533 241.955 85.714 241.403 85.5069L246.924 78.606C247.183 78.2782 247.269 78.0367 247.183 77.8756C247.097 77.7203 246.838 77.6398 246.407 77.6398H245.095C244.768 77.6341 244.509 77.6456 244.325 77.6686C244.135 77.6916 243.98 77.7491 243.853 77.8411C243.732 77.9274 243.606 78.0712 243.474 78.261L238.332 84.9203H238.022H235.296V78.468C235.302 78.1459 235.238 77.9274 235.112 77.8066C234.98 77.6916 234.755 77.6341 234.433 77.6398H233.053C232.731 77.6341 232.507 77.6916 232.375 77.8066C232.248 77.9274 232.185 78.1459 232.191 78.468V94.5818C232.185 94.9037 232.248 95.128 232.375 95.2603C232.507 95.3868 232.731 95.45 233.053 95.4443H234.433C234.755 95.45 234.98 95.3868 235.112 95.2603C235.238 95.128 235.302 94.9037 235.296 94.5818V87.7842H238.436C238.971 87.7842 239.431 87.8418 239.816 87.9683C240.201 88.0948 240.529 88.2961 240.805 88.5779C241.081 88.8539 241.329 89.222 241.541 89.682L243.922 94.6853C244.02 94.898 244.118 95.0647 244.221 95.174C244.319 95.2833 244.457 95.358 244.624 95.3926C244.796 95.4271 245.032 95.4443 245.337 95.4443H246.683C247.079 95.4443 247.315 95.3695 247.396 95.22C247.476 95.0647 247.407 94.8174 247.2 94.4782L244.164 88.3363ZM249.616 89.3714C249.621 90.7459 249.932 91.9249 250.547 92.9025C251.162 93.8859 252.042 94.6392 253.193 95.1682C254.343 95.6916 255.729 95.9561 257.345 95.9619C258.995 95.9561 260.398 95.6916 261.548 95.1682C262.704 94.6392 263.584 93.8859 264.194 92.9025C264.798 91.9249 265.102 90.7459 265.108 89.3714V83.7472C265.102 82.3612 264.798 81.1766 264.194 80.1875C263.584 79.204 262.704 78.445 261.548 77.9216C260.398 77.3925 258.995 77.128 257.345 77.1223C255.729 77.128 254.343 77.3925 253.193 77.9216C252.042 78.445 251.162 79.204 250.547 80.1875C249.932 81.1766 249.621 82.3612 249.616 83.7472V89.3714ZM262.037 89.3714C262.037 90.1651 261.847 90.8494 261.474 91.413C261.1 91.9766 260.565 92.4136 259.863 92.7127C259.168 93.0117 258.328 93.167 257.345 93.167C256.373 93.167 255.545 93.0117 254.849 92.7127C254.153 92.4136 253.624 91.9766 253.25 91.413C252.876 90.8494 252.692 90.1651 252.686 89.3714V83.7127C252.692 82.9133 252.876 82.2347 253.25 81.6711C253.624 81.1018 254.153 80.6705 254.849 80.3715C255.545 80.0724 256.373 79.9171 257.345 79.9171C258.328 79.9171 259.168 80.0724 259.863 80.3715C260.565 80.6705 261.1 81.1018 261.474 81.6711C261.847 82.2347 262.037 82.9133 262.037 83.7127V89.3714ZM281.498 77.6398C281.205 77.6341 280.998 77.6916 280.865 77.8066C280.733 77.9274 280.67 78.1459 280.67 78.468V84.9203H271.94V78.468C271.946 78.1459 271.888 77.9274 271.773 77.8066C271.653 77.6916 271.434 77.6341 271.112 77.6398H269.663C269.341 77.6341 269.122 77.6916 269.001 77.8066C268.887 77.9274 268.829 78.1459 268.835 78.468V94.6163C268.835 95.1682 269.111 95.4443 269.663 95.4443H271.112C271.434 95.45 271.653 95.3926 271.773 95.2775C271.888 95.1568 271.946 94.9382 271.94 94.6163V87.7842H280.67V94.6163C280.67 94.9382 280.733 95.1568 280.865 95.2775C280.998 95.3926 281.205 95.45 281.498 95.4443H282.947C283.24 95.45 283.447 95.3926 283.58 95.2775C283.712 95.1568 283.775 94.9382 283.775 94.6163V78.468C283.775 78.1459 283.712 77.9274 283.58 77.8066C283.447 77.6916 283.24 77.6341 282.947 77.6398H281.498ZM287.467 88.992C287.467 90.4699 287.749 91.7236 288.307 92.7644C288.865 93.7996 289.699 94.5875 290.814 95.1337C291.93 95.6801 293.322 95.9561 294.989 95.9619C298.888 95.9619 301.407 94.3747 302.546 91.2003C302.649 90.9242 302.649 90.6884 302.552 90.4986C302.448 90.3031 302.253 90.1478 301.959 90.027L300.752 89.682C300.435 89.5555 300.188 89.5382 300.021 89.6187C299.855 89.705 299.705 89.9062 299.579 90.2341C299.251 91.2348 298.716 91.9881 297.963 92.4884C297.215 92.9887 296.249 93.236 295.058 93.236C293.586 93.2245 292.476 92.868 291.717 92.1548C290.958 91.4418 290.578 90.4353 290.573 89.13V83.9197C290.578 82.62 290.958 81.6136 291.717 80.9121C292.476 80.2104 293.586 79.8539 295.058 79.8481C296.249 79.8481 297.215 80.0897 297.963 80.5727C298.704 81.0558 299.233 81.7804 299.544 82.7465C299.665 83.0571 299.82 83.2584 300.016 83.3446C300.205 83.4367 300.441 83.4194 300.717 83.2986L301.925 82.9191C302.218 82.8155 302.408 82.666 302.5 82.4763C302.586 82.2807 302.58 82.0391 302.477 81.7459C301.994 80.2104 301.148 79.0545 299.935 78.2839C298.727 77.5076 297.146 77.1223 295.196 77.1223C293.483 77.128 292.051 77.404 290.906 77.9447C289.762 78.491 288.905 79.2788 288.33 80.314C287.755 81.3434 287.467 82.5913 287.467 84.0578V88.992ZM318.487 77.6398C318.194 77.6341 317.987 77.6916 317.855 77.8066C317.722 77.9274 317.659 78.1459 317.659 78.468V91.7523C316.883 91.9938 316.124 92.1778 315.387 92.2986C314.646 92.4194 313.933 92.4769 313.242 92.4769C311.793 92.4769 310.706 92.1318 309.982 91.4475C309.257 90.7574 308.895 89.7337 308.895 88.3708V78.468C308.901 78.1747 308.837 77.9676 308.717 77.8354C308.596 77.7031 308.389 77.6398 308.101 77.6398H306.652C306.33 77.6341 306.112 77.6916 305.991 77.8066C305.876 77.9274 305.818 78.1459 305.824 78.468V88.4744C305.824 90.7517 306.41 92.4596 307.578 93.5983C308.751 94.7369 310.499 95.3063 312.828 95.3063C313.553 95.3063 314.318 95.243 315.129 95.1222C315.934 95.0015 316.779 94.8232 317.659 94.5818V96.445C317.659 97.9632 317.291 99.1019 316.549 99.861C315.813 100.62 314.709 101 313.242 101C312.259 101 311.414 100.81 310.701 100.425C309.993 100.045 309.412 99.4642 308.964 98.6878C308.832 98.5037 308.699 98.3715 308.578 98.291C308.452 98.2105 308.314 98.1817 308.164 98.1989C308.015 98.2105 307.831 98.2737 307.618 98.3772L306.617 98.9293C306.324 99.0846 306.146 99.2686 306.083 99.4814C306.019 99.6942 306.083 99.9472 306.272 100.241C306.945 101.414 307.86 102.294 309.027 102.88C310.189 103.467 311.603 103.76 313.277 103.76C318.246 103.76 320.73 101.276 320.73 96.3069V78.468C320.736 78.1459 320.678 77.9274 320.563 77.8066C320.442 77.6916 320.224 77.6341 319.902 77.6398H318.487ZM327.631 77.6398C327.309 77.6341 327.09 77.6916 326.97 77.8066C326.855 77.9274 326.797 78.1459 326.803 78.468V83.8508C326.803 85.645 326.717 87.1459 326.538 88.3536C326.354 89.5612 326.078 90.4756 325.699 91.0967C325.451 91.505 325.227 91.8213 325.02 92.0513C324.813 92.2813 324.594 92.4769 324.365 92.6264C324.135 92.7759 323.853 92.9312 323.525 93.098C323.335 93.2187 323.214 93.3568 323.163 93.5178C323.111 93.6731 323.128 93.8571 323.214 94.0641L323.939 95.4443C324.06 95.6686 324.198 95.8124 324.365 95.8814C324.525 95.9504 324.715 95.9446 324.94 95.8584C325.405 95.6341 325.825 95.3983 326.199 95.151C326.567 94.898 326.918 94.5932 327.246 94.2309C327.579 93.8686 327.913 93.4143 328.252 92.8564C328.77 92.0283 329.155 90.8725 329.414 89.4002C329.673 87.928 329.805 86.1453 329.805 84.0578V80.5037H336.464V94.6163C336.458 94.9382 336.516 95.1568 336.631 95.2775C336.752 95.3926 336.97 95.45 337.292 95.4443H338.707C339 95.45 339.207 95.3926 339.34 95.2775C339.472 95.1568 339.535 94.9382 339.535 94.6163V78.468C339.535 78.1459 339.472 77.9274 339.34 77.8066C339.207 77.6916 339 77.6341 338.707 77.6398H327.631ZM346.678 83.0226V78.468C346.683 78.1459 346.626 77.9274 346.511 77.8066C346.39 77.6916 346.172 77.6341 345.849 77.6398H344.4C344.078 77.6341 343.86 77.6916 343.739 77.8066C343.624 77.9274 343.566 78.1459 343.572 78.468V94.6163C343.566 94.9382 343.624 95.1568 343.739 95.2775C343.86 95.3926 344.078 95.45 344.4 95.4443H352.026C353.354 95.4386 354.493 95.1855 355.436 94.6909C356.379 94.1964 357.104 93.4833 357.61 92.5516C358.116 91.6201 358.369 90.5044 358.375 89.199C358.369 87.905 358.116 86.8008 357.61 85.8807C357.104 84.9606 356.379 84.2532 355.436 83.7645C354.493 83.2756 353.354 83.0283 352.026 83.0226H346.678ZM346.678 92.6839V85.8175H351.646C352.745 85.829 353.596 86.128 354.205 86.7203C354.815 87.3127 355.126 88.1351 355.131 89.199C355.126 90.2974 354.815 91.1485 354.205 91.7581C353.596 92.3676 352.745 92.6724 351.646 92.6839H346.678ZM360.618 77.6398C360.295 77.6341 360.077 77.6916 359.956 77.8066C359.841 77.9274 359.784 78.1459 359.789 78.468V79.6756C359.784 79.9689 359.841 80.1759 359.956 80.3082C360.077 80.4405 360.295 80.5037 360.618 80.5037H365.655V94.6163C365.65 94.9382 365.707 95.1568 365.822 95.2775C365.943 95.3926 366.161 95.45 366.483 95.4443H367.933C368.22 95.45 368.427 95.3926 368.548 95.2775C368.669 95.1568 368.732 94.9382 368.726 94.6163V80.5037H373.764C374.057 80.5037 374.264 80.4405 374.397 80.3082C374.529 80.1759 374.592 79.9689 374.592 79.6756V78.468C374.592 78.1459 374.529 77.9274 374.397 77.8066C374.264 77.6916 374.057 77.6341 373.764 77.6398H360.618ZM376.869 80.7453C376.731 81.0213 376.697 81.2571 376.772 81.4469C376.841 81.6423 377.025 81.7976 377.318 81.9184L378.388 82.4015C378.6 82.482 378.767 82.5222 378.882 82.5222C378.997 82.5222 379.101 82.482 379.193 82.3957C379.285 82.3037 379.394 82.1714 379.526 81.9874C379.958 81.2801 380.527 80.751 381.24 80.406C381.947 80.0552 382.804 79.8826 383.805 79.8826C384.811 79.8826 385.616 80.0436 386.22 80.3542C386.824 80.6705 387.255 81.1306 387.52 81.7401C387.784 82.3555 387.917 83.1031 387.911 83.9888V85.2999C387.221 85.2136 386.548 85.1504 385.892 85.1159C385.237 85.0756 384.598 85.0583 383.977 85.0583C382.131 85.0526 380.648 85.2251 379.515 85.576C378.382 85.9268 377.559 86.4961 377.042 87.2897C376.53 88.0891 376.277 89.1472 376.283 90.4756C376.283 91.4245 376.421 92.2468 376.691 92.937C376.967 93.6271 377.37 94.1849 377.905 94.6163C378.439 95.0647 379.204 95.3983 380.199 95.6226C381.194 95.8469 382.407 95.9619 383.839 95.9619C385.133 95.9619 386.272 95.8871 387.261 95.7318C388.244 95.5823 389.084 95.358 389.774 95.0647C390.096 94.9325 390.343 94.7887 390.528 94.6391C390.706 94.4897 390.832 94.2942 390.907 94.0527C390.982 93.8111 391.016 93.4948 391.016 93.098V84.0923C391.022 82.6488 390.792 81.4067 390.321 80.3657C389.849 79.3306 389.09 78.5312 388.043 77.9676C386.991 77.4098 385.605 77.128 383.874 77.1223C382.166 77.1223 380.728 77.4213 379.555 78.0252C378.388 78.629 377.49 79.5376 376.869 80.7453ZM387.911 92.2008C387.911 92.3906 387.871 92.5459 387.784 92.6724C387.698 92.7932 387.566 92.8909 387.393 92.96C386.6 93.236 385.323 93.374 383.563 93.374C382.499 93.374 381.665 93.2705 381.056 93.0577C380.446 92.8507 380.009 92.5286 379.756 92.1031C379.503 91.6718 379.382 91.1312 379.388 90.4756C379.382 89.797 379.515 89.245 379.785 88.8194C380.055 88.3938 380.498 88.0775 381.119 87.8762C381.746 87.675 382.58 87.5772 383.632 87.5772C384.133 87.5772 384.742 87.6002 385.461 87.652C386.18 87.698 386.996 87.767 387.911 87.8533V92.2008ZM409.614 92.5804V78.468C409.614 78.1459 409.551 77.9274 409.419 77.8066C409.287 77.6916 409.08 77.6341 408.786 77.6398H407.337C407.044 77.6341 406.837 77.6916 406.704 77.8066C406.572 77.9274 406.509 78.1459 406.509 78.468V92.5804H398.124V78.468C398.13 78.1459 398.073 77.9274 397.958 77.8066C397.837 77.6916 397.618 77.6341 397.296 77.6398H395.847C395.295 77.6398 395.019 77.9159 395.019 78.468V94.6163C395.013 94.9382 395.071 95.1568 395.186 95.2775C395.306 95.3926 395.525 95.45 395.847 95.4443H409.2V99.4124C409.2 99.7057 409.264 99.9128 409.396 100.045C409.528 100.177 409.741 100.241 410.028 100.241H411.374C411.696 100.241 411.915 100.177 412.036 100.045C412.151 99.9128 412.208 99.7057 412.202 99.4124V93.4431C412.208 93.121 412.151 92.8967 412.036 92.7644C411.915 92.6379 411.696 92.5746 411.374 92.5804H409.614Z" fill="#0B1922"/>
<path d="M415.756 77.6406C415.434 77.6349 415.216 77.6924 415.095 77.8074C414.98 77.9282 414.922 78.1467 414.928 78.4687V94.617C414.928 95.169 415.204 95.4451 415.756 95.4451H417.205C417.55 95.4451 417.826 95.3071 418.033 95.031L425.452 84.9211C425.849 84.3518 426.211 83.8054 426.533 83.2822C426.861 82.7589 427.143 82.247 427.384 81.7467H427.488C427.298 82.6438 427.16 83.472 427.068 84.2367C426.982 84.9959 426.936 85.6975 426.936 86.3359V94.617C426.93 94.939 426.987 95.1576 427.103 95.2783C427.223 95.3934 427.442 95.4508 427.764 95.4451H429.213C429.535 95.4508 429.754 95.3934 429.874 95.2783C429.989 95.1576 430.047 94.939 430.041 94.617V78.4687C430.047 78.1467 429.989 77.9282 429.874 77.8074C429.754 77.6924 429.535 77.6349 429.213 77.6406H427.764C427.591 77.6406 427.436 77.6751 427.304 77.7442C427.172 77.8132 427.057 77.9167 426.97 78.0547L419.448 88.2681C418.689 89.2687 418.068 90.3039 417.585 91.3736H417.481C417.671 90.6317 417.809 89.8898 417.901 89.1422C417.987 88.4004 418.033 87.647 418.033 86.8879V78.4687C418.039 78.1467 417.982 77.9282 417.867 77.8074C417.746 77.6924 417.527 77.6349 417.205 77.6406H415.756ZM435.148 77.6406C434.826 77.6349 434.607 77.6924 434.487 77.8074C434.372 77.9282 434.314 78.1467 434.32 78.4687V94.617C434.32 95.169 434.596 95.4451 435.148 95.4451H436.597C436.942 95.4451 437.218 95.3071 437.425 95.031L444.844 84.9211C445.241 84.3518 445.603 83.8054 445.925 83.2822C446.253 82.7589 446.534 82.247 446.776 81.7467H446.88C446.69 82.6438 446.552 83.472 446.46 84.2367C446.373 84.9959 446.327 85.6975 446.327 86.3359V94.617C446.322 94.939 446.379 95.1576 446.494 95.2783C446.615 95.3934 446.834 95.4508 447.156 95.4451H448.605C448.927 95.4508 449.145 95.3934 449.266 95.2783C449.381 95.1576 449.439 94.939 449.433 94.617V78.4687C449.439 78.1467 449.381 77.9282 449.266 77.8074C449.145 77.6924 448.927 77.6349 448.605 77.6406H447.156C446.983 77.6406 446.828 77.6751 446.695 77.7442C446.563 77.8132 446.448 77.9167 446.362 78.0547L438.84 88.2681C438.081 89.2687 437.46 90.3039 436.977 91.3736H436.873C437.063 90.6317 437.201 89.8898 437.293 89.1422C437.379 88.4004 437.425 87.647 437.425 86.8879V78.4687C437.431 78.1467 437.373 77.9282 437.258 77.8074C437.138 77.6924 436.919 77.6349 436.597 77.6406H435.148ZM461.027 89.3722C461.032 90.7467 461.343 91.9256 461.958 92.9033C462.573 93.8867 463.453 94.6399 464.603 95.169C465.754 95.6924 467.14 95.9569 468.756 95.9627C470.406 95.9569 471.809 95.6924 472.959 95.169C474.115 94.6399 474.995 93.8867 475.605 92.9033C476.209 91.9256 476.513 90.7467 476.519 89.3722V83.748C476.513 82.362 476.209 81.1773 475.605 80.1883C474.995 79.2048 474.115 78.4457 472.959 77.9224C471.809 77.3933 470.406 77.1288 468.756 77.1231C467.14 77.1288 465.754 77.3933 464.603 77.9224C463.453 78.4457 462.573 79.2048 461.958 80.1883C461.343 81.1773 461.032 82.362 461.027 83.748V89.3722ZM473.448 89.3722C473.448 90.1659 473.258 90.8502 472.885 91.4138C472.511 91.9773 471.976 92.4144 471.274 92.7135C470.579 93.0125 469.739 93.1678 468.756 93.1678C467.784 93.1678 466.956 93.0125 466.26 92.7135C465.564 92.4144 465.035 91.9773 464.661 91.4138C464.287 90.8502 464.103 90.1659 464.097 89.3722V83.7135C464.103 82.9141 464.287 82.2355 464.661 81.6719C465.035 81.1025 465.564 80.6713 466.26 80.3723C466.956 80.0732 467.784 79.9179 468.756 79.9179C469.739 79.9179 470.579 80.0732 471.274 80.3723C471.976 80.6713 472.511 81.1025 472.885 81.6719C473.258 82.2355 473.448 82.9141 473.448 83.7135V89.3722ZM492.909 77.6406C492.616 77.6349 492.409 77.6924 492.276 77.8074C492.144 77.9282 492.081 78.1467 492.081 78.4687V84.9211H483.351V78.4687C483.357 78.1467 483.299 77.9282 483.184 77.8074C483.064 77.6924 482.845 77.6349 482.523 77.6406H481.074C480.752 77.6349 480.533 77.6924 480.412 77.8074C480.297 77.9282 480.24 78.1467 480.246 78.4687V94.617C480.246 95.169 480.522 95.4451 481.074 95.4451H482.523C482.845 95.4508 483.064 95.3934 483.184 95.2783C483.299 95.1576 483.357 94.939 483.351 94.617V87.785H492.081V94.617C492.081 94.939 492.144 95.1576 492.276 95.2783C492.409 95.3934 492.616 95.4508 492.909 95.4451H494.358C494.651 95.4508 494.858 95.3934 494.991 95.2783C495.123 95.1576 495.186 94.939 495.186 94.617V78.4687C495.186 78.1467 495.123 77.9282 494.991 77.8074C494.858 77.6924 494.651 77.6349 494.358 77.6406H492.909ZM502.156 77.6406C501.834 77.6349 501.616 77.6924 501.495 77.8074C501.38 77.9282 501.322 78.1467 501.328 78.4687V83.8515C501.328 85.6458 501.242 87.1467 501.064 88.3544C500.88 89.562 500.604 90.4764 500.224 91.0975C499.977 91.5058 499.752 91.822 499.545 92.0521C499.338 92.2821 499.12 92.4777 498.89 92.6272C498.66 92.7767 498.378 92.932 498.05 93.0988C497.86 93.2195 497.74 93.3576 497.688 93.5186C497.636 93.6739 497.653 93.8579 497.74 94.0649L498.464 95.4451C498.585 95.6694 498.723 95.8132 498.89 95.8822C499.051 95.9512 499.241 95.9454 499.465 95.8592C499.931 95.6349 500.351 95.3991 500.724 95.1518C501.092 94.8988 501.443 94.5939 501.771 94.2316C502.104 93.8694 502.438 93.4151 502.777 92.8572C503.295 92.0291 503.68 90.8733 503.939 89.401C504.198 87.9288 504.33 86.1461 504.33 84.0585V80.5045H510.99V94.617C510.984 94.939 511.041 95.1576 511.156 95.2783C511.277 95.3934 511.496 95.4508 511.818 95.4451H513.232C513.526 95.4508 513.733 95.3934 513.865 95.2783C513.997 95.1576 514.06 94.939 514.06 94.617V78.4687C514.06 78.1467 513.997 77.9282 513.865 77.8074C513.733 77.6924 513.526 77.6349 513.232 77.6406H502.156ZM517.752 80.7461C517.614 81.022 517.58 81.2578 517.655 81.4476C517.724 81.6431 517.908 81.7984 518.201 81.9192L519.271 82.4023C519.483 82.4828 519.65 82.523 519.765 82.523C519.88 82.523 519.984 82.4828 520.076 82.3965C520.168 82.3045 520.277 82.1722 520.409 81.9882C520.841 81.2808 521.41 80.7518 522.123 80.4068C522.83 80.056 523.687 79.8834 524.688 79.8834C525.694 79.8834 526.499 80.0444 527.103 80.355C527.707 80.6713 528.138 81.1313 528.403 81.7409C528.667 82.3563 528.8 83.1039 528.794 83.9895V85.3007C528.104 85.2144 527.431 85.1512 526.775 85.1167C526.12 85.0764 525.481 85.0591 524.86 85.0591C523.014 85.0534 521.531 85.2259 520.398 85.5768C519.265 85.9276 518.443 86.4968 517.925 87.2905C517.413 88.0899 517.16 89.1479 517.166 90.4764C517.166 91.4253 517.304 92.2476 517.574 92.9378C517.85 93.6279 518.253 94.1857 518.788 94.617C519.322 95.0655 520.087 95.3991 521.082 95.6234C522.077 95.8477 523.29 95.9627 524.722 95.9627C526.016 95.9627 527.155 95.8879 528.144 95.7326C529.128 95.5831 529.967 95.3588 530.657 95.0655C530.979 94.9333 531.227 94.7895 531.411 94.6399C531.589 94.4904 531.715 94.2949 531.79 94.0535C531.865 93.8119 531.899 93.4956 531.899 93.0988V84.093C531.905 82.6496 531.675 81.4074 531.204 80.3665C530.732 79.3314 529.973 78.5319 528.926 77.9684C527.874 77.4106 526.488 77.1288 524.757 77.1231C523.049 77.1231 521.611 77.4221 520.438 78.026C519.271 78.6297 518.374 79.5384 517.752 80.7461ZM528.794 92.2016C528.794 92.3914 528.754 92.5467 528.667 92.6732C528.581 92.794 528.449 92.8917 528.276 92.9608C527.483 93.2368 526.206 93.3748 524.446 93.3748C523.382 93.3748 522.549 93.2713 521.939 93.0585C521.329 92.8515 520.892 92.5294 520.639 92.1039C520.386 91.6725 520.266 91.132 520.271 90.4764C520.266 89.7978 520.398 89.2457 520.668 88.8202C520.938 88.3946 521.381 88.0783 522.002 87.877C522.629 87.6758 523.463 87.578 524.515 87.578C525.016 87.578 525.625 87.601 526.344 87.6528C527.063 87.6988 527.88 87.7678 528.794 87.8541V92.2016ZM548.91 71.5333C548.962 71.3607 548.962 71.2112 548.905 71.0904C548.841 70.9639 548.721 70.8604 548.531 70.7741L547.323 70.3256C546.978 70.2221 546.736 70.3256 546.598 70.6361C546.15 72.1544 545.149 72.9135 543.596 72.9135C542.82 72.9135 542.188 72.7237 541.699 72.3441C541.21 71.9646 540.853 71.3952 540.629 70.6361C540.56 70.4808 540.457 70.3831 540.319 70.3429C540.181 70.3026 540.008 70.3084 539.801 70.3602L538.731 70.7741C538.542 70.8259 538.421 70.9179 538.358 71.0502C538.3 71.1824 538.3 71.3435 538.352 71.5333C538.749 72.7582 539.381 73.6725 540.25 74.2821C541.118 74.886 542.234 75.1908 543.596 75.1908C544.977 75.1908 546.11 74.886 546.99 74.2821C547.875 73.6725 548.514 72.7582 548.91 71.5333ZM536.73 77.6406C536.408 77.6349 536.189 77.6924 536.069 77.8074C535.954 77.9282 535.896 78.1467 535.902 78.4687V94.617C535.902 95.169 536.178 95.4451 536.73 95.4451H538.179C538.524 95.4451 538.8 95.3071 539.007 95.031L546.426 84.9211C546.823 84.3518 547.185 83.8054 547.507 83.2822C547.835 82.7589 548.117 82.247 548.358 81.7467H548.462C548.272 82.6438 548.134 83.472 548.042 84.2367C547.956 84.9959 547.91 85.6975 547.91 86.3359V94.617C547.904 94.939 547.961 95.1576 548.076 95.2783C548.197 95.3934 548.416 95.4508 548.738 95.4451H550.187C550.509 95.4508 550.728 95.3934 550.848 95.2783C550.963 95.1576 551.021 94.939 551.015 94.617V78.4687C551.021 78.1467 550.963 77.9282 550.848 77.8074C550.728 77.6924 550.509 77.6349 550.187 77.6406H548.738C548.565 77.6406 548.41 77.6751 548.278 77.7442C548.145 77.8132 548.03 77.9167 547.944 78.0547L540.422 88.2681C539.663 89.2687 539.042 90.3039 538.559 91.3736H538.455C538.645 90.6317 538.783 89.8898 538.875 89.1422C538.961 88.4004 539.007 87.647 539.007 86.8879V78.4687C539.013 78.1467 538.956 77.9282 538.841 77.8074C538.72 77.6924 538.501 77.6349 538.179 77.6406H536.73ZM567.957 77.6406C567.664 77.6349 567.457 77.6924 567.324 77.8074C567.192 77.9282 567.129 78.1467 567.129 78.4687V84.9211H558.399V78.4687C558.405 78.1467 558.347 77.9282 558.232 77.8074C558.112 77.6924 557.893 77.6349 557.571 77.6406H556.122C555.8 77.6349 555.581 77.6924 555.46 77.8074C555.345 77.9282 555.288 78.1467 555.294 78.4687V94.617C555.294 95.169 555.57 95.4451 556.122 95.4451H557.571C557.893 95.4508 558.112 95.3934 558.232 95.2783C558.347 95.1576 558.405 94.939 558.399 94.617V87.785H567.129V94.617C567.129 94.939 567.192 95.1576 567.324 95.2783C567.457 95.3934 567.664 95.4508 567.957 95.4451H569.406C569.7 95.4508 569.906 95.3934 570.039 95.2783C570.171 95.1576 570.234 94.939 570.234 94.617V78.4687C570.234 78.1467 570.171 77.9282 570.039 77.8074C569.906 77.6924 569.7 77.6349 569.406 77.6406H567.957Z" fill="#0B1922"/>
<path fill-rule="evenodd" clip-rule="evenodd" d="M34.6287 7.10787C32.679 2.86623 29.9492 0.745611 26.4396 0.51842C21.4478 0.51822 16.4564 0.518319 11.9327 0.518519C8.73527 4.30548 4.75762 9.30429 0 15.5149C6.34946 15.4675 13.2334 15.0353 20.2658 15.8006C25.9084 16.4147 30.5683 18.3408 33.9268 22.1043C34.3948 16.1209 34.4727 11.1976 34.6287 7.10787Z" fill="#115B82"/>
<path fill-rule="evenodd" clip-rule="evenodd" d="M34.6287 7.10787C32.679 2.86623 29.9492 0.745611 26.4396 0.51842C21.4478 0.51822 16.4564 0.518319 11.9327 0.518519C8.73527 4.30548 4.75762 9.30429 0 15.5149C6.34946 15.4675 13.2334 15.0353 20.2658 15.8006C25.9084 16.4147 30.5683 18.3408 33.9268 22.1043C34.3948 16.1209 34.4727 11.1976 34.6287 7.10787Z" fill="#115B82"/>
<path fill-rule="evenodd" clip-rule="evenodd" d="M14.4837 18.4127V65.8735H33.8655V26.506C28.7836 20.3968 22.166 18.7315 14.4837 18.4127Z" fill="#115B82"/>
<path fill-rule="evenodd" clip-rule="evenodd" d="M14.4837 18.4127V65.8735H33.8655V26.506C28.7836 20.3968 22.166 18.7315 14.4837 18.4127Z" fill="#115B82"/>
<path fill-rule="evenodd" clip-rule="evenodd" d="M79.4791 65.2316C70.751 65.9653 60.9298 67.0325 52.7791 63.04C48.1746 60.7846 44.5168 57.595 41.8489 53.4714C36.2268 44.7809 35.2844 24.9782 41.2089 14.2005C42.7528 11.3917 44.9339 9.24575 47.5044 7.37302C53.9056 2.7071 62.5156 0.249091 73.3341 0C61.8466 9.11436 56.9618 15.8332 56.1095 26.0325C55.6384 31.6717 55.2661 42.3986 60.0217 46.2393C61.2384 47.2216 62.6468 48.0557 64.241 48.6165C72.2449 51.4318 85.0872 49.9166 92.4782 49.1602C87.673 57.1955 82.7093 62.7107 79.4791 65.2316Z" fill="#115B82"/>
<path fill-rule="evenodd" clip-rule="evenodd" d="M79.4791 65.2316C70.751 65.9653 60.9298 67.0325 52.7791 63.04C48.1746 60.7846 44.5168 57.595 41.8489 53.4714C36.2268 44.7809 35.2844 24.9782 41.2089 14.2005C42.7528 11.3917 44.9339 9.24575 47.5044 7.37302C53.9056 2.7071 62.5156 0.249091 73.3341 0C61.8466 9.11436 56.9618 15.8332 56.1095 26.0325C55.6384 31.6717 55.2661 42.3986 60.0217 46.2393C61.2384 47.2216 62.6468 48.0557 64.241 48.6165C72.2449 51.4318 85.0872 49.9166 92.4782 49.1602C87.673 57.1955 82.7093 62.7107 79.4791 65.2316Z" fill="#115B82"/>
<path fill-rule="evenodd" clip-rule="evenodd" d="M140.511 1.05443C149.239 0.32076 159.06 -0.7465 167.211 3.24605C171.816 5.50146 175.473 8.69104 178.141 12.8147C183.763 21.5052 184.706 41.3079 178.781 52.0856C177.237 54.8944 175.056 57.0403 172.486 58.9131C166.085 63.579 157.474 66.037 146.656 66.2861C158.144 57.1717 163.028 50.4529 163.881 40.2536C164.352 34.6143 164.724 23.8875 159.968 20.0468C158.752 19.0645 157.343 18.2304 155.749 17.6696C147.745 14.8543 134.903 16.3695 127.512 17.1258C132.317 9.09053 137.281 3.57534 140.511 1.05443Z" fill="#115B82"/>
<path fill-rule="evenodd" clip-rule="evenodd" d="M140.511 1.05443C149.239 0.32076 159.06 -0.7465 167.211 3.24605C171.816 5.50146 175.473 8.69104 178.141 12.8147C183.763 21.5052 184.706 41.3079 178.781 52.0856C177.237 54.8944 175.056 57.0403 172.486 58.9131C166.085 63.579 157.474 66.037 146.656 66.2861C158.144 57.1717 163.028 50.4529 163.881 40.2536C164.352 34.6143 164.724 23.8875 159.968 20.0468C158.752 19.0645 157.343 18.2304 155.749 17.6696C147.745 14.8543 134.903 16.3695 127.512 17.1258C132.317 9.09053 137.281 3.57534 140.511 1.05443Z" fill="#115B82"/>
<path fill-rule="evenodd" clip-rule="evenodd" d="M83.497 65.7047C92.6758 58.0418 98.4283 49.5595 99.7899 38.3089C100.192 34.9884 100.138 31.6293 100.457 28.2981C101.08 21.7935 102.676 15.2404 107.577 10.2845C113.548 4.24618 122.46 1.21109 135.73 0.236328C124.783 10.0506 120.771 18.0638 119.176 30.5111C118.789 33.536 118.716 36.6025 118.22 39.6101C115.428 56.523 101.533 66.4387 83.497 65.7047Z" fill="#115B82"/>
<path fill-rule="evenodd" clip-rule="evenodd" d="M83.497 65.7047C92.6758 58.0418 98.4283 49.5595 99.7899 38.3089C100.192 34.9884 100.138 31.6293 100.457 28.2981C101.08 21.7935 102.676 15.2404 107.577 10.2845C113.548 4.24618 122.46 1.21109 135.73 0.236328C124.783 10.0506 120.771 18.0638 119.176 30.5111C118.789 33.536 118.716 36.6025 118.22 39.6101C115.428 56.523 101.533 66.4387 83.497 65.7047Z" fill="#115B82"/>
<path fill-rule="evenodd" clip-rule="evenodd" d="M97.0306 21.5769C94.1287 19.238 91.5779 18.0988 88.8117 17.4014C80.9073 15.4085 71.6252 16.5671 63.1051 16.8308C67.8511 8.45203 72.7729 3.17863 77.6948 0.48333C81.8009 0.340436 85.6676 0.349936 89.3349 0.551529C93.587 0.78522 97.0388 1.2684 100.982 2.89714C103.553 3.9594 105.166 4.97116 105.82 5.93253C100.956 10.5614 98.0268 15.8348 97.0306 21.5769Z" fill="#115B82"/>
<path fill-rule="evenodd" clip-rule="evenodd" d="M97.0306 21.5769C94.1287 19.238 91.5779 18.0988 88.8117 17.4014C80.9073 15.4085 71.6252 16.5671 63.1051 16.8308C67.8511 8.45203 72.7729 3.17863 77.6948 0.48333C81.8009 0.340436 85.6676 0.349936 89.3349 0.551529C93.587 0.78522 97.0388 1.2684 100.982 2.89714C103.553 3.9594 105.166 4.97116 105.82 5.93253C100.956 10.5614 98.0268 15.8348 97.0306 21.5769Z" fill="#115B82"/>
<path fill-rule="evenodd" clip-rule="evenodd" d="M120.788 44.7091C123.768 47.0479 126.387 48.1872 129.227 48.8847C137.343 50.8776 146.874 49.7189 155.622 49.4552C150.749 57.834 145.695 63.1074 140.642 65.8027C136.426 65.9456 132.455 65.936 128.69 65.7345C124.324 65.5008 120.78 65.0176 116.731 63.3888C114.091 62.3266 112.435 61.3149 111.764 60.3535C116.757 55.7247 119.765 50.4512 120.788 44.7091Z" fill="#115B82"/>
<path fill-rule="evenodd" clip-rule="evenodd" d="M120.788 44.7091C123.768 47.0479 126.387 48.1872 129.227 48.8847C137.343 50.8776 146.874 49.7189 155.622 49.4552C150.749 57.834 145.695 63.1074 140.642 65.8027C136.426 65.9456 132.455 65.936 128.69 65.7345C124.324 65.5008 120.78 65.0176 116.731 63.3888C114.091 62.3266 112.435 61.3149 111.764 60.3535C116.757 55.7247 119.765 50.4512 120.788 44.7091Z" fill="#115B82"/>
</svg>
