<svg width="77" height="48" viewBox="0 0 77 48" fill="none" xmlns="http://www.w3.org/2000/svg">
<path d="M75.2 0H1.60005C0.71685 0 0 0.71685 0 1.60005C0 2.48325 0.71685 3.2001 1.60005 3.2001H75.2001C76.0833 3.2001 76.8001 2.48325 76.8001 1.60005C76.8001 0.71685 76.0832 0 75.2 0Z" fill="white"/>
<path d="M75.2 22.3999H1.60005C0.71685 22.3999 0 23.1168 0 24C0 24.8832 0.71685 25.6 1.60005 25.6H75.2001C76.0833 25.6 76.8001 24.8832 76.8001 24C76.8001 23.1168 76.0832 22.3999 75.2 22.3999Z" fill="white"/>
<path d="M75.2 44.8H1.60005C0.71685 44.8 0 45.5168 0 46.4C0 47.2832 0.71685 48 1.60005 48H75.2001C76.0833 48 76.8001 47.2832 76.8001 46.4C76.8 45.5168 76.0832 44.8 75.2 44.8Z" fill="white"/>
</svg>
