<svg width="19" height="19" viewBox="0 0 19 19" fill="none" xmlns="http://www.w3.org/2000/svg">
<path d="M9.5 0C9.27686 0 9.09573 0.181094 9.09573 0.40427C9.09573 0.627408 9.27682 0.808539 9.5 0.808539C14.2925 0.808539 18.1915 4.70758 18.1915 9.50004C18.1915 14.2925 14.2925 18.1915 9.5 18.1915C4.70755 18.1915 0.808502 14.2925 0.808502 9.5C0.808502 9.27686 0.627408 9.09573 0.404232 9.09573C0.181094 9.09573 0 9.27686 0 9.5C0 14.7383 4.26168 19 9.5 19C14.7383 19 19 14.7383 19 9.5C19 4.26168 14.7383 0 9.5 0Z" fill="#017052"/>
<path d="M9.49995 3.03191C9.27682 3.03191 9.09568 3.213 9.09568 3.43618V9.09576H5.45737C5.23423 9.09576 5.0531 9.27686 5.0531 9.50003C5.0531 9.72317 5.23419 9.9043 5.45737 9.9043H9.49995C9.72309 9.9043 9.90422 9.72321 9.90422 9.50003V3.43618C9.90422 3.213 9.72309 3.03191 9.49995 3.03191Z" fill="#017052"/>
</svg>
