<svg width="178" height="44" viewBox="0 0 178 44" fill="none" xmlns="http://www.w3.org/2000/svg">
<path d="M11.3667 11.2394L12.9413 2.38227H15.4016L13.8762 11.2394H11.3667Z" fill="#3C58BF"/>
<path d="M11.3667 11.2394L13.3842 2.38227H15.4016L13.8762 11.2394H11.3667Z" fill="#293688"/>
<path d="M22.7825 2.48069C22.2904 2.28386 21.5031 2.08704 20.519 2.08704C18.0587 2.08704 16.2872 3.31719 16.2872 5.08862C16.2872 6.41719 17.5174 7.10608 18.5015 7.54894C19.4857 7.9918 19.7809 8.28703 19.7809 8.68069C19.7809 9.27116 18.9936 9.5664 18.3047 9.5664C17.3206 9.5664 16.7793 9.41878 15.9428 9.07434L15.5984 8.92672L15.2539 10.9442C15.8444 11.1902 16.9269 11.4362 18.0587 11.4362C20.6666 11.4362 22.3888 10.2061 22.3888 8.33624C22.3888 7.30291 21.7491 6.51561 20.273 5.87592C19.3872 5.43307 18.846 5.18704 18.846 4.74418C18.846 4.35053 19.2888 3.95688 20.273 3.95688C21.1095 3.95688 21.6999 4.1045 22.1428 4.30132L22.3888 4.39973L22.7825 2.48069Z" fill="#3C58BF"/>
<path d="M22.7825 2.48069C22.2904 2.28386 21.5031 2.08704 20.519 2.08704C18.0587 2.08704 16.7301 3.31719 16.7301 5.08862C16.7301 6.41719 17.5174 7.10608 18.5015 7.54894C19.4857 7.9918 19.7809 8.28703 19.7809 8.68069C19.7809 9.27116 18.9936 9.5664 18.3047 9.5664C17.3206 9.5664 16.7793 9.41878 15.9428 9.07434L15.5984 8.92672L15.2539 10.9442C15.8444 11.1902 16.9269 11.4362 18.0587 11.4362C20.6666 11.4362 22.3888 10.2061 22.3888 8.33624C22.3888 7.30291 21.7491 6.51561 20.273 5.87592C19.3872 5.43307 18.846 5.18704 18.846 4.74418C18.846 4.35053 19.2888 3.95688 20.273 3.95688C21.1095 3.95688 21.6999 4.1045 22.1428 4.30132L22.3888 4.39973L22.7825 2.48069Z" fill="#293688"/>
<path d="M27.0143 2.38227C26.4238 2.38227 25.9809 2.43148 25.7349 3.02195L22.0444 11.2394H24.7016L25.1936 9.76322H28.3428L28.6381 11.2394H31L28.9333 2.38227H27.0143ZM25.8825 8.28703C26.0301 7.84418 26.8667 5.6791 26.8667 5.6791C26.8667 5.6791 27.0635 5.13783 27.2111 4.79338L27.3587 5.62989C27.3587 5.62989 27.8508 7.84418 27.9492 8.33624H25.8825V8.28703Z" fill="#3C58BF"/>
<path d="M27.6048 2.38227C27.0143 2.38227 26.5714 2.43148 26.3254 3.02195L22.0444 11.2394H24.7016L25.1936 9.76322H28.3428L28.6381 11.2394H31L28.9333 2.38227H27.6048ZM25.8825 8.28703C26.0794 7.79497 26.8667 5.6791 26.8667 5.6791C26.8667 5.6791 27.0635 5.13783 27.2111 4.79338L27.3587 5.62989C27.3587 5.62989 27.8508 7.84418 27.9492 8.33624H25.8825V8.28703Z" fill="#293688"/>
<path d="M6.83965 8.58227L6.59361 7.3029C6.15076 5.82671 4.72377 4.2029 3.14917 3.4156L5.36346 11.2886H8.0206L12.0063 2.43147H9.34917L6.83965 8.58227Z" fill="#3C58BF"/>
<path d="M6.83965 8.58227L6.59361 7.3029C6.15076 5.82671 4.72377 4.2029 3.14917 3.4156L5.36346 11.2886H8.0206L12.0063 2.43147H9.84123L6.83965 8.58227Z" fill="#293688"/>
<path d="M0 2.38227L0.442857 2.48068C3.59206 3.21878 5.75714 5.08862 6.59365 7.30291L5.70794 3.12037C5.56032 2.52989 5.11746 2.38227 4.57619 2.38227H0Z" fill="#FFBC00"/>
<path d="M0 2.38227C3.14921 3.12037 5.75714 5.03941 6.59365 7.2537L5.75714 3.76005C5.60952 3.16957 5.11746 2.82513 4.57619 2.82513L0 2.38227Z" fill="#F7981D"/>
<path d="M0 2.38227C3.14921 3.12037 5.75714 5.03941 6.59365 7.2537L6.00317 5.33465C5.85555 4.74418 5.65873 4.1537 4.96984 3.90767L0 2.38227Z" fill="#ED7C00"/>
<path d="M9.29995 8.28703L7.62694 6.61401L6.83963 8.48385L6.64281 7.2537C6.19995 5.77751 4.77297 4.1537 3.19836 3.36639L5.41265 11.2394H8.06979L9.29995 8.28703Z" fill="#051244"/>
<path d="M13.8762 11.2394L11.7603 9.07433L11.3667 11.2394H13.8762Z" fill="#051244"/>
<path d="M19.5349 8.18861C19.7317 8.38544 19.8301 8.53306 19.7809 8.72988C19.7809 9.32036 18.9936 9.6156 18.3047 9.6156C17.3206 9.6156 16.7793 9.46798 15.9428 9.12354L15.5984 8.97592L15.2539 10.9934C15.8444 11.2394 16.9269 11.4854 18.0587 11.4854C19.6333 11.4854 20.9126 11.0426 21.6507 10.2553L19.5349 8.18861Z" fill="#051244"/>
<path d="M22.3889 11.2394H24.7016L25.1937 9.76322H28.3429L28.6381 11.2394H31L30.1635 7.64735L27.2111 4.79338L27.3588 5.58068C27.3588 5.58068 27.8508 7.79497 27.9492 8.28703H25.8826C26.0794 7.79497 26.8667 5.67909 26.8667 5.67909C26.8667 5.67909 27.0635 5.13783 27.2111 4.79338" fill="#051244"/>
<path d="M66 7.68704C66 11.3188 63.0667 14.287 59.4 14.287C55.7683 14.287 52.8 11.3188 52.8 7.68704C52.8 4.05529 55.7334 1.08704 59.3651 1.08704C63.0667 1.08704 66 4.05529 66 7.68704Z" fill="#FFB600"/>
<path d="M59.4 1.08704C63.0318 1.08704 66 4.05529 66 7.68704C66 11.3188 63.0667 14.287 59.4 14.287C55.7683 14.287 52.8 11.3188 52.8 7.68704" fill="#F7981D"/>
<path d="M59.4 1.08704C63.0318 1.08704 66 4.05529 66 7.68704C66 11.3188 63.0667 14.287 59.4 14.287" fill="#FF8500"/>
<path d="M50.5302 1.08704C46.9333 1.12196 44 4.05529 44 7.68704C44 11.3188 46.9333 14.287 50.6 14.287C52.3111 14.287 53.8476 13.6235 55.0349 12.5759C55.2794 12.3664 55.4889 12.122 55.6984 11.8775H54.3365C54.1619 11.668 53.9873 11.4235 53.8476 11.214H56.1873C56.327 11.0045 56.4667 10.76 56.5714 10.5156H53.4635C53.3587 10.3061 53.254 10.0616 53.1841 9.81719H56.8159C57.0254 9.1537 57.1651 8.45529 57.1651 7.72196C57.1651 7.23307 57.0952 6.7791 57.0254 6.32513H52.9746C53.0095 6.08069 53.0794 5.87116 53.1492 5.62672H56.7809C56.7111 5.38227 56.6063 5.13783 56.5016 4.92831H53.4286C53.5333 4.68386 53.673 4.47434 53.8127 4.22989H56.1524C56.0127 3.98545 55.8381 3.741 55.6286 3.53148H54.3365C54.546 3.28704 54.7556 3.07751 55 2.86799C53.8476 1.78545 52.2762 1.15688 50.5651 1.15688C50.5651 1.08704 50.5651 1.08704 50.5302 1.08704Z" fill="#FF5050"/>
<path d="M44 7.68705C44 11.3188 46.9333 14.287 50.6 14.287C52.3111 14.287 53.8476 13.6236 55.0349 12.5759C55.2794 12.3664 55.4889 12.122 55.6984 11.8775H54.3365C54.1619 11.668 53.9873 11.4236 53.8476 11.214H56.1873C56.327 11.0045 56.4667 10.7601 56.5714 10.5156H53.4635C53.3587 10.3061 53.254 10.0617 53.1841 9.81721H56.8159C57.0254 9.15372 57.1651 8.4553 57.1651 7.72197C57.1651 7.23308 57.0952 6.77911 57.0254 6.32514H52.9746C53.0095 6.0807 53.0794 5.87118 53.1492 5.62673H56.7809C56.7111 5.38229 56.6063 5.13784 56.5016 4.92832H53.4286C53.5333 4.68387 53.673 4.47435 53.8127 4.22991H56.1524C56.0127 3.98546 55.8381 3.74102 55.6286 3.53149H54.3365C54.546 3.28705 54.7556 3.07753 55 2.868C53.8476 1.78546 52.2762 1.15689 50.5651 1.15689H50.5302" fill="#E52836"/>
<path d="M50.6 14.287C52.3111 14.287 53.8476 13.6236 55.0349 12.5759C55.2794 12.3664 55.4889 12.122 55.6984 11.8775H54.3365C54.1619 11.668 53.9873 11.4236 53.8476 11.214H56.1873C56.327 11.0045 56.4667 10.7601 56.5714 10.5156H53.4635C53.3587 10.3061 53.254 10.0617 53.1841 9.81721H56.8159C57.0254 9.15372 57.1651 8.4553 57.1651 7.72197C57.1651 7.23308 57.0952 6.77911 57.0254 6.32514H52.9746C53.0095 6.0807 53.0794 5.87118 53.1492 5.62673H56.7809C56.7111 5.38229 56.6063 5.13784 56.5016 4.92832H53.4286C53.5333 4.68387 53.673 4.47435 53.8127 4.22991H56.1524C56.0127 3.98546 55.8381 3.74102 55.6286 3.53149H54.3365C54.546 3.28705 54.7555 3.07753 55 2.868C53.8476 1.78546 52.2762 1.15689 50.5651 1.15689H50.5302" fill="#CB2026"/>
<path d="M52.9397 9.36324L53.0445 8.76959C53.0095 8.76959 52.9397 8.80451 52.8699 8.80451C52.6254 8.80451 52.5905 8.66482 52.6254 8.59498L52.8349 7.37276H53.2191L53.3238 6.70927H52.9746L53.0445 6.29022H52.346C52.346 6.29022 51.927 8.59498 51.927 8.87435C51.927 9.2934 52.1714 9.468 52.4857 9.468C52.6953 9.468 52.8699 9.39816 52.9397 9.36324Z" fill="white"/>
<path d="M53.1841 8.24576C53.1841 9.22354 53.8476 9.46798 54.4063 9.46798C54.9301 9.46798 55.1396 9.36322 55.1396 9.36322L55.2793 8.69973C55.2793 8.69973 54.8952 8.87433 54.546 8.87433C53.7777 8.87433 53.9174 8.3156 53.9174 8.3156H55.3492C55.3492 8.3156 55.4539 7.86164 55.4539 7.68703C55.4539 7.23306 55.2095 6.67433 54.4412 6.67433C53.7079 6.60449 53.1841 7.37275 53.1841 8.24576ZM54.4063 7.23306C54.7904 7.23306 54.7206 7.68703 54.7206 7.72195H53.9523C53.9523 7.68703 54.0222 7.23306 54.4063 7.23306Z" fill="white"/>
<path d="M58.8413 9.36323L58.981 8.59498C58.981 8.59498 58.6318 8.76958 58.3873 8.76958C57.8984 8.76958 57.6889 8.38545 57.6889 7.9664C57.6889 7.12831 58.108 6.67434 58.5968 6.67434C58.9461 6.67434 59.2254 6.88387 59.2254 6.88387L59.3302 6.15053C59.3302 6.15053 58.9111 5.97593 58.527 5.97593C57.7238 5.97593 56.9207 6.67434 56.9207 8.00133C56.9207 8.87434 57.3397 9.46799 58.1778 9.46799C58.4572 9.46799 58.8413 9.36323 58.8413 9.36323Z" fill="white"/>
<path d="M49.0983 6.60452C48.6095 6.60452 48.2603 6.7442 48.2603 6.7442L48.1555 7.33785C48.1555 7.33785 48.4698 7.19817 48.9237 7.19817C49.1682 7.19817 49.3777 7.23309 49.3777 7.44261C49.3777 7.58229 49.3428 7.61721 49.3428 7.61721C49.3428 7.61721 49.1333 7.61721 49.0285 7.61721C48.4349 7.61721 47.7714 7.86166 47.7714 8.66483C47.7714 9.2934 48.1904 9.43309 48.4349 9.43309C48.9237 9.43309 49.1333 9.1188 49.1682 9.1188L49.1333 9.39817H49.7618L50.0412 7.47753C50.0412 6.63944 49.3428 6.60452 49.0983 6.60452ZM49.238 8.17594C49.238 8.28071 49.1682 8.83944 48.7491 8.83944C48.5396 8.83944 48.4698 8.66483 48.4698 8.56007C48.4698 8.38547 48.5745 8.14102 49.0983 8.14102C49.2031 8.17594 49.238 8.17594 49.238 8.17594Z" fill="white"/>
<path d="M50.7048 9.43308C50.8794 9.43308 51.7524 9.468 51.7524 8.52514C51.7524 7.65213 50.9143 7.82673 50.9143 7.47752C50.9143 7.30292 51.054 7.23308 51.2984 7.23308C51.4032 7.23308 51.7873 7.268 51.7873 7.268L51.8921 6.63943C51.8921 6.63943 51.6476 6.56959 51.2286 6.56959C50.7048 6.56959 50.181 6.77911 50.181 7.47752C50.181 8.2807 51.054 8.21086 51.054 8.52514C51.054 8.73467 50.8095 8.76959 50.6349 8.76959C50.3207 8.76959 50.0064 8.66483 50.0064 8.66483L49.9016 9.2934C49.9365 9.36324 50.1111 9.43308 50.7048 9.43308Z" fill="white"/>
<path d="M64.6382 6.04578L64.4985 6.98864C64.4985 6.98864 64.2191 6.63943 63.835 6.63943C63.2064 6.63943 62.6477 7.40769 62.6477 8.31563C62.6477 8.87436 62.9271 9.46801 63.5207 9.46801C63.9398 9.46801 64.1842 9.18864 64.1842 9.18864L64.1493 9.43309H64.8477L65.3715 6.0807L64.6382 6.04578ZM64.3239 7.89658C64.3239 8.2807 64.1493 8.76959 63.7652 8.76959C63.5207 8.76959 63.381 8.56007 63.381 8.21086C63.381 7.65213 63.6255 7.30293 63.9398 7.30293C64.1842 7.30293 64.3239 7.47753 64.3239 7.89658Z" fill="white"/>
<path d="M45.292 9.39817L45.7111 6.88388L45.7809 9.39817H46.2698L47.1777 6.88388L46.7936 9.39817H47.527L48.0857 6.04578H46.9333L46.2349 8.1061L46.2 6.04578H45.1873L44.6285 9.39817H45.292Z" fill="white"/>
<path d="M56.1175 9.39813C56.327 8.24575 56.3619 7.3029 56.8508 7.4775C56.9207 7.02353 57.0254 6.84893 57.0953 6.67432C57.0953 6.67432 57.0604 6.67432 56.9556 6.67432C56.6413 6.67432 56.3969 7.09337 56.3969 7.09337L56.4667 6.70924H55.8032L55.3492 9.43305H56.1175V9.39813Z" fill="white"/>
<path d="M60.4476 6.60452C59.9587 6.60452 59.6095 6.7442 59.6095 6.7442L59.5047 7.33785C59.5047 7.33785 59.819 7.19817 60.273 7.19817C60.5174 7.19817 60.727 7.23309 60.727 7.44261C60.727 7.58229 60.692 7.61721 60.692 7.61721C60.692 7.61721 60.4825 7.61721 60.3777 7.61721C59.7841 7.61721 59.1206 7.86166 59.1206 8.66483C59.1206 9.2934 59.5397 9.43309 59.7841 9.43309C60.273 9.43309 60.4825 9.1188 60.5174 9.1188L60.4825 9.39817H61.1111L61.3904 7.47753C61.4254 6.63944 60.692 6.60452 60.4476 6.60452ZM60.6222 8.17594C60.6222 8.28071 60.5524 8.83944 60.1333 8.83944C59.9238 8.83944 59.8539 8.66483 59.8539 8.56007C59.8539 8.38547 59.9587 8.14102 60.4825 8.14102C60.5873 8.17594 60.5873 8.17594 60.6222 8.17594Z" fill="white"/>
<path d="M61.9841 9.39813C62.1936 8.24575 62.2285 7.3029 62.7174 7.4775C62.7872 7.02353 62.892 6.84893 62.9619 6.67432C62.9619 6.67432 62.9269 6.67432 62.8222 6.67432C62.5079 6.67432 62.2634 7.09337 62.2634 7.09337L62.3333 6.70924H61.6698L61.2158 9.43305H61.9841V9.39813Z" fill="white"/>
<path d="M51.8571 8.87435C51.8571 9.2934 52.1015 9.468 52.4158 9.468C52.6602 9.468 52.8698 9.39816 52.9396 9.36324L53.0444 8.76959C53.0094 8.76959 52.9396 8.80451 52.8698 8.80451C52.6253 8.80451 52.5904 8.66482 52.6253 8.59498L52.8348 7.37276H53.219L53.3237 6.70927H52.9745L53.0444 6.29022" fill="#DCE5E5"/>
<path d="M53.5334 8.24576C53.5334 9.22354 53.8477 9.46798 54.4065 9.46798C54.9303 9.46798 55.1398 9.36322 55.1398 9.36322L55.2795 8.69973C55.2795 8.69973 54.8954 8.87433 54.5461 8.87433C53.7779 8.87433 53.9176 8.3156 53.9176 8.3156H55.3493C55.3493 8.3156 55.4541 7.86164 55.4541 7.68703C55.4541 7.23306 55.2096 6.67433 54.4414 6.67433C53.7081 6.60449 53.5334 7.37275 53.5334 8.24576ZM54.4065 7.23306C54.7906 7.23306 54.8604 7.68703 54.8604 7.72195H53.9525C53.9525 7.68703 54.0223 7.23306 54.4065 7.23306Z" fill="#DCE5E5"/>
<path d="M58.8412 9.36323L58.9809 8.59498C58.9809 8.59498 58.6317 8.76958 58.3872 8.76958C57.8983 8.76958 57.6888 8.38545 57.6888 7.9664C57.6888 7.12831 58.1079 6.67434 58.5968 6.67434C58.946 6.67434 59.2253 6.88387 59.2253 6.88387L59.3301 6.15053C59.3301 6.15053 58.911 5.97593 58.5269 5.97593C57.7237 5.97593 57.2698 6.67434 57.2698 8.00133C57.2698 8.87434 57.3396 9.46799 58.1777 9.46799C58.4571 9.46799 58.8412 9.36323 58.8412 9.36323Z" fill="#DCE5E5"/>
<path d="M48.1555 7.37274C48.1555 7.37274 48.4698 7.23305 48.9237 7.23305C49.1682 7.23305 49.3777 7.26797 49.3777 7.4775C49.3777 7.61718 49.3428 7.6521 49.3428 7.6521C49.3428 7.6521 49.1333 7.6521 49.0285 7.6521C48.4349 7.6521 47.7714 7.89655 47.7714 8.69972C47.7714 9.32829 48.1904 9.46797 48.4349 9.46797C48.9237 9.46797 49.1333 9.15369 49.1682 9.15369L49.1333 9.43305H49.7618L50.0412 7.51242C50.0412 6.70924 49.3428 6.67432 49.0634 6.67432L48.1555 7.37274ZM49.5872 8.17591C49.5872 8.28067 49.1682 8.8394 48.7491 8.8394C48.5396 8.8394 48.4698 8.6648 48.4698 8.56004C48.4698 8.38543 48.5745 8.14099 49.0983 8.14099C49.2031 8.17591 49.5872 8.17591 49.5872 8.17591Z" fill="#DCE5E5"/>
<path d="M49.9365 9.36324C49.9365 9.36324 50.146 9.43308 50.7397 9.43308C50.9143 9.43308 51.7873 9.468 51.7873 8.52514C51.7873 7.65213 50.9492 7.82673 50.9492 7.47752C50.9492 7.30292 51.0889 7.23308 51.3333 7.23308C51.4381 7.23308 51.8222 7.268 51.8222 7.268L51.927 6.63943C51.927 6.63943 51.6826 6.56959 51.2635 6.56959C50.7397 6.56959 50.5651 6.77911 50.5651 7.47752C50.5651 8.2807 51.0889 8.21086 51.0889 8.52514C51.0889 8.73467 50.8445 8.76959 50.6699 8.76959" fill="#DCE5E5"/>
<path d="M64.4984 6.98864C64.4984 6.98864 64.219 6.63943 63.8349 6.63943C63.2063 6.63943 62.9968 7.40769 62.9968 8.31562C62.9968 8.87435 62.927 9.468 63.5206 9.468C63.9397 9.468 64.1841 9.18864 64.1841 9.18864L64.1492 9.43308H64.8476L65.3714 6.0807L64.4984 6.98864ZM64.4635 7.89658C64.4635 8.2807 64.1492 8.76959 63.765 8.76959C63.5206 8.76959 63.3809 8.56007 63.3809 8.21086C63.3809 7.65213 63.6254 7.30293 63.9397 7.30293C64.1841 7.30293 64.4635 7.47753 64.4635 7.89658Z" fill="#DCE5E5"/>
<path d="M45.292 9.39817L45.7111 6.88388L45.7809 9.39817H46.2698L47.1777 6.88388L46.7936 9.39817H47.527L48.0857 6.04578H47.2127L46.2349 8.1061L46.2 6.04578H45.8158L44.6285 9.39817H45.292Z" fill="#DCE5E5"/>
<path d="M55.3842 9.39813H56.1175C56.327 8.24575 56.3619 7.3029 56.8508 7.4775C56.9207 7.02353 57.0254 6.84893 57.0953 6.67432C57.0953 6.67432 57.0603 6.67432 56.9556 6.67432C56.6413 6.67432 56.3969 7.09337 56.3969 7.09337L56.4667 6.70924" fill="#DCE5E5"/>
<path d="M59.5047 7.37274C59.5047 7.37274 59.819 7.23305 60.273 7.23305C60.5174 7.23305 60.727 7.26797 60.727 7.4775C60.727 7.61718 60.692 7.6521 60.692 7.6521C60.692 7.6521 60.4825 7.6521 60.3777 7.6521C59.7841 7.6521 59.1206 7.89655 59.1206 8.69972C59.1206 9.32829 59.5397 9.46797 59.7841 9.46797C60.273 9.46797 60.4825 9.15369 60.5174 9.15369L60.4825 9.43305H61.1111L61.3904 7.51242C61.3904 6.70924 60.692 6.67432 60.4127 6.67432L59.5047 7.37274ZM60.9365 8.17591C60.9365 8.28067 60.5174 8.8394 60.0984 8.8394C59.8889 8.8394 59.819 8.6648 59.819 8.56004C59.819 8.38543 59.9238 8.14099 60.4476 8.14099C60.5873 8.17591 60.9365 8.17591 60.9365 8.17591Z" fill="#DCE5E5"/>
<path d="M61.2509 9.39813H61.9842C62.1937 8.24575 62.2286 7.3029 62.7175 7.4775C62.7874 7.02353 62.8921 6.84893 62.962 6.67432C62.962 6.67432 62.927 6.67432 62.8223 6.67432C62.508 6.67432 62.2636 7.09337 62.2636 7.09337L62.3334 6.70924" fill="#DCE5E5"/>
<path d="M89 12.5759C90.327 11.3886 91.1651 9.64259 91.1651 7.68704C91.1651 5.73148 90.327 4.02037 89 2.79815C87.8476 1.75053 86.2762 1.08704 84.6 1.08704C80.9683 1.08704 78 4.05529 78 7.68704C78 11.3188 80.9683 14.2521 84.6 14.2521C86.2762 14.287 87.8476 13.6235 89 12.5759Z" fill="#07A9E2"/>
<path d="M78 7.68704C78 11.3188 80.9683 14.2521 84.6 14.2521C86.3111 14.2521 87.8476 13.6235 89 12.541C90.327 11.3537 91.1651 9.60767 91.1651 7.65211C91.1651 5.69656 90.327 4.02037 89 2.79815C87.8476 1.75053 86.2762 1.08704 84.6 1.08704" fill="#009DDD"/>
<path d="M89 2.79815C87.8476 1.75053 86.2762 1.08704 84.6 1.08704C84.4953 1.08704 84.3905 1.08704 84.2857 1.08704C82.2254 2.58862 80.8984 4.99815 80.8984 7.68704C80.8984 10.3759 82.2254 12.7854 84.2508 14.2521C84.3556 14.2521 84.4603 14.2521 84.5651 14.2521C86.2762 14.2521 87.8127 13.6235 88.9651 12.541C90.2921 11.3537 91.1302 9.60767 91.1302 7.65211C91.1302 5.69656 90.327 4.02037 89 2.79815Z" fill="#0284CC"/>
<path d="M93.4349 1.08704C91.7238 1.08704 90.1873 1.71561 89 2.79815C88.7556 3.00767 88.546 3.25212 88.3365 3.49656H89.6635C89.8381 3.70608 90.0127 3.95053 90.1524 4.19497H87.8127C87.673 4.43942 87.5333 4.64894 87.4286 4.89338H90.5365C90.6413 5.13783 90.746 5.34735 90.8159 5.5918H87.1841C87.1143 5.83624 87.0445 6.04577 86.9746 6.29021H91.0254C91.1302 6.74418 91.1651 7.19815 91.1651 7.68704C91.1651 8.42037 91.0603 9.11878 90.8159 9.78227H87.1841C87.254 10.0267 87.3587 10.2362 87.4635 10.4807H90.5714C90.4667 10.7251 90.327 10.9696 90.1873 11.1791H87.8476C87.9873 11.4235 88.1619 11.668 88.3365 11.8775H89.6635C89.454 12.122 89.2445 12.3664 89 12.5759C90.1873 13.6235 91.7238 14.287 93.4349 14.287C97.0667 14.287 100 11.3537 100 7.72196C100 4.05529 97.0667 1.08704 93.4349 1.08704Z" fill="#FF2957"/>
<path d="M93.4349 1.08704C91.7238 1.08704 90.1873 1.71561 89 2.79815C88.7556 3.00767 88.546 3.25212 88.3365 3.49656H89.6635C89.8381 3.70608 90.0127 3.95053 90.1524 4.19497H87.8127C87.673 4.43942 87.5333 4.64894 87.4286 4.89338H90.5365C90.6413 5.13783 90.746 5.34735 90.8159 5.5918H87.1841C87.1143 5.83624 87.0445 6.04577 86.9746 6.29021H91.0254C91.1302 6.74418 91.1651 7.19815 91.1651 7.68704C91.1651 8.42037 91.0603 9.11878 90.8159 9.78227H87.1841C87.254 10.0267 87.3587 10.2362 87.4635 10.4807H90.5714C90.4667 10.7251 90.327 10.9696 90.1873 11.1791H87.8476C87.9873 11.4235 88.1619 11.668 88.3365 11.8775H89.6635C89.454 12.122 89.2445 12.3664 89 12.5759C90.1873 13.6235 91.7238 14.287 93.4349 14.287C97.0667 14.287 100 11.3537 100 7.72196" fill="#ED1C2E"/>
<path d="M89 12.5759C90.327 11.3886 91.1651 9.64259 91.1651 7.68704C91.1651 5.73148 90.327 4.02037 89 2.79815V12.5759Z" fill="#0466B5"/>
<path d="M97.7301 9.11878C97.7301 9.01402 97.8349 8.90926 97.9396 8.90926C98.0444 8.90926 98.1492 9.01402 98.1492 9.11878C98.1492 9.22354 98.0444 9.3283 97.9396 9.3283C97.8349 9.3283 97.7301 9.22354 97.7301 9.11878ZM97.9396 9.29338C98.0444 9.29338 98.0793 9.22354 98.0793 9.11878C98.0793 9.01402 98.0095 8.9791 97.9396 8.9791C97.8349 8.9791 97.765 9.04894 97.765 9.11878C97.765 9.18862 97.8698 9.29338 97.9396 9.29338ZM97.9396 9.18862H97.9047V9.01402H97.9745C98.0095 9.01402 98.0095 9.01402 98.0095 9.01402L98.0444 9.04894C98.0444 9.08386 98.0444 9.08386 98.0095 9.08386L98.0444 9.1537H98.0095L97.9745 9.08386H97.9396V9.18862ZM97.9396 9.08386C97.9745 9.08386 97.9745 9.08386 97.9745 9.08386C97.9745 9.08386 97.9745 9.08386 97.9745 9.04894H97.9396V9.08386Z" fill="white"/>
<path d="M89 2.79814C88.7556 3.00767 88.546 3.25211 88.3365 3.49656H89.6635C89.8381 3.70608 90.0127 3.95053 90.1524 4.19497H87.8127C87.673 4.43941 87.5333 4.64894 87.4286 4.89338H90.5365C90.6413 5.13783 90.746 5.34735 90.8159 5.5918H87.1841C87.1143 5.83624 87.0445 6.04576 86.9746 6.29021H91.0254C91.1302 6.74418 91.1651 7.19814 91.1651 7.68703C91.1651 8.42037 91.0603 9.11878 90.8159 9.78227H87.1841C87.254 10.0267 87.3587 10.2362 87.4635 10.4807H90.5714C90.4667 10.7251 90.327 10.9696 90.1873 11.1791H87.8476C87.9873 11.4235 88.1619 11.668 88.3365 11.8775H89.6635C89.454 12.122 89.2445 12.3664 89 12.5759C90.1873 13.6235 91.7238 14.287 93.4349 14.287C93.5397 14.287 93.6444 14.287 93.7492 14.287C95.7746 12.8204 97.1016 10.4108 97.1016 7.72195C97.1016 5.03307 95.7746 2.62354 93.7492 1.15687C93.6444 1.15687 93.5397 1.15687 93.4349 1.15687C91.7238 1.08703 90.1873 1.75053 89 2.79814Z" fill="#D1094B"/>
<path d="M83.7619 9.3283H82.9238L83.4126 6.7791L82.2952 9.3283H81.5619L81.4222 6.7791L80.9333 9.3283H80.2L80.8285 5.97592H82.1206L82.1904 8.07116L83.0984 5.97592H84.4253L83.7619 9.3283Z" fill="white"/>
<path d="M82.9587 7.86164L83.4476 6.7791L83.0635 8.8045C83.0984 8.9791 83.1334 9.18863 83.2032 9.36323H83.7619L84.3905 6.01085H83.1683C83.0286 6.53466 82.9238 7.12831 82.9238 7.72196C82.9587 7.75688 82.9587 7.7918 82.9587 7.86164Z" fill="#DCE5E5"/>
<path d="M92.9111 9.2934C92.6666 9.36324 92.5269 9.39817 92.3174 9.39817C91.8984 9.39817 91.6888 9.18864 91.6888 8.80451C91.6888 8.73467 91.6888 8.66483 91.7238 8.56007L91.7587 8.28071L91.7936 8.07118L92.1777 6.01086H92.9809L92.8761 6.63944H93.2952L93.1904 7.26801H92.7714L92.5619 8.38547C92.5619 8.42039 92.5269 8.49023 92.5269 8.49023C92.5269 8.62991 92.6317 8.69975 92.8063 8.69975C92.9111 8.69975 92.9809 8.69975 93.0158 8.66483L92.9111 9.2934Z" fill="#DCE5E5"/>
<path d="M95.3206 6.63943C95.2507 6.60451 95.2507 6.60451 95.2158 6.60451C95.1809 6.60451 95.146 6.60451 95.146 6.56959C95.1111 6.56959 95.1111 6.56959 95.0412 6.56959C94.7619 6.56959 94.5873 6.67435 94.3428 7.02356L94.4127 6.60451H93.6793L93.1904 9.32832H94.0285C94.3079 7.65213 94.4476 7.37276 94.8317 7.37276C94.8666 7.37276 94.9015 7.37276 94.9365 7.37276L95.0412 7.40768L95.3206 6.63943Z" fill="#DCE5E5"/>
<path d="M89.6635 7.47752C89.6635 7.82673 89.8731 8.07118 90.2921 8.21086C90.6413 8.35054 90.6762 8.38546 90.6762 8.52514C90.6762 8.69975 90.5365 8.76959 90.1873 8.76959C89.9429 8.76959 89.6984 8.73467 89.454 8.66483L89.3492 9.2934H89.3842L89.5238 9.32832C89.5588 9.32832 89.6635 9.32832 89.7334 9.32832C89.9429 9.36324 90.0826 9.36324 90.1873 9.36324C91.0604 9.36324 91.4794 9.08387 91.4794 8.4553C91.4794 8.07118 91.3048 7.86165 90.8858 7.68705C90.5365 7.54737 90.5016 7.51245 90.5016 7.40768C90.5016 7.268 90.6413 7.19816 90.9207 7.19816C91.0604 7.19816 91.3048 7.19816 91.5143 7.23308L91.6191 6.60451C91.4096 6.56959 91.0953 6.56959 90.8858 6.56959C89.9778 6.56959 89.6635 6.98864 89.6635 7.47752Z" fill="#DCE5E5"/>
<path d="M86.4158 9.32832H85.7523V9.04895C85.5428 9.25848 85.2635 9.36324 84.8793 9.36324C84.4254 9.36324 84.146 9.04895 84.146 8.62991C84.146 7.96641 84.6698 7.58229 85.5777 7.58229C85.6825 7.58229 85.7873 7.58229 85.9269 7.58229C85.9619 7.47752 85.9619 7.4426 85.9619 7.40768C85.9619 7.23308 85.8222 7.16324 85.4381 7.16324C85.1936 7.16324 84.9492 7.19816 84.7746 7.23308L84.6698 7.268H84.6L84.7047 6.67435C85.1238 6.56959 85.3682 6.53467 85.6825 6.53467C86.3809 6.53467 86.765 6.81403 86.765 7.33784C86.765 7.47752 86.765 7.58229 86.6952 7.89657L86.5206 8.87435L86.4857 9.04895L86.4508 9.18864V9.2934L86.4158 9.32832ZM85.8222 8.1061C85.7174 8.1061 85.6825 8.1061 85.6476 8.1061C85.1936 8.1061 84.9492 8.24578 84.9492 8.52514C84.9492 8.69975 85.0539 8.80451 85.2285 8.80451C85.5777 8.80451 85.8222 8.52514 85.8222 8.1061Z" fill="#DCE5E5"/>
<path d="M89.1048 9.25848C88.8254 9.32832 88.5461 9.36324 88.2667 9.36324C87.3588 9.36324 86.8699 8.94419 86.8699 8.14102C86.8699 7.19816 87.4635 6.53467 88.3016 6.53467C88.9651 6.53467 89.3842 6.91879 89.3842 7.51245C89.3842 7.72197 89.3492 7.89657 89.2794 8.17594H87.6381C87.6381 8.21086 87.6381 8.24578 87.6381 8.2807C87.6381 8.59499 87.8826 8.76959 88.3365 8.76959C88.6508 8.76959 88.8953 8.73467 89.1746 8.59498L89.1048 9.25848ZM88.6857 7.65213C88.6857 7.61721 88.6857 7.54737 88.6857 7.51245C88.6857 7.30292 88.5461 7.16324 88.3016 7.16324C88.0572 7.16324 87.8477 7.33784 87.7778 7.65213H88.6857Z" fill="#DCE5E5"/>
<path d="M97.8698 8.10608C97.7302 9.01402 97.1016 9.39814 96.2635 9.39814C95.3556 9.39814 94.9714 8.83941 94.9714 8.141C94.9714 7.19814 95.6 6.53465 96.5778 6.53465C97.4159 6.53465 97.8698 7.09338 97.8698 7.75687C97.8698 7.93148 97.8698 7.93148 97.8698 8.10608ZM96.9968 7.75687C96.9968 7.47751 96.8921 7.23307 96.5429 7.23307C96.1238 7.23307 95.8794 7.72195 95.8794 8.17592C95.8794 8.52513 96.054 8.76957 96.3333 8.76957C96.5079 8.76957 96.8921 8.52513 96.9619 8.10608C96.9968 7.9664 96.9968 7.86164 96.9968 7.75687Z" fill="white"/>
<path d="M95.0063 8.45528C95.0412 8.21083 95.0761 7.93147 95.0761 7.68702C95.0761 7.6521 95.0761 7.61718 95.0761 7.61718C95.0412 7.79178 95.0063 7.96639 95.0063 8.17591C94.9714 8.24575 94.9714 8.35051 95.0063 8.45528Z" fill="white"/>
<path d="M114 7.26366C114 6.45135 114.068 5.93599 115.75 4.6806C117.143 3.63895 121.606 0.0870361 121.606 0.0870361V6.01555H125V14.5495H115.06C114.78 14.5485 114.511 14.4367 114.312 14.2382C114.113 14.0398 114.001 13.7709 114 13.4902V7.26366Z" fill="#FFD000"/>
<path d="M121.606 6.01662V9.45204L115.369 13.7013L123.255 11.1354V6.01662H121.606Z" fill="#D8B100"/>
<path d="M118.756 5.83877C119.12 5.40401 119.653 5.2506 119.946 5.49606C120.238 5.74152 120.18 6.29329 119.814 6.72753C119.449 7.16176 118.917 7.3157 118.625 7.07024C118.332 6.82478 118.391 6.27561 118.756 5.83877Z" fill="#1D1D1B"/>
<path fill-rule="evenodd" clip-rule="evenodd" d="M150.487 10.0726C150.391 9.56584 150.129 9.10546 149.742 8.76344C149.609 8.63263 149.456 8.52252 149.29 8.43677C149.206 8.38712 149.117 8.34554 149.026 8.31256C148.791 8.21164 148.535 8.16903 148.28 8.18835C148.479 8.11719 148.691 8.09048 148.901 8.1101C149.081 8.13531 149.258 8.17688 149.43 8.23431C149.572 8.31132 149.712 8.38957 149.852 8.46907C150.189 7.44559 150.059 6.04948 149.68 5.14772C149.341 4.24998 148.789 3.44788 148.072 2.81011C147.346 2.12977 146.445 1.6656 145.469 1.4699C144.902 1.35947 144.319 1.36497 143.754 1.48604C143.276 1.61162 142.826 1.8284 142.43 2.12448C142.08 2.435 141.741 2.75546 141.511 3.18398C141.44 3.28263 141.377 3.3869 141.323 3.49574C141.275 3.61374 141.221 3.72677 141.168 3.83856C141.075 4.08685 141.002 4.34232 140.949 4.60244C140.823 5.18099 140.802 5.77769 140.887 6.36373C140.955 6.89706 141.097 7.41836 141.308 7.91261C141.421 8.13122 141.525 8.361 141.65 8.56719C141.775 8.76635 141.911 8.95873 142.056 9.14352C142.366 9.48831 142.715 9.79518 143.097 10.0577C143.974 10.6525 144.999 10.9922 146.058 11.0389C146.083 10.988 146.025 10.8862 146.012 10.8203C146 10.7545 145.986 10.6601 145.965 10.5868C145.945 10.411 145.945 10.2335 145.965 10.0577C146.015 10.0701 146.013 10.1335 146.043 10.1658C146.073 10.1981 146.079 10.244 146.122 10.2602C146.163 10.3358 146.209 10.4084 146.261 10.4775C146.364 10.6125 146.485 10.7332 146.62 10.8365C146.75 10.9487 146.891 11.0477 147.041 11.1321C147.188 11.2259 147.344 11.3041 147.508 11.3656C147.818 11.5296 148.233 11.5867 148.645 11.6463C149.058 11.7059 149.464 11.7705 149.845 11.8649C150.192 11.9657 150.525 12.1066 150.839 12.2848C150.99 12.3693 151.136 12.4635 151.275 12.5667C151.349 12.6103 151.417 12.6624 151.479 12.722C151.561 12.7543 151.603 12.8325 151.681 12.8623C151.928 13.0881 152.157 13.3327 152.367 13.5939C152.466 13.7377 152.555 13.8888 152.631 14.046C152.688 14.1094 152.705 14.2112 152.756 14.2796C152.756 14.369 152.844 14.4746 152.77 14.5454C152.655 14.5628 152.679 14.4398 152.63 14.3889C152.586 14.3313 152.55 14.2687 152.521 14.2025C152.338 14.0113 152.175 13.8001 151.976 13.6262C151.784 13.4463 151.576 13.2846 151.354 13.143C150.892 12.8187 150.374 12.5809 149.827 12.4413C149.184 12.2663 148.516 12.2049 147.853 12.2599C147.54 12.2943 147.232 12.3617 146.934 12.4611C146.62 12.5314 146.303 12.5836 145.984 12.6176C144.73 12.6821 143.48 12.4471 142.336 11.932C141.842 11.7125 141.382 11.4239 140.969 11.075C140.759 10.9089 140.564 10.7234 140.388 10.521C140.21 10.3253 140.053 10.1108 139.921 9.88132C139.755 9.67762 139.655 9.40312 139.516 9.16836C139.424 8.89138 139.295 8.65786 139.235 8.34237C139.137 8.03887 139.074 7.72503 139.048 7.40708C139.048 7.31392 139.001 7.13382 139.001 6.98725C139.001 6.97359 139.018 6.96241 139.017 6.94005C138.994 6.79018 138.994 6.63781 139.017 6.48793C139.018 6.15808 139.053 5.82924 139.122 5.50668C139.177 5.21124 139.256 4.92053 139.356 4.63722C139.449 4.35651 139.572 4.10561 139.684 3.84229C139.758 3.7305 139.815 3.60008 139.886 3.48456C139.957 3.36905 140.035 3.26968 140.089 3.14175C140.148 3.10821 140.16 3.02499 140.213 2.98524C140.238 2.91569 140.302 2.88712 140.322 2.81384C140.373 2.7705 140.415 2.7178 140.446 2.65857C140.498 2.61566 140.541 2.56234 140.571 2.50207C140.756 2.31948 140.922 2.11578 141.116 1.94189C141.31 1.768 141.525 1.60156 141.723 1.42766C141.848 1.3668 141.942 1.27116 142.066 1.20906C142.162 1.12211 142.3 1.08485 142.394 0.990449C142.654 0.876177 142.875 0.7234 143.158 0.631485C143.422 0.513942 143.695 0.415159 143.973 0.335868C144.607 0.160768 145.263 0.080815 145.92 0.098629C145.948 0.098629 145.961 0.0725451 145.968 0.098629C147.152 0.11824 148.305 0.48112 149.286 1.14323C150.156 1.72351 150.856 2.52474 151.313 3.46469C151.851 4.59465 152.03 5.86182 151.828 7.09656C151.723 7.67061 151.55 8.23017 151.313 8.76344C151.195 9.00381 151.064 9.23804 150.922 9.46522C150.86 9.58059 150.786 9.68994 150.704 9.79189C150.676 9.84917 150.639 9.90193 150.596 9.94839C150.576 9.9754 150.555 10.0011 150.532 10.0254C150.526 10.0403 150.519 10.054 150.501 10.0577C150.507 10.085 150.489 10.0888 150.487 10.0726Z" fill="#F28C00"/>
<path fill-rule="evenodd" clip-rule="evenodd" d="M150.114 10.4775C149.93 10.4055 149.9 10.1819 149.817 10.0105C149.796 9.93916 149.796 9.86323 149.817 9.79189C149.829 9.79189 149.832 9.77699 149.848 9.77699C149.894 9.74718 149.937 9.78444 150.003 9.80804C150.095 9.92116 150.159 10.0543 150.191 10.1968C150.194 10.3198 150.203 10.449 150.114 10.4775Z" fill="#F28C00"/>
<path fill-rule="evenodd" clip-rule="evenodd" d="M148.741 10.213C148.741 10.1956 148.757 10.2043 148.757 10.213C149.033 10.2477 149.161 10.4328 149.178 10.7272C149.171 10.7977 149.141 10.8641 149.094 10.9164C149.046 10.9688 148.982 11.0043 148.913 11.0178C148.54 11.0178 148.329 10.6825 148.462 10.3322C148.535 10.2726 148.588 10.1943 148.741 10.213Z" fill="#F28C00"/>
<path fill-rule="evenodd" clip-rule="evenodd" d="M173.82 1.3741C173.576 0.687589 173.286 -3.8147e-06 172.361 -3.8147e-06C171.435 -3.8147e-06 171.134 0.697827 170.899 1.3741C170.831 1.57314 170.037 3.82662 169.349 5.78229L169.348 5.78393L169.348 5.78509C168.825 7.26985 168.363 8.58224 168.325 8.69245C168.3 8.76358 168.333 8.84818 168.404 8.87728L168.739 9.01171C169.138 9.17214 169.755 9.42003 169.806 9.44093C169.879 9.47165 169.954 9.4253 169.978 9.35687L170.082 9.05918C170.244 8.59808 170.54 7.75543 170.581 7.63304H174.142C174.161 7.68677 174.228 7.87901 174.311 8.11682C174.484 8.61355 174.727 9.30913 174.744 9.35687C174.769 9.42854 174.847 9.46841 174.916 9.44093C174.95 9.42753 175.276 9.29621 175.606 9.16351C175.939 9.02949 176.275 8.89407 176.318 8.87728C176.403 8.84333 176.416 8.74957 176.397 8.69245C176.324 8.48768 173.922 1.66563 173.82 1.3741ZM168 12.3503C168 12.2716 168.06 12.2069 168.135 12.2069H172.359H176.584C176.661 12.2069 176.72 12.2716 176.72 12.3503V13.9448C176.72 14.0234 176.661 14.087 176.584 14.087H168.135C168.06 14.087 168 14.0234 168 13.9448V12.3503ZM171.149 5.97548L172.353 2.22767H172.368L173.576 5.97548H171.149Z" fill="#EE2A23"/>
<path fill-rule="evenodd" clip-rule="evenodd" d="M11.0953 32.087V32.0906C11.0918 32.0906 9.97757 32.087 9.68044 33.1517C9.40808 34.128 8.64051 36.8233 8.61929 36.8976H8.40706C8.40706 36.8976 7.62181 34.1421 7.34591 33.1482C7.04879 32.0835 5.93104 32.087 5.93104 32.087H3.38428V40.1872H5.93104V35.3766H6.03716H6.14327L7.62888 40.1872H9.39747L10.8831 35.3801H11.0953V40.1872H13.6421V32.087H11.0953Z" fill="#4DB45E"/>
<path fill-rule="evenodd" clip-rule="evenodd" d="M20.3981 32.087C20.3981 32.087 19.6518 32.1542 19.3016 32.936L17.4976 36.8976H17.2854V32.087H14.7386V40.1872H17.1439C17.1439 40.1872 17.9256 40.1164 18.2758 39.3382L20.0444 35.3766H20.2566V40.1872H22.8034V32.087H20.3981Z" fill="#4DB45E"/>
<path fill-rule="evenodd" clip-rule="evenodd" d="M23.9353 35.7657V40.1872H26.4821V37.605H29.2411C30.4437 37.605 31.4624 36.8375 31.8409 35.7657H23.9353Z" fill="#4DB45E"/>
<path fill-rule="evenodd" clip-rule="evenodd" d="M29.241 32.087H23.578C23.861 33.6292 25.0176 34.8673 26.5139 35.2705C26.8534 35.3625 27.2107 35.412 27.5785 35.412H31.9434C31.9823 35.228 32 35.0406 32 34.846C32 33.3215 30.7655 32.087 29.241 32.087Z" fill="url(#paint0_linear)"/>
<path fill-rule="evenodd" clip-rule="evenodd" d="M48.3812 31.7039C48.732 31.2756 48.9688 30.6803 48.9044 30.087C48.3975 30.108 47.7844 30.4282 47.4233 30.8549C47.0964 31.2337 46.8134 31.8402 46.8916 32.4217C47.4554 32.4656 48.0303 32.1322 48.3812 31.7039ZM49.8378 35.4686C49.8266 34.1856 50.8773 33.5684 50.9259 33.5377C50.3332 32.6699 49.4139 32.5494 49.0865 32.5361C48.303 32.458 47.5562 33.0007 47.1603 33.0007C46.7628 33.0007 46.1513 32.5483 45.5003 32.5622C44.6464 32.5743 43.859 33.062 43.4195 33.8313C42.5347 35.3848 43.1949 37.6791 44.0587 38.9356C44.4817 39.5507 44.9846 40.2419 45.6473 40.2169C46.2852 40.1919 46.5244 39.8014 47.2952 39.8014C48.0643 39.8004 48.2819 40.2159 48.9536 40.2041C49.6391 40.1893 50.0741 39.5762 50.4944 38.958C50.9777 38.2457 51.178 37.554 51.1881 37.5194C51.1743 37.5101 49.853 37.0027 49.8378 35.4686ZM57.9988 31.7033C57.7433 31.4553 57.4137 31.2623 57.0193 31.1295C56.6283 30.9984 56.1589 30.932 55.6239 30.932C55.2814 30.9304 54.9389 30.9483 54.5983 30.9857C54.3143 31.0175 54.0312 31.0576 53.7495 31.1056L53.6669 31.12V40.1393H54.4847V36.3395C54.76 36.3869 55.0753 36.4119 55.4231 36.4119C55.886 36.4119 56.3196 36.3523 56.7121 36.2353C57.0895 36.1273 57.4412 35.9425 57.7453 35.6927C58.0382 35.4462 58.2738 35.1379 58.4354 34.7895C58.6028 34.4322 58.6878 34.0119 58.6878 33.5392C58.6878 33.1482 58.6265 32.7964 58.5069 32.4938C58.3913 32.199 58.2185 31.9303 57.9988 31.7033ZM57.2474 35.1484C56.8277 35.5028 56.2335 35.6824 55.4795 35.6824C55.2721 35.6824 55.0759 35.6732 54.8958 35.6564C54.7575 35.6438 54.6201 35.6205 54.4851 35.5869V31.7515C54.5932 31.7315 54.7271 31.7126 54.8842 31.6957C55.0835 31.6743 55.3232 31.6635 55.5981 31.6635C55.9137 31.6605 56.2281 31.7015 56.5326 31.7857C56.7919 31.8575 57.0356 31.9777 57.251 32.1399C57.4472 32.2931 57.6014 32.4922 57.7083 32.7321C57.8163 32.9751 57.8706 33.2651 57.8706 33.5934C57.8701 34.2749 57.6602 34.7982 57.2474 35.1484ZM63.5761 39.295C63.567 39.0396 63.5635 38.7834 63.5635 38.528V36.0208C63.5635 35.7237 63.5334 35.4205 63.4751 35.1192C63.419 34.8197 63.3038 34.5343 63.1364 34.28C62.9702 34.0288 62.7374 33.8216 62.4463 33.6633C62.1554 33.5055 61.7772 33.426 61.3214 33.426C60.9887 33.426 60.6638 33.4694 60.357 33.5556C60.0348 33.6489 59.7302 33.7948 59.455 33.9876L59.3885 34.034L59.6649 34.6849L59.7648 34.617C59.9828 34.4696 60.2214 34.3553 60.4726 34.2779C60.7265 34.1981 60.9909 34.157 61.2569 34.1565C61.5977 34.1565 61.87 34.2188 62.0641 34.3413C62.2614 34.4653 62.4098 34.6191 62.5057 34.7987C62.6056 34.984 62.671 35.1811 62.6999 35.3857C62.7308 35.5987 62.7456 35.7891 62.7456 35.9525V36.025C61.5333 36.0194 60.5867 36.2225 59.958 36.6305C59.2983 37.0583 58.9637 37.6674 58.9637 38.4403C58.9637 38.6628 59.0032 38.8871 59.0814 39.1086C59.1603 39.3327 59.2806 39.5333 59.4377 39.7048C59.596 39.8783 59.8003 40.0199 60.0447 40.1256C60.288 40.2322 60.5745 40.2859 60.8944 40.2859C61.3474 40.2935 61.7932 40.1707 62.1792 39.932C62.3476 39.8274 62.4971 39.7085 62.625 39.5802C62.6794 39.5252 62.7313 39.4676 62.7806 39.4077H62.812L62.8871 40.1398H63.6754L63.6536 40.0223C63.6103 39.7821 63.5844 39.5389 63.5761 39.295ZM62.7456 38.0105C62.7456 38.0982 62.7248 38.2187 62.6852 38.3631C62.6323 38.5195 62.5582 38.6677 62.4652 38.8037C62.2581 39.1091 61.9571 39.3377 61.6089 39.4546C61.3974 39.5247 61.1758 39.5586 60.9532 39.5553C60.8064 39.5553 60.6608 39.5303 60.5223 39.4812C60.3878 39.4342 60.2644 39.3598 60.1598 39.2627C60.05 39.1582 59.9634 39.0318 59.9052 38.8916C59.8408 38.742 59.8083 38.5567 59.8083 38.3412C59.8083 37.9884 59.9027 37.7021 60.0877 37.4928C60.2871 37.2697 60.5373 37.0988 60.8169 36.9949C61.1335 36.8751 61.465 36.799 61.802 36.7689C62.1156 36.7384 62.4305 36.7246 62.7456 36.7275V38.0105ZM69.1264 33.5724L67.6003 37.7501C67.505 38.0023 67.4162 38.2565 67.3351 38.5041C67.2956 38.6277 67.258 38.7446 67.221 38.8558H67.1921C67.154 38.7339 67.1151 38.6122 67.0754 38.4908C66.9964 38.2457 66.9113 38.0053 66.824 37.7761L65.1919 33.5724H64.3194L66.6541 39.616C66.7155 39.7616 66.7246 39.8285 66.7246 39.8554C66.7246 39.8636 66.7217 39.9131 66.6532 40.0969C66.5256 40.4248 66.3593 40.7362 66.1579 41.024C65.9707 41.2803 65.7994 41.4886 65.6467 41.6423C65.4692 41.8209 65.2862 41.9675 65.1002 42.0782C64.9101 42.1911 64.7367 42.2825 64.583 42.3515L64.4949 42.3912L64.7793 43.087L64.8696 43.0533C64.9434 43.0253 65.0825 42.9614 65.2933 42.8579C65.5062 42.7522 65.7421 42.5848 65.9935 42.358C66.2164 42.1605 66.4143 41.936 66.5827 41.6897C66.755 41.4406 66.9275 41.1481 67.0968 40.8234C67.264 40.4992 67.4314 40.1306 67.5947 39.7268C67.758 39.3209 67.9333 38.8671 68.1144 38.3795L70 33.5724H69.1264Z" fill="black"/>
<path d="M79.6443 43.2858C79.5885 43.2864 79.5331 43.276 79.4813 43.2551C79.4295 43.2343 79.3824 43.2034 79.3426 43.1643C79.3028 43.1252 79.2711 43.0786 79.2493 43.0272C79.2275 42.9758 79.2161 42.9206 79.2157 42.8648V40.6884C79.2161 40.6326 79.2275 40.5774 79.2493 40.5259C79.271 40.4745 79.3027 40.4279 79.3425 40.3887C79.3824 40.3496 79.4295 40.3187 79.4813 40.2978C79.5331 40.2769 79.5884 40.2664 79.6443 40.2669H81.2049C81.3063 40.2706 81.4023 40.3134 81.4727 40.3864C81.5431 40.4594 81.5824 40.5568 81.5824 40.6582C81.5824 40.7596 81.5431 40.8571 81.4727 40.9301C81.4023 41.0031 81.3063 41.0459 81.2049 41.0495H80.0754V41.3975H80.9767C81.0719 41.401 81.1621 41.4413 81.2282 41.5099C81.2943 41.5786 81.3313 41.6701 81.3313 41.7654C81.3313 41.8607 81.2943 41.9523 81.2282 42.0209C81.1621 42.0896 81.0719 42.1299 80.9767 42.1334H80.0754V42.5067H81.2049C81.3048 42.5118 81.3989 42.5551 81.4678 42.6276C81.5367 42.7001 81.5751 42.7962 81.5751 42.8963C81.5751 42.9963 81.5367 43.0924 81.4678 43.1649C81.3989 43.2374 81.3048 43.2807 81.2049 43.2858H79.6443ZM82.7707 41.4685V40.9841H83.0699C83.3524 40.9841 83.391 41.1068 83.391 41.2296C83.391 41.293 83.391 41.467 83.0141 41.4685H82.7707ZM82.7707 42.5721V42.0142H83.1739C83.5112 42.0142 83.5533 42.1623 83.5533 42.2932C83.5533 42.424 83.5163 42.5737 83.2338 42.5737L82.7707 42.5721ZM83.3073 43.2858C83.8515 43.2858 84.4333 43.0322 84.4333 42.3221C84.4333 41.9671 84.1797 41.7272 83.8657 41.6404C83.9863 41.5951 84.09 41.5137 84.1626 41.4074C84.2352 41.301 84.2732 41.1748 84.2715 41.046C84.2715 40.5895 84.0224 40.2669 83.1455 40.2669H82.3396C82.2281 40.2658 82.1206 40.3083 82.0401 40.3853C81.9595 40.4624 81.9123 40.5679 81.9084 40.6793V42.8648C81.9099 42.9778 81.9561 43.0855 82.0369 43.1644C82.1178 43.2434 82.2266 43.287 82.3396 43.2858H83.3073ZM93.498 43.1265C93.5582 43.0962 93.6111 43.0533 93.6534 43.0009C93.6956 42.9484 93.7262 42.8875 93.743 42.8222C93.756 42.7659 93.7568 42.7074 93.7453 42.6508C93.7337 42.5942 93.7101 42.5407 93.676 42.494C93.6395 42.4407 93.5904 42.3971 93.5331 42.3672C93.4758 42.3372 93.412 42.3217 93.3474 42.3221C93.281 42.3234 93.2156 42.3381 93.1551 42.3652L93.0978 42.3916C92.9699 42.4724 92.8216 42.5153 92.6702 42.5153C92.2482 42.5153 91.9556 42.2146 91.9556 41.7835C91.9556 41.3604 92.2553 41.0516 92.6702 41.0516C92.8214 41.0545 92.9691 41.0973 93.0983 41.1758L93.1338 41.1931C93.1955 41.2208 93.262 41.236 93.3296 41.2377C93.3949 41.238 93.4593 41.2227 93.5175 41.1932C93.5757 41.1636 93.626 41.1206 93.6644 41.0678C93.698 41.0228 93.7215 40.9711 93.7332 40.9162C93.7449 40.8613 93.7446 40.8045 93.7323 40.7498C93.7163 40.6829 93.6863 40.6202 93.6444 40.5658C93.6024 40.5113 93.5494 40.4663 93.4889 40.4338C93.2379 40.299 92.9571 40.2293 92.6723 40.2309C91.7471 40.2309 91.0492 40.8979 91.0492 41.7835C91.0492 42.669 91.7487 43.3309 92.6723 43.3309C92.9609 43.334 93.2456 43.2642 93.5 43.128L93.498 43.1265ZM98.4468 42.9099V41.0495H99.0001C99.051 41.0489 99.1013 41.0383 99.1481 41.0182C99.1948 40.9981 99.2372 40.9689 99.2726 40.9324C99.3081 40.8958 99.336 40.8526 99.3546 40.8053C99.3733 40.7579 99.3825 40.7073 99.3815 40.6564C99.381 40.5547 99.3409 40.4571 99.2698 40.3844C99.1986 40.3117 99.1018 40.2696 99.0001 40.2669H97.0322C96.9306 40.2697 96.8342 40.3119 96.7632 40.3846C96.6923 40.4574 96.6525 40.5549 96.6523 40.6564C96.6514 40.7072 96.6605 40.7576 96.6792 40.8049C96.6978 40.8521 96.7255 40.8952 96.7608 40.9317C96.7961 40.9682 96.8382 40.9974 96.8848 41.0176C96.9313 41.0378 96.9814 41.0487 97.0322 41.0495H97.5855V42.9099C97.5874 43.0225 97.6337 43.1297 97.7144 43.2082C97.7951 43.2867 97.9036 43.3301 98.0161 43.3289C98.1283 43.3288 98.236 43.285 98.3164 43.2068C98.3968 43.1286 98.4436 43.0221 98.4468 42.9099ZM89.8314 41.7804C89.8314 42.208 89.5383 42.5082 89.1213 42.5082C88.7044 42.5082 88.4077 42.208 88.4077 41.7804C88.4077 41.3528 88.707 41.0455 89.1213 41.0455C89.5357 41.0455 89.8314 41.3467 89.8314 41.7804ZM90.7398 41.7804C90.7398 40.8933 90.0439 40.2243 89.1219 40.2243C88.1998 40.2243 87.4988 40.8933 87.4988 41.7804C87.4988 42.6675 88.1987 43.3243 89.1219 43.3243C90.045 43.3243 90.7398 42.6604 90.7398 41.7804ZM100.427 42.5519V41.9031H100.845C100.916 41.9013 100.986 41.9189 101.048 41.9539C101.124 42.0046 101.161 42.0918 101.161 42.2273C101.161 42.3627 101.124 42.4474 101.048 42.4966C100.987 42.5355 100.915 42.555 100.843 42.5524L100.427 42.5519ZM100.935 43.2858C101.226 43.2858 101.458 43.2133 101.637 43.0591C101.754 42.958 101.847 42.8322 101.91 42.6907C101.973 42.5493 102.003 42.3957 102 42.2409C102.003 42.0804 101.97 41.9212 101.901 41.7759C101.833 41.6305 101.732 41.5029 101.607 41.403C101.432 41.262 101.223 41.2002 100.955 41.2002H100.427V40.6458C100.424 40.5334 100.378 40.4265 100.298 40.3478C100.217 40.2691 100.11 40.2248 99.9973 40.2243C99.9413 40.2236 99.8857 40.234 99.8337 40.2548C99.7817 40.2757 99.7344 40.3065 99.6943 40.3457C99.6543 40.3848 99.6224 40.4315 99.6004 40.483C99.5784 40.5345 99.5667 40.5898 99.5662 40.6458V42.8618C99.5666 42.9179 99.5781 42.9734 99.6001 43.0251C99.622 43.0768 99.6539 43.1237 99.6939 43.1631C99.7339 43.2024 99.7813 43.2335 99.8334 43.2546C99.8854 43.2757 99.9411 43.2862 99.9973 43.2858H100.935ZM85.6237 41.7429V41.011H86.067C86.145 41.0075 86.2222 41.0286 86.2876 41.0713C86.3662 41.1251 86.4078 41.2296 86.4078 41.3757C86.4078 41.5217 86.3662 41.6293 86.2825 41.6845C86.2184 41.7256 86.143 41.7456 86.067 41.7419L85.6237 41.7429ZM85.6237 42.9094V42.4722H86.1816C86.4656 42.4722 86.6848 42.4022 86.8714 42.2551C87.0031 42.1494 87.1087 42.0148 87.18 41.8616C87.2512 41.7085 87.2862 41.541 87.2822 41.3721C87.2856 41.2093 87.2532 41.0478 87.1875 40.8989C87.1218 40.7499 87.0243 40.6171 86.9018 40.5099C86.7101 40.3491 86.4667 40.271 86.1598 40.271H85.1941C85.1379 40.2705 85.0821 40.2811 85.03 40.3022C84.9779 40.3233 84.9304 40.3544 84.8903 40.3938C84.8503 40.4333 84.8183 40.4802 84.7964 40.532C84.7745 40.5837 84.7629 40.6393 84.7625 40.6955V42.914C84.7643 43.0267 84.8108 43.1341 84.8917 43.2127C84.9726 43.2912 85.0813 43.3344 85.1941 43.333C85.3061 43.3326 85.4137 43.2887 85.4939 43.2105C85.5742 43.1323 85.6209 43.026 85.6242 42.914L85.6237 42.9094ZM94.5048 43.2853C94.4488 43.286 94.3932 43.2757 94.3412 43.2549C94.2892 43.2342 94.2418 43.2034 94.2017 43.1643C94.1616 43.1252 94.1296 43.0785 94.1076 43.0271C94.0855 42.9756 94.0738 42.9203 94.0732 42.8643V40.6884C94.0738 40.6324 94.0854 40.577 94.1074 40.5255C94.1295 40.4739 94.1614 40.4273 94.2015 40.3881C94.2416 40.349 94.289 40.3181 94.3411 40.2973C94.3931 40.2765 94.4488 40.2662 94.5048 40.2669H96.0619C96.1632 40.2706 96.2592 40.3134 96.3296 40.3864C96.4 40.4594 96.4394 40.5568 96.4394 40.6582C96.4394 40.7596 96.4 40.8571 96.3296 40.9301C96.2592 41.0031 96.1632 41.0459 96.0619 41.0495H94.9324V41.3975H95.8367C95.9319 41.401 96.0221 41.4413 96.0882 41.5099C96.1543 41.5786 96.1913 41.6701 96.1913 41.7654C96.1913 41.8607 96.1543 41.9523 96.0882 42.0209C96.0221 42.0896 95.9319 42.1299 95.8367 42.1334H94.9324V42.5067H96.0609C96.1642 42.5067 96.2633 42.5478 96.3363 42.6208C96.4094 42.6939 96.4504 42.7929 96.4504 42.8963C96.4504 42.9996 96.4094 43.0986 96.3363 43.1717C96.2633 43.2447 96.1642 43.2858 96.0609 43.2858L94.5048 43.2853Z" fill="#101010"/>
<path d="M86 37.1553C86.0017 37.3075 86.013 37.4595 86.0336 37.6104C86.0365 37.6438 86.0424 37.677 86.0514 37.7093C86.0514 37.7311 86.0722 37.7815 86.0742 37.8083C86.0832 37.837 86.0941 37.8651 86.1069 37.8924L86.1187 37.9131V37.9191L86.1276 37.9389L86.1375 37.9517L86.1435 37.9745H86.1484L86.1593 37.9923V37.9982L86.1692 38.0091L86.185 38.0299H86.1979L86.2107 38.0477L86.2226 38.0586L86.2355 38.0754L86.2503 38.0892L86.2691 38.1011L86.2889 38.115L86.3067 38.1278L86.3235 38.1357H86.3295L86.3502 38.1506C86.3873 38.1748 86.4291 38.1907 86.4729 38.1971C86.4937 38.2119 86.556 38.2189 86.5798 38.2317C86.6362 38.2317 86.6263 38.2485 86.6787 38.2436C86.7617 38.249 86.845 38.249 86.9281 38.2436H86.9528H86.9894L87.0092 38.2376C87.024 38.2376 87.0349 38.2307 87.0507 38.2317C87.0923 38.2228 87.1497 38.1911 87.1912 38.1872L87.2189 38.1773L87.2437 38.1704V38.1654C87.2704 38.1456 87.3208 38.1209 87.3426 38.1011L87.3604 38.0902L87.3802 38.0754L87.3871 38.0635L87.399 38.0457L87.4109 38.0358V38.0299C87.4267 38.0082 87.4409 37.9854 87.4534 37.9616L87.4633 37.9478V37.9418L87.4732 37.922V37.9092C87.4732 37.8815 87.49 37.8864 87.4861 37.8468C87.4861 37.8181 87.497 37.8053 87.495 37.7756V37.7519C87.4971 37.6757 87.4918 37.5995 87.4791 37.5243C87.4574 37.3878 87.4188 37.2572 87.395 37.1196C87.3723 36.9409 87.3723 36.7601 87.395 36.5814C87.4099 36.4825 87.4198 36.3726 87.4425 36.2688C87.4554 36.2173 87.4683 36.1698 87.4851 36.1144L87.491 36.0916C87.4989 36.059 87.5207 36.0105 87.5256 35.9808H87.5306C87.5155 36.3664 87.5417 36.7525 87.6088 37.1325V37.1493L87.6147 37.1731L87.6246 37.1889C87.6246 37.2225 87.6424 37.2344 87.6503 37.2631V37.27L87.6553 37.2799V37.2928L87.6642 37.3046V37.3116L87.6741 37.3244L87.6869 37.3373L87.6978 37.3432L87.7027 37.3492L87.7126 37.362L87.7265 37.3709H87.7314L87.7473 37.3878L87.7611 37.3947L87.7779 37.4046L87.7958 37.4125L87.8185 37.4214H87.8235L87.8442 37.4283L87.8561 37.4392H87.8818C87.9254 37.4442 87.9511 37.462 87.9887 37.4659C88.0498 37.4819 88.1125 37.4909 88.1757 37.4926C88.2291 37.4961 88.2826 37.4961 88.336 37.4926H88.3548L88.3726 37.4857H88.3894L88.4082 37.4798H88.427H88.4319L88.4478 37.4728H88.4537L88.4666 37.4679L88.4873 37.458L88.5081 37.4511L88.5259 37.4422L88.5437 37.4323H88.5497L88.5695 37.4254L88.5823 37.4165L88.6021 37.4085V37.4046C88.6265 37.3927 88.6486 37.3766 88.6674 37.3571C88.6883 37.3394 88.7075 37.3199 88.7248 37.2987L88.7396 37.2859L88.7485 37.273L88.7624 37.2542L88.7762 37.2384L88.7812 37.2235L88.7901 37.2057V37.1998L88.8 37.1849L88.8089 37.1612C88.9326 36.8001 88.6941 36.4389 88.7654 36.0729C88.8148 36.0837 88.8346 36.0976 88.8752 36.1075L88.895 36.1164C88.9167 36.1223 88.9563 36.1342 88.9771 36.1421H88.985C89.0167 36.1599 89.0473 36.156 89.0839 36.1748H89.0998C89.1255 36.1837 89.168 36.1936 89.1908 36.2015H89.2155C89.2319 36.2086 89.2492 36.2133 89.267 36.2153H89.2719H89.2977H89.3046L89.3244 36.2213L89.3511 36.2312H89.358H89.3709L89.3788 36.245C89.6251 36.6121 89.7083 37.182 89.7924 37.6133C89.8765 38.0447 89.9299 38.4652 90.0278 38.8877C90.0345 38.9288 90.0437 38.9694 90.0555 39.0094V39.0193V39.0252L90.0615 39.0381V39.0529V39.0697L90.0674 39.0826V39.1004L90.0733 39.1133C90.0803 39.1558 90.0921 39.1766 90.103 39.2221C90.1139 39.2676 90.1287 39.3151 90.1416 39.3626C90.1555 39.4041 90.1713 39.4378 90.1812 39.4793L90.1921 39.511L90.201 39.5367L90.3533 39.5714L90.3652 39.5941L90.3751 39.6218L90.381 39.6406L90.3899 39.6584L90.4028 39.6841L90.4196 39.7069L90.4335 39.7356L90.4493 39.7534L90.4612 39.7673L90.478 39.791L90.4958 39.8128L90.5136 39.8237L90.5304 39.8434L90.5492 39.8553V39.8612L90.5671 39.8741L90.5878 39.889L90.6056 39.9028C90.667 39.9442 90.7336 39.9774 90.8035 40.0017C90.9509 40.0609 91.1087 40.0898 91.2675 40.0868H91.3259L91.3536 40.0799C91.402 40.0801 91.4502 40.0741 91.4971 40.0621L91.504 40.0562L91.5268 40.0463H91.5545H91.5614L91.5841 40.0324L91.6079 40.0245L91.6346 40.0077L91.6534 40.0008H91.6702L91.692 39.9879L91.7157 39.9721C91.7506 39.9503 91.7836 39.9258 91.8147 39.8988C91.8401 39.8771 91.8618 39.8514 91.879 39.8227L91.8889 39.8157H91.8938L91.9008 39.7999L91.9126 39.7811L91.9235 39.7623V39.7564L91.9294 39.7396L91.9364 39.7217V39.7158L91.9443 39.698V39.6891C91.954 39.661 91.9596 39.6317 91.9611 39.602C91.9611 39.5852 91.9611 39.5496 91.9611 39.5318C91.9611 39.514 91.9611 39.4912 91.9611 39.4665C91.9532 39.416 91.9463 39.3675 91.9334 39.3141L91.9275 39.2844C91.785 38.8307 91.6857 38.3647 91.6307 37.8924C91.5564 37.3195 91.4733 36.81 91.7434 36.2707C91.9413 36.8475 91.9779 37.4699 92.1847 38.0704C92.1939 38.116 92.2095 38.16 92.2312 38.201C92.251 38.2218 92.2579 38.2456 92.2767 38.2693L92.2886 38.2832L92.2995 38.297L92.3133 38.3148C92.3281 38.3334 92.3458 38.3494 92.3658 38.3623C92.3834 38.3764 92.4019 38.3893 92.4212 38.4009L92.44 38.4128L92.4558 38.4197L92.4716 38.4345L92.4934 38.4474C92.5162 38.4474 92.533 38.4662 92.5557 38.4702L92.5716 38.4801L92.5953 38.4909L92.6191 38.4988C92.6514 38.5096 92.6844 38.5178 92.718 38.5236L92.7338 38.5305H92.7586L92.7813 38.5364H92.7863C92.8802 38.5506 92.9755 38.5539 93.0702 38.5463H93.0811H93.0999C93.1341 38.5481 93.1682 38.5409 93.1988 38.5256H93.2147H93.2315L93.2513 38.5176L93.2701 38.5087H93.2849L93.3027 38.4998V38.4939L93.3186 38.489L93.3334 38.4791L93.3512 38.4702V38.4642H93.3591L93.3799 38.4514L93.3928 38.4415L93.4076 38.4345V38.4266L93.4224 38.4157V38.4098L93.4343 38.3969L93.4422 38.39V38.3841L93.4561 38.3653H93.463L93.4759 38.3435V38.3376L93.4887 38.3198L93.5006 38.2911C93.512 38.2664 93.5206 38.2405 93.5263 38.2139C93.5328 38.1756 93.5368 38.137 93.5382 38.0981C93.4393 37.5144 93.2483 36.9999 93.18 36.3578C93.0871 35.7669 92.9441 35.1851 92.7526 34.6184L92.7467 34.5977C92.7022 34.4572 92.6547 34.3078 92.5973 34.1742L92.5874 34.1514L92.5815 34.1287L92.5735 34.1129L92.5686 34.101C92.7404 34.2181 92.9199 34.3235 93.1058 34.4166C93.1967 34.4712 93.2913 34.5195 93.3888 34.5611L93.4086 34.5769L93.4294 34.5838L93.4482 34.5927L93.467 34.6016L93.4858 34.6105L93.5085 34.6174L93.5253 34.6273C93.5501 34.6452 93.5867 34.6471 93.6104 34.6659L93.6362 34.6748V34.6808L93.6599 34.6887L93.6866 34.6976H93.8162L93.84 34.7085L93.8627 34.7203H93.8835L93.9003 34.7293H93.9063C93.9577 34.7441 93.9795 34.753 94.028 34.7708L94.0458 34.7787C94.0824 34.7787 94.1378 34.8054 94.1774 34.8074C94.2169 34.8094 94.2763 34.8223 94.305 34.8341H94.3218H94.3485H94.3653L94.3812 34.8401C94.3975 34.8371 94.4143 34.8371 94.4306 34.8401C94.4771 34.8401 94.5187 34.8401 94.5652 34.8401C94.6117 34.8401 94.6176 34.8401 94.6582 34.8401L94.6869 34.8341C94.7255 34.8341 94.7581 34.8104 94.7967 34.8025H94.8096L94.8254 34.7946H94.8412V34.7876L94.8571 34.7817L94.8719 34.7728L94.8848 34.7609L94.9006 34.754L94.9164 34.7461L94.9313 34.7362L94.9481 34.7253L94.9639 34.7164H94.9748L94.9887 34.7065L95.0045 34.6956L95.0223 34.6808L95.0342 34.6659L95.048 34.659L95.0678 34.6461C95.0916 34.6184 95.1173 34.5937 95.142 34.565C95.1509 34.5334 95.1964 34.4987 95.2202 34.4542H95.2261C95.2429 34.4186 95.2805 34.379 95.3043 34.3374L95.3181 34.3147L95.3349 34.29L95.3458 34.2672L95.3627 34.2474C95.3933 34.191 95.4339 34.1406 95.4616 34.0812C95.5041 34.006 95.5487 33.9288 95.5912 33.8526C95.608 33.8091 95.6347 33.7705 95.6545 33.728L95.6694 33.7023L95.6802 33.6755L95.6961 33.6518L95.708 33.6281L95.7208 33.6013C95.7455 33.543 95.7831 33.4787 95.8089 33.4143C95.8346 33.35 95.8771 33.261 95.9078 33.1888C95.942 33.128 95.9718 33.0649 95.9969 32.9998L96.0028 32.9859L96.0087 32.9622L96.0147 32.9503L96.0226 32.9345C96.0605 32.8263 96.0877 32.7146 96.1037 32.6011C96.1136 32.5428 96.1136 32.4832 96.1037 32.4249V32.4141V32.4012V32.3943V32.3804V32.3745V32.3686L96.0988 32.3606C96.0849 32.3438 96.1057 32.3517 96.079 32.3339L96.074 32.325H96.0671L96.0602 32.3141L96.0523 32.3062L96.0424 32.3003V32.2943H96.0354H96.0295V32.2884L96.0147 32.2716V32.2657L95.9978 32.2478L95.987 32.237V32.23L95.9701 32.2182L95.9543 32.2063V32.2004L95.9355 32.1885L95.9187 32.1727L95.9009 32.1618L95.8831 32.1499V32.1449C95.8567 32.1353 95.8312 32.1234 95.8069 32.1093L95.7822 32.1004L95.7594 32.0925L95.7366 32.0826L95.7139 32.0777L95.6892 32.0688L95.6654 32.0599L95.5971 31.9698C95.5506 31.9698 95.4913 31.9352 95.4339 31.9302C95.2103 31.8778 94.9817 31.8313 94.7641 31.764C94.6584 31.737 94.5543 31.704 94.4524 31.6651L94.4277 31.6562L94.4188 31.6493H94.4099L94.3851 31.6404C94.3357 31.6166 94.2615 31.5899 94.206 31.5652L94.1793 31.5572H94.1724L94.1576 31.5434L94.1398 31.5236L94.113 31.5018C94.0858 31.4785 94.0555 31.4588 94.023 31.4435C93.9504 31.393 93.8747 31.347 93.7964 31.3059L93.7846 31.3L93.7707 31.2862L93.7499 31.2792C93.7203 31.2624 93.6995 31.2535 93.6708 31.2367L93.6559 31.2248L93.6302 31.2139L93.6035 31.204L93.5877 31.1961L93.5709 31.1734C93.5422 31.1441 93.5155 31.113 93.4907 31.0804C93.4053 30.975 93.3384 30.8559 93.2928 30.7281C93.2424 30.5817 93.1939 30.4373 93.1533 30.2859C93.1296 30.2176 93.1128 30.1335 93.0861 30.0652L93.0801 30.0405L93.0732 30.0177V30.0029L93.0623 29.9742C93.0415 29.9317 93.0455 29.9158 93.0287 29.8753C93.0118 29.808 92.9762 29.7397 92.9624 29.6774C92.9367 29.617 92.906 29.5468 92.8832 29.4855L92.8714 29.4676L92.8664 29.4538V29.4488L92.8585 29.439L92.8486 29.4241L92.8407 29.4132L92.8357 29.4014V29.3954L92.8268 29.3746L92.8199 29.3638L92.811 29.3519L92.7952 29.3271L92.7833 29.3123L92.7675 29.2896V29.2846L92.7615 29.2727L92.7279 29.2599V29.2539V29.249L92.716 29.2411H92.7091L92.6982 29.2312L92.6774 29.2173L92.6685 29.2104H92.6626C92.626 29.1857 92.6517 29.2035 92.624 29.1926L92.5894 29.1758H92.5834H92.5617H92.5557L92.5498 29.1669C92.5195 29.1649 92.4891 29.1649 92.4588 29.1669C92.4427 29.1676 92.4268 29.1703 92.4113 29.1748H92.4014H92.3826V29.1807H92.3658V29.1857H92.3598H92.343V29.1906H92.3371L92.3242 29.1975V29.2035L92.3114 29.2104L92.3054 29.2163H92.3005L92.2935 29.2243V29.2302V29.2411H92.2886V29.246L92.2332 29.2816L92.2223 29.2965L92.2154 29.3103H92.2104L92.2005 29.3291L92.1936 29.3361V29.3519H92.1857L92.1758 29.3697L92.1649 29.3924V29.3974L92.154 29.4182L92.1343 29.4548L92.1214 29.4845L92.1125 29.5102V29.5151L92.1036 29.5339V29.5399L92.0937 29.5646C92.08 29.5969 92.0681 29.6299 92.0581 29.6635C92.0411 29.7229 92.0203 29.7811 91.9957 29.8377C91.969 29.7714 91.9314 29.6893 91.9116 29.621C91.897 29.5838 91.8845 29.5458 91.874 29.5072V29.4934L91.8513 29.4795L91.8454 29.4617L91.8374 29.4429V29.4291V29.4241L91.8266 29.4132V29.3964V29.3746L91.8186 29.3638L91.8127 29.3479C91.8055 29.3236 91.7952 29.3003 91.782 29.2787C91.7702 29.2579 91.7573 29.2401 91.7464 29.2213L91.7326 29.2035L91.7019 29.1827V29.1768L91.692 29.1649H91.6861L91.6633 29.1491L91.6475 29.1402L91.6277 29.1273H91.6208H91.6158V29.1194L91.595 29.1105H91.5891H91.5822L91.5604 29.1035H91.5505L91.5317 29.0927H91.5188H91.4902C91.4496 29.0778 91.4328 29.0976 91.3912 29.0927H91.3724L91.3507 29.0996L91.3427 29.1035H91.319H91.3091H91.3022L91.2844 29.1154H91.2685L91.2438 29.1402V29.1461H91.2349L91.2161 29.1609H91.2111L91.2003 29.1698L91.1854 29.1827L91.1795 29.1876L91.1736 29.1965L91.1449 29.2203L91.1369 29.2302L91.1231 29.246C91.1152 29.2797 91.1043 29.2658 91.0914 29.2994V29.3093L91.0786 29.3242L91.0736 29.337L91.0647 29.3588L91.0459 29.3905L91.04 29.4142L91.0301 29.4429V29.4479V29.4597V29.4775V29.4845C91.0202 29.5221 91.0123 29.5577 91.0034 29.5953C90.9964 29.6734 90.9885 29.7516 90.9767 29.8288C90.9658 29.9594 90.9499 30.09 90.9351 30.2245C90.9034 30.5461 90.856 30.8676 90.8362 31.1912C90.7916 31.6166 90.8748 32.047 90.8095 32.4695V32.4645V32.4695L90.7976 32.4853L90.7867 32.509V32.5189L90.7808 32.5308L90.7709 32.5486L90.761 32.5714L90.7531 32.5882L90.6422 32.7445C90.6215 32.795 90.5888 32.8435 90.57 32.8919L90.5611 32.9068L90.5552 32.9177L90.5483 32.9266V32.9375L90.5364 32.9612L90.5304 32.982C90.5304 33.0067 90.5304 33.0285 90.5304 33.0522H90.4444L90.4236 33.0453C90.3731 33.0453 90.3425 33.0453 90.296 33.0453C90.2039 33.0453 90.1208 33.0314 90.0308 33.0285C89.8725 33.0156 89.7132 33.0057 89.5549 32.9889C89.4154 32.9889 89.267 32.9652 89.1245 32.9602C89.0454 32.9503 88.9632 32.9523 88.8861 32.9414C88.8089 32.9305 88.7189 32.9414 88.6397 32.9325C88.5606 32.9236 88.5002 32.9216 88.429 32.9206C88.3577 32.9196 88.2924 32.9038 88.2222 32.8969C88.184 32.8936 88.146 32.8883 88.1084 32.8811C88.0791 32.878 88.05 32.8731 88.0213 32.8662H88.0144H88.0095L88.0025 32.8583L87.9788 32.8435V32.8316L87.9719 32.8247H87.9659L87.96 32.8078L87.9511 32.797C87.7944 32.5543 87.6504 32.3036 87.5197 32.046C87.4999 32.0005 87.4613 31.9471 87.4425 31.9035H87.4366L87.4307 31.8907V31.8847L87.4247 31.8788L87.4148 31.8669L87.4089 31.8531L87.3852 31.8293L87.3762 31.8194H87.3673L87.3565 31.8076V31.8016H87.3505L87.3406 31.7917H87.3347V31.7858L87.3268 31.7799H87.3208L87.3159 31.7749H87.2862H87.2793H87.2694H87.2021C87.1902 31.7749 87.1794 31.7749 87.1675 31.7749H87.1606H87.1477L87.1398 31.7799H87.1309L87.1249 31.7858H87.1131L87.1071 31.7917H87.1012L87.0923 31.7967L87.0834 31.8016H87.0755L87.0676 31.8076H87.0626L87.0577 31.8125V31.8194H87.0389H87.0339L87.028 31.8303H87.023V31.8402V31.8481V31.857L87.0161 31.8649C87.0161 31.8847 87.0023 31.8818 87.0023 31.9065C87.0023 31.9194 87.0023 31.9332 86.9973 31.9461V31.955V31.9708L86.9924 31.9797V32.0104L86.9973 32.0183V32.0351C86.9973 32.0559 86.9973 32.0569 86.9973 32.0767C87.0011 32.1433 87.0107 32.2096 87.026 32.2746C87.0646 32.5328 87.1408 32.8207 87.1625 33.0779C87.1526 33.0859 87.1546 33.0918 87.1428 33.0967L87.1338 33.1057C87.0972 33.1423 87.1002 33.1165 87.0636 33.163V33.169L87.0141 33.2046L87.0023 33.2224H86.9597L86.9459 33.2392L86.93 33.256L86.9142 33.2748H86.9093L86.8984 33.2936L86.8806 33.3164L86.8647 33.3382L86.8529 33.3589L86.837 33.3797L86.8232 33.4035L86.8153 33.4163V33.4282H86.7915C86.7798 33.4534 86.7659 33.4776 86.75 33.5004C86.7371 33.5143 86.7322 33.539 86.7173 33.5598L86.7064 33.5717L86.6995 33.5895L86.6926 33.6221C86.6807 33.6399 86.6688 33.6844 86.653 33.7052H86.6451V33.722C86.6095 33.8061 86.5699 33.8754 86.5372 33.9644C86.4715 34.128 86.4172 34.2959 86.375 34.4671C86.3572 34.5502 86.3374 34.6224 86.3235 34.7065C86.1661 35.5154 86.0581 36.3332 86 37.1553V37.1553Z" fill="#221E1F"/>
<path d="M92.6289 34.3275L92.6358 34.3493L92.6428 34.3701L92.6546 34.3918V34.4027C93.0108 35.399 93.1295 36.1935 93.3056 37.2255C93.3205 37.2878 93.3314 37.3501 93.3492 37.4115C93.3588 37.454 93.3707 37.4959 93.3848 37.5371L93.3957 37.5628L93.4006 37.5856L93.4085 37.6113L93.4155 37.6361L93.4234 37.6588V37.6648C93.455 37.7516 93.4791 37.841 93.4956 37.9319C93.519 38.0151 93.5183 38.1033 93.4936 38.1862C93.4679 38.2574 93.4788 38.2168 93.4481 38.2633C93.4312 38.2867 93.4083 38.3052 93.3818 38.3168C93.3343 38.3507 93.2799 38.3736 93.2225 38.384C93.0777 38.411 92.9287 38.4056 92.7862 38.3682C92.7546 38.3543 92.7214 38.3443 92.6873 38.3385L92.6606 38.3257H92.6457L92.6289 38.3089H92.6101L92.5953 38.3029L92.5824 38.2851C92.5517 38.2574 92.5191 38.2564 92.5032 38.2238C92.4746 38.2059 92.4521 38.1797 92.4389 38.1486C92.3651 37.9688 92.3078 37.7827 92.2678 37.5925C92.1777 37.2551 92.1273 36.9079 92.0521 36.5655C92.0376 36.4963 92.0191 36.4279 91.9967 36.3607L91.9868 36.335V36.3281L91.9808 36.3083V36.2964C91.9681 36.2672 91.9576 36.2371 91.9492 36.2064L91.9363 36.1856L91.9245 36.1638L91.9146 36.1361L91.9037 36.1203L91.9195 36.1025C91.9353 36.0748 91.9462 36.0807 91.97 36.0629L91.9858 36.053L92.0066 36.0451L92.0273 36.0253H92.0402V36.0194H92.0461H92.0541L92.0649 36.0095L92.0778 36.0036C92.1154 35.9937 92.0986 35.9838 92.1332 35.9788V35.9729H92.1382L92.1619 35.967L92.2074 35.868L92.1342 35.8176H92.1233L92.0996 35.8274L92.0788 35.8344H92.0729V35.8403H92.0659L92.0491 35.8453L92.0264 35.8532V35.8591L92.0155 35.866H92.0105L92.0006 35.873H91.9917L91.9858 35.8789L91.9789 35.8858H91.967C91.9361 35.8984 91.9069 35.9147 91.8799 35.9343H91.872H91.8641L91.8493 35.9462L91.8334 35.965L91.8166 35.9838L91.7948 36.0095L91.781 36.0273L91.7701 36.0392L91.7543 36.058L91.7424 36.0807L91.7295 36.1025L91.7167 36.1292L91.6989 36.153L91.688 36.1757L91.6395 36.247C91.5847 36.3723 91.5416 36.5025 91.5109 36.6358L91.503 36.6625V36.6882H91.497L91.4921 36.7199V36.7446C91.4189 37.267 91.5485 37.9715 91.6336 38.4958C91.6484 38.5354 91.6524 38.6354 91.6682 38.6621C91.6682 38.6977 91.6811 38.6927 91.684 38.7373C91.687 38.7818 91.6959 38.7857 91.7018 38.8184C91.7345 38.9302 91.7652 39.0489 91.8008 39.1578C91.8374 39.3072 91.8997 39.4615 91.8681 39.6149C91.8572 39.67 91.8337 39.7219 91.7994 39.7663C91.765 39.8108 91.7208 39.8467 91.6702 39.8711V39.877C91.6286 39.8929 91.6059 39.9127 91.5495 39.9305C91.5084 39.9439 91.4659 39.9525 91.4228 39.9562C91.3243 39.9693 91.2245 39.9693 91.126 39.9562C90.9236 39.929 90.7369 39.8325 90.5977 39.6831C90.4522 39.4852 90.3652 39.0796 90.3009 38.8322C90.2573 38.6403 90.2187 38.4365 90.1881 38.2386H90.1831C90.1119 37.7775 90.0317 37.3175 89.9209 36.8643C89.8883 36.7327 89.8487 36.6021 89.8052 36.4686L89.7913 36.4419L89.7794 36.4151L89.7597 36.3993C89.7474 36.3712 89.7335 36.3438 89.7181 36.3172L89.7042 36.2964L89.6914 36.2687V36.2568L89.6736 36.238V36.2282L89.6607 36.2202L89.6508 36.2074L89.6399 36.1896L89.635 36.1787L89.6172 36.1579L89.6033 36.1361V36.1302V36.1243H89.5974L89.5895 36.1183V36.1124H89.5835L89.5707 36.1005L89.5548 36.0916L89.4678 36.0857H89.452H89.447H89.4242C89.3837 36.0857 89.3876 36.0679 89.3382 36.0639C89.3045 36.0511 89.263 36.0431 89.2323 36.0332H89.2155L89.2006 36.0273H89.1937H89.1838L89.164 36.0164H89.1264H89.1126L89.0968 36.0085H89.0809H89.0681H89.0552H89.0394H89.0275V36.0026C88.9116 35.9501 88.8012 35.8862 88.698 35.8116C88.6336 35.7872 88.5711 35.7581 88.511 35.7246C88.4598 35.6914 88.4062 35.6619 88.3508 35.6365V35.6315C88.3181 35.6058 88.2756 35.5979 88.2459 35.5692L88.2231 35.5573C88.1895 35.5336 88.1697 35.5257 88.141 35.5079H88.1351V35.5019L88.1222 35.493L88.1024 35.4851H88.0945L88.0777 35.4693V35.4614H88.0688V35.4554H88.0628H88.0539L88.0411 35.4485H88.0302L87.9382 35.4881H87.9154H87.8966H87.8828C87.8667 35.4956 87.849 35.4987 87.8313 35.497L87.8096 35.5059L87.7809 35.5148L87.7601 35.5227L87.7363 35.5326L87.7136 35.5445L87.6908 35.5534C87.6686 35.5688 87.6471 35.5853 87.6265 35.6029L87.6057 35.6147V35.6207V35.6256C87.5698 35.6682 87.5368 35.7132 87.5068 35.7602V35.7661L87.4979 35.7849L87.487 35.8047L87.4781 35.8274V35.8324C87.4549 35.8769 87.4363 35.9236 87.4227 35.9719C87.2641 36.4485 87.25 36.9615 87.3821 37.4461C87.4405 37.7696 87.4356 37.9645 87.0804 38.0714C86.9467 38.1106 86.8049 38.1133 86.6698 38.0793C86.5983 38.0683 86.5287 38.0473 86.463 38.017C86.4185 37.9982 86.4066 37.9734 86.37 37.9596C86.3443 37.9121 86.3462 37.9507 86.3106 37.8844C86.0356 37.4224 86.2067 36.4943 86.2691 35.9798C86.3175 35.6167 86.368 35.2477 86.4333 34.8915C86.4633 34.7168 86.5023 34.5437 86.5501 34.373C86.5994 34.207 86.6596 34.0444 86.7301 33.8863C86.7573 33.8211 86.7884 33.7577 86.8231 33.6963L86.8281 33.6775L86.839 33.6646L86.8469 33.6518L86.8578 33.6349L86.8676 33.6211L86.8756 33.6072C86.8924 33.5696 86.9171 33.5449 86.93 33.5182C86.9733 33.4484 87.0266 33.3854 87.0883 33.3312C87.115 33.2946 87.113 33.3035 87.1457 33.2788L87.1506 33.2728C87.1635 33.259 87.1892 33.2481 87.2031 33.2333V33.2243H87.208L87.2149 33.2154H87.2199H87.2248V33.2105L87.2298 33.2046V33.1976H87.2347L87.2416 33.1877V33.1808V33.1699V33.162V33.1521V33.1432V33.1304V33.1195C87.2496 33.0967 87.2416 33.0809 87.2416 33.0591C87.233 32.9593 87.2178 32.8601 87.1961 32.7623C87.1851 32.7188 87.1775 32.6744 87.1734 32.6297C87.1595 32.5773 87.1526 32.5239 87.1407 32.4704C87.1229 32.3646 87.0982 32.2557 87.0843 32.1499C87.0763 32.1121 87.0717 32.0737 87.0705 32.0351V32.0163V32.0074V31.9827V31.953V31.947V31.9421H87.0804L87.0853 31.9371L87.0903 31.9322L87.0972 31.9263H87.1051H87.111H87.1229V31.9213H87.1467H87.1585H87.1674V31.9263H87.1724L87.1783 31.9322V31.9371V31.9421C87.1991 31.9559 87.1951 31.9708 87.208 31.9797C87.2397 32.0351 87.2693 32.0915 87.298 32.1479L87.3079 32.1598V32.1746L87.3178 32.1934L87.3287 32.2053L87.3337 32.2221C87.3503 32.2479 87.3655 32.2747 87.3792 32.3022C87.4122 32.3555 87.4419 32.4106 87.4682 32.4675L87.4791 32.4843L87.488 32.4962L87.4959 32.515L87.5048 32.5318L87.5127 32.5436L87.5216 32.5624L87.5296 32.5763L87.5414 32.5931L87.5573 32.6159V32.6248L87.5672 32.6376L87.6819 32.6456L87.6918 32.6564C87.7086 32.6762 87.7185 32.7079 87.7324 32.7198C87.767 32.7762 87.8066 32.8385 87.8373 32.8949L87.8452 32.9107L87.8551 32.9275H87.861L87.8699 32.9364L87.8788 32.9463H87.8847H87.8897L87.8996 32.9523H87.9045L87.9134 32.9592H87.9184H87.9293V32.9671H87.9402H87.95H87.9787L87.9926 32.973H88.0064C88.0401 32.973 88.0064 32.973 88.0421 32.973L88.0599 32.979H88.0777L88.0886 32.9849H88.1004C88.1875 32.9948 88.2726 33.0146 88.3597 33.0176C88.4467 33.0205 88.5734 33.0344 88.6753 33.0344C88.7257 33.0417 88.7767 33.0443 88.8276 33.0423C88.8603 33.0423 88.9048 33.0423 88.9345 33.0482H88.983L89.0047 33.0552H89.0305C89.1482 33.0621 89.265 33.074 89.3817 33.0809C89.4298 33.0887 89.4785 33.092 89.5271 33.0908C89.5796 33.0908 89.5578 33.0987 89.5915 33.0977H89.6647L89.6845 33.1046C89.9753 33.1274 90.2652 33.1501 90.5581 33.1581L90.567 33.1778L90.5749 33.1937L90.5818 33.2125L90.5927 33.2293L90.6026 33.2441C90.7421 33.4964 91.124 33.7784 91.3803 33.9021C91.7048 34.0653 92.0877 34.2197 92.4567 34.1583V34.1514H92.4736H92.4874H92.5003H92.5161L92.5448 34.1366L92.5596 34.1277V34.1425L92.5685 34.1613L92.6289 34.3275ZM87.7076 35.7255C87.772 35.6683 87.855 35.6363 87.9411 35.6355C88.1054 35.6355 88.0401 35.6226 88.1865 35.7058H88.2004L88.2132 35.7137L88.2241 35.7216H88.231C88.2706 35.7414 88.3062 35.7691 88.3498 35.7889L88.3656 35.7948L88.3765 35.8057L88.4012 35.8185L88.4269 35.8314L88.4398 35.8413H88.4527L88.4744 35.8552L88.4863 35.868H88.4992L88.5259 35.8829L88.5496 35.8927L88.5645 35.9017L88.5783 35.9086V35.9145L88.605 35.9205L88.6268 35.9363L88.6406 35.9432H88.6545L88.6802 35.9551L88.7099 35.962C88.6585 36.3825 88.7703 36.5556 88.7861 36.9316C88.7703 37.2591 88.4408 37.3976 88.1519 37.3333C88.0723 37.3173 87.9945 37.2938 87.9194 37.2631H87.9035L87.8897 37.2561L87.8778 37.2462L87.8798 37.2551L87.866 37.2462L87.86 37.2383C87.8412 37.2136 87.8472 37.2383 87.8204 37.1869C87.7719 37.026 87.7426 36.86 87.7334 36.6922C87.6997 36.3706 87.7185 36.0461 87.7057 35.7226L87.7076 35.7255ZM92.6754 33.8764L92.6556 33.8625C92.62 33.8368 92.5883 33.8091 92.5507 33.7863L92.5359 33.7715C92.4666 33.719 92.4191 33.6725 92.3538 33.6181C92.2885 33.5637 92.2232 33.4974 92.156 33.4341L92.1461 33.4262H92.1401L92.1204 33.4024L92.1065 33.3896L92.0917 33.3747L92.0758 33.3559L92.057 33.346L92.0402 33.3312L92.0353 33.3104L92.0224 33.2966H91.9136V33.4064L91.9304 33.4222V33.4311L91.9413 33.443L91.9561 33.4559C91.9821 33.479 92.0068 33.5034 92.0303 33.5291L92.0392 33.539L92.056 33.5538L92.0729 33.5726L92.0897 33.5894C92.1233 33.6251 92.1609 33.6587 92.1975 33.6884C91.7632 33.5667 91.2081 33.2629 90.9252 32.8969L90.9153 32.882L90.9014 32.8672L90.8915 32.8513V32.8434L90.8806 32.8266L90.8747 32.8098L90.8678 32.7989L90.8777 32.7781V32.7712L90.8856 32.7475L90.8915 32.7237L90.9014 32.698L90.9093 32.6772V32.6713C90.9257 32.6001 90.9382 32.5281 90.9469 32.4556C91.0063 31.9025 90.9064 31.4058 91.0073 30.8191C91.0696 30.4798 91.0825 29.5695 91.2418 29.3271H91.2487L91.2606 29.3123H91.2665L91.2823 29.2974H91.2873L91.3041 29.2875C91.3329 29.2684 91.3652 29.2551 91.3992 29.2485C91.4331 29.2418 91.4681 29.242 91.502 29.249L91.5168 29.2549C91.5524 29.2549 91.5346 29.2628 91.5663 29.2737L91.5772 29.2806C91.6014 29.3017 91.6218 29.3268 91.6375 29.3548L91.6484 29.3756C91.6573 29.4063 91.6771 29.4241 91.6801 29.4557L91.689 29.4676C91.7078 29.5398 91.7335 29.6111 91.7582 29.6813V29.7011L91.7632 29.7189C91.77 29.7409 91.7782 29.7624 91.7879 29.7832C91.7963 29.8101 91.8062 29.8366 91.8176 29.8624C91.8354 29.9059 91.8572 29.9455 91.874 29.989C91.8992 30.0427 91.9279 30.0946 91.9601 30.1444V30.1503L91.968 30.1592L91.9729 30.1681V30.177L91.9838 30.1889L91.9927 30.1978V30.2057H91.9987L92.0105 30.2225C92.0352 30.2427 92.0657 30.2545 92.0976 30.2562L92.1589 30.2116L92.151 30.1315L92.1085 30.1028L92.1342 30.0988L92.1233 30.088H92.1174V30.0731L92.1095 30.0632L92.1006 30.0523L92.0907 30.0355V30.0246L92.0828 30.0167C92.1362 29.8871 92.1817 29.7516 92.2312 29.621C92.2557 29.5597 92.2838 29.4999 92.3153 29.4419V29.433L92.3232 29.4231L92.3291 29.4132L92.3321 29.4033L92.341 29.3904L92.3499 29.3746L92.3568 29.3677L92.3628 29.3627L92.3687 29.3548L92.3786 29.3449H92.3875L92.3994 29.338V29.3321H92.4122L92.4261 29.3261H92.433H92.4449H92.4736C92.4967 29.3233 92.5202 29.3261 92.542 29.3342C92.5639 29.3423 92.5835 29.3554 92.5992 29.3726C92.6863 29.431 92.7447 29.5943 92.7832 29.6882C92.9049 29.9989 92.991 30.3333 93.089 30.6529C93.0989 30.6935 93.1127 30.7251 93.1246 30.7647L93.1335 30.7894L93.1414 30.8132L93.1523 30.835L93.1602 30.8597V30.8735L93.1671 30.8973L93.18 30.9161L93.1899 30.9388V30.9438V30.9547L93.1978 30.9646L93.2136 30.9913V30.9972L93.2295 31.0229L93.2453 31.0506L93.2591 31.0675L93.271 31.0833L93.2809 31.1021L93.2928 31.1179L93.3017 31.1387L93.3175 31.1555L93.3294 31.1763L93.3413 31.1892L93.3492 31.1991V31.207C93.3947 31.2663 93.4273 31.2921 93.4738 31.3455C93.4993 31.374 93.5282 31.3993 93.5599 31.4207C93.5926 31.4504 93.644 31.4781 93.6796 31.5048C93.7976 31.5622 93.9189 31.6128 94.0427 31.6562C94.0972 31.6779 94.1595 31.7046 94.2119 31.7304L94.2337 31.7412C94.2733 31.753 94.3123 31.7669 94.3505 31.7828V31.7877L94.3574 31.7927H94.3643L94.3861 31.8006L94.4098 31.8125H94.4375C94.5008 31.8412 94.5365 31.8491 94.5988 31.8709C94.7373 31.9144 94.8778 31.955 95.0193 31.9846C95.1182 32.0153 95.234 32.0351 95.3359 32.0598C95.4141 32.0747 95.4902 32.0984 95.5674 32.1162L95.5931 32.1271C95.6406 32.137 95.686 32.1547 95.7277 32.1795H95.7415V32.1855L95.7346 32.1914H95.7267L95.7148 32.2013H95.7039V32.2072H95.6921L95.6812 32.2162L95.6703 32.226C95.6535 32.2419 95.6376 32.2587 95.6228 32.2765L95.6119 32.2884L95.5991 32.3032L95.5912 32.3171C95.5666 32.3555 95.5444 32.3955 95.5249 32.4368C95.5101 32.4682 95.4998 32.5015 95.4942 32.5357C95.4795 32.6506 95.4852 32.7672 95.511 32.88L95.5169 32.9038L95.5229 32.9256C95.5325 32.9854 95.5484 33.0441 95.5704 33.1007C95.5704 33.1155 95.5862 33.1333 95.5912 33.1501V33.16V33.165V33.1719L95.5971 33.1778V33.1828V33.1907L95.603 33.1966H95.609L95.6149 33.2055V33.2392H95.6208H95.6258H95.6327H95.6406H95.6475H95.6683V33.2451H95.6851C95.5862 33.443 95.4932 33.6409 95.3883 33.8259C95.3394 33.9192 95.2852 34.0098 95.2261 34.097C95.2036 34.1426 95.1764 34.1857 95.1449 34.2256L95.1341 34.2464C95.1004 34.28 95.0895 34.3196 95.0618 34.3453L94.949 34.3631C94.8703 34.3562 94.7933 34.3357 94.7215 34.3028L94.6027 34.28L94.8056 34.4156C94.8843 34.4394 94.9683 34.4394 95.047 34.4156C94.9302 34.563 94.7165 34.6985 94.5216 34.6768C94.4374 34.6725 94.3535 34.6633 94.2703 34.6491C94.2169 34.6382 94.1714 34.6263 94.1189 34.6125L94.0962 34.6065C94.0536 34.5966 94.0081 34.5739 93.9636 34.561H93.9567C93.7309 34.4747 93.5111 34.3735 93.2987 34.2583C93.1909 34.1979 93.0811 34.1395 92.9762 34.0723C92.9336 34.0505 92.8881 34.0178 92.8466 33.9971C92.7961 33.9496 92.7288 33.9219 92.6764 33.8773L92.6754 33.8764Z" fill="#FFE512"/>
<path d="M92.6892 31.3861V31.3673V31.3594L92.6951 31.3465V31.3406H92.7011L92.712 31.3277L92.7248 31.3178H92.7397V31.3119H92.7495L92.7664 31.3039H92.7921C92.8328 31.3012 92.8737 31.3059 92.9128 31.3178C92.9816 31.3418 93.0479 31.3727 93.1107 31.4098C93.1453 31.4306 93.177 31.4524 93.2096 31.4712L93.2225 31.4781L93.2403 31.4929L93.2551 31.4989L93.267 31.5137L93.2828 31.5226C93.3303 31.5701 93.3976 31.6027 93.4273 31.6631V31.673L93.4392 31.6938C93.446 31.7083 93.4495 31.7242 93.4495 31.7403C93.4495 31.7563 93.446 31.7722 93.4392 31.7868V31.7927L93.4303 31.8066L93.4243 31.8135L93.4124 31.8313L93.3927 31.8392V31.8451L93.3729 31.8541V31.86C93.335 31.8714 93.2956 31.8767 93.2561 31.8758C93.2225 31.8758 93.1898 31.8679 93.1572 31.8679C93.1067 31.8545 93.0577 31.8363 93.0108 31.8135L92.9751 31.7986C92.9365 31.7779 92.9059 31.7482 92.8703 31.7254V31.7145C92.8407 31.6906 92.8129 31.6644 92.7871 31.6364C92.7426 31.5642 92.6734 31.4939 92.6803 31.4019L92.6892 31.3861Z" fill="#221E1F"/>
<path d="M92.1304 35.0389L92.0819 34.8766L92.2739 34.3918L92.3965 34.3701L92.6963 34.6214L92.728 34.7718L92.6221 34.7975L92.4104 34.6145L92.3758 34.6926L92.5499 34.8381L92.5845 34.9736L92.4836 34.9993L92.3114 34.8559L92.2798 34.939L92.4925 35.1151L92.5291 35.2556L92.4252 35.2823L92.1304 35.0389Z" fill="#221E1F"/>
<path d="M92.3162 33.9684C92.2618 33.9684 92.2044 34.0673 92.2044 34.2148C92.2044 34.3622 92.2618 34.4601 92.3162 34.4601C92.3706 34.4601 92.43 34.3612 92.43 34.2148C92.43 34.0683 92.3716 33.9684 92.3162 33.9684ZM92.3162 34.5175C92.2173 34.5175 92.1431 34.3839 92.1431 34.2148C92.1431 34.0456 92.2173 33.91 92.3162 33.91C92.4152 33.91 92.4923 34.0436 92.4923 34.2148C92.4923 34.3859 92.4161 34.5175 92.3162 34.5175Z" fill="#221E1F"/>
<path d="M128.694 34.7136H127.906C127.554 34.7136 127.431 34.5331 127.431 34.3627C127.431 34.1924 127.554 34.0161 127.906 34.0161H128.694V34.7136ZM122.737 34.5859V34.0161H123.547C123.733 34.0161 123.946 34.0689 123.946 34.292C123.946 34.5152 123.733 34.5859 123.547 34.5859H122.737ZM122.737 35.693V35.0866H123.578C123.866 35.0866 124.032 35.1718 124.032 35.3907C124.032 35.6096 123.866 35.6888 123.578 35.6888L122.737 35.693ZM131.327 35.1446H132.404C132.734 35.1446 132.829 35.2502 132.829 35.3839C132.829 35.5977 132.595 35.693 132.2 35.693C131.748 35.693 131.14 35.5755 130.703 35.4588L130.575 36.1989C131.199 36.3971 131.849 36.4979 132.504 36.4979C133.57 36.4979 134.689 36.2424 134.689 35.5491C134.689 35.0756 134.162 34.8678 133.709 34.8354V34.8124C134.071 34.7426 134.438 34.493 134.438 34.12C134.438 33.4855 133.548 33.2453 132.616 33.2453C131.971 33.2593 131.33 33.3526 130.708 33.523L130.81 34.2367C131.251 34.1251 131.811 34.0135 132.227 34.0135C132.595 34.0135 132.786 34.0825 132.786 34.2835C132.786 34.413 132.712 34.5194 132.419 34.5194H131.327V35.1429V35.1446ZM142.273 35.6982C141.889 35.6982 141.356 35.4903 141.356 34.8831C141.356 34.2384 141.884 34.0527 142.273 34.0527C142.662 34.0527 143.189 34.2384 143.189 34.8831C143.189 35.4903 142.657 35.6982 142.273 35.6982ZM120.765 34.3993V33.5204C120.285 33.3217 119.77 33.2217 119.251 33.2266C118.111 33.2266 116.88 33.6592 116.88 34.884C116.88 36.0669 118.106 36.5158 119.272 36.5158C119.783 36.5227 120.289 36.4308 120.765 36.2449V35.3634C120.442 35.5024 120.094 35.5748 119.742 35.5764C119.246 35.5789 118.697 35.4086 118.697 34.884C118.697 34.3729 119.172 34.1762 119.683 34.1762C120.054 34.1883 120.419 34.2638 120.765 34.3993ZM134.908 36.3582H136.598V35.251H137.746V36.3582H139.441V33.3876H137.746V34.4155H136.598V33.3876H134.908V36.3548V36.3582ZM146.584 36.3582L148.343 34.872V36.3548H150V33.3876H148.529L146.774 34.8737V33.3876H145.113V36.3548L146.584 36.3582ZM127.475 36.3582L128.081 35.3626H128.694V36.3548H130.32V33.3876C129.628 33.3126 128.642 33.2854 128.332 33.2854C127.021 33.2854 125.785 33.3705 125.785 34.3729C125.785 34.8039 126.163 35.0602 126.59 35.1676L125.706 36.3548L127.475 36.3582ZM121.111 36.3582C121.9 36.428 122.566 36.4647 123.296 36.4647C124.362 36.4647 125.743 36.4067 125.743 35.5747C125.743 35.0901 125.198 34.8346 124.73 34.8346V34.8022C125.178 34.7494 125.54 34.4453 125.54 34.0885C125.54 33.3475 124.362 33.2888 123.254 33.2888C122.518 33.2888 121.926 33.316 121.111 33.391V36.3548V36.3582ZM142.273 33.2266C141.111 33.2266 139.614 33.6431 139.614 34.884C139.614 36.0993 141.127 36.5158 142.273 36.5158C143.418 36.5158 144.933 36.1001 144.933 34.8848C144.933 33.6439 143.435 33.2274 142.273 33.2274" fill="#555A5E"/>
<path d="M148.29 33.1261L147.075 32.087V34.1651L148.29 33.1261Z" fill="#F9B45C"/>
<path d="M123.644 37.7405H117.055V39.8186H123.644V37.7405Z" fill="#6CBFEC"/>
<path d="M130.233 37.7405H123.643V39.8186H130.233V37.7405Z" fill="#FCB54D"/>
<path d="M136.822 37.7405H130.233V39.8186H136.822V37.7405Z" fill="#9CCD5B"/>
<path d="M143.411 37.7405H136.822V39.8186H143.411V37.7405Z" fill="#FDE747"/>
<path d="M150 37.7405H143.411V39.8186H150V37.7405Z" fill="#9465B8"/>
<path d="M174.772 30.087H166.228C164.448 30.087 163 31.5573 163 33.364V36.61C163 38.4167 164.448 39.8869 166.228 39.8869H171.628L175.554 43.087V39.7883C176.974 39.429 178 38.1302 178 36.61V33.364C178 31.5573 176.552 30.087 174.772 30.087ZM166.454 36.3867C166.072 36.3867 165.731 36.3039 165.511 36.1853L165.672 35.5386C165.839 35.6396 166.186 35.7583 166.454 35.7583C166.729 35.7583 166.843 35.6632 166.843 35.515C166.843 35.3663 166.753 35.2953 166.413 35.1826C165.809 34.9807 165.576 34.6546 165.582 34.3104C165.582 33.7706 166.048 33.3613 166.771 33.3613C167.111 33.3613 167.416 33.4382 167.595 33.5273L167.434 34.1503C167.303 34.0789 167.052 33.9838 166.801 33.9838C166.58 33.9838 166.454 34.073 166.454 34.2212C166.454 34.3577 166.568 34.4291 166.926 34.5537C167.482 34.7433 167.715 35.0225 167.72 35.4495C167.72 35.9893 167.291 36.3867 166.454 36.3867ZM172.683 36.3276H171.799V34.7496C171.799 34.3281 171.661 34.0848 171.369 34.0848C171.16 34.0848 171.01 34.2271 170.951 34.3995C170.927 34.4645 170.915 34.5595 170.915 34.6309V36.3276H170.031V34.7019C170.031 34.334 169.9 34.0848 169.613 34.0848C169.38 34.0848 169.243 34.263 169.189 34.4113C169.159 34.4822 169.153 34.5654 169.153 34.6369V36.3276H168.269V34.3518C168.269 33.9902 168.257 33.6814 168.246 33.4263H169.01L169.052 33.8179H169.07C169.195 33.6341 169.452 33.3613 169.953 33.3613C170.33 33.3613 170.628 33.5509 170.754 33.8534H170.766C170.873 33.7051 171.005 33.5864 171.142 33.5037C171.303 33.4086 171.482 33.3613 171.698 33.3613C172.259 33.3613 172.683 33.7529 172.683 34.6187V36.3276H172.683ZM174.181 36.3867C173.799 36.3867 173.458 36.3039 173.237 36.1853L173.399 35.5386C173.566 35.6396 173.912 35.7583 174.181 35.7583C174.456 35.7583 174.569 35.6632 174.569 35.515C174.569 35.3663 174.479 35.2953 174.139 35.1826C173.536 34.9807 173.303 34.6546 173.309 34.3104C173.309 33.7706 173.775 33.3613 174.497 33.3613C174.838 33.3613 175.142 33.4382 175.322 33.5273L175.161 34.1503C175.029 34.0789 174.778 33.9838 174.527 33.9838C174.306 33.9838 174.181 34.073 174.181 34.2212C174.181 34.3577 174.294 34.4291 174.653 34.5537C175.208 34.7433 175.441 35.0225 175.447 35.4495C175.447 35.9893 175.017 36.3867 174.181 36.3867Z" fill="black"/>
<defs>
<linearGradient id="paint0_linear" x1="23.5787" y1="33.7495" x2="32" y2="33.7495" gradientUnits="userSpaceOnUse">
<stop offset="0.3" stop-color="#00B4E6"/>
<stop offset="1" stop-color="#088CCB"/>
</linearGradient>
</defs>
</svg>
