<svg width="58" height="58" viewBox="0 0 58 58" fill="none" xmlns="http://www.w3.org/2000/svg">
<path d="M29 0C12.9837 0 0 12.9837 0 29C0 45.0163 12.9837 58 29 58C45.0163 58 58 45.0163 58 29C57.983 12.9909 45.0092 0.0171136 29 0ZM44.9645 20.1074L24.2502 40.8217C23.4412 41.6304 22.1301 41.6304 21.3212 40.8217L13.0355 32.536C12.2125 31.7412 12.1897 30.4299 12.9845 29.607C13.7792 28.7841 15.0905 28.7613 15.9134 29.556C15.9307 29.5728 15.9477 29.5896 15.9644 29.607L22.7857 36.4283L42.0356 17.1784C42.8585 16.3836 44.1698 16.4065 44.9645 17.2293C45.7399 18.032 45.7399 19.3046 44.9645 20.1074Z" fill="#017052"/>
</svg>
