<svg width="69" height="60" viewBox="0 0 69 60" fill="none" xmlns="http://www.w3.org/2000/svg">
<path d="M61.8673 0H6.90952C3.09966 0 0 3.09953 0 6.90952V43.7388C0 47.5487 3.09966 50.6482 6.90952 50.6482H24.135L32.8491 59.3623C33.2603 59.7737 33.8069 60 34.3886 60C34.9702 60 35.5168 59.7735 35.928 59.3623L44.9549 50.3354C45.372 49.9183 45.372 49.2421 44.9549 48.8251C44.5377 48.408 43.8616 48.408 43.4445 48.8251L34.4176 57.8521C34.4137 57.856 34.4056 57.864 34.3887 57.864C34.3718 57.864 34.3637 57.856 34.3598 57.8519L25.3328 48.825C25.1324 48.6247 24.8609 48.5121 24.5776 48.5121H6.90952C4.27733 48.5121 2.13598 46.3708 2.13598 43.7386V6.90952C2.13598 4.27746 4.27733 2.13598 6.90952 2.13598H61.8673C64.4995 2.13598 66.6409 4.27746 66.6409 6.90952V43.7388C66.6409 46.3709 64.4995 48.5124 61.8673 48.5124H44.3221C43.7323 48.5124 43.2542 48.9906 43.2542 49.5803C43.2542 50.17 43.7323 50.6482 44.3221 50.6482H61.8673C65.6772 50.6482 68.7768 47.5487 68.7768 43.7388V6.90952C68.7768 3.09953 65.6772 0 61.8673 0Z" fill="#017052"/>
<path d="M60.7048 9.78082H11.6989C11.1091 9.78082 10.631 10.259 10.631 10.8487C10.631 11.4384 11.1091 11.9167 11.6989 11.9167H60.7048C61.2947 11.9167 61.7727 11.4384 61.7727 10.8487C61.7727 10.259 61.2947 9.78082 60.7048 9.78082Z" fill="#017052"/>
<path d="M60.7048 18.7566H11.6989C11.1091 18.7566 10.631 19.2348 10.631 19.8245C10.631 20.4142 11.1091 20.8924 11.6989 20.8924H60.7048C61.2947 20.8924 61.7727 20.4142 61.7727 19.8245C61.7727 19.2348 61.2947 18.7566 60.7048 18.7566Z" fill="#017052"/>
<path d="M60.7048 27.7324H11.6989C11.1091 27.7324 10.631 28.2106 10.631 28.8003C10.631 29.3901 11.1091 29.8682 11.6989 29.8682H60.7048C61.2947 29.8682 61.7727 29.3901 61.7727 28.8003C61.7727 28.2105 61.2947 27.7324 60.7048 27.7324Z" fill="#017052"/>
<path d="M42.7687 36.708H11.6989C11.1091 36.708 10.631 37.1862 10.631 37.7759C10.631 38.3658 11.1091 38.8439 11.6989 38.8439H42.7687C43.3585 38.8439 43.8366 38.3657 43.8366 37.7759C43.8366 37.1861 43.3585 36.708 42.7687 36.708Z" fill="#017052"/>
</svg>
