<svg width="60" height="60" viewBox="0 0 60 60" fill="none" xmlns="http://www.w3.org/2000/svg">
<path d="M30.5 0L60 30V60L0 0H30.5Z" fill="#017052"/>
<path d="M38.4013 24.4932C40.0299 26.1219 42.6788 26.1231 44.3059 24.4959C45.9328 22.869 45.9313 20.2205 44.3027 18.5918L41.4498 15.739L34.5747 22.6141L33.8357 21.8751L33.1055 22.6054L33.8444 23.3444L30.739 26.4498L31.5035 27.2143L34.6089 24.1088L37.207 26.7069L37.9372 25.9766L35.3392 23.3785L36.3129 22.4048L38.4013 24.4932ZM41.484 17.2337L43.5724 19.3221C44.7795 20.5293 44.7657 22.5072 43.5415 23.7314C42.317 24.9559 40.3387 24.9701 39.1316 23.7629L37.0432 21.6745L41.484 17.2337Z" fill="white"/>
</svg>
