<svg width="30" height="30" viewBox="0 0 30 30" fill="none" xmlns="http://www.w3.org/2000/svg">
<path d="M10.625 0C4.76625 0 0 4.76625 0 10.625C0 16.4837 4.76625 21.25 10.625 21.25C16.4837 21.25 21.25 16.4837 21.25 10.625C21.25 4.76625 16.4838 0 10.625 0ZM10.625 20C5.45496 20 1.24998 15.795 1.24998 10.625C1.24998 5.45496 5.45496 1.24998 10.625 1.24998C15.795 1.24998 20 5.45496 20 10.625C20 15.795 15.795 20 10.625 20Z" fill="#1A77A3"/>
<path d="M29.8162 28.9338L18.1375 17.255C17.8938 17.0112 17.4975 17.0112 17.2537 17.255C17.01 17.4987 17.01 17.895 17.2537 18.1387L28.9325 29.8175C29.055 29.9387 29.2149 30 29.375 30C29.535 30 29.6949 29.9388 29.8162 29.8175C30.06 29.5737 30.06 29.1775 29.8162 28.9338Z" fill="#1A77A3"/>
</svg>
