<svg width="17" height="18" viewBox="0 0 17 18" fill="none" xmlns="http://www.w3.org/2000/svg">
<path d="M1.75442 18H13.1228C13.9934 18 14.7017 17.2917 14.7017 16.4211V8.84216C14.7017 8.66784 14.5602 8.52637 14.3859 8.52637C14.2116 8.52637 14.0701 8.66784 14.0701 8.84216V16.4211C14.0701 16.9434 13.6451 17.3684 13.1228 17.3684H1.75442C1.23211 17.3684 0.807061 16.9434 0.807061 16.4211V5.05271C0.807061 4.53039 1.23211 4.10534 1.75442 4.10534H3.33336C3.50768 4.10534 3.64915 3.96387 3.64915 3.78955C3.64915 3.61524 3.50768 3.47377 3.33336 3.47377H1.75442C0.883798 3.47377 0.175486 4.18208 0.175486 5.05271V16.4211C0.175486 17.2917 0.883798 18 1.75442 18Z" fill="#888888"/>
<path d="M3.33335 11.6842C3.45177 11.6842 3.56261 11.6176 3.61661 11.5077C5.09671 8.49731 6.78081 6.63164 10.5965 6.63164H10.9123V8.52637C10.9123 8.64826 10.9824 8.7591 11.0923 8.81152C11.2021 8.86426 11.3326 8.84847 11.427 8.77142L16.4796 4.66618C16.5535 4.60649 16.5964 4.51649 16.5964 4.42113C16.5964 4.32576 16.5535 4.23607 16.4799 4.17607L11.4273 0.0708338C11.3329 -0.00621837 11.2025 -0.021692 11.0926 0.0307288C10.9824 0.0831496 10.9123 0.194307 10.9123 0.315885V2.21061H10.5965C6.66018 2.21061 3.01756 3.31997 3.01756 11.3685C3.01756 11.5153 3.11893 11.6429 3.26167 11.676C3.28567 11.6817 3.30967 11.6842 3.33335 11.6842ZM11.228 6.00006H10.5965C7.01228 6.00006 5.12766 7.57458 3.68325 10.0428C4.00503 4.08734 6.58881 2.84219 10.5965 2.84219H11.228C11.4024 2.84219 11.5438 2.70071 11.5438 2.5264V0.979355L15.7798 4.42113L11.5438 7.8629V6.31585C11.5438 6.14154 11.4024 6.00006 11.228 6.00006Z" fill="#888888"/>
</svg>
