<svg width="24" height="20" viewBox="0 0 24 20" fill="none" xmlns="http://www.w3.org/2000/svg">
<path d="M13.0758 15.3848H11.9221V14.2311C11.9221 14.1291 11.8815 14.0313 11.8094 13.9591C11.7373 13.887 11.6395 13.8465 11.5375 13.8465C11.4355 13.8465 11.3377 13.887 11.2655 13.9591C11.1934 14.0313 11.1529 14.1291 11.1529 14.2311V15.3848H9.99915C9.89715 15.3848 9.79933 15.4253 9.7272 15.4975C9.65508 15.5696 9.61456 15.6674 9.61456 15.7694C9.61456 15.8714 9.65508 15.9692 9.7272 16.0414C9.79933 16.1135 9.89715 16.154 9.99915 16.154H11.1529V17.3077C11.1529 17.4097 11.1934 17.5076 11.2655 17.5797C11.3377 17.6518 11.4355 17.6923 11.5375 17.6923C11.6395 17.6923 11.7373 17.6518 11.8094 17.5797C11.8815 17.5076 11.9221 17.4097 11.9221 17.3077V16.154H13.0758C13.1778 16.154 13.2756 16.1135 13.3477 16.0414C13.4199 15.9692 13.4604 15.8714 13.4604 15.7694C13.4604 15.6674 13.4199 15.5696 13.3477 15.4975C13.2756 15.4253 13.1778 15.3848 13.0758 15.3848Z" fill="#1A77A3"/>
<path d="M17.9369 6.42738C18.4349 6.12765 18.8493 5.70733 19.1421 5.20519C19.4348 4.70305 19.5963 4.13527 19.6118 3.55425C19.6272 2.97322 19.4961 2.39766 19.2304 1.88068C18.9648 1.3637 18.5732 0.921948 18.0919 0.59619C17.6105 0.270432 17.0549 0.0711594 16.4762 0.016761C15.8975 -0.0376375 15.3144 0.0545901 14.7808 0.284934C14.2472 0.515277 13.7801 0.876316 13.4228 1.33474C13.0655 1.79316 12.8294 2.33419 12.7363 2.90792C11.9626 2.62217 11.1123 2.62217 10.3387 2.90792C10.2457 2.33398 10.0097 1.7927 9.65238 1.33405C9.29506 0.87539 8.82795 0.514138 8.29418 0.283633C7.7604 0.0531283 7.17716 -0.0392013 6.59829 0.0151668C6.01942 0.069535 5.46358 0.268849 4.98206 0.594711C4.50054 0.920573 4.10887 1.36248 3.84319 1.87965C3.57752 2.39682 3.4464 2.97258 3.46195 3.55379C3.4775 4.135 3.6392 4.70293 3.93214 5.20515C4.22508 5.70738 4.63982 6.12772 5.13807 6.42738C2.18303 7.34797 0 10.4974 0 14.2311C2.03359e-06 14.3023 0.0197783 14.3721 0.0571251 14.4328C0.094472 14.4934 0.147922 14.5425 0.21152 14.5745C0.293484 14.6158 2.16006 15.5467 4.66446 15.9607C4.63161 16.2805 4.6151 16.6017 4.61499 16.9232C4.61499 16.9944 4.63477 17.0642 4.67211 17.1248C4.70946 17.1855 4.76291 17.2345 4.82651 17.2666C4.88636 17.2967 6.27773 17.9917 8.26852 18.4518C8.66484 18.9358 9.16365 19.3257 9.72896 19.5934C10.2943 19.8611 10.912 20 11.5375 20C12.163 20 12.7807 19.8611 13.346 19.5934C13.9113 19.3257 14.4101 18.9358 14.8064 18.4518C16.7977 17.9915 18.1892 17.2966 18.2484 17.2667C18.3121 17.2347 18.3655 17.1856 18.4029 17.1249C18.4402 17.0642 18.46 16.9944 18.46 16.9232C18.4599 16.6017 18.4434 16.2804 18.4106 15.9606C20.9158 15.5463 22.7825 14.6153 22.8635 14.5745C22.9271 14.5425 22.9805 14.4934 23.0179 14.4327C23.0552 14.3721 23.075 14.3023 23.0749 14.2311C23.0749 10.4974 20.8919 7.34797 17.9369 6.42738ZM16.1525 0.770698C16.5566 0.770913 16.9555 0.862124 17.3196 1.03756C17.6837 1.21301 18.0036 1.46817 18.2557 1.78414C18.5077 2.1001 18.6853 2.46876 18.7754 2.86275C18.8655 3.25674 18.8657 3.66595 18.776 4.06004C18.6864 4.45412 18.5091 4.82296 18.2574 5.13919C18.0057 5.45542 17.6861 5.71093 17.3222 5.88675C16.9583 6.06258 16.5595 6.15421 16.1553 6.15485C15.7511 6.15549 15.352 6.06512 14.9876 5.89045C14.9474 5.36925 14.7897 4.86391 14.5264 4.41234C14.2631 3.96076 13.9009 3.57468 13.4671 3.28303C13.5134 2.60206 13.8163 1.96401 14.3147 1.49771C14.8131 1.03141 15.4699 0.771586 16.1525 0.770698ZM11.5375 3.46278C12.0699 3.46278 12.5904 3.62066 13.0331 3.91647C13.4758 4.21228 13.8209 4.63273 14.0246 5.12464C14.2284 5.61655 14.2817 6.15784 14.1778 6.68005C14.0739 7.20226 13.8176 7.68194 13.4411 8.05844C13.0646 8.43493 12.5849 8.69133 12.0627 8.7952C11.5405 8.89908 10.9992 8.84576 10.5073 8.64201C10.0153 8.43825 9.5949 8.0932 9.29909 7.65049C9.00328 7.20778 8.8454 6.68729 8.8454 6.15485C8.8462 5.44111 9.13008 4.75684 9.63477 4.25215C10.1395 3.74746 10.8237 3.46358 11.5375 3.46278ZM4.23041 3.46278C4.23035 2.76443 4.5017 2.0934 4.98715 1.59139C5.4726 1.08938 6.13415 0.795677 6.8321 0.772317C7.53006 0.748956 8.20977 0.997762 8.7277 1.46619C9.24563 1.93462 9.56124 2.58601 9.60788 3.28279C9.17402 3.57446 8.81184 3.96059 8.54851 4.41221C8.28517 4.86382 8.12752 5.36921 8.08738 5.89045C7.67693 6.08723 7.2233 6.17675 6.76887 6.15066C6.31443 6.12456 5.87403 5.9837 5.4888 5.74122C5.10358 5.49875 4.7861 5.16259 4.56604 4.76414C4.34597 4.36569 4.2305 3.91796 4.23041 3.46278ZM4.7743 15.1991C3.39549 14.9624 2.05133 14.5557 0.77253 13.9884C0.880598 10.0711 3.59786 6.92402 6.92248 6.92402C7.35467 6.92419 7.78517 6.97809 8.20406 7.08448C8.44294 7.93505 8.99682 8.6627 9.75306 9.11945C7.26625 9.89415 5.32647 12.2475 4.7743 15.1991ZM11.5375 19.2307C10.8529 19.2307 10.1837 19.0277 9.61451 18.6473C9.04531 18.267 8.60168 17.7264 8.3397 17.094C8.07773 16.4615 8.00918 15.7656 8.14274 15.0942C8.27629 14.4227 8.60594 13.806 9.09001 13.3219C9.57407 12.8379 10.1908 12.5082 10.8622 12.3747C11.5336 12.2411 12.2296 12.3097 12.862 12.5716C13.4945 12.8336 14.0351 13.2773 14.4154 13.8464C14.7957 14.4156 14.9987 15.0848 14.9987 15.7694C14.9977 16.6871 14.6327 17.5669 13.9838 18.2157C13.3349 18.8646 12.4551 19.2296 11.5375 19.2307ZM15.3943 17.5071C15.6847 16.8629 15.809 16.1561 15.7559 15.4514C15.7029 14.7467 15.4741 14.0666 15.0906 13.473C14.707 12.8795 14.1809 12.3915 13.5602 12.0536C12.9396 11.7157 12.2441 11.5386 11.5374 11.5386C10.8308 11.5386 10.1353 11.7157 9.51468 12.0536C8.89401 12.3915 8.36788 12.8795 7.98434 13.473C7.60079 14.0666 7.37204 14.7467 7.31898 15.4514C7.26592 16.1561 7.39024 16.8629 7.68059 17.5071C6.89712 17.2879 6.13072 17.0117 5.38752 16.6807C5.49559 12.7633 8.21285 9.61609 11.5375 9.61609C14.8621 9.61609 17.5794 12.7635 17.6875 16.6808C16.9444 17.012 16.1779 17.2882 15.3943 17.5071ZM18.3006 15.1989C17.7482 12.2473 15.8086 9.89415 13.3219 9.11945C14.0781 8.6627 14.632 7.93505 14.8709 7.08448C15.2898 6.97809 15.7203 6.92418 16.1525 6.92402C19.4771 6.92402 22.1943 10.0711 22.3024 13.9884C21.0236 14.5557 19.6794 14.9623 18.3006 15.1989Z" fill="#1A77A3"/>
</svg>
