<svg width="20" height="20" viewBox="0 0 20 20" fill="none" xmlns="http://www.w3.org/2000/svg">
<path d="M9.16084 4.05719C8.99674 4.05719 8.86373 4.19024 8.86373 4.3543V8.08742C8.39334 8.21781 8.04694 8.64949 8.04694 9.16082C8.04694 9.77504 8.54666 10.2748 9.16088 10.2748C9.67233 10.2748 10.1041 9.9282 10.2344 9.45766L12.254 9.45707C12.4181 9.45703 12.5511 9.32395 12.551 9.15988C12.551 8.99582 12.418 8.86285 12.2539 8.86285C12.2539 8.86285 12.2538 8.86285 12.2538 8.86285L10.2342 8.86344C10.1299 8.48785 9.83362 8.19156 9.45799 8.08746V4.3543C9.45799 4.19024 9.32494 4.05719 9.16084 4.05719ZM9.68057 9.16086C9.68057 9.44742 9.44744 9.68055 9.16084 9.68055C8.87428 9.68055 8.64115 9.44742 8.64115 9.16086C8.64115 8.8743 8.87428 8.64113 9.16084 8.64113C9.44744 8.64113 9.68057 8.87426 9.68057 9.16086Z" fill="#1A77A3"/>
<path d="M14.213 16.8779C14.3134 16.2458 13.9597 15.6981 13.3118 15.4824C13.2244 15.4534 13.1351 15.4229 13.0459 15.3911V14.0667C13.2813 14.1173 13.4214 14.2295 13.4331 14.2391C13.557 14.3448 13.7432 14.331 13.8502 14.2078C13.9578 14.0839 13.9446 13.8963 13.8207 13.7886C13.8036 13.7738 13.516 13.5297 13.0459 13.4639V13.3644C13.0459 13.2003 12.9129 13.0673 12.7488 13.0673C12.5847 13.0673 12.4517 13.2004 12.4517 13.3644V13.4854C12.4071 13.4946 12.3617 13.5053 12.3154 13.5185C11.8748 13.6435 11.5498 14.0032 11.4672 14.4571C11.3942 14.8584 11.5335 15.244 11.8305 15.4635C11.988 15.5798 12.1838 15.6863 12.4517 15.7988V17.4834C12.211 17.4678 12.0467 17.414 11.7755 17.247C11.6359 17.1609 11.4528 17.2043 11.3667 17.3441C11.2806 17.4838 11.3241 17.6668 11.4639 17.7529C11.8491 17.9902 12.1118 18.0605 12.4517 18.0782V18.2107C12.4517 18.3748 12.5847 18.5079 12.7488 18.5079C12.9129 18.5079 13.0459 18.3748 13.0459 18.2107V18.055C13.7107 17.9286 14.1302 17.3994 14.213 16.8779ZM12.1836 14.9854C12.0481 14.8853 12.0267 14.7018 12.0518 14.5634C12.0834 14.3898 12.2053 14.1802 12.4517 14.0986V15.1455C12.3505 15.0945 12.2591 15.0412 12.1836 14.9854ZM13.6261 16.7846C13.5837 17.0514 13.3875 17.3345 13.0459 17.4428V16.0199C13.0717 16.0287 13.0973 16.0374 13.1241 16.0463C13.4925 16.1689 13.6801 16.4449 13.6261 16.7846Z" fill="#1A77A3"/>
<path d="M18.782 11.575H6.7697C6.29088 11.575 5.90131 11.9646 5.90131 12.4434V19.1316C5.90131 19.6104 6.29088 20 6.7697 20H18.782C19.2609 20 19.6504 19.6104 19.6504 19.1316V12.4434C19.6504 11.9646 19.2609 11.575 18.782 11.575ZM19.0562 19.1316C19.0562 19.2828 18.9332 19.4058 18.782 19.4058H6.7697C6.61853 19.4058 6.49552 19.2828 6.49552 19.1316V12.4434C6.49552 12.2923 6.61853 12.1693 6.7697 12.1693H18.782C18.9332 12.1693 19.0562 12.2922 19.0562 12.4434V19.1316Z" fill="#1A77A3"/>
<path d="M11.3571 18.3716H8.29007C8.09644 18.0684 7.83382 17.8067 7.52968 17.614V13.9526C7.83097 13.7617 8.09179 13.5029 8.2848 13.2034H11.3534C11.5175 13.2034 11.6505 13.0703 11.6505 12.9062C11.6505 12.7421 11.5175 12.6091 11.3534 12.6091H8.27808C8.07843 12.6091 7.89574 12.7086 7.78933 12.8752C7.64101 13.1075 7.43914 13.3078 7.20546 13.4545C7.03636 13.5607 6.93542 13.7443 6.93542 13.9458V17.6208C6.93542 17.8223 7.03632 18.0059 7.20531 18.112C7.44121 18.2601 7.64453 18.4627 7.79332 18.6978C7.89949 18.8657 8.08269 18.9659 8.28335 18.9659H11.3571C11.5212 18.9659 11.6542 18.8328 11.6542 18.6687C11.6542 18.5047 11.5212 18.3716 11.3571 18.3716Z" fill="#1A77A3"/>
<path d="M18.35 13.4471C18.1218 13.3014 17.9241 13.1037 17.7783 12.8755C17.6718 12.7087 17.489 12.6091 17.2894 12.6091H14.1378C13.9737 12.6091 13.8407 12.7422 13.8407 12.9062C13.8407 13.0704 13.9737 13.2034 14.1378 13.2034H17.2826C17.4723 13.4978 17.7277 13.7532 18.0221 13.9428V17.6237C17.7249 17.8152 17.4677 18.0734 17.2773 18.3716H14.1449C13.9808 18.3716 13.8478 18.5046 13.8478 18.6687C13.8478 18.8328 13.9808 18.9658 14.1449 18.9658H17.2841C17.4848 18.9658 17.6681 18.8655 17.7743 18.6975C17.9206 18.4664 18.1197 18.2664 18.3501 18.1193C18.5168 18.0128 18.6163 17.8301 18.6163 17.6305V13.936C18.6163 13.7365 18.5168 13.5537 18.35 13.4471Z" fill="#1A77A3"/>
<path d="M5.11581 14.8947C4.86835 14.7198 4.6346 14.5299 4.41452 14.3274L4.76058 13.9813C4.87663 13.8653 4.87663 13.6771 4.76058 13.5611C4.64456 13.4451 4.4564 13.4451 4.34038 13.5611L3.99444 13.9071C2.8837 12.696 2.22183 11.1208 2.15104 9.45797H2.64081C2.80491 9.45797 2.93792 9.32492 2.93792 9.16086C2.93792 8.99676 2.80487 8.86375 2.64081 8.86375H2.15065C2.22229 7.15273 2.90937 5.5982 3.99601 4.41625L4.34034 4.76059C4.39835 4.81859 4.4744 4.84762 4.55042 4.84762C4.62644 4.84762 4.70249 4.81859 4.7605 4.76059C4.87655 4.64457 4.87655 4.45641 4.7605 4.34039L4.41616 3.99605C5.59811 2.90937 7.15265 2.22234 8.86366 2.15066V2.64078C8.86366 2.80488 8.99671 2.93789 9.16077 2.93789C9.32483 2.93789 9.45788 2.80484 9.45788 2.64078V2.15066C11.1689 2.2223 12.7234 2.90937 13.9054 3.99605L13.561 4.34039C13.445 4.45641 13.445 4.64457 13.561 4.76059C13.6771 4.87664 13.8651 4.8766 13.9812 4.76059L14.3256 4.41625C15.4122 5.5982 16.0993 7.15273 16.1709 8.86375H15.6808C15.5167 8.86375 15.3837 8.9968 15.3837 9.16086C15.3837 9.32496 15.5167 9.45797 15.6808 9.45797H16.171C16.1557 9.82449 16.1123 10.1893 16.0409 10.5461C16.0086 10.707 16.1129 10.8635 16.2738 10.8958C16.435 10.9281 16.5913 10.8237 16.6235 10.6628C16.722 10.1714 16.7719 9.66605 16.7719 9.16082C16.7719 4.96402 13.3575 1.54965 9.16073 1.54965C4.96394 1.54965 1.54956 4.96402 1.54956 9.16082C1.54956 11.6287 2.75448 13.9537 4.77272 15.38C4.90679 15.4747 5.09222 15.4428 5.18686 15.3088C5.28167 15.1748 5.24983 14.9894 5.11581 14.8947Z" fill="#1A77A3"/>
<path d="M5.0734 16.6906C2.31055 15.1877 0.594258 12.3025 0.594258 9.16082C0.594258 4.42633 4.4257 0.594219 9.16086 0.594219C13.8954 0.594219 17.7275 4.42566 17.7275 9.16082C17.7275 9.62598 17.6897 10.0929 17.6153 10.5486C17.5889 10.7106 17.6987 10.8633 17.8607 10.8897C18.0231 10.9162 18.1754 10.8063 18.2018 10.6444C18.2813 10.1571 18.3217 9.65793 18.3217 9.16078C18.3217 4.09793 14.2245 0 9.16082 0C4.09797 0 0 4.09723 0 9.16082C0 12.5204 1.83523 15.6056 4.78945 17.2126C4.93387 17.2911 5.11418 17.2375 5.19246 17.0936C5.27086 16.9495 5.21758 16.7691 5.0734 16.6906Z" fill="#1A77A3"/>
</svg>
