<svg width="16" height="20" viewBox="0 0 16 20" fill="none" xmlns="http://www.w3.org/2000/svg">
<path d="M15.3758 4.04945L7.85894 0.04407C7.74743 -0.0154468 7.61377 -0.0146115 7.50309 0.0461583L0.194213 4.05154C0.0743439 4.11732 0 4.24304 0 4.37982V9.61188C0.00438547 13.9128 2.55254 17.8037 6.49319 19.5268L7.50769 19.9689C7.6025 20.0102 7.71046 20.0104 7.80548 19.9693L8.94862 19.4756C12.9624 17.7899 15.5736 13.8614 15.574 9.50809V4.37982C15.574 4.24158 15.4978 4.1144 15.3758 4.04945ZM14.8255 9.50809C14.8247 13.5613 12.3929 17.2186 8.65563 18.7871L8.65313 18.7883L7.65763 19.2181L6.79265 18.8408C3.12453 17.2369 0.752419 13.6154 0.748242 9.61188V4.60139L7.6854 0.799412L14.8255 4.60411V9.50809Z" fill="#1A77A3"/>
<path d="M4.92442 9.36922C4.79014 9.21197 4.55395 9.19338 4.39671 9.32766C4.23946 9.46173 4.22087 9.69813 4.35515 9.85517L6.33194 12.1701C6.46392 12.3246 6.6951 12.3457 6.85256 12.2175L11.4565 8.47187C11.6168 8.34156 11.6411 8.10579 11.5105 7.94541C11.3802 7.78523 11.1445 7.7608 10.9841 7.89132L6.66378 11.4059L4.92442 9.36922Z" fill="#1A77A3"/>
</svg>
