<svg width="25" height="20" viewBox="0 0 25 20" fill="none" xmlns="http://www.w3.org/2000/svg">
<path d="M10.9485 4.94667C10.7401 3.9466 9.9282 3.13468 8.92817 2.92626C8.13062 2.76004 7.31694 2.95423 6.69597 3.45905C6.07501 3.96396 5.71887 4.7121 5.71887 5.51165C5.71887 5.70865 5.87858 5.86836 6.07558 5.86836C6.27258 5.86836 6.43229 5.70865 6.43229 5.51165C6.43229 4.92779 6.69245 4.3814 7.14605 4.01261C7.59959 3.64382 8.19611 3.50242 8.78259 3.6247C9.50895 3.77609 10.0987 4.36585 10.2501 5.09221C10.4614 6.10612 9.88073 7.08413 8.8994 7.36717C8.36528 7.52122 8.00643 7.98351 8.00643 8.51758C8.00643 8.71458 8.16614 8.87429 8.36314 8.87429C8.56014 8.87429 8.71985 8.71458 8.71985 8.51758C8.71985 8.30455 8.87148 8.11773 9.09711 8.05267C10.4409 7.66514 11.2368 6.32985 10.9485 4.94667Z" fill="#1A77A3"/>
<path d="M8.36314 9.73002H8.359C8.162 9.73002 8.00433 9.88973 8.00433 10.0867C8.00433 10.2837 8.16614 10.4434 8.36314 10.4434C8.56014 10.4434 8.71985 10.2837 8.71985 10.0867C8.71985 9.88973 8.56014 9.73002 8.36314 9.73002Z" fill="#1A77A3"/>
<path d="M15.2258 0H1.50047C0.673089 0 0 0.673089 0 1.50047V11.4132C0 12.2405 0.673089 12.9136 1.50047 12.9136H3.05007V15.4491C3.05007 15.7486 3.2289 16.0163 3.50566 16.1309C3.5975 16.1689 3.69362 16.1874 3.78884 16.1874C3.98051 16.1874 4.16838 16.1124 4.30992 15.9709L7.36717 12.9137H15.2258C16.0532 12.9137 16.7263 12.2406 16.7263 11.4132V1.50047C16.7263 0.673089 16.0532 0 15.2258 0ZM16.0128 11.4132C16.0128 11.8472 15.6598 12.2002 15.2258 12.2002H7.21939V12.2003C7.12479 12.2003 7.03405 12.2378 6.96718 12.3048L3.80539 15.4665C3.7994 15.4724 3.79374 15.4781 3.77861 15.4718C3.76344 15.4655 3.76344 15.4576 3.76344 15.4491V12.557C3.76344 12.36 3.60373 12.2003 3.40673 12.2003H1.50047C1.06647 12.2003 0.713421 11.8472 0.713421 11.4132V1.50047C0.713421 1.06647 1.06647 0.713421 1.50047 0.713421H15.2258C15.6598 0.713421 16.0128 1.06647 16.0128 1.50047V11.4132Z" fill="#1A77A3"/>
<path d="M22.851 3.81257H17.8946C17.6976 3.81257 17.5379 3.97228 17.5379 4.16928C17.5379 4.36628 17.6976 4.52599 17.8946 4.52599H22.851C23.285 4.52599 23.638 4.87904 23.638 5.31304V15.2257C23.638 15.6597 23.285 16.0128 22.851 16.0128H20.9447C20.7477 16.0128 20.5879 16.1725 20.5879 16.3695V19.2617C20.5879 19.2701 20.5879 19.2781 20.5728 19.2843C20.5576 19.2905 20.5519 19.2849 20.546 19.279L17.3843 16.1173C17.3174 16.0504 17.2266 16.0128 17.132 16.0128H9.12565C8.69165 16.0128 8.3386 15.6597 8.3386 15.2257V14.0819C8.3386 13.8849 8.17889 13.7252 7.98189 13.7252C7.78489 13.7252 7.62518 13.8849 7.62518 14.0819V15.2257C7.62518 16.0531 8.29827 16.7262 9.12565 16.7262H16.9843L20.0416 19.7834C20.1831 19.925 20.371 20 20.5626 20C20.6578 20 20.754 19.9815 20.8458 19.9434C21.1226 19.8288 21.3014 19.5612 21.3014 19.2617V16.7262H22.851C23.6784 16.7262 24.3515 16.0531 24.3515 15.2257V5.31308C24.3514 4.48571 23.6783 3.81257 22.851 3.81257Z" fill="#1A77A3"/>
</svg>
