<svg width="22" height="20" viewBox="0 0 22 20" fill="none" xmlns="http://www.w3.org/2000/svg">
<path d="M21.5424 9.79213C21.4934 9.73584 20.3212 8.39776 18.4135 7.04118C17.7477 6.56773 16.9425 6.06017 16.0331 5.61104L21.5182 0.549437C21.6467 0.430822 21.6548 0.230456 21.5362 0.101918C21.4175 -0.0266208 21.2172 -0.0346439 21.0886 0.0839291L15.4124 5.322C14.0419 4.72048 12.4731 4.28191 10.8101 4.28191C8.92538 4.28191 6.96474 4.83402 4.98266 5.92289C4.82937 6.00709 4.77334 6.19964 4.85758 6.35297C4.94182 6.50625 5.13434 6.56224 5.28766 6.47804C7.17524 5.44108 9.03327 4.91531 10.8101 4.91531C12.2728 4.91531 13.6649 5.27855 14.9027 5.79241L13.7614 6.84563C12.9883 6.12186 11.9502 5.67797 10.8101 5.67797C8.42693 5.67797 6.48809 7.61682 6.48809 10C6.48809 11.0157 6.84043 11.9505 7.42911 12.6891L6.08714 13.9275C5.1272 13.4727 4.27857 12.943 3.58647 12.4516C2.16824 11.4448 1.15011 10.4265 0.746926 10.0001C1.21982 9.50013 2.53865 8.18645 4.36078 7.02741C4.50837 6.93354 4.5519 6.73778 4.45803 6.5902C4.36416 6.44261 4.16844 6.39904 4.02081 6.49295C1.64539 8.00395 0.140718 9.71984 0.0778 9.79213C-0.0258669 9.91129 -0.0258669 10.0886 0.0778 10.2078C0.126741 10.2641 1.29896 11.6022 3.20664 12.9588C3.87239 13.4322 4.6777 13.9398 5.58701 14.3889L0.101912 19.4505C-0.0266269 19.5692 -0.0346501 19.7695 0.0839651 19.8981C0.146376 19.9657 0.231463 20 0.316804 20C0.393614 20 0.470636 19.9722 0.531485 19.9161L6.2077 14.678C7.57821 15.2795 9.14703 15.7181 10.8101 15.7181C13.8873 15.7181 16.6434 14.2176 18.4136 12.9588C20.3213 11.6022 21.4935 10.2641 21.5425 10.2079C21.646 10.0886 21.646 9.91129 21.5424 9.79213ZM7.1214 9.99997C7.1214 7.96603 8.7761 6.31133 10.81 6.31133C11.7663 6.31133 12.6387 6.67718 13.2948 7.27617L11.9113 8.55281C11.6053 8.31943 11.2237 8.18042 10.8101 8.18042C9.80678 8.18042 8.99049 8.99666 8.99049 9.99997C8.99049 10.3614 9.09686 10.6982 9.27924 10.9817L7.89572 12.2584C7.41066 11.6339 7.1214 10.8501 7.1214 9.99997ZM11.9962 9.99997C11.9962 10.654 11.4641 11.1862 10.81 11.1862C10.5808 11.1862 10.3667 11.1206 10.1851 11.0076L11.8645 9.45786C11.9485 9.62048 11.9962 9.80471 11.9962 9.99997ZM9.62389 9.99997C9.62389 9.34592 10.156 8.81382 10.8101 8.81382C11.0393 8.81382 11.2534 8.87936 11.435 8.9924L9.7556 10.5421C9.67161 10.3795 9.62389 10.1953 9.62389 9.99997ZM18.0465 12.4426C16.3515 13.6479 13.7202 15.0847 10.8101 15.0847C9.34739 15.0847 7.95534 14.7214 6.71746 14.2076L7.85877 13.1544C8.63186 13.8782 9.67 14.3221 10.8101 14.3221C12.2079 14.3221 13.5261 13.6408 14.3364 12.4997C14.4376 12.3571 14.4041 12.1594 14.2615 12.0581C14.1189 11.9568 13.9212 11.9904 13.8199 12.133C13.1282 13.1071 12.0031 13.6887 10.8101 13.6887C9.85386 13.6887 8.9815 13.3228 8.32542 12.7239L9.70885 11.4472C10.0148 11.6806 10.3965 11.8196 10.8101 11.8196C11.8134 11.8196 12.6297 11.0034 12.6297 10C12.6297 9.63859 12.5234 9.30179 12.3409 9.01832L13.7245 7.7416C14.2095 8.36609 14.4987 9.14986 14.4987 10C14.4987 10.4012 14.4348 10.7954 14.3087 11.1719C14.2533 11.3378 14.3427 11.5172 14.5086 11.5728C14.6743 11.6284 14.8539 11.5388 14.9094 11.373C15.0572 10.9316 15.1321 10.4697 15.1321 10C15.1321 8.98433 14.7798 8.04951 14.1911 7.31092L15.5331 6.07254C16.4931 6.52728 17.3417 7.05706 18.0338 7.54841C19.4523 8.55535 20.4704 9.57377 20.8735 10.0001C20.4721 10.4248 19.4608 11.4368 18.0465 12.4426Z" fill="#1A77A3"/>
</svg>
