<svg width="18" height="18" viewBox="0 0 18 18" fill="none" xmlns="http://www.w3.org/2000/svg">
<path d="M9 0C4.02942 0 0 4.02942 0 9C0 13.9706 4.02942 18 9 18C13.9706 18 18 13.9706 18 9C17.9942 4.03182 13.9682 0.00577016 9 0ZM9 17.4194C4.35012 17.4194 0.580645 13.6499 0.580645 9C0.580645 4.35012 4.35012 0.580645 9 0.580645C13.6499 0.580645 17.4194 4.35012 17.4194 9C17.4142 13.6478 13.6478 17.4142 9 17.4194Z" fill="#017052"/>
<path d="M13.4399 5.74635L7.54841 11.6379L4.56012 8.64958C4.44479 8.53817 4.26102 8.54136 4.14961 8.65669C4.04095 8.76919 4.04095 8.94756 4.14961 9.0601L7.34315 12.2536C7.45652 12.367 7.6403 12.367 7.75367 12.2536L13.8504 6.15687C13.9619 6.04154 13.9587 5.85776 13.8433 5.74635C13.7308 5.6377 13.5524 5.6377 13.4399 5.74635Z" fill="#017052"/>
</svg>
