<svg width="18" height="18" viewBox="0 0 18 18" fill="none" xmlns="http://www.w3.org/2000/svg">
<path d="M16.875 12.75C16.668 12.75 16.5 12.918 16.5 13.125V16.875C16.5 17.0813 16.332 17.25 16.125 17.25H1.12504C0.918035 17.25 0.750023 17.0813 0.750023 16.875V13.125C0.750023 12.918 0.582012 12.75 0.375012 12.75C0.168012 12.75 0 12.918 0 13.125V16.875C0 17.4953 0.504738 18 1.125 18H16.125C16.7453 18 17.25 17.4953 17.25 16.875V13.125C17.25 12.918 17.082 12.75 16.875 12.75Z" fill="#1A77A3"/>
<path d="M8.62501 0C8.41801 0 8.25 0.168012 8.25 0.375012V14.625C8.25 14.832 8.41801 15 8.62501 15C8.83201 15 9.00002 14.832 9.00002 14.625V0.375012C9.00002 0.168012 8.83201 0 8.62501 0Z" fill="#1A77A3"/>
<path d="M13.389 9.86024C13.2427 9.71399 13.005 9.71399 12.8587 9.86024L8.62427 14.0947L4.38977 9.86024C4.24352 9.71399 4.00575 9.71399 3.8595 9.86024C3.71325 10.0065 3.71325 10.2443 3.8595 10.3905L8.3595 14.8905C8.43302 14.9632 8.52899 15 8.625 15C8.72102 15 8.81699 14.9633 8.88899 14.8905L13.389 10.3905C13.5352 10.2443 13.5352 10.0065 13.389 9.86024Z" fill="#1A77A3"/>
</svg>
