<svg width="31" height="26" viewBox="0 0 31 26" fill="none" xmlns="http://www.w3.org/2000/svg">
<path d="M30.0791 15.7817C28.4474 21.6173 24.422 25.8534 20.5092 25.8534C20.1949 25.8534 19.8809 25.8261 19.575 25.772C19.4016 25.7415 19.2499 25.6395 19.156 25.4916C19.0624 25.3427 19.036 25.1618 19.0835 24.9926L19.889 22.1116C19.9667 21.8333 20.235 21.6453 20.5138 21.658L20.5779 21.6592C22.029 21.6592 24.681 19.4844 26.0329 14.6508C26.0864 14.459 26.1371 14.2629 26.1859 14.0583C24.6682 14.8094 22.8577 14.9831 21.2182 14.5265C17.5196 13.4916 15.3529 9.64124 16.3868 5.9432C17.2249 2.94678 19.9813 0.853424 23.09 0.853424C23.7232 0.853424 24.3555 0.940777 24.9694 1.11268C27.4085 1.79441 29.2423 3.81938 30.1332 6.81331C30.9374 9.51441 30.9172 12.7831 30.0791 15.7817Z" fill="#017052"/>
<path d="M4.37936 25.8528C4.0657 25.8528 3.75142 25.826 3.44584 25.7719C3.27269 25.7421 3.12067 25.6395 3.0271 25.4915C2.93353 25.3426 2.90711 25.1617 2.95436 24.9926L3.76012 22.1115C3.83784 21.8333 4.10114 21.6452 4.38496 21.658L4.44837 21.6592C5.89949 21.6592 8.55178 19.4844 9.90373 14.6508C9.95751 14.4577 10.0082 14.2616 10.0567 14.0583C8.53841 14.8093 6.72856 14.9831 5.08907 14.5264C1.39103 13.4916 -0.776318 9.6412 0.258238 5.94316C1.09633 2.94674 3.85276 0.853382 6.9614 0.853382C7.59463 0.853382 8.22693 0.940735 8.8412 1.11264C11.2799 1.79437 13.1137 3.81933 14.005 6.81327C14.8089 9.51436 14.789 12.7834 13.9506 15.7823C12.3179 21.6172 8.29314 25.8528 4.37936 25.8528Z" fill="#017052"/>
</svg>
