<svg width="25" height="25" viewBox="0 0 25 25" fill="none" xmlns="http://www.w3.org/2000/svg">
<path d="M12.5 0C5.59642 0 0 5.59642 0 12.5C0 19.4036 5.59642 25 12.5 25C19.4036 25 25 19.4036 25 12.5C24.992 5.59975 19.4003 0.00801411 12.5 0ZM12.5 24.1935C6.04183 24.1935 0.806452 18.9582 0.806452 12.5C0.806452 6.04183 6.04183 0.806452 12.5 0.806452C18.9582 0.806452 24.1935 6.04183 24.1935 12.5C24.1864 18.9552 18.9552 24.1864 12.5 24.1935Z" fill="#1A77A3"/>
<path d="M18.6666 7.98105L10.4839 16.1637L6.33349 12.0133C6.17331 11.8586 5.91806 11.863 5.76333 12.0232C5.61242 12.1794 5.61242 12.4272 5.76333 12.5835L10.1988 17.019C10.3563 17.1764 10.6115 17.1764 10.769 17.019L19.2367 8.55121C19.3915 8.39103 19.387 8.13578 19.2268 7.98105C19.0705 7.83014 18.8228 7.83014 18.6666 7.98105Z" fill="#1A77A3"/>
</svg>
