<svg width="49" height="49" viewBox="0 0 49 49" fill="none" xmlns="http://www.w3.org/2000/svg">
<path d="M17.3541 0C7.78488 0 0 7.78487 0 17.3541C0 26.9234 7.78488 34.7083 17.3541 34.7083C26.9234 34.7083 34.7083 26.9234 34.7083 17.3541C34.7083 7.78487 26.9235 0 17.3541 0ZM17.3541 32.6666C8.90977 32.6666 2.04163 25.7985 2.04163 17.3541C2.04163 8.90977 8.90977 2.04163 17.3541 2.04163C25.7985 2.04163 32.6666 8.90977 32.6666 17.3541C32.6666 25.7985 25.7985 32.6666 17.3541 32.6666Z" fill="white"/>
<path d="M48.6999 47.2585L29.6247 28.1831C29.2265 27.785 28.5793 27.785 28.1812 28.1831C27.783 28.5813 27.783 29.2285 28.1812 29.6266L47.2564 48.7019C47.4565 48.8999 47.7178 49 47.9792 49C48.2405 49 48.5018 48.9 48.6999 48.7019C49.098 48.3038 49.098 47.6566 48.6999 47.2585Z" fill="white"/>
</svg>
