<svg width="49" height="11" viewBox="0 0 49 11" fill="none" xmlns="http://www.w3.org/2000/svg">
<path d="M44.2284 10.7417L48.7457 6.12878L48.7465 6.12793C49.0851 5.78117 49.084 5.21768 48.7464 4.87207L48.7456 4.87123L44.2283 0.25832C43.8899 -0.0872491 43.3425 -0.0859632 43.0056 0.261335C42.6688 0.60859 42.6701 1.17026 43.0085 1.51587L46.0415 4.6129L0.864528 4.6129C0.387047 4.6129 -2.18997e-07 5.01006 -2.40413e-07 5.5C-2.61829e-07 5.98995 0.387047 6.3871 0.864528 6.3871L46.0415 6.3871L43.0086 9.48413C42.6702 9.82975 42.6689 10.3914 43.0057 10.7387C43.3426 11.086 43.89 11.0872 44.2284 10.7417Z" fill="#1A77A3"/>
</svg>
