<svg width="40" height="50" viewBox="0 0 40 50" fill="none" xmlns="http://www.w3.org/2000/svg">
<path d="M38.9706 50H0.735294C0.540282 50 0.353257 49.9225 0.215363 49.7846C0.0774684 49.6467 0 49.4597 0 49.2647V0.735294C0 0.540282 0.0774684 0.353257 0.215363 0.215363C0.353257 0.0774682 0.540282 0 0.735294 0H38.9706C39.1656 0 39.3526 0.0774682 39.4905 0.215363C39.6284 0.353257 39.7059 0.540282 39.7059 0.735294V49.2647C39.7059 49.4597 39.6284 49.6467 39.4905 49.7846C39.3526 49.9225 39.1656 50 38.9706 50ZM1.47059 48.5294H38.2353V1.47059H1.47059V48.5294Z" fill="#1A77A3"/>
<path d="M19.8529 28.6765C17.7442 28.6765 15.6829 28.0512 13.9296 26.8796C12.1763 25.7081 10.8097 24.043 10.0027 22.0948C9.19578 20.1466 8.98464 18.0029 9.39603 15.9347C9.80742 13.8665 10.8229 11.9668 12.3139 10.4757C13.805 8.98463 15.7047 7.96919 17.7729 7.5578C19.8411 7.14642 21.9848 7.35756 23.933 8.16452C25.8812 8.97148 27.5463 10.338 28.7179 12.0913C29.8894 13.8447 30.5147 15.906 30.5147 18.0147C30.5114 20.8414 29.387 23.5513 27.3883 25.5501C25.3895 27.5488 22.6796 28.6732 19.8529 28.6765ZM19.8529 8.82353C18.0351 8.82353 16.2581 9.36258 14.7466 10.3725C13.2351 11.3825 12.057 12.8179 11.3614 14.4974C10.6657 16.1769 10.4837 18.0249 10.8384 19.8078C11.193 21.5907 12.0684 23.2284 13.3538 24.5139C14.6392 25.7993 16.2769 26.6746 18.0598 27.0293C19.8427 27.3839 21.6908 27.2019 23.3702 26.5062C25.0497 25.8106 26.4852 24.6325 27.4951 23.1211C28.5051 21.6096 29.0441 19.8325 29.0441 18.0147C29.0414 15.5779 28.0722 13.2417 26.3491 11.5186C24.626 9.79548 22.2897 8.82625 19.8529 8.82353Z" fill="#1A77A3"/>
<path d="M27.7574 24.7647C27.6569 24.7647 27.5576 24.7442 27.4654 24.7044C27.3732 24.6645 27.2901 24.6063 27.2213 24.5331C26.2747 23.5288 25.1327 22.7286 23.8655 22.1817C22.5983 21.6347 21.2328 21.3526 19.8526 21.3526C18.4724 21.3526 17.1068 21.6347 15.8397 22.1817C14.5725 22.7286 13.4305 23.5288 12.4838 24.5331C12.4198 24.6101 12.3406 24.6733 12.2512 24.7186C12.1619 24.764 12.0642 24.7906 11.9642 24.7968C11.8641 24.803 11.7639 24.7887 11.6696 24.7548C11.5753 24.7209 11.4889 24.668 11.4158 24.5995C11.3427 24.531 11.2843 24.4482 11.2443 24.3564C11.2043 24.2645 11.1835 24.1654 11.1832 24.0652C11.1829 23.965 11.2031 23.8657 11.2425 23.7736C11.282 23.6815 11.3398 23.5984 11.4125 23.5294C12.4968 22.379 13.8048 21.4623 15.2562 20.8358C16.7076 20.2093 18.2717 19.8861 19.8526 19.8861C21.4335 19.8861 22.9976 20.2093 24.449 20.8358C25.9004 21.4623 27.2084 22.379 28.2927 23.5294C28.391 23.634 28.4565 23.765 28.4813 23.9064C28.506 24.0478 28.4888 24.1933 28.4318 24.325C28.3748 24.4568 28.2805 24.5689 28.1606 24.6477C28.0406 24.7265 27.9002 24.7684 27.7566 24.7684L27.7574 24.7647Z" fill="#1A77A3"/>
<path d="M19.853 21.3566C18.9772 21.3566 18.1211 21.0969 17.393 20.6104C16.6648 20.1238 16.0972 19.4323 15.7621 18.6232C15.427 17.8141 15.3393 16.9238 15.5101 16.0648C15.681 15.2059 16.1027 14.4169 16.722 13.7976C17.3412 13.1784 18.1302 12.7567 18.9891 12.5858C19.8481 12.415 20.7384 12.5027 21.5475 12.8378C22.3566 13.1729 23.0481 13.7405 23.5347 14.4686C24.0212 15.1968 24.2809 16.0529 24.2809 16.9287C24.2794 18.1026 23.8124 19.2279 22.9823 20.058C22.1522 20.888 21.0269 21.3551 19.853 21.3566ZM19.853 13.9706C19.2681 13.9706 18.6963 14.144 18.21 14.469C17.7236 14.7939 17.3446 15.2558 17.1208 15.7962C16.8969 16.3366 16.8384 16.9312 16.9525 17.5049C17.0666 18.0786 17.3482 18.6055 17.7618 19.0191C18.1754 19.4327 18.7024 19.7144 19.276 19.8285C19.8497 19.9426 20.4443 19.884 20.9847 19.6602C21.5251 19.4363 21.987 19.0573 22.3119 18.571C22.6369 18.0846 22.8103 17.5128 22.8103 16.9279C22.8094 16.1439 22.4975 15.3923 21.9431 14.8379C21.3887 14.2834 20.637 13.9716 19.853 13.9706Z" fill="#1A77A3"/>
<path d="M33.0882 34.5588H6.61762C6.42261 34.5588 6.23558 34.4813 6.09769 34.3435C5.95979 34.2056 5.88232 34.0185 5.88232 33.8235C5.88232 33.6285 5.95979 33.4415 6.09769 33.3036C6.23558 33.1657 6.42261 33.0882 6.61762 33.0882H33.0882C33.2832 33.0882 33.4702 33.1657 33.6081 33.3036C33.746 33.4415 33.8235 33.6285 33.8235 33.8235C33.8235 34.0185 33.746 34.2056 33.6081 34.3435C33.4702 34.4813 33.2832 34.5588 33.0882 34.5588Z" fill="#1A77A3"/>
<path d="M33.0882 42.6471H6.61762C6.42261 42.6471 6.23558 42.5696 6.09769 42.4317C5.95979 42.2938 5.88232 42.1068 5.88232 41.9118C5.88232 41.7167 5.95979 41.5297 6.09769 41.3918C6.23558 41.2539 6.42261 41.1765 6.61762 41.1765H33.0882C33.2832 41.1765 33.4702 41.2539 33.6081 41.3918C33.746 41.5297 33.8235 41.7167 33.8235 41.9118C33.8235 42.1068 33.746 42.2938 33.6081 42.4317C33.4702 42.5696 33.2832 42.6471 33.0882 42.6471Z" fill="#1A77A3"/>
</svg>
