<svg width="19" height="18" viewBox="0 0 19 18" fill="none" xmlns="http://www.w3.org/2000/svg">
<path d="M13.9729 8.77202C12.8465 10.2101 11.1208 11.1208 9.13153 11.1208C7.19018 11.1208 5.4166 10.2101 4.29014 8.77202C1.67771 10.4258 0 13.3018 0 16.4895C0 17.3523 0.671083 17.9994 1.50994 17.9994H16.7292C17.592 18.0234 18.2631 17.3044 18.2631 16.4895C18.2631 13.3018 16.5853 10.4018 13.9729 8.77202Z" fill="white"/>
<path d="M13.9729 8.77202C12.8465 10.2101 11.1208 11.1208 9.13153 11.1208C7.19018 11.1208 5.4166 10.2101 4.29014 8.77202C1.67771 10.4258 0 13.3018 0 16.4895C0 17.3523 0.671083 17.9994 1.50994 17.9994H16.7292C17.592 18.0234 18.2631 17.3044 18.2631 16.4895C18.2631 13.3018 16.5853 10.4018 13.9729 8.77202Z" fill="#1A77A3"/>
<path d="M9.13159 0C6.39932 0 4.19434 2.22896 4.19434 4.93726C4.19434 7.66953 6.42329 9.87451 9.13159 9.87451C11.8399 9.87451 14.0688 7.69349 14.0688 4.93726C14.0688 2.18102 11.8639 0 9.13159 0Z" fill="white"/>
<path d="M9.13159 0C6.39932 0 4.19434 2.22896 4.19434 4.93726C4.19434 7.66953 6.42329 9.87451 9.13159 9.87451C11.8399 9.87451 14.0688 7.69349 14.0688 4.93726C14.0688 2.18102 11.8639 0 9.13159 0Z" fill="#1A77A3"/>
</svg>
