<svg width="18" height="18" viewBox="0 0 18 18" fill="none" xmlns="http://www.w3.org/2000/svg">
<path d="M17.9606 13.9467C17.9097 13.7933 17.5858 13.5673 16.9891 13.2693C16.8274 13.1753 16.5971 13.0477 16.2991 12.8857C16.0008 12.7237 15.73 12.5745 15.4873 12.4381C15.2441 12.3018 15.0162 12.1697 14.8033 12.042C14.7693 12.0165 14.6627 11.942 14.4838 11.8181C14.3046 11.6947 14.1535 11.603 14.0297 11.5432C13.9062 11.4838 13.7847 11.4539 13.6653 11.4539C13.4949 11.4539 13.2821 11.5754 13.0265 11.8181C12.7709 12.0612 12.5364 12.3252 12.3235 12.611C12.1105 12.8966 11.8846 13.1606 11.6462 13.4035C11.4075 13.6465 11.2113 13.7679 11.0581 13.7679C10.9811 13.7679 10.8852 13.7464 10.7703 13.7041C10.6554 13.6615 10.568 13.625 10.508 13.5956C10.4485 13.5656 10.3465 13.5061 10.2015 13.4163C10.0562 13.3268 9.97547 13.2778 9.95846 13.2693C8.79092 12.6214 7.78959 11.8799 6.95429 11.045C6.11925 10.2095 5.37767 9.20828 4.72998 8.0406C4.72147 8.02354 4.67235 7.94254 4.58294 7.79774C4.49338 7.6528 4.4337 7.55066 4.40388 7.49084C4.37406 7.43124 4.33783 7.34384 4.29529 7.22881C4.25276 7.11378 4.2314 7.01796 4.2314 6.94117C4.2314 6.78785 4.35288 6.59173 4.59579 6.35308C4.83865 6.11455 5.10292 5.88861 5.38833 5.6757C5.67395 5.46279 5.93796 5.22834 6.18091 4.97276C6.42378 4.71704 6.54521 4.50409 6.54521 4.33367C6.54521 4.21443 6.51539 4.09286 6.45579 3.96932C6.39615 3.84552 6.30454 3.69444 6.18091 3.51538C6.05724 3.33641 5.98269 3.22998 5.95707 3.19572C5.82937 2.98281 5.69742 2.75486 5.56089 2.51195C5.42437 2.26908 5.27536 1.99836 5.11336 1.70011C4.95149 1.40199 4.82374 1.17179 4.72989 1.00988C4.43177 0.413419 4.20597 0.0894181 4.05252 0.0384628C3.99283 0.0128956 3.90328 0 3.78408 0C3.55384 0 3.25349 0.0425374 2.88278 0.127881C2.51195 0.21309 2.22014 0.302463 2.00705 0.396359C1.58091 0.57524 1.12926 1.09509 0.651942 1.95574C0.217299 2.75669 0 3.54946 0 4.33344C0 4.56337 0.0149105 4.78707 0.0447315 5.00459C0.0745524 5.22189 0.127836 5.46695 0.204627 5.73973C0.281284 6.01242 0.34312 6.21499 0.389867 6.3469C0.436658 6.4789 0.524016 6.71536 0.651897 7.05638C0.779599 7.3973 0.85639 7.606 0.881957 7.68271C1.18021 8.51796 1.5339 9.26362 1.94293 9.91991C2.61592 11.0107 3.53432 12.1381 4.69761 13.3015C5.86094 14.4647 6.98805 15.3831 8.07898 16.0564C8.73517 16.4653 9.4811 16.819 10.3162 17.1175C10.393 17.1429 10.6017 17.2195 10.9425 17.3477C11.2834 17.4754 11.5199 17.5628 11.6519 17.6097C11.784 17.6566 11.9866 17.7185 12.2591 17.7953C12.5321 17.8721 12.7769 17.9254 12.9942 17.9554C13.2117 17.9848 13.4354 18 13.6654 18C14.4493 18 15.2421 17.7826 16.0432 17.348C16.9038 16.8708 17.4235 16.4191 17.6025 15.9926C17.6966 15.7798 17.7857 15.4879 17.871 15.117C17.9564 14.7464 17.9989 14.4461 17.9989 14.2159C17.9991 14.0962 17.9863 14.0069 17.9606 13.9467Z" fill="#1A77A3"/>
</svg>
