<svg width="50" height="50" viewBox="0 0 50 50" fill="none" xmlns="http://www.w3.org/2000/svg">
<path d="M25 0C11.1928 0 0 11.1928 0 25C0 38.8072 11.1928 50 25 50C38.8072 50 50 38.8072 50 25C49.984 11.1995 38.8005 0.0160282 25 0ZM25 48.3871C12.0837 48.3871 1.6129 37.9163 1.6129 25C1.6129 12.0837 12.0837 1.6129 25 1.6129C37.9163 1.6129 48.3871 12.0837 48.3871 25C48.3729 37.9105 37.9105 48.3729 25 48.3871Z" fill="#1A77A3"/>
<path d="M34.5623 14.2342C32.9261 10.6101 29.3806 8.22358 25.4072 8.07177C19.6216 7.84687 14.749 12.3547 14.524 18.1404C14.5187 18.2764 14.5161 18.4124 14.5161 18.5484C14.5161 18.9937 14.8772 19.3548 15.3226 19.3548C15.7679 19.3548 16.129 18.9937 16.129 18.5484C16.1288 13.6491 20.1004 9.67731 24.9997 9.67711C25.1151 9.67711 25.2306 9.67933 25.346 9.68387C29.945 9.92953 33.6188 13.6033 33.8645 18.2024C34.0123 21.8127 31.9503 25.1503 28.6556 26.6339C25.9692 27.7806 24.2174 30.4099 24.1935 33.3306V35.4839C24.1935 35.9292 24.5546 36.2903 25 36.2903C25.4453 36.2903 25.8064 35.9292 25.8064 35.4839V33.3306C25.8351 31.0446 27.2147 28.9924 29.321 28.1032C34.5982 25.7208 36.9448 19.5114 34.5623 14.2342Z" fill="#1A77A3"/>
<path d="M25 37.9032C23.2184 37.9032 21.7742 39.3475 21.7742 41.129C21.7742 42.9106 23.2184 44.3548 25 44.3548C26.7815 44.3548 28.2258 42.9106 28.2258 41.129C28.2258 39.3475 26.7815 37.9032 25 37.9032ZM25 42.7419C24.1091 42.7419 23.3871 42.0199 23.3871 41.129C23.3871 40.2382 24.1091 39.5161 25 39.5161C25.8908 39.5161 26.6129 40.2382 26.6129 41.129C26.6129 42.0199 25.8908 42.7419 25 42.7419Z" fill="#1A77A3"/>
</svg>
