<svg width="13" height="18" viewBox="0 0 13 18" fill="none" xmlns="http://www.w3.org/2000/svg">
<path d="M6.37499 0C2.85975 0 0 2.85975 0 6.37499C0 9.77548 5.82824 17.523 6.07651 17.8515C6.14626 17.9453 6.25802 18 6.37502 18C6.49202 18 6.60379 17.9453 6.67354 17.8515C6.92177 17.523 12.75 9.77551 12.75 6.37499C12.75 2.85975 9.89023 0 6.37499 0ZM6.37499 9.74999C4.51424 9.74999 2.99999 8.23574 2.99999 6.37499C2.99999 4.51424 4.51424 2.99999 6.37499 2.99999C8.23574 2.99999 9.74999 4.51424 9.74999 6.37499C9.74999 8.23574 8.23574 9.74999 6.37499 9.74999Z" fill="#1A77A3"/>
</svg>
