<svg width="34" height="50" viewBox="0 0 34 50" fill="none" xmlns="http://www.w3.org/2000/svg">
<path d="M16.8136 0C7.54258 0 9.76563e-05 7.54248 0 16.8136C0 25.7893 15.4563 48.6602 16.1142 49.6294C16.2715 49.8612 16.5334 50 16.8136 50C17.0937 50 17.3558 49.8611 17.513 49.6294C18.171 48.6603 33.6271 25.7893 33.6271 16.8136C33.6271 7.54248 26.0847 0 16.8136 0ZM16.8137 47.6299C13.7507 42.9877 1.69072 24.2363 1.69072 16.8136C1.69072 8.4748 8.47471 1.69063 16.8136 1.69063C25.1524 1.69063 31.9365 8.4748 31.9366 16.8136C31.9366 24.2362 19.8767 42.9876 16.8137 47.6299Z" fill="#1A77A3"/>
<path d="M16.8138 5.93835C10.8172 5.93835 5.9386 10.817 5.9386 16.8136C5.9386 22.8101 10.8172 27.6888 16.8138 27.6888C22.8105 27.6888 27.689 22.8102 27.689 16.8136C27.689 10.8171 22.8104 5.93835 16.8138 5.93835ZM16.8138 25.9981C11.7493 25.9981 7.62922 21.878 7.62922 16.8136C7.62922 11.7491 11.7493 7.62898 16.8138 7.62898C21.8783 7.62898 25.9984 11.7491 25.9984 16.8136C25.9984 21.878 21.8782 25.9981 16.8138 25.9981Z" fill="#1A77A3"/>
</svg>
