<svg width="51" height="50" viewBox="0 0 51 50" fill="none" xmlns="http://www.w3.org/2000/svg">
<path d="M48.6914 38.5733L38.5705 31.8238C37.2862 30.9742 35.5645 31.2537 34.615 32.4663L31.6669 36.2568C31.288 36.7564 30.5993 36.9013 30.0512 36.5968L29.4904 36.2876C27.6313 35.2743 25.3182 34.0128 20.6578 29.3507C15.9973 24.6885 14.7332 22.3737 13.7199 20.5181L13.4124 19.9573C13.1037 19.4093 13.2459 18.7176 13.7457 18.3357L17.5337 15.3885C18.7457 14.4388 19.0257 12.7177 18.177 11.4329L11.4275 1.31201C10.5577 0.00371644 8.81277 -0.389027 7.46629 0.420383L3.23409 2.96267C1.90431 3.74444 0.928706 5.01056 0.511843 6.4957C-1.01216 12.0486 0.134333 21.632 14.2516 35.751C25.4816 46.9801 33.8418 49.9999 39.588 49.9999C40.9105 50.0055 42.2278 49.8335 43.5044 49.4883C44.9899 49.0719 46.2562 48.0962 47.0375 46.766L49.5823 42.5364C50.3929 41.1896 50.0003 39.4435 48.6914 38.5733ZM48.1465 41.6814L45.6075 45.9136C45.0465 46.8736 44.1357 47.5795 43.066 47.8834C37.9397 49.2908 28.9838 48.1251 15.4306 34.5719C1.87746 21.0188 0.711828 12.0636 2.11924 6.93658C2.42351 5.86557 3.13029 4.95363 4.09155 4.39176L8.32374 1.85279C8.90797 1.50126 9.66534 1.67165 10.0427 2.23938L13.7092 7.74394L16.7865 12.3594C17.155 12.9167 17.0339 13.6636 16.5082 14.076L12.7193 17.0232C11.5663 17.9049 11.237 19.5002 11.9469 20.7663L12.2478 21.3129C13.3127 23.2661 14.6367 25.6959 19.4705 30.5289C24.3043 35.3618 26.7334 36.6859 28.6856 37.7508L29.2331 38.0524C30.4991 38.7622 32.0945 38.4331 32.9761 37.28L35.9234 33.4912C36.3358 32.9657 37.0825 32.8447 37.6399 33.2129L47.76 39.9624C48.3281 40.3395 48.4985 41.0972 48.1465 41.6814Z" fill="#1A77A3"/>
<path d="M28.3336 8.33649C36.1534 8.34518 42.4904 14.6823 42.4992 22.5021C42.4992 22.9623 42.8722 23.3353 43.3324 23.3353C43.7927 23.3353 44.1657 22.9623 44.1657 22.5021C44.156 13.7622 37.0735 6.67958 28.3336 6.67001C27.8734 6.67001 27.5004 7.04303 27.5004 7.50325C27.5004 7.96347 27.8734 8.33649 28.3336 8.33649Z" fill="#1A77A3"/>
<path d="M28.3336 13.3361C33.3934 13.342 37.4936 17.4423 37.4996 22.5021C37.4996 22.9623 37.8727 23.3353 38.3328 23.3353C38.7931 23.3353 39.1661 22.9623 39.1661 22.5021C39.1591 16.5223 34.3133 11.6764 28.3336 11.6696C27.8734 11.6696 27.5004 12.0426 27.5004 12.5028C27.5004 12.9631 27.8734 13.3361 28.3336 13.3361Z" fill="#1A77A3"/>
<path d="M28.3336 18.3357C30.6334 18.3384 32.4972 20.2022 32.5 22.5021C32.5 22.9623 32.8731 23.3353 33.3332 23.3353C33.7933 23.3353 34.1665 22.9623 34.1665 22.5021C34.1627 19.2822 31.5535 16.6728 28.3336 16.6692C27.8734 16.6692 27.5004 17.0422 27.5004 17.5025C27.5004 17.9627 27.8734 18.3357 28.3336 18.3357Z" fill="#1A77A3"/>
</svg>
