<svg width="60" height="52" viewBox="0 0 60 52" fill="none" xmlns="http://www.w3.org/2000/svg">
<path d="M53.6183 0H5.98825C2.68637 0 0 2.68626 0 5.98825V37.907C0 41.2089 2.68637 43.8951 5.98825 43.8951H20.917L28.4692 51.4474C28.8256 51.8038 29.2993 52 29.8034 52C30.3075 52 30.7812 51.8037 31.1376 51.4474L38.9609 43.624C39.3224 43.2625 39.3224 42.6765 38.9609 42.3151C38.5993 41.9536 38.0134 41.9536 37.6519 42.3151L29.8286 50.1385C29.8252 50.1418 29.8182 50.1488 29.8035 50.1488C29.7889 50.1488 29.7819 50.1418 29.7785 50.1383L21.9551 42.315C21.7814 42.1414 21.5462 42.0438 21.3006 42.0438H5.98825C3.70702 42.0438 1.85118 40.188 1.85118 37.9068V5.98825C1.85118 3.70713 3.70702 1.85118 5.98825 1.85118H53.6183C55.8996 1.85118 57.7554 3.70713 57.7554 5.98825V37.907C57.7554 40.1881 55.8996 42.0441 53.6183 42.0441H38.4125C37.9013 42.0441 37.487 42.4585 37.487 42.9696C37.487 43.4807 37.9013 43.8951 38.4125 43.8951H53.6183C56.9202 43.8951 59.6066 41.2089 59.6066 37.907V5.98825C59.6066 2.68626 56.9202 0 53.6183 0Z" fill="#1A77A3"/>
<path d="M52.6108 8.47672H10.139C9.62784 8.47672 9.2135 8.89117 9.2135 9.40225C9.2135 9.91333 9.62784 10.3278 10.139 10.3278H52.6108C53.122 10.3278 53.5364 9.91333 53.5364 9.40225C53.5364 8.89117 53.122 8.47672 52.6108 8.47672Z" fill="#1A77A3"/>
<path d="M52.6108 16.2557H10.139C9.62784 16.2557 9.2135 16.6702 9.2135 17.1812C9.2135 17.6923 9.62784 18.1068 10.139 18.1068H52.6108C53.122 18.1068 53.5364 17.6923 53.5364 17.1812C53.5364 16.6702 53.122 16.2557 52.6108 16.2557Z" fill="#1A77A3"/>
<path d="M52.6108 24.0347H10.139C9.62784 24.0347 9.2135 24.4492 9.2135 24.9603C9.2135 25.4715 9.62784 25.8858 10.139 25.8858H52.6108C53.122 25.8858 53.5364 25.4715 53.5364 24.9603C53.5364 24.4491 53.122 24.0347 52.6108 24.0347Z" fill="#1A77A3"/>
<path d="M37.0662 31.8136H10.139C9.62784 31.8136 9.2135 32.2281 9.2135 32.7392C9.2135 33.2504 9.62784 33.6647 10.139 33.6647H37.0662C37.5774 33.6647 37.9917 33.2502 37.9917 32.7392C37.9917 32.228 37.5774 31.8136 37.0662 31.8136Z" fill="#1A77A3"/>
</svg>
