<svg width="64" height="52" viewBox="0 0 64 52" fill="none" xmlns="http://www.w3.org/2000/svg">
<path d="M28.4661 12.8613C27.9243 10.2611 25.8133 8.15015 23.2132 7.60828C21.1396 7.17609 19.024 7.68099 17.4095 8.99351C15.795 10.3063 14.869 12.2514 14.869 14.3303C14.869 14.8425 15.2843 15.2577 15.7965 15.2577C16.3087 15.2577 16.7239 14.8425 16.7239 14.3303C16.7239 12.8122 17.4003 11.3916 18.5797 10.4328C19.7589 9.47393 21.3098 9.10629 22.8347 9.42422C24.7232 9.81783 26.2566 11.3512 26.6502 13.2397C27.1996 15.8759 25.6899 18.4187 23.1384 19.1546C21.7497 19.5552 20.8167 20.7571 20.8167 22.1457C20.8167 22.6579 21.2319 23.0732 21.7441 23.0732C22.2563 23.0732 22.6716 22.6579 22.6716 22.1457C22.6716 21.5918 23.0658 21.1061 23.6524 20.9369C27.1462 19.9294 29.2156 16.4576 28.4661 12.8613Z" fill="#1A77A3"/>
<path d="M21.7443 25.298H21.7335C21.2213 25.298 20.8114 25.7133 20.8114 26.2255C20.8114 26.7377 21.2321 27.1529 21.7443 27.1529C22.2565 27.1529 22.6717 26.7377 22.6717 26.2255C22.6717 25.7133 22.2565 25.298 21.7443 25.298Z" fill="#1A77A3"/>
<path d="M39.587 0H3.90121C1.75003 0 0 1.75003 0 3.90121V29.6742C0 31.8254 1.75003 33.5754 3.90121 33.5754H7.93017V40.1676C7.93017 40.9464 8.39513 41.6423 9.11471 41.9403C9.35349 42.0392 9.60341 42.0873 9.85098 42.0873C10.3493 42.0873 10.8378 41.8923 11.2058 41.5244L19.1546 33.5756H39.5872C41.7382 33.5756 43.4883 31.8255 43.4883 29.6744V3.90121C43.4883 1.75003 41.7382 0 39.587 0ZM41.6334 29.6742C41.6334 30.8026 40.7154 31.7206 39.587 31.7206H18.7704V31.7207C18.5245 31.7207 18.2885 31.8184 18.1147 31.9924L9.89401 40.2129C9.87843 40.2283 9.86371 40.2431 9.82439 40.2267C9.78494 40.2104 9.78494 40.1896 9.78494 40.1677V32.6481C9.78494 32.1359 9.36969 31.7207 8.85749 31.7207H3.90121C2.77282 31.7207 1.85489 30.8027 1.85489 29.6744V3.90121C1.85489 2.77282 2.77282 1.85489 3.90121 1.85489H39.587C40.7154 1.85489 41.6334 2.77282 41.6334 3.90121V29.6742Z" fill="#1A77A3"/>
<path d="M59.4127 9.91266H46.5262C46.014 9.91266 45.5987 10.3279 45.5987 10.8401C45.5987 11.3523 46.014 11.7676 46.5262 11.7676H59.4127C60.5411 11.7676 61.459 12.6855 61.459 13.8139V39.5869C61.459 40.7153 60.5411 41.6332 59.4127 41.6332H54.4563C53.9441 41.6332 53.5289 42.0485 53.5289 42.5607V50.0803C53.5289 50.1022 53.5289 50.1229 53.4894 50.1393C53.45 50.1553 53.4353 50.1408 53.4198 50.1254L45.1993 41.9049C45.0254 41.7309 44.7895 41.6332 44.5435 41.6332H23.7269C22.5985 41.6332 21.6806 40.7153 21.6806 39.5869V36.613C21.6806 36.1008 21.2653 35.6856 20.7531 35.6856C20.2409 35.6856 19.8257 36.1008 19.8257 36.613V39.5869C19.8257 41.7381 21.5757 43.4881 23.7269 43.4881H44.1594L52.1083 51.4369C52.4763 51.805 52.9647 52 53.4631 52C53.7105 52 53.9606 51.9519 54.1994 51.8529C54.9189 51.5549 55.3839 50.8591 55.3839 50.0803V43.4881H59.4128C61.564 43.4881 63.3141 41.7381 63.3141 39.5869V13.814C63.3139 11.6628 61.5639 9.91266 59.4127 9.91266Z" fill="#1A77A3"/>
</svg>
