<svg width="53" height="52" viewBox="0 0 53 52" fill="none" xmlns="http://www.w3.org/2000/svg">
<path d="M50.6391 40.1162L40.1134 33.0968C38.7776 32.2131 36.9871 32.5039 35.9996 33.7649L32.9335 37.7071C32.5395 38.2266 31.8232 38.3773 31.2532 38.0607L30.67 37.7391C28.7366 36.6853 26.331 35.3733 21.4841 30.5247C16.6372 25.6761 15.3225 23.2686 14.2687 21.3388L13.9489 20.7555C13.6279 20.1856 13.7758 19.4663 14.2955 19.0691L18.235 16.004C19.4955 15.0164 19.7867 13.2264 18.9041 11.8902L11.8846 1.36449C10.9801 0.00386509 9.16528 -0.404588 7.76494 0.437199L3.36346 3.08117C1.98049 3.89422 0.965854 5.21098 0.532317 6.75552C-1.05265 12.5305 0.139706 22.4973 14.8217 37.181C26.5009 48.8593 35.1955 51.9999 41.1716 51.9999C42.5469 52.0057 43.9169 51.8268 45.2446 51.4678C46.7895 51.0348 48.1064 50.02 48.919 48.6367L51.5656 44.2378C52.4086 42.8372 52.0003 41.0213 50.6391 40.1162ZM50.0723 43.3486L47.4318 47.7501C46.8484 48.7486 45.9012 49.4827 44.7886 49.7988C39.4573 51.2625 30.1431 50.0501 16.0478 35.9548C1.95256 21.8595 0.740301 12.5462 2.20401 7.21404C2.52045 6.10019 3.25551 5.15177 4.25521 4.56743L8.65669 1.9269C9.26429 1.56131 10.052 1.73852 10.4445 2.32896L14.2575 8.0537L17.4579 12.8538C17.8412 13.4334 17.7153 14.2101 17.1685 14.639L13.2281 17.7041C12.0289 18.6211 11.6865 20.2802 12.4248 21.5969L12.7377 22.1654C13.8452 24.1967 15.2222 26.7237 20.2494 31.7501C25.2765 36.7763 27.8027 38.1534 29.8331 39.2608L30.4024 39.5745C31.719 40.3127 33.3783 39.9704 34.2952 38.7712L37.3603 34.8308C37.7893 34.2844 38.5658 34.1585 39.1455 34.5414L49.6704 41.5608C50.2612 41.9531 50.4384 42.7411 50.0723 43.3486Z" fill="#1A77A3"/>
<path d="M29.467 8.66993C37.5996 8.67897 44.1901 15.2696 44.1993 23.4022C44.1993 23.8808 44.5872 24.2687 45.0658 24.2687C45.5445 24.2687 45.9324 23.8808 45.9324 23.4022C45.9223 14.3127 38.5565 6.94675 29.467 6.9368C28.9884 6.9368 28.6005 7.32474 28.6005 7.80336C28.6005 8.28199 28.9884 8.66993 29.467 8.66993Z" fill="#1A77A3"/>
<path d="M29.467 13.8695C34.7292 13.8757 38.9935 18.14 38.9997 23.4022C38.9997 23.8808 39.3877 24.2687 39.8662 24.2687C40.3449 24.2687 40.7328 23.8808 40.7328 23.4022C40.7256 17.1832 35.6859 12.1435 29.467 12.1364C28.9884 12.1364 28.6005 12.5244 28.6005 13.003C28.6005 13.4816 28.9884 13.8695 29.467 13.8695Z" fill="#1A77A3"/>
<path d="M29.467 19.0691C31.8588 19.0719 33.7971 21.0102 33.8001 23.4021C33.8001 23.8808 34.1881 24.2687 34.6666 24.2687C35.1452 24.2687 35.5332 23.8808 35.5332 23.4021C35.5293 20.0535 32.8157 17.3397 29.467 17.336C28.9884 17.336 28.6005 17.7239 28.6005 18.2025C28.6005 18.6812 28.9884 19.0691 29.467 19.0691Z" fill="#1A77A3"/>
</svg>
