<svg width="52" height="52" viewBox="0 0 52 52" fill="none" xmlns="http://www.w3.org/2000/svg">
<path d="M26 0C11.6406 0 0 11.6406 0 26C0 40.3594 11.6406 52 26 52C40.3594 52 52 40.3594 52 26C51.9833 11.6475 40.3525 0.0166694 26 0ZM26 50.3226C12.567 50.3226 1.67742 39.433 1.67742 26C1.67742 12.567 12.567 1.67742 26 1.67742C39.433 1.67742 50.3226 12.567 50.3226 26C50.3078 39.4269 39.4269 50.3078 26 50.3226Z" fill="#1A77A3"/>
<path d="M38.8264 16.6006L21.8065 33.6205L13.1737 24.9877C12.8405 24.6658 12.3096 24.675 11.9877 25.0082C11.6738 25.3332 11.6738 25.8485 11.9877 26.1736L21.2135 35.3994C21.5411 35.7268 22.072 35.7268 22.3995 35.3994L40.0124 17.7865C40.3342 17.4533 40.325 16.9224 39.9918 16.6006C39.6667 16.2867 39.1514 16.2867 38.8264 16.6006Z" fill="#1A77A3"/>
</svg>
