<svg width="52" height="52" viewBox="0 0 52 52" fill="none" xmlns="http://www.w3.org/2000/svg">
<path d="M35.5331 32.9331C44.6273 32.9331 51.9996 25.5608 51.9996 16.4665C51.9996 7.37232 44.6273 0 35.5331 0C26.4389 0 19.0665 7.37232 19.0665 16.4665C19.0766 25.5566 26.443 32.9231 35.5331 32.9331ZM35.5331 1.73332C43.67 1.73332 50.2663 8.32961 50.2663 16.4665C50.2663 24.6035 43.67 31.1998 35.5331 31.1998C27.3961 31.1998 20.7998 24.6035 20.7998 16.4665C20.8089 8.33337 27.3999 1.7424 35.5331 1.73332Z" fill="#1A77A3"/>
<path d="M3.67897 41.3683C3.22597 42.9714 3.50571 44.6927 4.44303 46.0699C5.38034 47.447 6.87911 48.3387 8.5366 48.5053C9.63353 50.6123 11.7935 51.9522 14.1685 51.9988C16.5436 52.0454 18.7545 50.7913 19.9332 48.7289C21.1119 50.7913 23.3228 52.0454 25.6978 51.9988C28.0728 51.9522 30.2328 50.6123 31.3298 48.5053C32.9873 48.3387 34.486 47.447 35.4233 46.0699C36.3607 44.6927 36.6404 42.9714 36.1874 41.3683C38.3683 40.6948 39.8585 38.6822 39.8664 36.3997C39.8698 35.9199 39.8015 35.4423 39.6636 34.9828C39.5221 34.5252 39.0365 34.2689 38.5789 34.4103C38.1214 34.5518 37.8651 35.0374 38.0065 35.495C38.0934 35.7886 38.1361 36.0935 38.133 36.3997C38.1278 38.2082 36.7354 39.7099 34.9325 39.8517C34.6401 39.8731 34.3785 40.041 34.237 40.2977C34.0955 40.5544 34.0934 40.8653 34.2313 41.1239C34.5191 41.6715 34.6685 42.2811 34.6664 42.8997C34.664 45.0526 32.9193 46.7973 30.7664 46.7997C30.4167 46.7996 30.1012 47.0099 29.9665 47.3327C29.0471 49.5397 26.635 50.7241 24.3265 50.1022C22.018 49.4803 20.5273 47.2444 20.841 44.8743C21.1547 42.5041 23.1756 40.733 25.5665 40.733C26.0451 40.733 26.4331 40.345 26.4331 39.8664C26.4331 39.3877 26.0451 38.9997 25.5665 38.9997C23.7544 39.0006 22.0255 39.7606 20.7998 41.0953V27.4038C20.7998 26.9252 20.4118 26.5371 19.9332 26.5371C19.4545 26.5371 19.0665 26.9252 19.0665 27.4038V45.4997C19.0664 47.7718 17.4626 49.7281 15.2345 50.1736C13.0065 50.6191 10.7737 49.4301 9.89986 47.3327C9.7652 47.0099 9.4497 46.7996 9.09993 46.7997C6.94703 46.7973 5.20235 45.0526 5.19996 42.8997C5.19736 42.2813 5.34613 41.6716 5.63329 41.1239C5.77127 40.8653 5.76915 40.5544 5.62767 40.2977C5.48619 40.041 5.22451 39.8731 4.93216 39.8517C3.12991 39.7091 1.73852 38.2076 1.73332 36.3997C1.73318 35.5895 2.01994 34.8053 2.54278 34.1863C3.67613 35.0614 5.06809 35.5351 6.49995 35.5331C6.9786 35.5331 7.36661 35.1451 7.36661 34.6664C7.36661 34.1878 6.9786 33.7998 6.49995 33.7998C4.51459 33.7994 2.73738 32.5684 2.03896 30.71C1.34055 28.8515 1.8672 26.7547 3.36091 25.4469C3.59078 25.2157 3.69053 24.8853 3.62697 24.5655C3.5214 24.1859 3.46747 23.7938 3.46664 23.3998C3.46664 21.0066 5.40673 19.0665 7.79994 19.0665C10.1932 19.0665 12.1332 21.0066 12.1332 23.3998C12.1332 23.8785 12.5213 24.2665 12.9999 24.2665C13.4785 24.2665 13.8666 23.8785 13.8666 23.3998C13.8626 20.1681 11.3259 17.5068 8.09807 17.3479C7.7248 16.5707 7.69995 15.6713 8.02974 14.8746C8.35953 14.078 9.01278 13.4593 9.82619 13.1732C10.1486 13.0549 10.4898 12.9962 10.8333 12.9999C11.6377 12.9999 12.4093 13.3195 12.9781 13.8884C13.547 14.4572 13.8666 15.2287 13.8666 16.0332C13.8666 16.5119 14.2546 16.8999 14.7332 16.8999C15.2119 16.8999 15.5999 16.5119 15.5999 16.0332C15.5967 13.983 14.2842 12.1639 12.3395 11.5145C15.4292 9.64854 16.9935 9.65547 17.7024 9.88254C18.0017 9.99401 18.3381 9.93181 18.5778 9.72067C18.8174 9.50953 18.9215 9.18369 18.8487 8.8727C18.7758 8.56172 18.5378 8.31601 18.2293 8.23328C16.1199 7.55815 13.123 8.66661 9.0774 11.6185C6.72682 12.5349 5.50975 15.1353 6.31189 17.5273C3.19097 18.2772 1.22015 21.3589 1.84859 24.5066C-0.398916 26.8007 -0.623608 30.3961 1.32079 32.9522C0.469705 33.8987 -0.000799791 35.1268 1.02057e-06 36.3997C0.00790681 38.6822 1.49811 40.6948 3.67897 41.3683Z" fill="#1A77A3"/>
<path d="M16.2932 26.3369C15.9548 25.9986 15.4062 25.9986 15.0677 26.3369C13.7043 27.6983 11.6553 28.1049 9.87531 27.3673C8.09532 26.6298 6.93438 24.8932 6.93327 22.9665C6.93327 22.4878 6.54525 22.0998 6.06661 22.0998C5.58797 22.0998 5.19995 22.4878 5.19995 22.9665C5.20537 25.9679 7.26299 28.5761 10.1806 29.2801C9.76782 30.3218 8.81589 31.0523 7.70287 31.1816C7.24498 31.2319 6.9065 31.6317 6.93234 32.0916C6.95817 32.5515 7.33928 32.9109 7.79993 32.9097C7.83178 32.9096 7.8636 32.9079 7.89526 32.9045C9.82387 32.6831 11.4286 31.3206 11.9599 29.4534C13.5921 29.3943 15.141 28.7175 16.2932 27.5598C16.6298 27.2217 16.6298 26.6751 16.2932 26.3369Z" fill="#1A77A3"/>
<path d="M15.5999 35.5331C16.0785 35.5331 16.4665 35.145 16.4665 34.6664C16.4665 34.1878 16.0785 33.7997 15.5999 33.7997C12.251 33.8036 9.53707 36.5174 9.53325 39.8664C9.53325 39.8898 9.53758 39.9132 9.53758 39.9366C9.24934 39.8921 8.95824 39.8686 8.66659 39.8664C8.18794 39.8664 7.79993 40.2544 7.79993 40.733C7.79993 41.2117 8.18794 41.5997 8.66659 41.5997C11.0586 41.6026 12.997 43.541 12.9999 45.933C12.9999 46.4116 13.3879 46.7996 13.8665 46.7996C14.3452 46.7996 14.7332 46.4116 14.7332 45.933C14.73 43.6129 13.4038 41.4978 11.3168 40.4843C11.285 40.2798 11.2682 40.0733 11.2666 39.8664C11.2694 37.4743 13.2078 35.5359 15.5999 35.5331Z" fill="#1A77A3"/>
<path d="M25.9998 46.7997C25.9998 47.2783 26.3878 47.6663 26.8665 47.6663C27.3451 47.6663 27.7331 47.2783 27.7331 46.7997C27.736 44.4076 29.6744 42.4692 32.0664 42.4664C32.5451 42.4664 32.9331 42.0783 32.9331 41.5997C32.9331 41.1211 32.5451 40.733 32.0664 40.733C31.7748 40.7353 31.4837 40.7587 31.1954 40.8032C31.1954 40.7798 31.1998 40.7564 31.1998 40.733C31.1959 37.3841 28.4821 34.6702 25.1331 34.6664C24.6545 34.6664 24.2665 35.0544 24.2665 35.5331C24.2665 36.0117 24.6545 36.3997 25.1331 36.3997C27.5252 36.4026 29.4636 38.341 29.4664 40.733C29.4648 40.94 29.448 41.1465 29.4162 41.351C27.3292 42.3645 26.003 44.4796 25.9998 46.7997Z" fill="#1A77A3"/>
<path d="M29.4664 12.1333C29.945 12.1333 30.3331 11.7452 30.3331 11.2666C30.3331 8.39474 32.6612 6.06663 35.533 6.06663C38.4049 6.06663 40.733 8.39474 40.733 11.2666C40.733 13.7028 39.1964 14.7887 37.5705 15.9396C36.1397 16.9484 34.6664 17.9927 34.6664 19.9332V21.6665C34.6664 22.1452 35.0544 22.5332 35.533 22.5332C36.0117 22.5332 36.3997 22.1452 36.3997 21.6665V19.9332C36.3997 18.94 37.2247 18.3065 38.5707 17.354C40.3066 16.1268 42.4663 14.5998 42.4663 11.2666C42.4663 7.43745 39.3622 4.33331 35.533 4.33331C31.7039 4.33331 28.5997 7.43745 28.5997 11.2666C28.5997 11.4964 28.691 11.7169 28.8536 11.8794C29.0161 12.0419 29.2365 12.1333 29.4664 12.1333Z" fill="#1A77A3"/>
<path d="M35.5331 23.3998C34.0972 23.3998 32.9331 24.5639 32.9331 25.9998C32.9331 27.4358 34.0972 28.5998 35.5331 28.5998C36.969 28.5998 38.1331 27.4358 38.1331 25.9998C38.1331 24.5639 36.969 23.3998 35.5331 23.3998ZM35.5331 26.8665C35.0544 26.8665 34.6664 26.4785 34.6664 25.9998C34.6664 25.5212 35.0544 25.1332 35.5331 25.1332C36.0117 25.1332 36.3997 25.5212 36.3997 25.9998C36.3997 26.4785 36.0117 26.8665 35.5331 26.8665Z" fill="#1A77A3"/>
</svg>
