<svg width="13" height="18" viewBox="0 0 13 18" fill="none" xmlns="http://www.w3.org/2000/svg">
<path d="M6.05289 0C2.71533 0 3.51563e-05 2.71529 0 6.05289C0 9.28413 5.56425 17.5177 5.8011 17.8666C5.85773 17.95 5.95202 18 6.05289 18C6.15371 18 6.24807 17.95 6.30467 17.8666C6.54156 17.5177 12.1058 9.28413 12.1058 6.05289C12.1058 2.71529 9.39048 0 6.05289 0ZM6.05292 17.1468C4.95025 15.4756 0.60866 8.72508 0.60866 6.05289C0.60866 3.05093 3.05089 0.608625 6.05289 0.608625C9.05488 0.608625 11.4971 3.05093 11.4972 6.05289C11.4972 8.72504 7.1556 15.4755 6.05292 17.1468Z" fill="black"/>
<path d="M6.05295 2.13782C3.89418 2.13782 2.13788 3.89412 2.13788 6.05289C2.13788 8.21166 3.89418 9.96799 6.05295 9.96799C8.21175 9.96799 9.96802 8.21169 9.96802 6.05292C9.96802 3.89415 8.21172 2.13782 6.05295 2.13782ZM6.05295 9.35933C4.22975 9.35933 2.7465 7.87609 2.7465 6.05289C2.7465 4.22968 4.22975 2.74644 6.05295 2.74644C7.87619 2.74644 9.35939 4.22968 9.35939 6.05289C9.35939 7.87609 7.87615 9.35933 6.05295 9.35933Z" fill="black"/>
</svg>
